<?xml version="1.0" encoding="UTF-8"?>
<svg version="1.1" xmlns="http://www.w3.org/2000/svg" viewBox="0 0 1500 1500" width="1500" height="1500" x="0px"
     y="0px">
              
              <!-- ITEM 0 -->
<g transform="translate(538.0 260.0) rotate(0.0 375.0 375.0) scale(7.5 7.5)">
<g transform="translate(-0.0 -0.0)">
<g clip-path="url(#clipPathId-collage-item-0)">
		<defs>
			<clipPath id="clipPathId-collage-item-0">
				<rect x="0.0" y="0.0" width="100.0" height="100.0"/>
			</clipPath>
		</defs>

<circle fill="#e6ecfd" cx="50" cy="50" r="50"/>

</g>
</g>
</g>

<!-- ITEM 1 -->
<g transform="translate(941.0 445.0) rotate(0.0 135.5 473.0) scale(1.8951048951048952 1.892)">
<g transform="translate(-0.0 -0.0)">
<g clip-path="url(#clipPathId-collage-item-1)">
		<defs>
			<clipPath id="clipPathId-collage-item-1">
				<rect x="0.0" y="0.0" width="143.0" height="500.0"/>
			</clipPath>
		</defs>

<path fill="#E94A47" d="M12.955,167.529c1.334-5.344,3.617-10.397,5.888-15.419c1.114-2.464,2.23-4.927,3.345-7.391  c0.393-0.87,0.815-1.777,1.575-2.361c0.663-0.511,1.51-0.716,2.332-0.878c9.247-1.83,19.194,0.136,27.035,5.344  c-2.643,14.501-1.264,29.707,3.946,43.503c-13.993,5.913-29.041,9.343-44.226,10.082C11.559,189.461,10.286,178.228,12.955,167.529z  "/>
<path fill="#D62929" d="M43.901,473.833c8.439-1.606,35.64-0.908,35.64-0.908s7.236,16.254,7.151,26.957  c-12.586,0.017-25.173,0.033-37.759,0.051c-21.153,0.028-26.156,0.227-48.492-0.227c-0.475-4.994,9.539-14.164,27.798-18.446  C32.273,480.312,39.827,474.608,43.901,473.833z"/>
<path fill="#151A4F" d="M46.827,268.953c-3.68-15.807-7.543-32.032-17.027-45.453c-0.989-1.399-2.22-2.874-3.968-3.125  c-3.384-0.484-5.235,3.603-5.815,6.823c-15.186,84.324,19.64,161.055,23.881,246.521c11.048,0.681,24.948,1.022,35.997,0.681  c-3.011-17.706,4.758-22.249,3.921-40.171c-0.763-16.328-6.924-22.17-8.196-38.469c-1.352-17.313,4.659-22.544,0.713-39.491  C71.623,336.054,51.534,289.17,46.827,268.953z"/>
<path fill="#F2A19C" d="M47.373,26.525c0.747,1.098,1.361,2.285,1.826,3.529c-2.39,3.858-3.81,7.24-6.199,11.099  c-0.9,1.023-1.93,0.176-2.339-0.129c-0.65-0.484-0.154-1.492,0.333-2.138c1.18-1.566,2.111-3.317,2.747-5.17  c-0.653,0.213-1.009,0.888-1.368,1.469c-0.999,1.62-2.51,2.923-4.262,3.679c-0.576,0.248-1.352,0.394-1.744-0.093  c-0.416-0.517-0.044-1.268,0.32-1.823c1.883-2.87,3.461-5.937,4.697-9.137c0.093-0.241,0.19-0.491,0.378-0.67  c0.46-0.436,1.2-0.25,1.825-0.123c1.303,0.266,2.683,0.132,3.909-0.379C47.801,27.572,46.821,25.713,47.373,26.525z"/>
<path fill="#FFBEB6" d="M23.06,46.757c-2.28,21.418-2.314,43.073-0.105,64.499c-5.188-0.536-14.011,3.705-19.203,4.21  C4.3,98.824,9.466,77.959,12.079,61.513c1.679-10.565,3.946-21.453,10.323-30.067c3.188,0.964,6.318-1.353,9.466-2.438  c6.682-2.304,13.961,1.061,19.769,5.076c0.712,0.491,1.477,1.094,1.583,1.949c0.268,2.182-3.196,2.262-5.246,1.439  c-4.131-1.659-8.499-3.088-12.945-2.814c-4.447,0.275-9.009,2.596-10.798,6.653C23.48,43.019,23.257,44.902,23.06,46.757z"/>
<path fill="#FFBEB6" d="M22.41,31.398c2.365-1.939,5.314-2.997,8.199-4.022c2.294-0.815,4.59-1.628,6.883-2.443  c1.154-0.41,2.314-0.82,3.524-1.022c1.571-0.26,3.176-0.158,4.769-0.138c6.473,0.081,8.611-0.497,14.825-2.307  c0.857-0.25,6.067-0.823,6.941-0.64c0.874,0.184,1.657,0.574,1.511,1.451c-0.201,1.197-1.764,1.485-2.98,1.574  c-9.612,0.697-18.583,6.132-28.212,5.739c-0.768-0.031-1.548-0.099-2.295,0.079c-0.832,0.199-1.559,0.688-2.301,1.114  c-2.144,1.234-4.56,1.996-7.026,2.22C24.75,33.139,22.868,32.823,22.41,31.398z"/>
<path fill="#FFBEB6" d="M104.485,166.209c-11.588,10.831-24.225,16.39-39.634,20.295c-6.827,1.73-5.197,1.643-8.123-0.445  c-3.642-2.599-2.964-7.251-3.66-11.656c-1.197-7.591-2.348-15.624,0.552-22.746c1.6,9.011,4.195,19.737,9.998,26.84  c13.599-11.862,29.337-24.966,44.39-34.943c0.207,7.104,0.414,14.21,0.62,21.314C107.662,164.294,105.453,166.784,104.485,166.209z"/>
<path fill="#E94A47" d="M100.208,473.833c8.439-1.606,35.64-0.908,35.64-0.908s7.236,16.254,7.151,26.957  c-12.586,0.017-25.173,0.033-37.759,0.051c-21.153,0.028-26.156,0.227-48.492-0.227c-0.475-4.994,9.539-14.164,27.798-18.446  C88.582,480.312,96.136,474.608,100.208,473.833z"/>
<path fill="#428DFC" d="M98.526,146.342c-5.614-5.507-10.29-13.924-13.847-20.924c-6.237-12.268-12.625-26.27-8.099-39.258  c2.679-7.686,9.239-13.922,17.081-16.234c-0.585,12.1,3.587,23.876,7.839,35.229c6.039,16.129,11.514,28.71,18.113,44.621  c0.834,2.01,2.204,6.502,1.615,7.599c-2.556,4.767-5.027,8.384-9.24,9.289c-4.213,0.905-9.087,1.855-11.159,5.616  c-6.32-7.028-9.651-10.684-7.887-19.948C96.326,149.087,97.434,148.568,98.526,146.342z"/>
<linearGradient id="SVGID_1_-i1" gradientUnits="userSpaceOnUse" x1="1266.0404" y1="1351.4572" x2="1728.1527" y2="1351.4572" gradientTransform="matrix(0.1832 0 0 0.1832 -219.9789 -135.2867)">
	<stop offset="0" style="stop-color:#A1C3FC"/>
	<stop offset="1" style="stop-color:#81AEF2"/>
</linearGradient>
<path fill="url(#SVGID_1_-i1)" d="M91.843,84.746c-5.553,11.882-21.839,33.714-28.535,44.999  c-11.237,18.936-7.925,16.854-11.222,38.597c-13.388-0.933-28.436-2.938-40.126,2.489c7.014-31.78,14.499-52.249,22.453-71.899  s21.901-38.888,42.48-44.345c7.32-1.941,17.152-0.671,19.488,6.497C97.641,64.956,93.569,81.054,91.843,84.746z"/>
<path fill="#F2A19C" d="M76.686,56.029c3.208,4.431,12.652,4.254,14.613,1.418c-1.476-9.869,0.185-17.696,3.763-27.016  c-5.713,2.359-11.804,3.806-17.97,4.27C79.35,41.988,79.461,48.92,76.686,56.029z"/>
<path fill="#FFBEB6" d="M74.806,8.05c0.762,2.747-2.654,7.266-3.689,9.924c-2.374,6.088-1.566,14.214,4.091,17.53  c5.277,3.094,12.084,0.656,17.203-2.69c4.324-2.826,8.297-6.346,10.911-10.789c2.616-4.44,3.761-9.885,2.362-14.841  c-0.762-2.699-3.287-5.593-5.908-4.56c0.137-0.664-2.199-0.875-2.063-1.538C92.488,0.16,89.363,1.113,85.21,4.4  c-2.548,2.015-3.462,3.161-6.564,2.182c-1.451-0.459-3.586-1.428-4.027,0.023C74.474,7.075,74.674,7.574,74.806,8.05z"/>
<path fill="#23286B" d="M110.583,5.832c-5.228-4.651-9.088-4.772-16.07-5.443c-0.21,7.064-5.046,12.999-8.782,19.011  c-3.735,6.012-6.457,13.984-2.542,19.882c2.144,3.23,6.023,5.322,7.22,9.005c1.021,3.145-0.222,6.517-0.505,9.809  c-0.934,10.851,3.921,21.901,12.378,28.816c0.548-5.698,7.556-8.315,13.31-8.22c5.754,0.094,11.928,1.499,16.984-1.236  c5.351-2.896-0.85-8.102,3.433-12.41c3.456-3.477-3.256-14.575-13.984-19.387c-5.265-2.361-5.769-14.006-4.449-19.598  C119.675,17.168,114.61,9.415,110.583,5.832z"/>
<linearGradient id="SVGID_2_-i1" gradientUnits="userSpaceOnUse" x1="1261.0497" y1="2501.7358" x2="1960.7614" y2="2501.7358" gradientTransform="matrix(0.1832 0 0 0.1832 -219.9789 -135.2867)">
	<stop offset="0" style="stop-color:#23286B"/>
	<stop offset="1" style="stop-color:#151A4F"/>
</linearGradient>
<path fill="url(#SVGID_2_-i1)" d="M70.872,251.153c-1.437-4.256-2.931-13.926-2.443-18.374c0.307-2.804,1.612-5.421,2.148-8.194  c1.106-5.73-1.139-11.516-3.346-16.949c-4.831-11.899-9.662-23.799-14.493-35.698c-14.057,0.904-28.019,3.157-41.607,6.713  c-2.155,105.886,36.601,202.009,89,295.342c8.652,0.656,26.776-1.368,35.427-0.713c1.104,0.083,7.196-18.223,0.778-38.711  c-2.197-7.014-13.121-21.356-15.587-28.289c-3.408-9.574-5.953-27.905-7.014-37.966c-2.604-24.679-19.469-27.942-24.87-52.203  C86.46,305.303,75.687,265.413,70.872,251.153z"/>
<g>
	<path fill="#23286B" d="M93.343,87.654c-0.105,0-0.208-0.026-0.306-0.082c-2.335-1.358-4.378-3.11-6.068-5.208   c-2.316-2.871-3.665-6.061-3.901-9.228c-0.226-3.037,0.567-6.005,1.335-8.876c0.684-2.56,1.393-5.207,1.337-7.828   c-0.083-3.92-2.102-8.778-4.055-13.478c-0.751-1.809-1.461-3.515-2.066-5.173c-2.426-6.649-0.675-10.764,2.276-16.283   c1.158-2.167,2.895-4.362,4.735-6.688c3.08-3.893,6.265-7.918,6.682-11.885c0.033-0.33,0.327-0.579,0.665-0.536   c0.333,0.033,0.574,0.33,0.539,0.662c-0.453,4.314-3.748,8.479-6.935,12.506c-1.805,2.282-3.51,4.437-4.617,6.507   c-3.265,6.11-4.294,9.587-2.205,15.306c0.596,1.633,1.299,3.33,2.045,5.125c1.995,4.801,4.059,9.767,4.146,13.912   c0.06,2.793-0.671,5.523-1.377,8.163c-0.776,2.902-1.51,5.643-1.298,8.477c0.276,3.692,2.13,6.696,3.639,8.564   c1.599,1.983,3.528,3.638,5.736,4.921c0.289,0.169,0.385,0.536,0.217,0.824C93.754,87.547,93.55,87.654,93.343,87.654z"/>
</g>
<g>
	<path fill="#23286B" d="M82.589,10.947c-0.1,0-0.202-0.025-0.297-0.077c-2.244-1.255-3.13-3.587-3.003-5.222   c0.025-0.331,0.314-0.604,0.651-0.553c0.333,0.025,0.583,0.315,0.558,0.647c-0.083,1.055,0.485,3.013,2.389,4.078   c0.292,0.162,0.394,0.53,0.231,0.82C83.005,10.836,82.799,10.947,82.589,10.947z"/>
</g>
<path fill="#FFBEB6" d="M56.076,171.812c-1.267-1.085-2.197-2.5-3.346-3.71c-1.554-1.636-3.482-2.865-5.389-4.076  c-0.804-0.51-1.631-1.031-2.566-1.207c-0.475-0.089-1.015-0.07-1.375,0.252c-0.809,0.725-0.014,2.022,0.77,2.774  c2.214,2.125,4.429,4.252,6.643,6.377c1.385,1.331,2.505,2.079,3.484,3.728c0.702,1.184,1.138,3.218,1.813,4.419  c0.512,0.908,1.495,1.663,2.442,2.106c0.947,0.443,3.624-0.473,4.268-1.293c-1.345-2.332-2.161-4.691-3.784-6.843  C58.253,173.301,57.065,172.659,56.076,171.812z"/>
<path fill="#89B3F4" d="M76.847,63.013c-0.22-2.034-1.777-5.971-3.771-6.478c-5.665-1.438-16.094,1.498-20.565,9.205  c-8.118,13.995-21.203,33.215-28.648,43.986c-0.586-4.393-1.305-9.93-1.305-9.93s-7.083,1.838-7.837,1.952  c-5.355,0.816-9.951,1.587-14.524,1.08c-0.762,8.846,0.762,13.142,3.303,21.482c1.327,4.353,5.225,18.203,6.182,20.866  c3.219,1.626,12.942-0.367,22.606-10.916c4.61-5.033,29.257-38.23,33.591-44.658C70.213,83.176,77.875,72.56,76.847,63.013z"/>
<g>
	<path fill="#23286B" d="M70.728,70.969c-0.144,0-0.289-0.051-0.404-0.153c-0.249-0.223-0.271-0.602-0.048-0.85   c3.653-4.064,6.182-7.911,7.733-11.762c1.869-4.643,2.307-9.496,1.237-13.67c-0.358-1.391-0.897-2.779-1.416-4.12   c-0.777-2.004-1.582-4.078-1.841-6.279c-0.804-6.838,3.745-13.037,7.796-17.674l1.07-1.22c3.924-4.452,7.984-9.056,8.921-14.735   c0.053-0.328,0.361-0.559,0.696-0.496c0.33,0.054,0.553,0.364,0.499,0.692c-0.992,6.021-5.167,10.756-9.205,15.335l-1.067,1.215   c-3.887,4.449-8.255,10.373-7.506,16.744c0.241,2.049,0.982,3.959,1.767,5.983c0.533,1.375,1.085,2.795,1.46,4.255   c1.135,4.419,0.679,9.538-1.285,14.415c-1.604,3.984-4.206,7.946-7.955,12.117C71.059,70.901,70.894,70.969,70.728,70.969z"/>
</g>
<path id="texture-2_2_-i1" fill="#FFFFFF" d="M11.851,201.545c0.086-0.099,0.08-0.191-0.02-0.277s-0.193-0.079-0.278,0.02  c-0.086,0.099-0.08,0.191,0.02,0.277l0,0C11.672,201.651,11.759,201.552,11.851,201.545L11.851,201.545z M15.9,182.321  c0.093-0.006,0.179-0.106,0.174-0.198l0,0c-0.006-0.093-0.107-0.178-0.199-0.173l0,0c-0.093,0.006-0.179,0.106-0.174,0.198  C15.622,182.34,15.814,182.419,15.9,182.321L15.9,182.321L15.9,182.321z M13.219,191.886c0.093-0.006,0.185-0.014,0.272-0.112  c-0.006-0.093-0.014-0.184-0.113-0.271c-0.093,0.006-0.185,0.014-0.272,0.112C13.027,191.806,13.126,191.893,13.219,191.886z   M35.077,205.207c0.193,0.079,0.371-0.026,0.452-0.216c0.08-0.19-0.026-0.369-0.218-0.45l0,0c-0.193-0.079-0.371,0.026-0.452,0.216  C34.685,204.956,34.89,205.219,35.077,205.207L35.077,205.207z M26.507,202.838c0.193,0.079,0.371-0.026,0.452-0.216  c0.08-0.191-0.026-0.369-0.218-0.45c-0.193-0.079-0.371,0.026-0.452,0.216l0,0C26.209,202.58,26.313,202.758,26.507,202.838z   M17.93,200.375c0.193,0.079,0.371-0.026,0.452-0.216l0,0c0.08-0.191-0.026-0.369-0.218-0.45l0,0  c-0.193-0.079-0.371,0.026-0.452,0.216C17.631,200.117,17.738,200.296,17.93,200.375z M23.049,219.886  c0.08-0.191,0.067-0.376-0.039-0.555c-0.193-0.079-0.378-0.067-0.558,0.038c-0.08,0.191-0.067,0.376,0.032,0.461  C22.691,220.096,22.876,220.084,23.049,219.886L23.049,219.886z M16.035,214.436c0.08-0.191,0.067-0.376-0.039-0.555  c-0.193-0.079-0.378-0.067-0.558,0.038c-0.08,0.191-0.067,0.376,0.032,0.461C15.669,214.555,15.948,214.534,16.035,214.436  L16.035,214.436z M32.423,187.566c0.185-0.014,0.359-0.211,0.345-0.395c-0.014-0.184-0.212-0.357-0.398-0.343l0,0  c-0.185,0.014-0.359,0.211-0.345,0.395l0,0C32.038,187.408,32.238,187.58,32.423,187.566z M23.532,188.562  c0.185-0.014,0.359-0.211,0.345-0.395c-0.014-0.184-0.212-0.357-0.398-0.343c-0.185,0.014-0.359,0.211-0.345,0.395l0,0  C23.147,188.404,23.346,188.575,23.532,188.562L23.532,188.562z M14.733,189.551c0.185-0.014,0.359-0.211,0.345-0.395l0,0  c-0.014-0.184-0.212-0.357-0.398-0.343l0,0c-0.185,0.014-0.359,0.211-0.345,0.395C14.356,189.485,14.548,189.565,14.733,189.551  L14.733,189.551z M17.45,226.5c0.086-0.099,0.16-0.383-0.032-0.461c-0.099-0.085-0.385-0.159-0.463,0.032  c-0.086,0.099-0.16,0.383,0.032,0.461l0,0C17.093,226.71,17.279,226.697,17.45,226.5z M29.359,195.673  c0.185-0.014,0.364-0.118,0.352-0.304c-0.014-0.184-0.113-0.271-0.306-0.35l0,0c-0.185,0.014-0.364,0.118-0.352,0.304l0,0  C29.067,195.509,29.173,195.687,29.359,195.673L29.359,195.673z M21.437,195.859c0.185-0.014,0.364-0.118,0.352-0.304  c-0.014-0.184-0.113-0.271-0.306-0.35l0,0c-0.185,0.014-0.364,0.118-0.352,0.304l0,0C21.145,195.694,21.25,195.871,21.437,195.859  L21.437,195.859z M13.508,195.952c0.185-0.014,0.364-0.118,0.352-0.304l0,0c-0.014-0.184-0.113-0.271-0.306-0.35l0,0  c-0.185,0.014-0.364,0.118-0.352,0.304l0,0C13.224,195.878,13.323,195.963,13.508,195.952L13.508,195.952z M22.358,211.486  c0.193,0.079,0.371-0.026,0.452-0.216c0.08-0.191-0.026-0.369-0.218-0.45c-0.193-0.079-0.371,0.026-0.452,0.216  C22.061,211.227,22.173,211.497,22.358,211.486L22.358,211.486z M14.971,208.661c0.193,0.079,0.371-0.026,0.458-0.125l0,0  c0.08-0.191-0.026-0.369-0.218-0.45c-0.193-0.079-0.371,0.026-0.452,0.216C14.672,208.403,14.778,208.582,14.971,208.661  L14.971,208.661z M22.27,181.316c0.179-0.106,0.266-0.205,0.16-0.383l0,0c-0.107-0.178-0.298-0.258-0.385-0.159l0,0  c-0.179,0.106-0.259,0.297-0.153,0.475C21.893,181.25,22.085,181.329,22.27,181.316L22.27,181.316L22.27,181.316z M15.023,184.426  c0.179-0.106,0.259-0.297,0.153-0.474c-0.107-0.178-0.298-0.258-0.477-0.152c-0.179,0.106-0.259,0.297-0.16,0.383  C14.652,184.451,14.844,184.53,15.023,184.426C14.93,184.431,15.023,184.426,15.023,184.426L15.023,184.426z M25.616,228.433  c0.193,0.079,0.371-0.026,0.452-0.216c0.08-0.191-0.026-0.369-0.218-0.45c-0.193-0.079-0.371,0.026-0.452,0.216  C25.318,228.175,25.425,228.353,25.616,228.433L25.616,228.433z M17.08,225.225c0.193,0.079,0.371-0.026,0.452-0.216  c0.08-0.191-0.026-0.369-0.218-0.45c-0.193-0.079-0.371,0.026-0.452,0.216C16.776,224.876,16.888,225.146,17.08,225.225  L17.08,225.225z M24.852,190.048c0.179-0.106,0.259-0.297,0.153-0.474c-0.107-0.178-0.298-0.258-0.477-0.152  c-0.179,0.106-0.259,0.297-0.153,0.474C24.386,190.08,24.673,190.154,24.852,190.048L24.852,190.048z M16.436,193.796  c0.179-0.106,0.259-0.297,0.153-0.474c-0.107-0.178-0.298-0.258-0.477-0.152c-0.179,0.106-0.259,0.297-0.153,0.474  C16.058,193.729,16.257,193.901,16.436,193.796L16.436,193.796z M24.769,209.923c0.185-0.014,0.359-0.211,0.345-0.395  c-0.014-0.184-0.212-0.357-0.398-0.343c-0.185,0.014-0.359,0.211-0.345,0.395l0,0C24.384,209.763,24.583,209.936,24.769,209.923  L24.769,209.923L24.769,209.923z M15.639,210.193c0.185-0.014,0.359-0.211,0.345-0.395l0,0c-0.014-0.184-0.212-0.357-0.398-0.343  l0,0c-0.185,0.014-0.359,0.211-0.345,0.395C15.254,210.034,15.361,210.212,15.639,210.193L15.639,210.193z M26.503,215.93  c0.185-0.014,0.359-0.211,0.345-0.395c-0.014-0.184-0.212-0.357-0.398-0.343c-0.185,0.014-0.364,0.118-0.345,0.395  C26.118,215.771,26.316,215.941,26.503,215.93L26.503,215.93z M17.347,215.83c0.185-0.014,0.359-0.211,0.345-0.395  c-0.014-0.184-0.118-0.362-0.398-0.343c-0.185,0.014-0.359,0.211-0.438,0.403C16.963,215.671,17.162,215.842,17.347,215.83  L17.347,215.83z M18.647,198.654c0.179-0.106,0.259-0.297,0.246-0.482c-0.107-0.178-0.298-0.258-0.484-0.245  c-0.179,0.106-0.259,0.297-0.246,0.482l0,0C18.177,198.595,18.462,198.667,18.647,198.654L18.647,198.654L18.647,198.654z"/>

</g>
</g>
</g>

<!-- ITEM 2 -->
<g transform="translate(1118.0 88.0) rotate(0.0 87.5 87.5) scale(1.75 1.75)">
<g transform="translate(-0.0 -0.0)">
<g clip-path="url(#clipPathId-collage-item-2)">
		<defs>
			<clipPath id="clipPathId-collage-item-2">
				<rect x="0.0" y="0.0" width="100.0" height="100.0"/>
			</clipPath>
		</defs>

<circle fill="#e6ecfd" cx="50" cy="50" r="50"/>

</g>
</g>
</g>

<!-- ITEM 3 -->
<g transform="translate(191.0 229.0) rotate(0.0 323.5 323.5) scale(6.47 6.47)">
<g transform="translate(-0.0 -0.0)">
<g clip-path="url(#clipPathId-collage-item-3)">
		<defs>
			<clipPath id="clipPathId-collage-item-3">
				<rect x="0.0" y="0.0" width="100.0" height="100.0"/>
			</clipPath>
		</defs>

<circle fill="#e6ecfd" cx="50" cy="50" r="50"/>

</g>
</g>
</g>

<!-- ITEM 4 -->
<g transform="translate(1260.0 307.0) rotate(0.0 48.0 48.0) scale(0.96 0.96)">
<g transform="translate(-0.0 -0.0)">
<g clip-path="url(#clipPathId-collage-item-4)">
		<defs>
			<clipPath id="clipPathId-collage-item-4">
				<rect x="0.0" y="0.0" width="100.0" height="100.0"/>
			</clipPath>
		</defs>

<circle fill="#e6ecfd" cx="50" cy="50" r="50"/>

</g>
</g>
</g>

<!-- ITEM 5 -->
<g transform="translate(120.0 649.0) rotate(0.0 200.0 200.0) scale(4.0 4.0)">
<g transform="translate(-0.0 -0.0)">
<g clip-path="url(#clipPathId-collage-item-5)">
		<defs>
			<clipPath id="clipPathId-collage-item-5">
				<rect x="0.0" y="0.0" width="100.0" height="100.0"/>
			</clipPath>
		</defs>

<circle fill="#A1C3FC" cx="50" cy="50" r="50"/>

</g>
</g>
</g>

<!-- ITEM 6 -->
<g transform="translate(575.0 516.0) rotate(0.0 135.5 135.5) scale(2.71 2.71)">
<g transform="translate(-0.0 -0.0)">
<g clip-path="url(#clipPathId-collage-item-6)">
		<defs>
			<clipPath id="clipPathId-collage-item-6">
				<rect x="0.0" y="0.0" width="100.0" height="100.0"/>
			</clipPath>
		</defs>

<circle fill="#A1C3FC" cx="50" cy="50" r="50"/>

</g>
</g>
</g>

<!-- ITEM 7 -->
<g transform="translate(218.0 583.0) rotate(316.2985838038641 103.5 251.0) scale(1.2545454545454546 1.255)">
<g transform="translate(-0.0 -0.0)">
<g clip-path="url(#clipPathId-collage-item-7)">
		<defs>
			<clipPath id="clipPathId-collage-item-7">
				<rect x="0.0" y="0.0" width="165.0" height="400.0"/>
			</clipPath>
		</defs>

<linearGradient id="SVGID_1_-i7" gradientUnits="userSpaceOnUse" x1="1209.6849" y1="1997.2806" x2="1518.7939" y2="2486.5767" gradientTransform="matrix(0.2162 0 0 0.2162 -210.5724 -190.0189)">
	<stop offset="0" style="stop-color:#428DFC"/>
	<stop offset="1" style="stop-color:#1D72D8"/>
</linearGradient>
<path fill="url(#SVGID_1_-i7)" d="M134.538,266.184c-1.483-12.987,13.81-22.162,13.81-35.565c0-32.074-29.481-58.076-65.849-58.076  c-36.366,0-65.849,26.002-65.849,58.076c0,13.404,15.294,22.578,13.81,35.565C27.872,288.862,0,299.854,0,322.635  c0,40.185,36.936,72.762,82.5,72.762S165,362.82,165,322.635C164.999,299.853,137.126,288.862,134.538,266.184z"/>
<rect x="57.338" y="36.304" fill="#23286B" width="49.426" height="4.618"/>
<rect x="57.338" y="22.883" fill="#23286B" width="49.426" height="4.618"/>
<rect x="57.338" y="9.462" fill="#23286B" width="49.426" height="4.618"/>
<path id="texture-2_13_-i7" fill="#FFFFFF" d="M34.294,220.649c0.164-0.113,0.188-0.252,0.073-0.415  c-0.113-0.163-0.253-0.187-0.416-0.073c-0.164,0.113-0.188,0.252-0.073,0.415l0,0C33.993,220.738,34.157,220.624,34.294,220.649  L34.294,220.649z M47.326,193.86c0.139,0.024,0.301-0.089,0.326-0.228l0,0c0.024-0.139-0.089-0.3-0.229-0.326l0,0  c-0.139-0.024-0.301,0.089-0.326,0.228C46.909,193.787,47.162,193.974,47.326,193.86L47.326,193.86L47.326,193.86z M39.864,206.946  c0.139,0.024,0.277,0.048,0.441-0.065c0.024-0.139,0.048-0.276-0.065-0.439c-0.139-0.024-0.277-0.048-0.441,0.065  C39.611,206.759,39.725,206.922,39.864,206.946z M67.029,234.519c0.253,0.187,0.554,0.098,0.743-0.155  c0.188-0.252,0.098-0.552-0.156-0.74l0,0c-0.253-0.187-0.554-0.098-0.743,0.155C66.546,234.007,66.751,234.47,67.029,234.519  L67.029,234.519z M55.325,227.904c0.253,0.187,0.554,0.098,0.743-0.155c0.188-0.252,0.098-0.552-0.156-0.74  c-0.253-0.187-0.554-0.098-0.743,0.155l0,0C54.983,227.416,55.072,227.717,55.325,227.904z M43.646,221.15  c0.253,0.187,0.554,0.098,0.743-0.155l0,0c0.188-0.252,0.098-0.552-0.156-0.74l0,0c-0.253-0.187-0.554-0.098-0.743,0.155  C43.303,220.662,43.393,220.963,43.646,221.15z M43.965,251.708c0.188-0.252,0.237-0.528,0.147-0.83  c-0.253-0.187-0.53-0.236-0.833-0.146c-0.188,0.252-0.237,0.528-0.122,0.691C43.361,251.887,43.64,251.935,43.965,251.708  L43.965,251.708z M35.68,241.132c0.188-0.252,0.237-0.528,0.147-0.83c-0.253-0.187-0.53-0.236-0.833-0.146  c-0.188,0.252-0.237,0.528-0.122,0.691C35.101,241.172,35.517,241.245,35.68,241.132L35.68,241.132z M69.64,207.612  c0.277,0.048,0.604-0.179,0.652-0.456c0.048-0.276-0.18-0.602-0.458-0.65l0,0c-0.277-0.048-0.604,0.179-0.652,0.456l0,0  C69.134,207.237,69.363,207.563,69.64,207.612z M56.224,205.827c0.277,0.048,0.604-0.179,0.652-0.456  c0.048-0.276-0.18-0.602-0.458-0.65c-0.277-0.048-0.604,0.179-0.652,0.456l0,0C55.718,205.452,55.947,205.778,56.224,205.827  L56.224,205.827z M42.947,204.066c0.277,0.048,0.604-0.179,0.652-0.456l0,0c0.048-0.276-0.18-0.602-0.458-0.65l0,0  c-0.277-0.048-0.604,0.179-0.652,0.456C42.418,203.83,42.67,204.017,42.947,204.066L42.947,204.066z M33.311,259.387  c0.164-0.114,0.375-0.504,0.122-0.691c-0.113-0.163-0.506-0.374-0.693-0.122c-0.164,0.113-0.375,0.504-0.122,0.691l0,0  C32.708,259.566,32.985,259.615,33.311,259.387z M62.152,218.412c0.277,0.048,0.58-0.041,0.628-0.317  c0.048-0.276-0.065-0.439-0.318-0.626l0,0c-0.277-0.048-0.58,0.041-0.628,0.317l0,0C61.784,218.063,61.875,218.364,62.152,218.412  L62.152,218.412z M50.458,215.789c0.277,0.048,0.58-0.041,0.628-0.317c0.048-0.276-0.065-0.439-0.318-0.626l0,0  c-0.277-0.048-0.58,0.041-0.628,0.317l0,0C50.09,215.439,50.181,215.741,50.458,215.789L50.458,215.789z M38.788,213.028  c0.277,0.048,0.58-0.041,0.628-0.317l0,0c0.048-0.276-0.065-0.439-0.318-0.626l0,0c-0.277-0.048-0.58,0.041-0.628,0.317l0,0  C38.398,212.817,38.511,212.98,38.788,213.028L38.788,213.028z M46.05,239.104c0.253,0.187,0.554,0.098,0.743-0.155  c0.188-0.252,0.098-0.552-0.156-0.74c-0.253-0.187-0.554-0.098-0.743,0.155C45.708,238.616,45.773,239.055,46.05,239.104  L46.05,239.104z M36.248,232.252c0.253,0.187,0.554,0.098,0.718-0.017l0,0c0.188-0.252,0.098-0.552-0.156-0.74  c-0.253-0.187-0.554-0.098-0.743,0.155C35.906,231.764,35.995,232.065,36.248,232.252L36.248,232.252z M57.045,194.71  c0.301-0.089,0.465-0.204,0.375-0.504l0,0c-0.089-0.3-0.342-0.488-0.506-0.374l0,0c-0.301,0.089-0.49,0.341-0.399,0.643  C56.514,194.475,56.767,194.662,57.045,194.71L57.045,194.71L57.045,194.71z M45.262,196.633c0.301-0.089,0.49-0.341,0.399-0.643  c-0.089-0.3-0.342-0.488-0.645-0.398c-0.301,0.089-0.49,0.341-0.375,0.504C44.708,196.536,44.96,196.723,45.262,196.633  C45.124,196.609,45.262,196.633,45.262,196.633L45.262,196.633z M44.582,265.214c0.253,0.187,0.554,0.098,0.743-0.155  c0.188-0.252,0.098-0.552-0.156-0.74c-0.253-0.187-0.554-0.098-0.743,0.155C44.239,264.727,44.328,265.027,44.582,265.214  L44.582,265.214z M33.236,257.378c0.253,0.187,0.554,0.098,0.743-0.155c0.188-0.252,0.098-0.552-0.156-0.74  c-0.253-0.187-0.554-0.098-0.743,0.155C32.918,256.752,32.984,257.191,33.236,257.378L33.236,257.378z M57.612,208.493  c0.301-0.089,0.49-0.341,0.399-0.643c-0.089-0.3-0.342-0.488-0.645-0.398c-0.301,0.089-0.49,0.341-0.399,0.643  C56.918,208.372,57.311,208.583,57.612,208.493L57.612,208.493z M43.88,210.929c0.301-0.089,0.49-0.341,0.399-0.643  c-0.089-0.3-0.342-0.488-0.645-0.398c-0.301,0.089-0.49,0.341-0.399,0.643C43.349,210.693,43.578,211.019,43.88,210.929  L43.88,210.929z M50.163,237.687c0.277,0.048,0.604-0.179,0.652-0.456c0.048-0.276-0.18-0.602-0.458-0.65  c-0.277-0.048-0.604,0.179-0.652,0.456l0,0C49.657,237.313,49.885,237.639,50.163,237.687L50.163,237.687L50.163,237.687z   M36.665,234.748c0.277,0.048,0.604-0.179,0.652-0.456l0,0c0.048-0.276-0.18-0.602-0.458-0.65l0,0  c-0.277-0.048-0.604,0.179-0.652,0.456S36.249,234.675,36.665,234.748L36.665,234.748z M50.492,247.153  c0.277,0.048,0.604-0.179,0.652-0.456c0.048-0.276-0.18-0.602-0.458-0.65s-0.58,0.041-0.652,0.456  C49.986,246.778,50.215,247.103,50.492,247.153L50.492,247.153z M37.093,243.66c0.277,0.048,0.604-0.179,0.652-0.456  c0.048-0.276-0.041-0.578-0.458-0.65c-0.277-0.048-0.604,0.179-0.792,0.431C36.586,243.285,36.815,243.611,37.093,243.66  L37.093,243.66z M45.335,218.881c0.301-0.089,0.49-0.341,0.538-0.618c-0.089-0.3-0.342-0.488-0.62-0.536  c-0.301,0.089-0.49,0.341-0.538,0.618l0,0C44.665,218.621,45.057,218.832,45.335,218.881L45.335,218.881L45.335,218.881z"/>
<polygon fill="#A1C3FC" points="29.737,141.383 21.444,148.16 14.643,139.896 22.936,133.119 "/>
<g>
	<path fill="#E94A47" d="M10.376,167.354c-0.156,0-0.31-0.065-0.419-0.193c-0.199-0.231-0.172-0.578,0.061-0.776   c5.094-4.345,12.007-9.57,20.336-11.429c8.509-1.902,17.112,0.495,21.916,6.1c0.198,0.231,0.17,0.578-0.062,0.776   c-0.231,0.196-0.58,0.171-0.779-0.062c-4.54-5.299-12.719-7.553-20.835-5.741c-8.091,1.806-14.863,6.929-19.859,11.191   C10.631,167.311,10.503,167.354,10.376,167.354z"/>
</g>
<polygon fill="#78A9EF" points="98.158,328.371 40.386,308.027 60.802,250.457 118.574,270.801 "/>
<linearGradient id="SVGID_2_-i7" gradientUnits="userSpaceOnUse" x1="1271.5392" y1="2246.748" x2="1439.5746" y2="2246.748" gradientTransform="matrix(0.2162 0 0 0.2162 -210.5724 -190.0189)">
	<stop offset="0" style="stop-color:#23286B"/>
	<stop offset="1" style="stop-color:#151A4F"/>
</linearGradient>
<ellipse fill="url(#SVGID_2_-i7)" cx="82.499" cy="295.728" rx="18.165" ry="18.101"/>
<rect x="71.398" y="46.736" fill="#E94A47" width="22.204" height="233.32"/>
<rect x="58.279" y="351.541" fill="#D62929" width="48.441" height="6.034"/>
<rect x="66.353" y="390.572" fill="#D6D7D8" width="32.293" height="9.428"/>
<rect x="66.353" y="0" fill="#D6D7D8" width="32.293" height="46.55"/>
<rect x="71.398" y="230.292" fill="#D62929" width="22.204" height="49.765"/>
<rect x="71.398" y="129.019" fill="#D62929" width="22.204" height="49.765"/>
<rect x="71.398" y="59.395" fill="#D62929" width="22.204" height="30.775"/>
<g>
	<path fill="#FFFFFF" d="M87.604,382.001c-4.034,0-8.072-0.432-12.037-1.331l0.245-1.073c23.107,5.231,48.763-5.649,61.001-25.872   c12.237-20.223,9.922-47.91-5.504-65.836l0.839-0.715c15.726,18.275,18.087,46.504,5.611,67.12   C127.38,371.441,107.542,382,87.604,382.001z"/>
</g>

</g>
</g>
</g>

<!-- ITEM 8 -->
<g transform="translate(614.0 480.0) rotate(0.0 99.5 120.0) scale(0.995 0.9917355371900827)">
<g transform="translate(-0.0 -0.0)">
<g clip-path="url(#clipPathId-collage-item-8)">
		<defs>
			<clipPath id="clipPathId-collage-item-8">
				<rect x="0.0" y="0.0" width="200.0" height="242.0"/>
			</clipPath>
		</defs>

<g>
	<path fill="#151A4F" d="M25.958,139.254L15.91,129.209l10.049-10.043l10.05,10.043L25.958,139.254z M19.601,129.209l6.357,6.353   l6.357-6.353l-6.357-6.353L19.601,129.209z"/>
</g>
<rect x="71.543" y="86.381" fill="#D9E021" width="16.581" height="18.829"/>
<rect x="125.052" y="64.539" fill="#1D72D8" width="9.797" height="48.958"/>
<rect x="36.874" y="86.381" fill="#E94A47" width="30.901" height="18.829"/>
<rect x="40.355" y="88.12" fill="#D62929" width="5.377" height="18.829"/>
<rect x="48.476" y="88.12" fill="#D62929" width="5.377" height="18.829"/>
<rect x="56.597" y="88.12" fill="#D62929" width="5.377" height="18.829"/>
<rect x="72.694" y="88.12" fill="#8CC63F" width="4.024" height="18.829"/>
<rect x="78.228" y="88.12" fill="#8CC63F" width="4.024" height="18.829"/>
<rect x="83.762" y="88.12" fill="#8CC63F" width="4.024" height="18.829"/>
<rect x="64.718" y="88.12" fill="#D62929" width="3.057" height="18.829"/>
<linearGradient id="SVGID_1_-i8" gradientUnits="userSpaceOnUse" x1="486.22" y1="1170.7911" x2="841.8575" y2="1170.7911" gradientTransform="matrix(0.4 0 0 0.4 -169.4 -297.4)">
	<stop offset="0" style="stop-color:#428DFC"/>
	<stop offset="1" style="stop-color:#1D72D8"/>
</linearGradient>
<rect x="25.088" y="99.833" fill="url(#SVGID_1_-i8)" width="142.255" height="142.167"/>
<rect x="102.443" y="60.02" fill="#428DFC" width="55.771" height="33.141"/>
<rect x="106.964" y="64.498" fill="#151A4F" width="46.727" height="24.184"/>
<rect x="25.088" y="99.833" fill="#23286B" width="142.255" height="25.705"/>
<g>
	<path fill="#428DFC" d="M164.362,53.177c-0.068,0-0.138-0.016-0.201-0.051c-0.213-0.112-0.295-0.375-0.185-0.587   c6.136-11.704,20.056-16.574,31.039-17.228c0.242-0.001,0.446,0.17,0.459,0.409c0.015,0.239-0.168,0.446-0.409,0.461   c-10.743,0.641-24.352,5.381-30.318,16.764C164.67,53.092,164.519,53.177,164.362,53.177z"/>
</g>
<g>
	<path fill="#428DFC" d="M146.902,28.774c-0.016,0-0.031-0.001-0.048-0.003c-0.239-0.027-0.412-0.242-0.384-0.481   c1.128-10.039-0.13-19.093-3.843-27.683c-0.096-0.22,0.007-0.477,0.227-0.571c0.221-0.097,0.477,0.005,0.571,0.227   c3.724,8.611,5.039,18.074,3.909,28.125C147.31,28.61,147.121,28.774,146.902,28.774z"/>
</g>
<path fill="none" stroke="#428DFC" stroke-width="0.6364" stroke-miterlimit="10" d="M197.558,77.403"/>
<g>
	<path fill="#428DFC" d="M196.344,77.998c-0.071,0-0.142-0.018-0.209-0.055c-4.518-2.485-9.816-3.441-14.919-2.686   c-0.245,0.033-0.459-0.13-0.494-0.368c-0.036-0.238,0.129-0.458,0.366-0.494c5.287-0.783,10.781,0.208,15.467,2.784   c0.211,0.116,0.287,0.38,0.171,0.591C196.647,77.918,196.497,77.998,196.344,77.998z"/>
</g>
<g>
	<polygon fill="#D6D7D8" points="79.148,121.317 79.148,121.317 79.136,128.847 79.16,128.847  "/>
	<polygon fill="#D6D7D8" points="79.148,121.302 79.148,121.317 79.148,121.317  "/>
	<polygon fill="#151A4F" points="79.162,121.302 86.62,113.825 86.62,113.803 79.148,113.803 79.148,121.302  "/>
	<path fill="#D6D7D8" d="M79.148,121.317L79.148,121.317L79.148,121.317z"/>
	<polygon fill="#A1C3FC" points="86.62,121.302 86.62,113.849 79.162,121.302  "/>
	<polygon fill="#D6D7D8" points="79.162,121.302 86.62,113.849 86.62,113.825  "/>
	<path fill="#D6D7D8" d="M79.148,121.317L79.148,121.317L79.148,121.317z"/>
	<polygon fill="#D6D7D8" points="79.162,121.302 79.148,121.302 79.155,121.31  "/>
	<polygon fill="#D6D7D8" points="79.162,121.302 79.155,121.31 79.162,121.317 86.62,121.305 86.62,121.302  "/>
	<rect x="79.159" y="121.301" fill="#D6D7D8" width="0" height="0.011"/>
	<polygon fill="#D6D7D8" points="79.148,121.302 79.148,121.317 79.155,121.31  "/>
	<polygon fill="#D6D7D8" points="79.148,121.317 79.148,121.317 79.162,121.317 79.155,121.31  "/>
	<rect x="79.151" y="121.309" fill="#D6D7D8" width="0" height="0.011"/>
	<polygon fill="#D6D7D8" points="79.162,121.317 86.62,128.77 86.62,128.745  "/>
	<path fill="#D6D7D8" d="M79.155,121.31l-0.007-0.008L79.155,121.31z"/>
	<rect x="79.159" y="121.309" fill="#D6D7D8" width="0" height="0.011"/>
	<path fill="#D6D7D8" d="M79.155,121.31L79.155,121.31L79.155,121.31z"/>
	<polygon fill="#A1C3FC" points="79.148,121.302 79.148,113.803 71.653,113.803 79.133,121.302  "/>
	<polygon fill="#D6D7D8" points="79.148,121.317 79.148,121.317 79.148,121.302  "/>
	<path fill="#D6D7D8" d="M79.148,121.317L79.148,121.317L79.148,121.317z"/>
	<polygon fill="#151A4F" points="71.629,113.803 71.566,113.803 71.566,121.302 79.133,121.302  "/>
	<polygon fill="#D6D7D8" points="79.133,121.302 71.653,113.803 71.629,113.803  "/>
	<path fill="#D6D7D8" d="M79.148,121.317L79.148,121.317L79.148,121.317z"/>
	<polygon fill="#D6D7D8" points="79.14,121.31 79.148,121.302 79.133,121.302  "/>
	<polygon fill="#D6D7D8" points="79.14,121.31 79.133,121.302 71.566,121.302 71.566,121.305 79.133,121.317  "/>
	<rect x="79.137" y="121.301" fill="#D6D7D8" width="0" height="0.011"/>
	<polygon fill="#D6D7D8" points="79.148,121.317 79.148,121.302 79.14,121.31  "/>
	<polygon fill="#D6D7D8" points="79.14,121.31 79.133,121.317 79.148,121.317 79.148,121.317  "/>
	<polygon fill="#D6D7D8" points="79.147,121.319 79.139,121.311 79.139,121.311  "/>
	<polygon fill="#D6D7D8" points="71.574,128.847 71.599,128.847 79.133,121.317 79.133,121.317  "/>
	<path fill="#D6D7D8" d="M79.14,121.31l0.008-0.008L79.14,121.31z"/>
	<polygon fill="#D6D7D8" points="79.131,121.316 79.139,121.309 79.139,121.309  "/>
	<path fill="#D6D7D8" d="M79.14,121.31L79.14,121.31L79.14,121.31z"/>
	<polygon fill="#151A4F" points="86.62,128.708 86.62,121.268 79.162,121.28  "/>
	<polygon fill="#A1C3FC" points="86.62,128.733 79.162,121.28 79.148,121.28 79.16,128.811 86.62,128.811  "/>
	<polygon fill="#A1C3FC" points="71.566,121.268 71.566,128.811 71.574,128.811 79.133,121.28  "/>
	<polygon fill="#151A4F" points="79.133,121.28 71.599,128.811 79.136,128.811 79.148,121.28  "/>
</g>
<g>
	<polygon fill="#D6D7D8" points="55.003,121.317 55.003,121.317 54.99,128.847 55.015,128.847  "/>
	<polygon fill="#D6D7D8" points="55.003,121.302 55.003,121.317 55.003,121.317  "/>
	<polygon fill="#151A4F" points="55.016,121.302 62.474,113.825 62.474,113.803 55.003,113.803 55.003,121.302  "/>
	<path fill="#D6D7D8" d="M55.003,121.317L55.003,121.317L55.003,121.317z"/>
	<polygon fill="#A1C3FC" points="62.474,121.302 62.474,113.849 55.016,121.302  "/>
	<polygon fill="#D6D7D8" points="55.016,121.302 62.474,113.849 62.474,113.825  "/>
	<path fill="#D6D7D8" d="M55.003,121.317L55.003,121.317L55.003,121.317z"/>
	<polygon fill="#D6D7D8" points="55.016,121.302 55.003,121.302 55.009,121.31  "/>
	<polygon fill="#D6D7D8" points="55.016,121.302 55.009,121.31 55.016,121.317 62.474,121.305 62.474,121.302  "/>
	<rect x="55.013" y="121.301" fill="#D6D7D8" width="0" height="0.011"/>
	<polygon fill="#D6D7D8" points="55.003,121.302 55.003,121.317 55.009,121.31  "/>
	<polygon fill="#D6D7D8" points="55.003,121.317 55.003,121.317 55.016,121.317 55.009,121.31  "/>
	<rect x="55.005" y="121.309" fill="#D6D7D8" width="0" height="0.011"/>
	<polygon fill="#D6D7D8" points="55.016,121.317 62.474,128.77 62.474,128.745  "/>
	<path fill="#D6D7D8" d="M55.009,121.31l-0.007-0.008L55.009,121.31z"/>
	<rect x="55.013" y="121.309" fill="#D6D7D8" width="0" height="0.011"/>
	<path fill="#D6D7D8" d="M55.009,121.31L55.009,121.31L55.009,121.31z"/>
	<polygon fill="#A1C3FC" points="55.003,121.302 55.003,113.803 47.508,113.803 54.987,121.302  "/>
	<polygon fill="#D6D7D8" points="55.003,121.317 55.003,121.317 55.003,121.302  "/>
	<path fill="#D6D7D8" d="M55.003,121.317L55.003,121.317L55.003,121.317z"/>
	<polygon fill="#151A4F" points="47.483,113.803 47.42,113.803 47.42,121.302 54.987,121.302  "/>
	<polygon fill="#D6D7D8" points="54.987,121.302 47.508,113.803 47.483,113.803  "/>
	<path fill="#D6D7D8" d="M55.003,121.317L55.003,121.317L55.003,121.317z"/>
	<polygon fill="#D6D7D8" points="54.994,121.31 55.003,121.302 54.987,121.302  "/>
	<polygon fill="#D6D7D8" points="54.994,121.31 54.987,121.302 47.42,121.302 47.42,121.305 54.987,121.317  "/>
	<rect x="54.992" y="121.301" fill="#D6D7D8" width="0" height="0.011"/>
	<polygon fill="#D6D7D8" points="55.003,121.317 55.003,121.302 54.994,121.31  "/>
	<polygon fill="#D6D7D8" points="54.994,121.31 54.987,121.317 55.003,121.317 55.003,121.317  "/>
	<polygon fill="#D6D7D8" points="55.002,121.319 54.994,121.311 54.994,121.311  "/>
	<polygon fill="#D6D7D8" points="47.428,128.847 47.453,128.847 54.987,121.317 54.987,121.317  "/>
	<path fill="#D6D7D8" d="M54.994,121.31l0.008-0.008L54.994,121.31z"/>
	<polygon fill="#D6D7D8" points="54.986,121.316 54.994,121.309 54.994,121.309  "/>
	<path fill="#D6D7D8" d="M54.994,121.31L54.994,121.31L54.994,121.31z"/>
	<polygon fill="#151A4F" points="62.474,128.708 62.474,121.268 55.016,121.28  "/>
	<polygon fill="#A1C3FC" points="62.474,128.733 55.016,121.28 55.003,121.28 55.015,128.811 62.474,128.811  "/>
	<polygon fill="#A1C3FC" points="47.42,121.268 47.42,128.811 47.428,128.811 54.987,121.28  "/>
	<polygon fill="#151A4F" points="54.987,121.28 47.453,128.811 54.99,128.811 55.003,121.28  "/>
</g>
<g>
	<path fill="#FFFFFF" d="M152.989,140.369c-3.697,0-5.562-1.369-7.366-2.694c-1.768-1.296-3.438-2.523-6.85-2.523   s-5.082,1.225-6.85,2.525c-1.803,1.324-3.669,2.693-7.365,2.693c-3.695,0-5.56-1.369-7.365-2.693   c-1.768-1.298-3.438-2.525-6.85-2.525c-3.41,0-5.079,1.225-6.847,2.525c-1.802,1.324-3.667,2.693-7.361,2.693   c-3.695,0-5.56-1.369-7.364-2.693c-1.768-1.298-3.438-2.525-6.848-2.525c-3.41,0-5.079,1.225-6.847,2.525   c-1.803,1.324-3.668,2.693-7.364,2.693c-3.695,0-5.559-1.369-7.362-2.693c-1.768-1.298-3.437-2.525-6.847-2.525   s-5.079,1.225-6.847,2.525c-1.803,1.324-3.667,2.693-7.362,2.693s-5.559-1.369-7.362-2.693c-1.768-1.298-3.438-2.525-6.848-2.525   v-0.87c3.695,0,5.56,1.369,7.364,2.693c1.768,1.298,3.437,2.525,6.847,2.525s5.079-1.225,6.847-2.525   c1.803-1.324,3.667-2.693,7.362-2.693s5.559,1.369,7.362,2.693c1.768,1.298,3.437,2.525,6.847,2.525s5.08-1.225,6.848-2.525   c1.803-1.324,3.668-2.693,7.362-2.693c3.695,0,5.56,1.369,7.364,2.693c1.768,1.298,3.438,2.525,6.848,2.525   c3.41,0,5.078-1.225,6.845-2.525c1.802-1.324,3.668-2.693,7.362-2.693c3.695,0,5.56,1.369,7.365,2.693   c1.768,1.298,3.438,2.525,6.85,2.525s5.082-1.225,6.85-2.525c1.803-1.324,3.669-2.693,7.365-2.693c3.695,0,5.56,1.369,7.365,2.693   c1.768,1.298,3.44,2.525,6.851,2.525s5.083-1.225,6.851-2.525c1.803-1.324,3.669-2.693,7.365-2.693v0.87   c-3.411,0-5.082,1.225-6.85,2.523C158.552,139,156.686,140.369,152.989,140.369z"/>
</g>
<g>
	<path fill="#FFFFFF" d="M152.989,216.891c-3.697,0-5.562-1.369-7.366-2.694c-1.768-1.296-3.438-2.523-6.85-2.523   s-5.082,1.225-6.85,2.525c-1.803,1.324-3.669,2.693-7.365,2.693c-3.695,0-5.56-1.369-7.365-2.693   c-1.768-1.298-3.438-2.525-6.85-2.525c-3.41,0-5.079,1.225-6.847,2.525c-1.802,1.324-3.667,2.693-7.361,2.693   c-3.695,0-5.56-1.369-7.364-2.693c-1.768-1.298-3.438-2.525-6.848-2.525c-3.41,0-5.079,1.225-6.847,2.525   c-1.803,1.324-3.668,2.693-7.364,2.693c-3.695,0-5.559-1.369-7.362-2.693c-1.768-1.298-3.437-2.525-6.847-2.525   s-5.079,1.225-6.847,2.525c-1.803,1.324-3.667,2.693-7.362,2.693s-5.559-1.369-7.362-2.693c-1.768-1.298-3.438-2.525-6.848-2.525   v-0.87c3.695,0,5.56,1.369,7.364,2.693c1.768,1.298,3.437,2.525,6.847,2.525s5.079-1.225,6.847-2.525   c1.803-1.324,3.667-2.693,7.362-2.693s5.559,1.369,7.362,2.693c1.768,1.298,3.437,2.525,6.847,2.525s5.08-1.225,6.848-2.525   c1.803-1.324,3.668-2.693,7.362-2.693c3.695,0,5.56,1.369,7.364,2.693c1.768,1.298,3.438,2.525,6.848,2.525   c3.41,0,5.078-1.225,6.845-2.525c1.802-1.324,3.668-2.693,7.362-2.693c3.695,0,5.56,1.369,7.365,2.693   c1.768,1.298,3.438,2.525,6.85,2.525s5.082-1.225,6.85-2.525c1.803-1.324,3.669-2.693,7.365-2.693c3.695,0,5.56,1.369,7.365,2.693   c1.768,1.298,3.44,2.525,6.851,2.525s5.083-1.225,6.851-2.525c1.803-1.324,3.669-2.693,7.365-2.693v0.87   c-3.411,0-5.082,1.225-6.85,2.523C158.552,215.522,156.686,216.891,152.989,216.891z"/>
</g>
<g>
	<path fill="#FFFFFF" d="M152.989,229.645c-3.697,0-5.562-1.369-7.366-2.694c-1.768-1.296-3.438-2.523-6.85-2.523   s-5.082,1.225-6.85,2.525c-1.803,1.324-3.669,2.693-7.365,2.693c-3.695,0-5.56-1.369-7.365-2.693   c-1.768-1.298-3.438-2.525-6.85-2.525c-3.41,0-5.079,1.225-6.847,2.525c-1.802,1.324-3.667,2.693-7.361,2.693   c-3.695,0-5.56-1.369-7.364-2.693c-1.768-1.298-3.438-2.525-6.848-2.525c-3.41,0-5.079,1.225-6.847,2.525   c-1.803,1.324-3.668,2.693-7.364,2.693c-3.695,0-5.559-1.369-7.362-2.693c-1.768-1.298-3.437-2.525-6.847-2.525   s-5.079,1.225-6.847,2.525c-1.803,1.324-3.667,2.693-7.362,2.693s-5.559-1.369-7.362-2.693c-1.768-1.298-3.438-2.525-6.848-2.525   v-0.87c3.695,0,5.56,1.369,7.364,2.693c1.768,1.298,3.437,2.525,6.847,2.525s5.079-1.225,6.847-2.525   c1.803-1.324,3.667-2.693,7.362-2.693s5.559,1.369,7.362,2.693c1.768,1.298,3.437,2.525,6.847,2.525s5.08-1.225,6.848-2.525   c1.803-1.324,3.668-2.693,7.362-2.693c3.695,0,5.56,1.369,7.364,2.693c1.768,1.298,3.438,2.525,6.848,2.525   c3.41,0,5.078-1.225,6.845-2.525c1.802-1.324,3.668-2.693,7.362-2.693c3.695,0,5.56,1.369,7.365,2.693   c1.768,1.298,3.438,2.525,6.85,2.525s5.082-1.225,6.85-2.525c1.803-1.324,3.669-2.693,7.365-2.693c3.695,0,5.56,1.369,7.365,2.693   c1.768,1.298,3.44,2.525,6.851,2.525s5.083-1.225,6.851-2.525c1.803-1.324,3.669-2.693,7.365-2.693v0.87   c-3.411,0-5.082,1.225-6.85,2.523C158.552,228.275,156.686,229.645,152.989,229.645z"/>
</g>
<g>
	<path fill="#FFFFFF" d="M152.989,153.122c-3.697,0-5.562-1.369-7.366-2.694c-1.768-1.296-3.438-2.523-6.85-2.523   s-5.082,1.225-6.85,2.525c-1.803,1.324-3.669,2.693-7.365,2.693c-3.695,0-5.56-1.369-7.365-2.693   c-1.768-1.298-3.438-2.525-6.85-2.525c-3.41,0-5.079,1.225-6.847,2.525c-1.802,1.324-3.667,2.693-7.361,2.693   c-3.695,0-5.56-1.369-7.364-2.693c-1.768-1.298-3.438-2.525-6.848-2.525c-3.41,0-5.079,1.225-6.847,2.525   c-1.803,1.324-3.668,2.693-7.364,2.693c-3.695,0-5.559-1.369-7.362-2.693c-1.768-1.298-3.437-2.525-6.847-2.525   s-5.079,1.225-6.847,2.525c-1.803,1.324-3.667,2.693-7.362,2.693s-5.559-1.369-7.362-2.693c-1.768-1.298-3.438-2.525-6.848-2.525   v-0.87c3.695,0,5.56,1.369,7.364,2.693c1.768,1.298,3.437,2.525,6.847,2.525s5.079-1.225,6.847-2.525   c1.803-1.324,3.667-2.693,7.362-2.693s5.559,1.369,7.362,2.693c1.768,1.298,3.437,2.525,6.847,2.525s5.08-1.225,6.848-2.525   c1.803-1.324,3.668-2.693,7.362-2.693c3.695,0,5.56,1.369,7.364,2.693c1.768,1.298,3.438,2.525,6.848,2.525   c3.41,0,5.078-1.225,6.845-2.525c1.802-1.324,3.668-2.693,7.362-2.693c3.695,0,5.56,1.369,7.365,2.693   c1.768,1.298,3.438,2.525,6.85,2.525s5.082-1.225,6.85-2.525c1.803-1.324,3.669-2.693,7.365-2.693c3.695,0,5.56,1.369,7.365,2.693   c1.768,1.298,3.44,2.525,6.851,2.525s5.083-1.225,6.851-2.525c1.803-1.324,3.669-2.693,7.365-2.693v0.87   c-3.411,0-5.082,1.225-6.85,2.523C158.552,151.753,156.686,153.122,152.989,153.122z"/>
</g>
<g>
	<path fill="#FFFFFF" d="M152.989,165.876c-3.697,0-5.562-1.369-7.366-2.694c-1.768-1.298-3.438-2.525-6.85-2.525   s-5.082,1.225-6.85,2.525c-1.803,1.325-3.669,2.694-7.365,2.694c-3.695,0-5.56-1.369-7.365-2.694   c-1.768-1.298-3.438-2.525-6.85-2.525c-3.41,0-5.079,1.225-6.847,2.525c-1.802,1.325-3.667,2.694-7.361,2.694   c-3.695,0-5.56-1.369-7.364-2.694c-1.768-1.298-3.438-2.525-6.848-2.525c-3.41,0-5.079,1.225-6.847,2.525   c-1.803,1.325-3.668,2.694-7.364,2.694c-3.695,0-5.559-1.369-7.362-2.694c-1.768-1.298-3.437-2.525-6.847-2.525   s-5.079,1.225-6.847,2.525c-1.803,1.325-3.667,2.694-7.362,2.694s-5.559-1.369-7.362-2.694c-1.768-1.298-3.438-2.525-6.848-2.525   v-0.87c3.695,0,5.56,1.369,7.364,2.694c1.768,1.298,3.437,2.525,6.847,2.525s5.079-1.225,6.847-2.525   c1.803-1.325,3.667-2.694,7.362-2.694s5.559,1.369,7.362,2.694c1.768,1.298,3.437,2.525,6.847,2.525s5.08-1.225,6.848-2.525   c1.803-1.325,3.668-2.694,7.362-2.694c3.695,0,5.56,1.369,7.364,2.694c1.768,1.298,3.438,2.525,6.848,2.525   c3.41,0,5.078-1.225,6.845-2.525c1.802-1.325,3.668-2.694,7.362-2.694c3.695,0,5.56,1.369,7.365,2.694   c1.768,1.298,3.438,2.525,6.85,2.525s5.082-1.225,6.85-2.525c1.803-1.325,3.669-2.694,7.365-2.694c3.695,0,5.56,1.369,7.365,2.694   c1.769,1.298,3.44,2.525,6.851,2.525s5.082-1.225,6.851-2.525c1.803-1.325,3.669-2.694,7.365-2.694v0.87   c-3.411,0-5.082,1.225-6.85,2.525C158.552,164.508,156.686,165.876,152.989,165.876z"/>
</g>
<g>
	<path fill="#FFFFFF" d="M152.989,178.63c-3.697,0-5.562-1.369-7.366-2.694c-1.768-1.296-3.438-2.523-6.85-2.523   s-5.082,1.225-6.85,2.525c-1.803,1.324-3.669,2.693-7.365,2.693c-3.695,0-5.56-1.369-7.365-2.693   c-1.768-1.298-3.438-2.525-6.85-2.525c-3.41,0-5.079,1.225-6.847,2.525c-1.802,1.324-3.667,2.693-7.361,2.693   c-3.695,0-5.56-1.369-7.364-2.693c-1.768-1.298-3.438-2.525-6.848-2.525c-3.41,0-5.079,1.225-6.847,2.525   c-1.803,1.324-3.668,2.693-7.364,2.693c-3.695,0-5.559-1.369-7.362-2.693c-1.768-1.298-3.437-2.525-6.847-2.525   s-5.079,1.225-6.847,2.525c-1.803,1.324-3.667,2.693-7.362,2.693s-5.559-1.369-7.362-2.693c-1.768-1.298-3.438-2.525-6.848-2.525   v-0.87c3.695,0,5.56,1.369,7.364,2.693c1.768,1.298,3.437,2.525,6.847,2.525s5.079-1.225,6.847-2.525   c1.803-1.324,3.667-2.693,7.362-2.693s5.559,1.369,7.362,2.693c1.768,1.298,3.437,2.525,6.847,2.525s5.08-1.225,6.848-2.525   c1.803-1.324,3.668-2.693,7.362-2.693c3.695,0,5.56,1.369,7.364,2.693c1.768,1.298,3.438,2.525,6.848,2.525   c3.41,0,5.078-1.225,6.845-2.525c1.802-1.324,3.668-2.693,7.362-2.693c3.695,0,5.56,1.369,7.365,2.693   c1.768,1.298,3.438,2.525,6.85,2.525s5.082-1.225,6.85-2.525c1.803-1.324,3.669-2.693,7.365-2.693c3.695,0,5.56,1.369,7.365,2.693   c1.768,1.298,3.44,2.525,6.851,2.525s5.083-1.225,6.851-2.525c1.803-1.324,3.669-2.693,7.365-2.693v0.87   c-3.411,0-5.082,1.225-6.85,2.523C158.552,177.261,156.686,178.63,152.989,178.63z"/>
</g>
<g>
	<path fill="#FFFFFF" d="M152.989,191.383c-3.697,0-5.562-1.369-7.366-2.694c-1.768-1.296-3.438-2.523-6.85-2.523   s-5.082,1.225-6.85,2.525c-1.803,1.324-3.669,2.693-7.365,2.693c-3.695,0-5.56-1.369-7.365-2.693   c-1.768-1.298-3.438-2.525-6.85-2.525c-3.41,0-5.079,1.225-6.847,2.525c-1.802,1.324-3.667,2.693-7.361,2.693   c-3.695,0-5.56-1.369-7.364-2.693c-1.768-1.298-3.438-2.525-6.848-2.525c-3.41,0-5.079,1.225-6.847,2.525   c-1.803,1.324-3.668,2.693-7.364,2.693c-3.695,0-5.559-1.369-7.362-2.693c-1.768-1.298-3.437-2.525-6.847-2.525   s-5.079,1.225-6.847,2.525c-1.803,1.324-3.667,2.693-7.362,2.693s-5.559-1.369-7.362-2.693c-1.768-1.298-3.438-2.525-6.848-2.525   v-0.87c3.695,0,5.56,1.369,7.364,2.693c1.768,1.298,3.437,2.525,6.847,2.525s5.079-1.225,6.847-2.525   c1.803-1.324,3.667-2.693,7.362-2.693s5.559,1.369,7.362,2.693c1.768,1.298,3.437,2.525,6.847,2.525s5.08-1.225,6.848-2.525   c1.803-1.324,3.668-2.693,7.362-2.693c3.695,0,5.56,1.369,7.364,2.693c1.768,1.298,3.438,2.525,6.848,2.525   c3.41,0,5.078-1.225,6.845-2.525c1.802-1.324,3.668-2.693,7.362-2.693c3.695,0,5.56,1.369,7.365,2.693   c1.768,1.298,3.438,2.525,6.85,2.525s5.082-1.225,6.85-2.525c1.803-1.324,3.669-2.693,7.365-2.693c3.695,0,5.56,1.369,7.365,2.693   c1.768,1.298,3.44,2.525,6.851,2.525s5.083-1.225,6.851-2.525c1.803-1.324,3.669-2.693,7.365-2.693v0.87   c-3.411,0-5.082,1.225-6.85,2.523C158.552,190.014,156.686,191.383,152.989,191.383z"/>
</g>
<g>
	<path fill="#FFFFFF" d="M152.989,204.136c-3.697,0-5.562-1.369-7.366-2.694c-1.768-1.296-3.438-2.523-6.85-2.523   s-5.082,1.225-6.85,2.525c-1.803,1.324-3.669,2.693-7.365,2.693c-3.695,0-5.56-1.369-7.365-2.693   c-1.768-1.298-3.438-2.525-6.85-2.525c-3.41,0-5.079,1.225-6.847,2.525c-1.802,1.324-3.667,2.693-7.361,2.693   c-3.695,0-5.56-1.369-7.364-2.693c-1.768-1.298-3.438-2.525-6.848-2.525c-3.41,0-5.079,1.225-6.847,2.525   c-1.803,1.324-3.668,2.693-7.364,2.693c-3.695,0-5.559-1.369-7.362-2.693c-1.768-1.298-3.437-2.525-6.847-2.525   s-5.079,1.225-6.847,2.525c-1.803,1.324-3.667,2.693-7.362,2.693s-5.559-1.369-7.362-2.693c-1.768-1.298-3.438-2.525-6.848-2.525   v-0.87c3.695,0,5.56,1.369,7.364,2.693c1.768,1.298,3.437,2.525,6.847,2.525s5.079-1.225,6.847-2.525   c1.803-1.324,3.667-2.693,7.362-2.693s5.559,1.369,7.362,2.693c1.768,1.298,3.437,2.525,6.847,2.525s5.08-1.225,6.848-2.525   c1.803-1.324,3.668-2.693,7.362-2.693c3.695,0,5.56,1.369,7.364,2.693c1.768,1.298,3.438,2.525,6.848,2.525   c3.41,0,5.078-1.225,6.845-2.525c1.802-1.324,3.668-2.693,7.362-2.693c3.695,0,5.56,1.369,7.365,2.693   c1.768,1.298,3.438,2.525,6.85,2.525s5.082-1.225,6.85-2.525c1.803-1.324,3.669-2.693,7.365-2.693c3.695,0,5.56,1.369,7.365,2.693   c1.768,1.298,3.44,2.525,6.851,2.525s5.083-1.225,6.851-2.525c1.803-1.324,3.669-2.693,7.365-2.693v0.87   c-3.411,0-5.082,1.225-6.85,2.523C158.552,202.767,156.686,204.136,152.989,204.136z"/>
</g>
<g>
	<path fill="#151A4F" d="M97.66,226.739c-19.18,0-34.783-15.595-34.783-34.762s15.603-34.762,34.783-34.762   c19.179,0,34.783,15.595,34.783,34.762S116.839,226.739,97.66,226.739z"/>
	<path fill="#E94A47" d="M97.661,161.127c17.049,0,30.868,13.812,30.868,30.849s-13.821,30.849-30.868,30.849   s-30.868-13.812-30.868-30.849S80.612,161.127,97.661,161.127 M97.661,153.302c-21.339,0-38.699,17.349-38.699,38.675   s17.36,38.675,38.699,38.675s38.699-17.349,38.699-38.675S119,153.302,97.661,153.302L97.661,153.302z"/>
</g>
<rect x="78.664" y="174.349" fill="#888BAF" width="12.89" height="12.882"/>
<rect x="84.202" y="182.574" transform="matrix(0.2966 0.955 -0.955 0.2966 240.5292 46.9655)" fill="#FFFFFF" width="8.363" height="8.367"/>
<path fill="#A1C3FC" d="M97.661,155.388c20.22,0,36.611,16.381,36.611,36.588s-16.392,36.588-36.611,36.588  S61.05,212.182,61.05,191.976C61.048,171.769,77.44,155.388,97.661,155.388 M97.661,144.953c-25.945,0-47.052,21.095-47.052,47.023  s21.108,47.023,47.052,47.023s47.052-21.095,47.052-47.023S123.606,144.953,97.661,144.953L97.661,144.953z"/>
<g>
	<path fill="#FFFFFF" d="M65.234,131.383h-19.31v-19.299h19.31V131.383z M48.534,128.774h14.09v-14.08h-14.09V128.774z"/>
</g>
<g>
	<path fill="#FFFFFF" d="M88.46,131.383H69.15v-19.299h19.31V131.383z M71.761,128.774h14.09v-14.08h-14.09V128.774z"/>
</g>
<rect x="112.005" y="67.106" fill="#23286B" width="41.686" height="21.576"/>
<polygon fill="#D62929" points="157.794,39.004 150.97,34.916 155.06,28.096 161.885,32.184 "/>
<rect x="194.651" y="39.882" transform="matrix(0.8579 0.5139 -0.5139 0.8579 49.6418 -95.1972)" fill="#428DFC" width="4.513" height="4.512"/>
<rect x="166.964" y="71.808" transform="matrix(0.8579 0.5139 -0.5139 0.8579 62.1124 -76.4318)" fill="#D6D7D8" width="4.513" height="4.512"/>
<polygon fill="#D6D7D8" points="148.526,70.847 142.787,67.409 146.227,61.674 151.966,65.111 "/>
<g>
	<path fill="#A1C3FC" d="M106.501,212.912c-0.046,0-0.093-0.001-0.139-0.004c-0.239-0.015-0.422-0.221-0.406-0.462   c0.015-0.239,0.216-0.435,0.462-0.406c1.341,0.07,4.588-1.735,6.305-2.9c3.738-2.544,5.188-4.524,7.398-8.826   c2.245-4.371,2.663-9.38,1.121-13.398c-0.086-0.224,0.026-0.477,0.25-0.562c0.227-0.086,0.479,0.027,0.562,0.25   c1.63,4.245,1.196,9.519-1.159,14.107c-2.285,4.446-3.788,6.497-7.683,9.144C113.167,209.89,108.699,212.912,106.501,212.912z"/>
</g>
<g>
	<path fill="#151A4F" d="M12.037,145.297C5.4,145.297,0,139.901,0,133.268s5.4-12.03,12.037-12.03s12.037,5.397,12.037,12.03   C24.073,139.9,18.673,145.297,12.037,145.297z M12.037,122.108c-6.156,0-11.166,5.006-11.166,11.159   c0,6.152,5.009,11.159,11.166,11.159s11.166-5.006,11.166-11.159C23.202,127.114,18.193,122.108,12.037,122.108z"/>
</g>
<rect x="142.262" y="136.455" fill="#428DFC" width="12.181" height="12.173"/>
<path id="texture_16_-i8" fill="#FFFFFF" d="M132.958,234.554c0.187-0.1,0.278-0.293,0.176-0.48l0,0c-0.1-0.187-0.293-0.278-0.48-0.176  l0,0c-0.187,0.1-0.278,0.293-0.176,0.48l0,0C132.578,234.563,132.771,234.654,132.958,234.554L132.958,234.554z M161.858,213.783  c0.193,0.09,0.38-0.011,0.47-0.204s-0.011-0.38-0.204-0.47l0,0c-0.193-0.09-0.38,0.011-0.47,0.204  C161.469,213.51,161.665,213.694,161.858,213.783L161.858,213.783L161.858,213.783z M153.22,210.984  c0.193,0.09,0.38-0.011,0.47-0.204s-0.011-0.38-0.204-0.47l0,0c-0.193-0.09-0.38,0.011-0.47,0.204l0,0  C152.925,210.612,153.027,210.894,153.22,210.984L153.22,210.984z M148.95,228.306c0.09-0.193,0.085-0.383-0.016-0.57  c-0.193-0.09-0.383-0.085-0.57,0.016c-0.09,0.193-0.085,0.383,0.014,0.476C148.576,228.507,148.766,228.502,148.95,228.306z   M142.031,222.323c0.09-0.193,0.085-0.383-0.016-0.57c-0.193-0.09-0.383-0.085-0.57,0.016c-0.09,0.193-0.085,0.383,0.014,0.476  C141.655,222.523,141.941,222.516,142.031,222.323L142.031,222.323z M159.922,195.589c0.19-0.005,0.375-0.201,0.369-0.391  c-0.005-0.19-0.201-0.375-0.391-0.369l0,0c-0.19,0.005-0.375,0.201-0.369,0.391l0,0C159.536,195.41,159.732,195.594,159.922,195.589  z M150.81,196.224c0.19-0.005,0.375-0.201,0.369-0.391c-0.005-0.19-0.201-0.375-0.391-0.369c-0.19,0.005-0.375,0.201-0.369,0.391  l0,0C150.424,196.045,150.619,196.229,150.81,196.224L150.81,196.224L150.81,196.224z M142.952,234.843  c0.093-0.097,0.179-0.386-0.014-0.476c-0.097-0.093-0.386-0.179-0.476,0.014c-0.093,0.097-0.179,0.386,0.014,0.476l0,0  C142.578,235.044,142.768,235.038,142.952,234.843L142.952,234.843z M137.273,229.014c0.093-0.097,0.179-0.386-0.014-0.476  c-0.097-0.093-0.29-0.182-0.476,0.014c-0.093,0.097-0.182,0.29,0.014,0.476l0,0C136.99,229.117,137.18,229.111,137.273,229.014  L137.273,229.014L137.273,229.014z M156.441,203.765c0.19-0.005,0.377-0.105,0.372-0.295s-0.103-0.283-0.295-0.372l0,0  c-0.19,0.005-0.377,0.105-0.372,0.295l0,0C156.151,203.583,156.251,203.771,156.441,203.765L156.441,203.765z M148.353,203.612  c0.19-0.005,0.377-0.105,0.372-0.295c-0.005-0.19-0.103-0.283-0.295-0.372l0,0c-0.19,0.005-0.377,0.105-0.372,0.295l0,0  C148.063,203.43,148.163,203.617,148.353,203.612L148.353,203.612z M148.614,219.668c0.193,0.09,0.38-0.011,0.47-0.204  c0.09-0.193-0.011-0.38-0.204-0.47c-0.193-0.09-0.38,0.011-0.47,0.204C148.32,219.39,148.421,219.577,148.614,219.668  L148.614,219.668z M151.196,237.178c0.193,0.09,0.38-0.011,0.47-0.204s-0.011-0.38-0.204-0.47c-0.193-0.09-0.38,0.011-0.47,0.204  C150.904,236.902,151.004,237.089,151.196,237.178L151.196,237.178z M142.627,233.426c0.193,0.09,0.38-0.011,0.47-0.204  c0.09-0.193-0.011-0.38-0.204-0.47s-0.38,0.011-0.47,0.204C142.334,233.15,142.434,233.337,142.627,233.426L142.627,233.426z   M133.965,229.773c0.193,0.09,0.38-0.011,0.47-0.204c0.09-0.193-0.011-0.38-0.204-0.47s-0.38,0.011-0.47,0.204  C133.768,229.493,133.868,229.68,133.965,229.773z M152.089,197.804c0.187-0.1,0.278-0.293,0.176-0.48  c-0.1-0.187-0.293-0.278-0.48-0.176c-0.187,0.1-0.278,0.293-0.176,0.48C151.615,197.817,151.902,197.904,152.089,197.804  L152.089,197.804z M123.336,237.389c0.196,0.185,0.386,0.179,0.57-0.016 M151.139,218.171c0.19-0.005,0.375-0.201,0.369-0.391  c-0.005-0.19-0.201-0.375-0.391-0.369c-0.19,0.005-0.375,0.201-0.369,0.391l0,0C150.753,217.991,150.949,218.177,151.139,218.171  L151.139,218.171L151.139,218.171z M152.646,224.402c0.19-0.005,0.375-0.201,0.369-0.391c-0.005-0.19-0.201-0.375-0.391-0.369  c-0.19,0.006-0.377,0.105-0.369,0.391C152.26,224.223,152.456,224.407,152.646,224.402L152.646,224.402z M143.311,223.903  c0.19-0.005,0.375-0.201,0.369-0.391c-0.005-0.19-0.105-0.377-0.391-0.369c-0.19,0.005-0.375,0.201-0.465,0.394  C142.925,223.724,143.121,223.908,143.311,223.903L143.311,223.903z M134.382,237.84c0.193,0.09,0.38-0.011,0.47-0.204l0,0  c0.09-0.193-0.011-0.38-0.206-0.565c-0.193-0.09-0.38,0.011-0.565,0.206C134.089,237.562,134.189,237.75,134.382,237.84  L134.382,237.84z M132.67,234.466c0.19-0.005,0.283-0.103,0.375-0.201c-0.005-0.19-0.103-0.283-0.201-0.375  c-0.19,0.005-0.283,0.103-0.375,0.201l0,0C132.474,234.282,132.576,234.469,132.67,234.466L132.67,234.466L132.67,234.466z"/>

</g>
</g>
</g>

<!-- ITEM 9 -->
<g transform="translate(88.0 136.0) rotate(0.0 205.0 205.0) scale(4.1 4.1)">
<g transform="translate(-0.0 -0.0)">
<g clip-path="url(#clipPathId-collage-item-9)">
		<defs>
			<clipPath id="clipPathId-collage-item-9">
				<rect x="0.0" y="0.0" width="100.0" height="100.0"/>
			</clipPath>
		</defs>

<circle fill="#A1C3FC" cx="50" cy="50" r="50"/>

</g>
</g>
</g>

<!-- ITEM 10 -->
<g transform="translate(122.0 140.0) rotate(0.0 159.0 171.5) scale(1.143884892086331 1.1433333333333333)">
<g transform="translate(-0.0 -0.0)">
<g clip-path="url(#clipPathId-collage-item-10)">
		<defs>
			<clipPath id="clipPathId-collage-item-10">
				<rect x="0.0" y="0.0" width="278.0" height="300.0"/>
			</clipPath>
		</defs>

<rect y="0" fill="#E1ECFE" width="278" height="198.947"/>
<g>
	<path fill="#428DFC" d="M192.704,165.789H85.295V58.421h107.409L192.704,165.789L192.704,165.789z M94.772,156.316h88.454V67.895   H94.772C94.772,67.895,94.772,156.316,94.772,156.316z"/>
</g>
<g>
	<path fill="#E94A47" d="M209.815,149.474H61.338c-1.744,0-3.159-1.415-3.159-3.158s1.416-3.158,3.159-3.158h148.477   c1.744,0,3.159,1.415,3.159,3.158S211.561,149.474,209.815,149.474z"/>
</g>
<g>
	<path fill="#E94A47" d="M145.828,299.114c-0.36,0-0.684-0.245-0.767-0.608c-14.599-61.882-39.534-112.789-74.117-151.304   c-0.292-0.325-0.264-0.823,0.06-1.115c0.324-0.294,0.823-0.264,1.115,0.06C106.88,184.861,131.94,236,146.598,298.141   c0.099,0.426-0.163,0.849-0.586,0.951C145.948,299.109,145.886,299.114,145.828,299.114z"/>
</g>
<g>
	<path fill="#E94A47" d="M160.113,289.151c-0.406,0-0.752-0.311-0.785-0.725c-2.616-31.699-5.179-46.224-11.928-67.574   c-3.969-12.557-22.358-63.18-33.199-74.799c-0.297-0.319-0.279-0.818,0.039-1.116c0.319-0.297,0.818-0.279,1.116,0.039   c11.022,11.815,29.556,62.769,33.548,75.399c6.791,21.48,9.369,36.081,11.996,67.92c0.036,0.434-0.287,0.816-0.722,0.851   C160.159,289.149,160.136,289.151,160.113,289.151z"/>
</g>
<g>
	<path fill="#E94A47" d="M175.544,286.02c-0.014,0-0.028,0-0.043-0.002c-0.434-0.024-0.769-0.396-0.745-0.831   c2.579-47.272-5.508-95.435-23.388-139.279c-0.164-0.404,0.03-0.865,0.433-1.029c0.398-0.164,0.864,0.028,1.028,0.433   c17.968,44.059,26.094,92.458,23.502,139.963C176.309,285.695,175.959,286.02,175.544,286.02z"/>
</g>
<g>
	<path fill="#E94A47" d="M128.847,299.114c-0.06,0-0.122-0.006-0.182-0.022c-0.425-0.099-0.687-0.524-0.587-0.951   c14.66-62.141,39.719-113.28,74.48-151.994c0.292-0.324,0.791-0.352,1.115-0.06s0.352,0.789,0.06,1.115   c-34.582,38.515-59.52,89.421-74.117,151.304C129.529,298.869,129.203,299.114,128.847,299.114z"/>
</g>
<g>
	<path fill="#E94A47" d="M114.561,289.151c-0.022,0-0.044-0.002-0.066-0.003c-0.434-0.035-0.758-0.417-0.723-0.851   c2.628-31.841,5.206-46.442,11.996-67.92c3.992-12.63,22.526-63.584,33.55-75.399c0.295-0.319,0.796-0.336,1.115-0.039   s0.336,0.797,0.038,1.116c-10.839,11.621-29.228,62.242-33.198,74.799c-6.747,21.347-9.31,35.872-11.925,67.574   C115.313,288.84,114.968,289.151,114.561,289.151z"/>
</g>
<g>
	<path fill="#E94A47" d="M99.13,286.02c-0.417,0-0.764-0.325-0.788-0.747c-2.592-47.506,5.535-95.904,23.502-139.963   c0.164-0.404,0.625-0.6,1.029-0.433c0.403,0.164,0.597,0.625,0.433,1.029c-17.879,43.843-25.966,92.005-23.388,139.279   c0.024,0.434-0.309,0.808-0.745,0.831C99.158,286.02,99.144,286.02,99.13,286.02z"/>
</g>
<g>
	<path fill="#E94A47" d="M149.662,300c-0.065,0-0.129-0.008-0.196-0.025c-0.423-0.107-0.677-0.538-0.568-0.96   c5.972-23.384,15.18-43.947,28.975-64.713c0.243-0.366,0.736-0.456,1.094-0.223c0.363,0.242,0.463,0.733,0.223,1.094   c-13.694,20.616-22.834,41.024-28.762,64.233C150.336,299.763,150.016,300,149.662,300z"/>
</g>
<g>
	<path fill="#E94A47" d="M122.746,293.781c-0.354,0-0.676-0.238-0.764-0.598c-4.265-17.059-8.675-34.699-18.28-49.795   c-1.608-2.529-3.388-5.016-5.11-7.421L96.467,233c-0.254-0.355-0.172-0.848,0.183-1.101c0.357-0.254,0.848-0.172,1.102,0.182   l2.085,2.912c1.774,2.477,3.566,4.983,5.198,7.547c9.743,15.314,14.184,33.079,18.479,50.261c0.106,0.423-0.152,0.851-0.575,0.957   C122.874,293.773,122.809,293.781,122.746,293.781z"/>
</g>
<path id="texture_10_-i10" fill="#428DFC" d="M192.109,120.812c0.338-0.084,0.559-0.354,0.475-0.692l0,0  c-0.084-0.338-0.354-0.559-0.692-0.475l0,0c-0.338,0.084-0.559,0.354-0.475,0.692l0,0C191.5,120.674,191.77,120.895,192.109,120.812  L192.109,120.812z M246.437,99.526c0.27,0.221,0.608,0.137,0.829-0.133c0.221-0.27,0.137-0.608-0.133-0.829l0,0  c-0.27-0.221-0.608-0.137-0.829,0.133C245.932,98.932,246.167,99.305,246.437,99.526L246.437,99.526L246.437,99.526z   M233.852,91.577c0.27,0.221,0.608,0.137,0.829-0.133c0.221-0.27,0.137-0.608-0.133-0.829l0,0c-0.27-0.221-0.608-0.137-0.829,0.133  l0,0C233.533,90.867,233.582,91.356,233.852,91.577L233.852,91.577z M220.044,117.369c0.221-0.27,0.289-0.573,0.205-0.911  c-0.27-0.221-0.573-0.289-0.911-0.205c-0.221,0.27-0.289,0.573-0.172,0.759C219.368,117.537,219.672,117.605,220.044,117.369z   M211.48,105.058c0.221-0.27,0.289-0.573,0.205-0.911c-0.27-0.221-0.573-0.289-0.911-0.205c-0.221,0.27-0.289,0.573-0.172,0.759  C210.803,105.224,211.259,105.327,211.48,105.058L211.48,105.058z M250.741,69.834c0.303,0.068,0.676-0.167,0.745-0.471  c0.068-0.305-0.167-0.676-0.471-0.745l0,0c-0.303-0.068-0.676,0.167-0.745,0.471l0,0C250.201,69.392,250.437,69.764,250.741,69.834z   M236.009,67.149c0.303,0.068,0.676-0.167,0.745-0.471c0.068-0.305-0.167-0.676-0.471-0.745c-0.304-0.069-0.676,0.167-0.745,0.471  l0,0C235.47,66.709,235.705,67.082,236.009,67.149L236.009,67.149L236.009,67.149z M207.865,125.323  c0.186-0.118,0.441-0.54,0.172-0.759c-0.118-0.186-0.54-0.441-0.759-0.172c-0.186,0.118-0.441,0.54-0.172,0.759l0,0  C207.188,125.49,207.493,125.558,207.865,125.323L207.865,125.323z M201.208,113.762c0.186-0.118,0.441-0.54,0.172-0.759  c-0.118-0.186-0.387-0.407-0.759-0.172c-0.186,0.118-0.407,0.387-0.172,0.759l0,0C200.717,113.811,201.022,113.878,201.208,113.762  L201.208,113.762L201.208,113.762z M241.897,81.414c0.303,0.068,0.643-0.014,0.711-0.319s-0.049-0.489-0.319-0.711l0,0  c-0.303-0.068-0.643,0.014-0.711,0.319l0,0C241.51,81.006,241.592,81.344,241.897,81.414L241.897,81.414z M229.113,77.893  c0.303,0.068,0.643-0.014,0.711-0.319c0.068-0.305-0.049-0.489-0.319-0.711l0,0c-0.303-0.068-0.643,0.014-0.711,0.319l0,0  C228.724,77.485,228.807,77.823,229.113,77.893L229.113,77.893z M223.012,103.506c0.27,0.221,0.608,0.137,0.829-0.133  c0.221-0.27,0.137-0.608-0.133-0.829c-0.27-0.221-0.608-0.137-0.829,0.133C222.66,102.947,222.744,103.285,223.012,103.506  L223.012,103.506z M220.014,132.374c0.27,0.221,0.608,0.137,0.829-0.133c0.221-0.27,0.137-0.608-0.133-0.829  c-0.27-0.221-0.608-0.137-0.829,0.133C219.661,131.815,219.744,132.153,220.014,132.374L220.014,132.374z M207.923,122.94  c0.27,0.221,0.608,0.137,0.829-0.133c0.221-0.27,0.137-0.608-0.133-0.829c-0.27-0.221-0.608-0.137-0.829,0.133  C207.57,122.383,207.654,122.721,207.923,122.94L207.923,122.94z M195.647,113.626c0.27,0.221,0.608,0.137,0.829-0.133  s0.137-0.608-0.133-0.829c-0.27-0.221-0.608-0.137-0.829,0.133C195.446,113.1,195.53,113.439,195.647,113.626z M237.402,70.179  c0.338-0.084,0.559-0.354,0.475-0.692c-0.084-0.338-0.354-0.559-0.692-0.475c-0.338,0.084-0.559,0.354-0.475,0.692  C236.642,70.007,237.064,70.263,237.402,70.179L237.402,70.179z M175.676,121.419c0.235,0.373,0.54,0.441,0.911,0.205   M227.632,102.152c0.303,0.068,0.676-0.167,0.745-0.471c0.068-0.305-0.167-0.676-0.471-0.745c-0.303-0.069-0.676,0.167-0.745,0.471  l0,0C227.092,101.711,227.328,102.084,227.632,102.152L227.632,102.152L227.632,102.152z M227.497,112.661  c0.303,0.068,0.676-0.167,0.745-0.471c0.068-0.305-0.167-0.676-0.471-0.745c-0.303-0.068-0.643,0.014-0.745,0.471  C226.958,112.221,227.194,112.593,227.497,112.661L227.497,112.661z M212.873,108.087c0.303,0.068,0.676-0.167,0.745-0.471  c0.068-0.305-0.014-0.643-0.471-0.745c-0.303-0.068-0.676,0.167-0.897,0.436C212.333,107.646,212.568,108.017,212.873,108.087  L212.873,108.087z M193.036,126.611c0.27,0.221,0.608,0.137,0.829-0.133l0,0c0.221-0.27,0.137-0.608-0.098-0.981  c-0.27-0.221-0.608-0.137-0.981,0.098C192.684,126.052,192.767,126.39,193.036,126.611L193.036,126.611z M191.686,120.557  c0.303,0.068,0.489-0.049,0.676-0.167c0.068-0.305-0.049-0.489-0.167-0.676c-0.303-0.068-0.489,0.049-0.676,0.167l0,0  C191.451,120.185,191.535,120.523,191.686,120.557L191.686,120.557L191.686,120.557z"/>

</g>
</g>
</g>

<!-- ITEM 11 -->
<g transform="translate(686.0 120.0) rotate(0.0 156.0 156.0) scale(3.12 3.12)">
<g transform="translate(-0.0 -0.0)">
<g clip-path="url(#clipPathId-collage-item-11)">
		<defs>
			<clipPath id="clipPathId-collage-item-11">
				<rect x="0.0" y="0.0" width="100.0" height="100.0"/>
			</clipPath>
		</defs>

<circle fill="#A1C3FC" cx="50" cy="50" r="50"/>

</g>
</g>
</g>

<!-- ITEM 12 -->
<g transform="translate(376.0 310.0) rotate(0.0 78.5 78.5) scale(0.314 0.314)">
<g transform="translate(-0.0 -0.0)">
<g clip-path="url(#clipPathId-collage-item-12)">
		<defs>
			<clipPath id="clipPathId-collage-item-12">
				<rect x="0.0" y="0.0" width="500.0" height="500.0"/>
			</clipPath>
		</defs>

<g>
	
		<linearGradient id="SVGID_1_-i12" gradientUnits="userSpaceOnUse" x1="-12.4897" y1="578.3794" x2="50.01" y2="578.3794" gradientTransform="matrix(8 0 0 -8 100 4800)">
		<stop offset="0" style="stop-color:#FBB03B"/>
		<stop offset="1" style="stop-color:#F7931E"/>
	</linearGradient>
	<path fill="url(#SVGID_1_-i12)" d="M50.653,99.163c-31.166,41.126-49.866,92.19-50.571,147.604h201.347   C199.634,170.311,134.24,107.595,50.653,99.163z"/>
	
		<linearGradient id="SVGID_2_-i12" gradientUnits="userSpaceOnUse" x1="-12.4996" y1="584.5693" x2="50.0001" y2="584.5693" gradientTransform="matrix(8 0 0 -8 100 4800)">
		<stop offset="0" style="stop-color:#FBB03B"/>
		<stop offset="1" style="stop-color:#F7931E"/>
	</linearGradient>
	<path fill="url(#SVGID_2_-i12)" d="M208.285,246.767h36.618V0.123C168.468,1.658,100.464,37.447,55.626,92.827   C140.61,103.307,206.518,168.091,208.285,246.767z"/>
	
		<linearGradient id="SVGID_3_-i12" gradientUnits="userSpaceOnUse" x1="-12.4996" y1="584.5745" x2="50.0001" y2="584.5745" gradientTransform="matrix(8 0 0 -8 100 4800)">
		<stop offset="0" style="stop-color:#FBB03B"/>
		<stop offset="1" style="stop-color:#F7931E"/>
	</linearGradient>
	<path fill="url(#SVGID_3_-i12)" d="M290.66,246.767c1.767-78.977,68.175-143.946,153.625-154.05   C398.796,36.591,329.504,0.575,251.754,0.041v246.726H290.66z"/>
	
		<linearGradient id="SVGID_4_-i12" gradientUnits="userSpaceOnUse" x1="-12.4996" y1="578.3862" x2="50.0001" y2="578.3862" gradientTransform="matrix(8 0 0 -8 100 4800)">
		<stop offset="0" style="stop-color:#FBB03B"/>
		<stop offset="1" style="stop-color:#F7931E"/>
	</linearGradient>
	<path fill="url(#SVGID_4_-i12)" d="M297.509,246.767h202.408c-0.706-55.462-19.439-106.567-50.653-147.714   C365.205,107.095,299.318,170.009,297.509,246.767z"/>
	
		<linearGradient id="SVGID_5_-i12" gradientUnits="userSpaceOnUse" x1="-12.488" y1="559.097" x2="50.0117" y2="559.097" gradientTransform="matrix(8 0 0 -8 100 4800)">
		<stop offset="0" style="stop-color:#FBB03B"/>
		<stop offset="1" style="stop-color:#F7931E"/>
	</linearGradient>
	<path fill="url(#SVGID_5_-i12)" d="M201.422,253.617H0.096C0.884,308.88,19.563,359.801,50.66,400.83   C134.096,392.405,199.401,329.888,201.422,253.617z"/>
	
		<linearGradient id="SVGID_6_-i12" gradientUnits="userSpaceOnUse" x1="-12.4996" y1="552.9075" x2="50.0001" y2="552.9075" gradientTransform="matrix(8 0 0 -8 100 4800)">
		<stop offset="0" style="stop-color:#FBB03B"/>
		<stop offset="1" style="stop-color:#F7931E"/>
	</linearGradient>
	<path fill="url(#SVGID_6_-i12)" d="M208.272,253.617c-1.98,78.497-67.805,143.083-152.639,153.543   c44.831,55.38,112.835,91.169,189.271,92.704V253.617L208.272,253.617L208.272,253.617z"/>
	
		<linearGradient id="SVGID_7_-i12" gradientUnits="userSpaceOnUse" x1="-12.4996" y1="559.0902" x2="50.0001" y2="559.0902" gradientTransform="matrix(8 0 0 -8 100 4800)">
		<stop offset="0" style="stop-color:#FBB03B"/>
		<stop offset="1" style="stop-color:#F7931E"/>
	</linearGradient>
	<path fill="url(#SVGID_7_-i12)" d="M297.523,253.617c2.028,76.573,67.832,139.288,151.734,147.323   c31.146-41.05,49.859-92.005,50.647-147.323H297.523z"/>
	
		<linearGradient id="SVGID_8_-i12" gradientUnits="userSpaceOnUse" x1="-12.4996" y1="552.9024" x2="50.0001" y2="552.9024" gradientTransform="matrix(8 0 0 -8 100 4800)">
		<stop offset="0" style="stop-color:#FBB03B"/>
		<stop offset="1" style="stop-color:#F7931E"/>
	</linearGradient>
	<path fill="url(#SVGID_8_-i12)" d="M290.673,253.617h-38.92v246.329c77.751-0.534,147.042-36.55,192.531-92.676   C358.979,397.179,292.66,332.415,290.673,253.617z"/>
	<path fill="#23286B" d="M297.523,253.617h202.388c0.014-1.212,0.089-2.411,0.089-3.623c0-1.082-0.069-2.144-0.082-3.226H297.509   c1.808-76.758,67.695-139.672,151.748-147.714c-1.623-2.137-3.288-4.247-4.973-6.329c-85.45,10.103-151.858,75.073-153.625,154.05   h-38.906V0.041C251.164,0.034,250.589,0,250,0c-1.712,0-3.397,0.096-5.096,0.13v246.644h-36.618   c-1.767-78.682-67.675-143.467-152.659-153.947c-1.685,2.082-3.356,4.192-4.973,6.329c83.587,8.439,148.981,71.148,150.775,147.604   H0.082C0.068,247.836,0,248.904,0,249.986c0,1.212,0.075,2.411,0.089,3.623h201.326c-2.021,76.271-67.326,138.788-150.762,147.214   c1.623,2.137,3.288,4.247,4.973,6.329c84.833-10.459,150.659-75.045,152.639-153.543h36.632v246.246   c1.699,0.034,3.391,0.13,5.096,0.13c0.589,0,1.164-0.041,1.754-0.041V253.617h38.92c1.986,78.799,68.312,143.563,153.611,153.652   c1.692-2.082,3.349-4.192,4.973-6.329C365.356,392.905,299.551,330.189,297.523,253.617z"/>
	
		<rect x="319.347" y="73.918" transform="matrix(-0.7071 -0.7071 0.7071 -0.7071 527.2219 434.8788)" fill="#E94A47" width="68.661" height="68.661"/>
	
		<rect x="309.028" y="296.641" transform="matrix(0.068 -0.9977 0.9977 0.068 -10.7123 666.238)" fill="#FFFFFF" width="84.424" height="84.424"/>
	
		<rect x="163.718" y="285.073" transform="matrix(0.068 -0.9977 0.9977 0.068 -134.0601 494.5955)" fill="#89B3F4" width="67.957" height="67.957"/>
</g>

</g>
</g>
</g>

<!-- ITEM 13 -->
<g transform="translate(773.0 102.0) rotate(0.0 92.0 137.0) scale(0.7842334969994544 0.781961238695095)">
<g transform="translate(-0.0 -0.0)">
<g clip-path="url(#clipPathId-collage-item-13)">
		<defs>
			<clipPath id="clipPathId-collage-item-13">
				<rect x="0.0" y="0.0" width="234.624" height="350.401"/>
			</clipPath>
		</defs>

<rect x="124.624" y="244.928" fill="#23286B" width="12" height="51.449"/>
<rect x="96.67" y="136.312" transform="matrix(-0.9397 -0.342 0.342 -0.9397 150.6328 356.0455)" fill="#E94A47" width="20.074" height="56.861"/>
<rect x="142.543" y="2.666" transform="matrix(-0.9397 -0.342 0.342 -0.9397 290.6953 113.45)" fill="#428DFC" width="25.614" height="56.861"/>
<rect x="105.736" y="14.362" transform="matrix(-0.9397 -0.342 0.342 -0.9397 227.0175 223.743)" fill="#23286B" width="54.997" height="154.991"/>
<path fill="#23286B" d="M96.828,324.963h54.997v-37.492c0-15.187-12.311-27.498-27.498-27.498h0  c-15.187,0-27.498,12.311-27.498,27.498V324.963z"/>
<g>
	<path fill="#23286B" d="M127.624,293.377v-20c47.972,0,87-39.028,87-87s-39.028-87-87-87v-20c59,0,107,48,107,107   S186.624,293.377,127.624,293.377z"/>
</g>
<circle fill="#428DFC" cx="158.624" cy="91.377" r="20"/>
<circle fill="#428DFC" cx="124.326" cy="285.377" r="20"/>
<rect x="34.624" y="239.377" fill="#428DFC" width="102" height="12"/>
<path fill="#428DFC" d="M0,349.401h188.559v-7.552c0-9.723-7.882-17.605-17.605-17.605H17.605C7.882,324.244,0,332.126,0,341.848  V349.401z"/>

</g>
</g>
</g>

<!-- ITEM 14 -->
<g transform="translate(733.0 206.0) rotate(351.8889826704886 18.5 54.0) scale(1.1724072372381888 1.1665964548429957)">
<g transform="translate(-0.0 -0.0)">
<g clip-path="url(#clipPathId-collage-item-14)">
		<defs>
			<clipPath id="clipPathId-collage-item-14">
				<rect x="0.0" y="0.0" width="31.559" height="92.577"/>
			</clipPath>
		</defs>

<path fill="#C4D9FD" d="M0.355,0L0,76.971c-0.014,8.617,5.344,15.588,15.344,15.601v0.004c9,0.014,15.846-6.941,15.86-15.558  L31.559,0H0.355z"/>
<linearGradient id="SVGID_1_-i14" gradientUnits="userSpaceOnUse" x1="5467.4282" y1="51.8567" x2="5477.6084" y2="71.6361" gradientTransform="matrix(1 0 0 1 -5451.8599 0)">
	<stop offset="0" style="stop-color:#E94A47"/>
	<stop offset="1" style="stop-color:#D62929"/>
</linearGradient>
<path fill="url(#SVGID_1_-i14)" d="M4.79,26L4.472,75.786c-0.01,6.146,4.872,10.681,10.872,10.69v-0.012  c7,0.01,11.373-4.491,11.383-10.637L27.045,26H4.79z"/>
<rect x="7.999" y="46.913" fill="#FFFFFF" width="5.806" height="5.806"/>
<rect x="15.996" y="23.42" fill="#FFFFFF" width="5.806" height="5.806"/>
<rect x="15.027" y="72.332" transform="matrix(0.925 -0.38 0.38 0.925 -27.2416 12.4551)" fill="#FFFFFF" width="5.806" height="5.806"/>
<rect x="11.885" y="58.044" transform="matrix(0.7596 0.6503 -0.6503 0.7596 43.6971 4.7981)" fill="#FFFFFF" width="6.944" height="6.944"/>

</g>
</g>
</g>

<!-- ITEM 15 -->
<g transform="translate(1014.0 196.0) rotate(36.92629595357086 9.0 9.0) scale(0.18 0.18)">
<g transform="translate(-0.0 -0.0)">
<g clip-path="url(#clipPathId-collage-item-15)">
		<defs>
			<clipPath id="clipPathId-collage-item-15">
				<rect x="0.0" y="0.0" width="100.0" height="100.0"/>
			</clipPath>
		</defs>

<path fill="#23286B" d="M98.663,98.531c-33.052,1.963-65.546,1.955-97.487,0c-1.46-34.57-1.676-67.372,0-97.487  c32.497-1.392,64.992-1.392,97.487,0C100.512,32.524,100.381,65.091,98.663,98.531z"/>

</g>
</g>
</g>

<!-- ITEM 16 -->
<g transform="translate(168.0 237.0) rotate(335.90608399738494 6.5 6.5) scale(0.13 0.13)">
<g transform="translate(-0.0 -0.0)">
<g clip-path="url(#clipPathId-collage-item-16)">
		<defs>
			<clipPath id="clipPathId-collage-item-16">
				<rect x="0.0" y="0.0" width="100.0" height="100.0"/>
			</clipPath>
		</defs>

<path fill="#23286B" d="M98.663,98.531c-33.052,1.963-65.546,1.955-97.487,0c-1.46-34.57-1.676-67.372,0-97.487  c32.497-1.392,64.992-1.392,97.487,0C100.512,32.524,100.381,65.091,98.663,98.531z"/>

</g>
</g>
</g>

<!-- ITEM 17 -->
<g transform="translate(164.0 166.0) rotate(340.2737603377064 12.0 12.0) scale(0.24 0.24)">
<g transform="translate(-0.0 -0.0)">
<g clip-path="url(#clipPathId-collage-item-17)">
		<defs>
			<clipPath id="clipPathId-collage-item-17">
				<rect x="0.0" y="0.0" width="100.0" height="100.0"/>
			</clipPath>
		</defs>

<path fill="#E94A47" d="M98.663,98.531c-33.052,1.963-65.546,1.955-97.487,0c-1.46-34.57-1.676-67.372,0-97.487  c32.497-1.392,64.992-1.392,97.487,0C100.512,32.524,100.381,65.091,98.663,98.531z"/>

</g>
</g>
</g>

<!-- ITEM 18 -->
<g transform="translate(174.0 790.0) rotate(0.0 8.0 8.0) scale(0.16 0.16)">
<g transform="translate(-0.0 -0.0)">
<g clip-path="url(#clipPathId-collage-item-18)">
		<defs>
			<clipPath id="clipPathId-collage-item-18">
				<rect x="0.0" y="0.0" width="100.0" height="100.0"/>
			</clipPath>
		</defs>

<path fill="#E94A47" d="M98.663,98.531c-33.052,1.963-65.546,1.955-97.487,0c-1.46-34.57-1.676-67.372,0-97.487  c32.497-1.392,64.992-1.392,97.487,0C100.512,32.524,100.381,65.091,98.663,98.531z"/>

</g>
</g>
</g>

<!-- ITEM 19 -->
<g transform="translate(1030.0 142.0) rotate(26.5203138604453 13.5 13.5) scale(0.27 0.27)">
<g transform="translate(-0.0 -0.0)">
<g clip-path="url(#clipPathId-collage-item-19)">
		<defs>
			<clipPath id="clipPathId-collage-item-19">
				<rect x="0.0" y="0.0" width="100.0" height="100.0"/>
			</clipPath>
		</defs>

<path fill="#E94A47" d="M98.663,98.531c-33.052,1.963-65.546,1.955-97.487,0c-1.46-34.57-1.676-67.372,0-97.487  c32.497-1.392,64.992-1.392,97.487,0C100.512,32.524,100.381,65.091,98.663,98.531z"/>

</g>
</g>
</g>

<!-- ITEM 20 -->
<g transform="translate(710.0 472.0) rotate(13.698915274148964 10.5 10.5) scale(0.21 0.21)">
<g transform="translate(-0.0 -0.0)">
<g clip-path="url(#clipPathId-collage-item-20)">
		<defs>
			<clipPath id="clipPathId-collage-item-20">
				<rect x="0.0" y="0.0" width="100.0" height="100.0"/>
			</clipPath>
		</defs>

<path fill="#E94A47" d="M98.663,98.531c-33.052,1.963-65.546,1.955-97.487,0c-1.46-34.57-1.676-67.372,0-97.487  c32.497-1.392,64.992-1.392,97.487,0C100.512,32.524,100.381,65.091,98.663,98.531z"/>

</g>
</g>
</g>

<!-- ITEM 21 -->
<g transform="translate(181.0 840.0) rotate(321.9336644004849 11.5 11.5) scale(0.23 0.23)">
<g transform="translate(-0.0 -0.0)">
<g clip-path="url(#clipPathId-collage-item-21)">
		<defs>
			<clipPath id="clipPathId-collage-item-21">
				<rect x="0.0" y="0.0" width="100.0" height="100.0"/>
			</clipPath>
		</defs>

<path fill="#23286B" d="M98.663,98.531c-33.052,1.963-65.546,1.955-97.487,0c-1.46-34.57-1.676-67.372,0-97.487  c32.497-1.392,64.992-1.392,97.487,0C100.512,32.524,100.381,65.091,98.663,98.531z"/>

</g>
</g>
</g>

<!-- ITEM 22 -->
<g transform="translate(1062.0 217.0) rotate(0.0 6.0 6.0) scale(0.12 0.12)">
<g transform="translate(-0.0 -0.0)">
<g clip-path="url(#clipPathId-collage-item-22)">
		<defs>
			<clipPath id="clipPathId-collage-item-22">
				<rect x="0.0" y="0.0" width="100.0" height="100.0"/>
			</clipPath>
		</defs>

<circle fill="#A1C3FC" cx="50" cy="50" r="50"/>

</g>
</g>
</g>

<!-- ITEM 23 -->
<g transform="translate(192.0 209.0) rotate(0.0 6.0 6.0) scale(0.12 0.12)">
<g transform="translate(-0.0 -0.0)">
<g clip-path="url(#clipPathId-collage-item-23)">
		<defs>
			<clipPath id="clipPathId-collage-item-23">
				<rect x="0.0" y="0.0" width="100.0" height="100.0"/>
			</clipPath>
		</defs>

<circle fill="#A1C3FC" cx="50" cy="50" r="50"/>

</g>
</g>
</g>

<!-- ITEM 24 -->
<g transform="translate(527.0 932.0) rotate(0.0 71.5 71.5) scale(1.43 1.43)">
<g transform="translate(-0.0 -0.0)">
<g clip-path="url(#clipPathId-collage-item-24)">
		<defs>
			<clipPath id="clipPathId-collage-item-24">
				<rect x="0.0" y="0.0" width="100.0" height="100.0"/>
			</clipPath>
		</defs>

<circle fill="#e6ecfd" cx="50" cy="50" r="50"/>

</g>
</g>
</g>

              </svg>