<?xml version="1.0" encoding="iso-8859-1"?>
<!-- Generator: Adobe Illustrator 23.0.2, SVG Export Plug-In . SVG Version: 6.00 Build 0)  -->
<svg version="1.1" id="illustration" xmlns="http://www.w3.org/2000/svg" xmlns:xlink="http://www.w3.org/1999/xlink" x="0px"
	 y="0px" viewBox="0 0 1080 720" style="enable-background:new 0 0 1080 720;" xml:space="preserve">
<title>sign in</title>
<g id="woman">
	
		<linearGradient id="rounded_rect_1_" gradientUnits="userSpaceOnUse" x1="540.2188" y1="367.4283" x2="576.7862" y2="65.7475" gradientTransform="matrix(1 0 0 -1 0 722)">
		<stop  offset="0.0898" style="stop-color:#EEEEEE"/>
		<stop  offset="0.8178" style="stop-color:#D6D7D8"/>
	</linearGradient>
	<path id="rounded_rect" style="fill:url(#rounded_rect_1_);" d="M810.27,386.26c0.006,61.547-49.883,111.444-111.43,111.45
		c-0.007,0-0.013,0-0.02,0H389.3c-61.552,0-111.45-49.898-111.45-111.45s49.898-111.45,111.45-111.45h309.52
		C760.372,274.811,810.268,324.708,810.27,386.26z"/>
	
		<linearGradient id="L_trousers_1_" gradientUnits="userSpaceOnUse" x1="601.4285" y1="334.5733" x2="471.4782" y2="336.3657" gradientTransform="matrix(1 0 0 -1 0 722)">
		<stop  offset="0" style="stop-color:#23286B"/>
		<stop  offset="0.4316" style="stop-color:#1D225F"/>
		<stop  offset="1" style="stop-color:#151A4F"/>
	</linearGradient>
	<path id="L_trousers" style="fill:url(#L_trousers_1_);" d="M542.22,497.71h-44.09c-6.68-11.38,5.06-26.61-0.77-45.27
		c-6.15-19.7-6.43-25.08-40.71-78.26c-34.29-53.22-40.76-76.55-40.31-80.24c2.356-0.799,4.774-1.401,7.23-1.8
		c11.71-1.88,37.55-7.07,54.45-17.33c0.27-0.16,0.54-0.32,0.8-0.49l0.91-0.28c0.05,0.26,0.11,0.52,0.17,0.77
		c5.34,24.54,19.25,47.37,33.79,70.67c14.69,23.56,27.22,44.55,41.14,75.1C559.76,431.39,552.68,454.26,542.22,497.71z"/>
	<path id="R_trousers" style="fill:#23286B;" d="M502.895,358.793c-6.146-26.19-15.184-47.973-11.819-72.303l-0.964-0.038
		c-19.735,4.238-46.915,0.608-58.968-1.476c-2.491-0.425-5.012-0.651-7.538-0.677c-1.675,3.218-13.891,29.913,11.585,86.133
		c27.238,60.096,11.621,70.229,6.167,89.5c-5.472,19.256-8.29,30.989-5.112,48.533s-5.408,13.505-7.791,36.712
		c-2.112,20.716,0.384,42.212,1.283,46.583h35.735c11.85-38.121,47.892-126.306,48.178-147.487
		C514.019,417.046,509.025,385.001,502.895,358.793z"/>
	
		<linearGradient id="L_hand_1_" gradientUnits="userSpaceOnUse" x1="557.7142" y1="436.6703" x2="516.8023" y2="459.8178" gradientTransform="matrix(1 0 0 -1 0 722)">
		<stop  offset="0" style="stop-color:#FFBEB6"/>
		<stop  offset="1" style="stop-color:#F2A19C"/>
	</linearGradient>
	<path id="L_hand" style="fill:url(#L_hand_1_);" d="M504.959,255.006c0,0,30.177,19.547,45.952,13.374s30.863,0,36.35,7.201
		h-96.704l-5.144-13.031l12.688-8.573L504.959,255.006"/>
	
		<linearGradient id="handle_1_" gradientUnits="userSpaceOnUse" x1="413.8033" y1="304.081" x2="467.8226" y2="304.081" gradientTransform="matrix(1 0 0 -1 0 722)">
		<stop  offset="0" style="stop-color:#A1C3FC"/>
		<stop  offset="0.6955" style="stop-color:#81AEF2"/>
		<stop  offset="1" style="stop-color:#78A9EF"/>
	</linearGradient>
	<path id="handle" style="fill:url(#handle_1_);" d="M416.053,431.517c0.868-11.458,9.172-21.867,20.481-24.587
		c11.329-2.725,23.39,2.953,29.344,12.728c1.254,2.058,4.498,0.176,3.238-1.893c-6.848-11.244-20.596-17.569-33.579-14.451
		c-13.001,3.122-22.243,15.117-23.235,28.203C412.12,433.924,415.871,433.912,416.053,431.517L416.053,431.517z"/>
	<path id="texture" style="opacity:0.65;fill:#FFFFFF;enable-background:new    ;" d="M474.231,331.475
		c0.129,0.056,0.279-0.003,0.334-0.132s-0.003-0.279-0.132-0.334s-0.279,0.003-0.334,0.132c0,0,0,0,0,0
		C474.043,331.269,474.102,331.419,474.231,331.475C474.231,331.475,474.231,331.475,474.231,331.475z M476.659,325.752
		c0.134,0.053,0.287-0.005,0.352-0.135c0.049-0.133-0.017-0.281-0.149-0.332c-0.118-0.06-0.263-0.013-0.323,0.105
		c-0.004,0.009-0.008,0.018-0.012,0.027C476.471,325.546,476.53,325.696,476.659,325.752
		C476.659,325.752,476.659,325.752,476.659,325.752z M479.104,320.027c0.129,0.056,0.278-0.003,0.334-0.132c0,0,0,0,0,0
		c0.053-0.134-0.005-0.287-0.134-0.352c-0.138-0.046-0.289,0.019-0.349,0.152C478.906,319.828,478.972,319.976,479.104,320.027
		L479.104,320.027z M481.532,314.304c0.129,0.056,0.278-0.003,0.334-0.132c0,0,0,0,0,0c0.055-0.134-0.004-0.288-0.134-0.352
		c-0.129-0.056-0.278,0.003-0.334,0.132c0,0,0,0,0,0C481.343,314.087,481.402,314.241,481.532,314.304L481.532,314.304z
		 M465.345,321.354c0.096,0.099,0.254,0.102,0.353,0.006c0.099-0.096,0.102-0.254,0.006-0.353c-0.096-0.099-0.254-0.102-0.353-0.006
		c-0.099,0.086-0.109,0.236-0.024,0.335C465.333,321.342,465.338,321.348,465.345,321.354L465.345,321.354z M469.784,317.002
		c0.075,0.079,0.195,0.093,0.286,0.033l0.017-0.002c0.019,0,0.038-0.009,0.05-0.024c0.061-0.056,0.089-0.139,0.076-0.221
		c-0.009-0.056-0.034-0.108-0.072-0.149c-0.096-0.098-0.253-0.101-0.353-0.006c-0.103,0.096-0.109,0.257-0.013,0.36
		C469.777,316.995,469.78,316.998,469.784,317.002L469.784,317.002z M474.223,312.649c0.1,0.093,0.257,0.088,0.35-0.011
		c0.099-0.095,0.103-0.253,0.008-0.353s-0.253-0.103-0.353-0.008c-0.001,0-0.001,0.001-0.002,0.001
		c-0.103,0.096-0.109,0.257-0.013,0.36C474.216,312.643,474.219,312.646,474.223,312.649L474.223,312.649z M487.093,330.671
		c0.009,0.142,0.122,0.255,0.264,0.264c0.146,0,0.264-0.118,0.264-0.264c0-0.146-0.118-0.264-0.264-0.264
		C487.215,330.416,487.102,330.529,487.093,330.671L487.093,330.671z M487.15,324.453c0.004,0.14,0.121,0.251,0.261,0.247
		c0,0,0,0,0.001,0c0.135,0.011,0.254-0.089,0.266-0.225c0.001-0.007,0.001-0.014,0.001-0.022c-0.003-0.144-0.119-0.26-0.264-0.264
		C487.272,324.198,487.159,324.311,487.15,324.453L487.15,324.453z M440.326,332.809c0.171,0.204,0.475,0.232,0.68,0.061
		c0.004-0.004,0.009-0.008,0.013-0.011c0.201-0.171,0.225-0.472,0.054-0.672c-0.001-0.001-0.002-0.002-0.003-0.003
		c-0.171-0.204-0.475-0.232-0.68-0.061c-0.004,0.004-0.009,0.008-0.013,0.011c-0.201,0.171-0.225,0.472-0.054,0.672
		C440.324,332.807,440.325,332.808,440.326,332.809z M449.27,325.134c0.178,0.205,0.488,0.227,0.693,0.049s0.227-0.488,0.049-0.693
		c-0.171-0.201-0.472-0.225-0.672-0.054c-0.001,0.001-0.002,0.002-0.003,0.003C449.132,324.615,449.103,324.921,449.27,325.134
		L449.27,325.134z M458.231,317.456c0.178,0.205,0.488,0.227,0.693,0.049c0.205-0.178,0.227-0.488,0.049-0.693
		c-0.178-0.205-0.488-0.227-0.693-0.049c-0.204,0.171-0.232,0.475-0.061,0.679C458.223,317.447,458.227,317.452,458.231,317.456
		L458.231,317.456z M475.546,362.567c-0.015,0.269,0.187,0.5,0.456,0.52c0.258,0.03,0.491-0.155,0.52-0.412
		c0.001-0.009,0.002-0.018,0.002-0.026c0.015-0.269-0.188-0.5-0.456-0.52C475.803,362.105,475.569,362.301,475.546,362.567
		C475.546,362.567,475.546,362.567,475.546,362.567L475.546,362.567z M476.438,350.819c-0.019,0.27,0.183,0.504,0.453,0.523
		c0.269,0.019,0.504-0.183,0.523-0.453c0-0.002,0-0.004,0-0.006c0.023-0.265-0.173-0.499-0.438-0.523c0,0,0,0-0.001,0
		C476.704,350.35,476.47,350.55,476.438,350.819z M477.345,339.051c-0.022,0.264,0.174,0.497,0.439,0.519
		c0.006,0,0.012,0.001,0.017,0.001c0.258,0.03,0.491-0.155,0.52-0.412c0.001-0.009,0.002-0.018,0.002-0.026
		c0.011-0.271-0.189-0.505-0.458-0.538C477.596,338.58,477.365,338.783,477.345,339.051z M478.237,327.303
		c-0.018,0.27,0.186,0.503,0.456,0.52s0.503-0.186,0.52-0.456c0.023-0.265-0.173-0.499-0.438-0.523c0,0-0.001,0-0.001,0
		c-0.269-0.027-0.509,0.169-0.536,0.438C478.238,327.29,478.237,327.296,478.237,327.303z M479.144,315.535
		c-0.024,0.264,0.17,0.499,0.435,0.523c0.264,0.024,0.499-0.17,0.523-0.435c0.001-0.007,0.001-0.014,0.001-0.021
		c0.026-0.262-0.166-0.496-0.428-0.522c-0.004,0-0.007-0.001-0.011-0.001C479.395,315.064,479.164,315.266,479.144,315.535
		L479.144,315.535z M453.205,350.9c0.242,0.113,0.53,0.008,0.643-0.234c0.113-0.242,0.008-0.53-0.234-0.643
		c-0.237-0.111-0.519-0.013-0.637,0.221C452.863,350.488,452.964,350.779,453.205,350.9L453.205,350.9z M458.535,340.377
		c0.242,0.113,0.53,0.008,0.643-0.234c0.113-0.242,0.008-0.53-0.234-0.643c-0.237-0.111-0.519-0.013-0.637,0.221
		C458.193,339.965,458.294,340.256,458.535,340.377L458.535,340.377z M463.867,329.872c0.248,0.117,0.543,0.012,0.661-0.236
		c0.113-0.239,0.019-0.525-0.215-0.65c-0.242-0.129-0.542-0.038-0.671,0.204c-0.129,0.242-0.038,0.542,0.204,0.671
		C463.853,329.865,463.86,329.868,463.867,329.872z M469.194,319.332c0.234,0.126,0.526,0.037,0.652-0.197
		c0.002-0.004,0.005-0.009,0.007-0.013c0.125-0.236,0.035-0.529-0.201-0.654c-0.236-0.125-0.529-0.035-0.654,0.201
		c-0.004,0.007-0.007,0.014-0.011,0.022c-0.123,0.223-0.043,0.504,0.18,0.627C469.176,319.323,469.185,319.327,469.194,319.332
		L469.194,319.332z M497.924,354.435c0.089,0.254,0.365,0.39,0.621,0.305c0.251-0.08,0.389-0.348,0.309-0.598
		c-0.001-0.002-0.001-0.004-0.002-0.005c-0.065-0.25-0.32-0.4-0.57-0.336c-0.012,0.003-0.024,0.007-0.036,0.011
		C497.994,353.905,497.854,354.175,497.924,354.435L497.924,354.435z M494.259,343.219c0.093,0.252,0.363,0.392,0.623,0.322
		c0.254-0.089,0.39-0.365,0.305-0.621c-0.084-0.254-0.358-0.392-0.612-0.308c-0.003,0.001-0.006,0.002-0.009,0.003
		c-0.251,0.08-0.389,0.348-0.309,0.598C494.258,343.215,494.259,343.217,494.259,343.219L494.259,343.219z M490.596,332.02
		c0.074,0.247,0.334,0.388,0.582,0.314c0.007-0.002,0.015-0.005,0.022-0.007c0.257-0.074,0.404-0.343,0.33-0.6
		c-0.002-0.008-0.005-0.016-0.008-0.024c-0.087-0.256-0.365-0.392-0.621-0.305S490.509,331.764,490.596,332.02L490.596,332.02z
		 M486.914,320.806c0.089,0.254,0.365,0.39,0.621,0.305c0.247-0.074,0.388-0.334,0.314-0.582c-0.002-0.007-0.005-0.015-0.007-0.022
		c-0.08-0.255-0.349-0.399-0.606-0.325C486.979,320.27,486.836,320.546,486.914,320.806L486.914,320.806z M443.03,345.401
		c0.202,0.127,0.468,0.068,0.598-0.132c0.13-0.201,0.072-0.469-0.129-0.599c-0.201-0.13-0.469-0.072-0.599,0.129
		c-0.001,0.001-0.001,0.002-0.002,0.003C442.772,345.005,442.831,345.271,443.03,345.401L443.03,345.401z M448.663,336.51
		c0.202,0.126,0.468,0.068,0.598-0.132c0.135-0.198,0.084-0.467-0.114-0.602c-0.198-0.135-0.467-0.084-0.602,0.114
		c-0.005,0.007-0.01,0.015-0.014,0.022c-0.13,0.195-0.078,0.458,0.116,0.588C448.652,336.503,448.658,336.507,448.663,336.51
		L448.663,336.51z M454.121,327.36c0.017,0.108,0.081,0.203,0.175,0.258c0.202,0.126,0.468,0.068,0.598-0.132
		c0.133-0.205,0.075-0.48-0.13-0.613c-0.001-0.001-0.003-0.002-0.004-0.003c-0.122-0.079-0.276-0.091-0.409-0.034l-0.017,0.002
		c-0.077,0.03-0.139,0.088-0.172,0.163C454.089,327.107,454.073,327.242,454.121,327.36L454.121,327.36z M459.93,318.727
		c0.206,0.128,0.478,0.065,0.606-0.142c0.128-0.206,0.065-0.478-0.142-0.606c-0.202-0.127-0.469-0.068-0.598,0.132
		c-0.133,0.205-0.075,0.48,0.131,0.613C459.927,318.725,459.929,318.726,459.93,318.727L459.93,318.727z M486.486,352.692
		c0.062,0.236,0.298,0.382,0.537,0.334c0.227-0.049,0.372-0.272,0.323-0.499c-0.001-0.006-0.003-0.012-0.004-0.018
		c-0.048-0.234-0.277-0.386-0.512-0.338c-0.003,0.001-0.005,0.001-0.008,0.002C486.591,352.231,486.444,352.458,486.486,352.692
		L486.486,352.692z M484.197,342.438c0.056,0.23,0.287,0.372,0.517,0.319c0.227-0.049,0.372-0.272,0.323-0.499
		c-0.001-0.006-0.003-0.012-0.004-0.018c-0.048-0.235-0.277-0.386-0.512-0.338c-0.003,0.001-0.005,0.001-0.008,0.002
		C484.281,341.967,484.141,342.204,484.197,342.438L484.197,342.438z M481.887,332.151c0.048,0.234,0.277,0.386,0.512,0.338
		c0.003-0.001,0.005-0.001,0.008-0.002c0.222-0.041,0.369-0.255,0.328-0.477c-0.003-0.013-0.006-0.027-0.009-0.04
		c-0.048-0.235-0.277-0.386-0.512-0.338c-0.003,0.001-0.005,0.001-0.008,0.002C481.978,331.694,481.838,331.922,481.887,332.151
		L481.887,332.151z M479.581,321.899c0.061,0.234,0.3,0.375,0.534,0.315c0.227-0.059,0.368-0.286,0.319-0.516
		c-0.059-0.231-0.285-0.377-0.52-0.336C479.678,321.425,479.532,321.66,479.581,321.899L479.581,321.899z M463.945,347.756
		c-0.034,0.237,0.128,0.458,0.365,0.497c0.234,0.042,0.457-0.114,0.499-0.348c0.037-0.237-0.116-0.463-0.35-0.517
		C464.216,347.351,463.988,347.514,463.945,347.756L463.945,347.756z M465.757,337.381c-0.048,0.226,0.096,0.447,0.322,0.495
		c0.009,0.002,0.017,0.003,0.026,0.005c0.234,0.042,0.457-0.114,0.499-0.348c0.037-0.237-0.116-0.463-0.35-0.517
		C466.017,336.982,465.796,337.145,465.757,337.381L465.757,337.381z M467.553,327.009c-0.044,0.234,0.11,0.458,0.344,0.502
		c0.234,0.044,0.458-0.11,0.502-0.344c0-0.002,0.001-0.004,0.001-0.006c0.04-0.234-0.117-0.457-0.351-0.497
		C467.817,326.624,467.596,326.778,467.553,327.009z M469.348,316.637c-0.042,0.234,0.114,0.457,0.348,0.499
		c0.134,0.029,0.273-0.009,0.374-0.102l0.017-0.002c0.065-0.068,0.108-0.153,0.126-0.245c0.034-0.237-0.128-0.458-0.365-0.497
		C469.614,316.247,469.39,316.403,469.348,316.637L469.348,316.637z M468.219,328.452c0.004,0.14,0.121,0.251,0.261,0.247
		c0.14-0.004,0.251-0.121,0.247-0.261c-0.004-0.14-0.121-0.251-0.261-0.247C468.325,328.194,468.215,328.311,468.219,328.452
		C468.219,328.451,468.219,328.452,468.219,328.452L468.219,328.452z M468.032,322.248c0.012,0.143,0.135,0.251,0.279,0.245
		c0.14-0.004,0.251-0.121,0.247-0.261c0,0,0,0,0,0c0.001-0.135-0.107-0.246-0.242-0.247c-0.006,0-0.013,0-0.019,0.001
		c-0.144-0.002-0.262,0.113-0.264,0.257C468.032,322.244,468.032,322.246,468.032,322.248L468.032,322.248z M467.862,316.042
		c0.003,0.14,0.119,0.252,0.259,0.249c0.14-0.003,0.252-0.119,0.249-0.259c0-0.001,0-0.003,0-0.004
		c0.002-0.135-0.107-0.246-0.242-0.247c-0.007,0-0.013,0-0.02,0.001C467.969,315.784,467.858,315.901,467.862,316.042
		C467.862,316.041,467.862,316.041,467.862,316.042L467.862,316.042z M456.197,323.232c0.133,0.04,0.274-0.024,0.332-0.149
		c0.053-0.128-0.008-0.274-0.136-0.327c-0.004-0.002-0.009-0.004-0.013-0.005c-0.124-0.054-0.269,0.002-0.323,0.127
		c-0.003,0.007-0.006,0.015-0.009,0.023C455.999,323.033,456.065,323.181,456.197,323.232L456.197,323.232z M458.421,317.431
		c0.133,0.04,0.274-0.024,0.332-0.149c0.046-0.133-0.02-0.278-0.149-0.332c-0.123-0.058-0.269-0.006-0.328,0.117
		c-0.002,0.005-0.005,0.01-0.007,0.016c-0.057,0.132,0.003,0.286,0.135,0.343C458.41,317.427,458.416,317.429,458.421,317.431
		L458.421,317.431z M479.815,322.607c0.056,0.129,0.205,0.188,0.334,0.132s0.188-0.205,0.132-0.334
		c-0.044-0.124-0.179-0.189-0.303-0.145c-0.011,0.004-0.021,0.008-0.031,0.013c-0.127,0.053-0.188,0.199-0.135,0.326
		C479.813,322.602,479.814,322.605,479.815,322.607L479.815,322.607z M477.272,316.944c0.063,0.131,0.219,0.189,0.351,0.129
		c0.123-0.059,0.175-0.207,0.115-0.33c0-0.001-0.001-0.001-0.001-0.002c-0.044-0.124-0.179-0.189-0.303-0.145
		c-0.011,0.004-0.021,0.008-0.031,0.013c-0.127,0.053-0.188,0.199-0.135,0.326C477.269,316.938,477.27,316.941,477.272,316.944
		L477.272,316.944z M468.62,330.686c0.024,0.149,0.164,0.25,0.312,0.226c0.011-0.002,0.022-0.004,0.033-0.008
		c0.155-0.036,0.252-0.19,0.218-0.346c-0.041-0.154-0.189-0.255-0.348-0.236c-0.159,0.04-0.256,0.201-0.216,0.361
		C468.619,330.685,468.62,330.685,468.62,330.686z M467.123,323.758c0.04,0.159,0.201,0.256,0.361,0.217
		c0.001,0,0.001,0,0.002-0.001c0.155-0.036,0.252-0.19,0.218-0.346c-0.041-0.154-0.189-0.255-0.348-0.236
		C467.197,323.437,467.096,323.595,467.123,323.758L467.123,323.758z M465.658,316.808c0.016,0.151,0.152,0.261,0.304,0.244
		c0.015-0.002,0.03-0.004,0.044-0.008c0.155-0.036,0.252-0.19,0.218-0.346c-0.041-0.154-0.189-0.255-0.348-0.235
		C465.722,316.499,465.625,316.653,465.658,316.808L465.658,316.808z M454.121,327.36c0.034,0.025,0.072,0.044,0.113,0.055
		c0.156,0.03,0.306-0.072,0.336-0.228c0.001-0.003,0.001-0.007,0.002-0.01c0.026-0.154-0.07-0.301-0.221-0.34l-0.017,0.002
		c-0.156-0.03-0.306,0.072-0.336,0.228c-0.001,0.003-0.001,0.007-0.002,0.01C453.973,327.189,454.024,327.302,454.121,327.36
		L454.121,327.36z M455.29,320.097c-0.034,0.154,0.063,0.306,0.217,0.339c0.001,0,0.003,0.001,0.004,0.001
		c0.159,0.029,0.314-0.067,0.358-0.223c0.022-0.162-0.082-0.315-0.241-0.355C455.469,319.832,455.318,319.939,455.29,320.097
		L455.29,320.097z M456.569,313.136c-0.028,0.159,0.079,0.31,0.238,0.338c0.159,0.028,0.31-0.079,0.338-0.238
		c0.028-0.159-0.079-0.31-0.238-0.338c0,0,0,0,0,0c-0.156-0.03-0.306,0.072-0.336,0.228
		C456.57,313.13,456.569,313.133,456.569,313.136L456.569,313.136z M480.612,321.851c0.091,0.133,0.273,0.166,0.405,0.074
		c0.003-0.002,0.006-0.004,0.008-0.006c0.128-0.09,0.16-0.267,0.071-0.396c-0.078-0.133-0.249-0.177-0.382-0.099
		c-0.006,0.003-0.011,0.007-0.017,0.011C480.561,321.527,480.523,321.712,480.612,321.851L480.612,321.851z M476.603,316.012
		c0.08,0.127,0.248,0.165,0.376,0.085c0.007-0.005,0.014-0.009,0.021-0.015c0.133-0.078,0.177-0.249,0.099-0.382
		c-0.003-0.006-0.007-0.011-0.011-0.017c-0.092-0.137-0.277-0.175-0.416-0.086c-0.133,0.095-0.164,0.28-0.069,0.413
		C476.602,316.011,476.603,316.011,476.603,316.012L476.603,316.012z M442.748,356.576c-0.034,0.276,0.154,0.529,0.428,0.577
		c0.273,0.045,0.532-0.138,0.579-0.411c0.037-0.277-0.153-0.533-0.428-0.577C443.054,356.12,442.795,356.304,442.748,356.576
		L442.748,356.576z M444.716,344.58c-0.046,0.273,0.138,0.533,0.411,0.579c0.273,0.046,0.533-0.138,0.579-0.411
		s-0.137-0.533-0.411-0.579C445.022,344.124,444.763,344.308,444.716,344.58L444.716,344.58z M446.666,332.586
		c-0.037,0.277,0.153,0.533,0.428,0.577c0.274,0.036,0.524-0.157,0.56-0.431c0.036-0.274-0.157-0.524-0.431-0.56
		C446.957,332.137,446.71,332.321,446.666,332.586z M492.644,345.245c0.171,0.223,0.487,0.274,0.719,0.116
		c0.222-0.171,0.263-0.49,0.092-0.712c-0.166-0.215-0.471-0.261-0.693-0.106C492.542,344.708,492.49,345.017,492.644,345.245
		L492.644,345.245z M485.551,335.379c0.165,0.221,0.474,0.273,0.702,0.118c0.227-0.16,0.282-0.474,0.122-0.701
		s-0.474-0.282-0.701-0.122c-0.002,0.001-0.003,0.002-0.005,0.003C485.446,334.841,485.394,335.152,485.551,335.379L485.551,335.379
		z M478.458,325.514c0.163,0.223,0.474,0.276,0.702,0.118c0.223-0.171,0.274-0.487,0.116-0.719c-0.171-0.222-0.49-0.263-0.712-0.092
		C478.349,324.987,478.302,325.292,478.458,325.514L478.458,325.514z M471.364,315.649c0.163,0.223,0.475,0.276,0.702,0.118
		c0.221-0.173,0.271-0.486,0.116-0.719c-0.16-0.22-0.469-0.269-0.689-0.109c-0.004,0.003-0.007,0.005-0.01,0.008
		c-0.224,0.144-0.288,0.442-0.144,0.665C471.346,315.625,471.355,315.637,471.364,315.649L471.364,315.649z M466.684,350.508
		c0.077,0.265,0.342,0.428,0.613,0.376c0.265-0.073,0.425-0.343,0.359-0.611c-0.057-0.267-0.319-0.437-0.586-0.381
		c-0.003,0.001-0.007,0.001-0.01,0.002c-0.273,0.065-0.442,0.339-0.377,0.612C466.684,350.507,466.684,350.507,466.684,350.508z
		 M463.904,338.664c0.065,0.273,0.339,0.442,0.612,0.377c0,0,0.001,0,0.001,0c0.263-0.064,0.425-0.329,0.362-0.593c0,0,0,0,0-0.001
		c-0.06-0.269-0.327-0.439-0.596-0.379C464.013,338.129,463.844,338.395,463.904,338.664L463.904,338.664z M461.126,326.838
		c0.057,0.267,0.319,0.437,0.586,0.381c0.003-0.001,0.007-0.001,0.01-0.002c0.275-0.056,0.452-0.325,0.396-0.599
		c-0.056-0.275-0.325-0.452-0.599-0.396c-0.275,0.056-0.452,0.325-0.396,0.599C461.123,326.827,461.124,326.833,461.126,326.838z
		 M458.348,315.012c0.07,0.267,0.344,0.427,0.611,0.356c0.259-0.068,0.418-0.329,0.361-0.59c-0.061-0.268-0.327-0.437-0.596-0.379
		C458.451,314.465,458.283,314.739,458.348,315.012C458.348,315.012,458.348,315.012,458.348,315.012L458.348,315.012z
		 M459.295,354.37c0.06,0.269,0.326,0.438,0.594,0.378s0.438-0.326,0.378-0.594c-0.058-0.262-0.313-0.43-0.577-0.382
		C459.416,353.829,459.239,354.096,459.295,354.37L459.295,354.37z M457.018,342.478c0.056,0.274,0.323,0.451,0.598,0.396
		c0.265-0.058,0.439-0.312,0.398-0.581c-0.061-0.274-0.323-0.454-0.6-0.413C457.144,341.942,456.97,342.205,457.018,342.478
		L457.018,342.478z M454.742,330.586c0.056,0.274,0.323,0.451,0.598,0.396c0.27-0.05,0.449-0.31,0.398-0.581
		c-0.05-0.27-0.31-0.449-0.581-0.398C454.885,330.055,454.702,330.312,454.742,330.586z M452.482,318.691
		c0.04,0.263,0.286,0.444,0.549,0.404c0.01-0.002,0.021-0.004,0.031-0.006c0.269-0.053,0.446-0.311,0.398-0.581
		c-0.05-0.27-0.31-0.449-0.581-0.398S452.432,318.421,452.482,318.691L452.482,318.691z M482.058,313.091
		c0.235,0.147,0.545,0.083,0.702-0.146c0.148-0.229,0.084-0.535-0.143-0.685c-0.214-0.157-0.515-0.111-0.672,0.104
		c-0.005,0.007-0.011,0.015-0.016,0.023c-0.16,0.226-0.106,0.538,0.119,0.698C482.052,313.087,482.055,313.089,482.058,313.091z
		 M436.597,335.607c-0.053,0.268,0.122,0.528,0.39,0.581c0.001,0,0.003,0.001,0.004,0.001c0.27,0.06,0.539-0.109,0.601-0.379
		c0.053-0.274-0.123-0.54-0.396-0.599C436.922,335.163,436.659,335.337,436.597,335.607L436.597,335.607z M479.799,339.518
		c0.158,0.23,0.472,0.29,0.704,0.136c0.227-0.152,0.289-0.459,0.138-0.687c-0.139-0.231-0.439-0.306-0.671-0.167
		c-0.006,0.004-0.012,0.008-0.018,0.012c-0.236,0.147-0.308,0.457-0.162,0.693C479.793,339.509,479.796,339.514,479.799,339.518
		L479.799,339.518z M473.148,329.401c0.158,0.23,0.472,0.29,0.704,0.136c0.227-0.152,0.289-0.459,0.138-0.687
		c-0.139-0.231-0.439-0.306-0.671-0.167c-0.006,0.004-0.012,0.008-0.018,0.012c-0.236,0.147-0.308,0.457-0.162,0.693
		C473.142,329.392,473.145,329.397,473.148,329.401L473.148,329.401z M466.496,319.284c0.158,0.23,0.472,0.29,0.704,0.136
		c0.227-0.152,0.289-0.459,0.138-0.687c-0.15-0.234-0.461-0.302-0.695-0.152c-0.234,0.15-0.302,0.461-0.152,0.695
		C466.493,319.278,466.494,319.281,466.496,319.284z M459.68,333.469c0.082,0.192,0.304,0.282,0.497,0.2
		c0.188-0.08,0.279-0.296,0.204-0.486c-0.07-0.187-0.278-0.283-0.466-0.213c-0.012,0.005-0.024,0.01-0.035,0.015
		C459.694,333.067,459.606,333.281,459.68,333.469z M456.141,325.069c0.084,0.193,0.308,0.281,0.501,0.198s0.281-0.308,0.198-0.501
		l0,0c-0.079-0.191-0.298-0.282-0.489-0.203c-0.004,0.002-0.008,0.003-0.012,0.005C456.149,324.655,456.061,324.876,456.141,325.069
		L456.141,325.069z M452.6,316.652c0.084,0.193,0.308,0.282,0.501,0.198c0.193-0.084,0.281-0.308,0.198-0.501
		c-0.084-0.193-0.308-0.282-0.501-0.198c0,0,0,0,0,0C452.608,316.238,452.52,316.459,452.6,316.652L452.6,316.652z M440.33,332.439
		c0.006,0.207,0.176,0.372,0.383,0.372c0.204-0.013,0.365-0.179,0.372-0.383c-0.002-0.208-0.172-0.374-0.38-0.372
		c-0.001,0-0.002,0-0.004,0c-0.201-0.004-0.368,0.155-0.372,0.356C440.329,332.421,440.33,332.43,440.33,332.439L440.33,332.439z
		 M472.741,319.408c0.141,0.146,0.373,0.15,0.519,0.009c0.003-0.003,0.006-0.006,0.009-0.009c0.15-0.139,0.159-0.374,0.019-0.524
		c-0.007-0.007-0.014-0.014-0.021-0.021c-0.155-0.14-0.395-0.128-0.535,0.027C472.599,319.039,472.602,319.265,472.741,319.408
		L472.741,319.408z M466.246,313c0.156,0.145,0.4,0.135,0.545-0.021c0.138-0.149,0.137-0.378-0.002-0.526
		c-0.151-0.15-0.395-0.149-0.545,0.002S466.095,312.85,466.246,313z"/>
	
		<linearGradient id="R_hand_1_" gradientUnits="userSpaceOnUse" x1="428.8479" y1="339.3469" x2="431.213" y2="400.8387" gradientTransform="matrix(1 0 0 -1 0 722)">
		<stop  offset="0" style="stop-color:#FFBEB6"/>
		<stop  offset="1" style="stop-color:#F2A19C"/>
	</linearGradient>
	<path id="R_hand" style="fill:url(#R_hand_1_);" d="M401.868,337.796c0,0,17.286,26.176,22.299,41.707
		c4.711,14.594,3.086,17.489,1.715,24.347s-1.372,13.374,7.544,13.717s20.232-2.743,20.232-7.887s-0.686-11.659-0.686-11.659
		s6.173,0.343,3.429-7.201s-7.544-10.288-13.717-15.089s-10.974-31.549-10.288-49.038l-26.062,7.544"/>
	
		<linearGradient id="L_sleeve_1_" gradientUnits="userSpaceOnUse" x1="461.5287" y1="491.685" x2="526.07" y2="491.685" gradientTransform="matrix(1 0 0 -1 0 722)">
		<stop  offset="0.1291" style="stop-color:#428DFC"/>
		<stop  offset="0.9987" style="stop-color:#1D72D8"/>
	</linearGradient>
	<path id="L_sleeve" style="fill:url(#L_sleeve_1_);" d="M526.07,263.51l-30.18,25.57c0,0-56.37-44.21-24.71-117.53
		c9.34,10.54,16.45,6.01,16.45,6.01S489.85,229.62,526.07,263.51z"/>
	
		<linearGradient id="sweater_1_" gradientUnits="userSpaceOnUse" x1="509.7916" y1="507.4783" x2="408.8818" y2="388.4364" gradientTransform="matrix(1 0 0 -1 0 722)">
		<stop  offset="0.1291" style="stop-color:#428DFC"/>
		<stop  offset="0.9987" style="stop-color:#1D72D8"/>
	</linearGradient>
	<path id="sweater" style="fill:url(#sweater_1_);" d="M514.09,296.88c0,0-37.66,27.89-89.5,9.63c0,0-8.53-82.85,47.23-132.81
		l1.98,0.48c8.02,7.08,13.83,3.38,13.83,3.38S498.81,263.91,514.09,296.88z"/>
	
		<linearGradient id="neck_1_" gradientUnits="userSpaceOnUse" x1="476.3502" y1="538.9141" x2="485.0366" y2="563.1761" gradientTransform="matrix(1 0 0 -1 0 722)">
		<stop  offset="0" style="stop-color:#FFBEB6"/>
		<stop  offset="1" style="stop-color:#F2A19C"/>
	</linearGradient>
	<path id="neck" style="fill:url(#neck_1_);" d="M489.65,163.007c-1.372,4.727-2.054,9.628-2.023,14.551
		c0,0-7.104,4.529-16.445-6.006l7.134-17.086L489.65,163.007"/>
	
		<linearGradient id="R_shoe_1_" gradientUnits="userSpaceOnUse" x1="413.1784" y1="107.8095" x2="530.0836" y2="107.8095" gradientTransform="matrix(1 0 0 -1 0 722)">
		<stop  offset="0" style="stop-color:#A1C3FC"/>
		<stop  offset="0.6955" style="stop-color:#81AEF2"/>
		<stop  offset="1" style="stop-color:#78A9EF"/>
	</linearGradient>
	<path id="R_shoe" style="fill:url(#R_shoe_1_);" d="M429.738,591.76l-16.56,44.857l116.905,0.004c0,0-5.994-11.227-25.977-19.543
		s-38.634-25.317-38.634-25.317L429.738,591.76"/>
	
		<linearGradient id="case_1_" gradientUnits="userSpaceOnUse" x1="447.0352" y1="256.1231" x2="497.5503" y2="123.5888" gradientTransform="matrix(1 0 0 -1 -1.310630e-05 722)">
		<stop  offset="0" style="stop-color:#A1C3FC"/>
		<stop  offset="0.6955" style="stop-color:#81AEF2"/>
		<stop  offset="1" style="stop-color:#78A9EF"/>
	</linearGradient>
	<polygon id="case" style="fill:url(#case_1_);" points="365.147,439.197 517.455,409.475 538.645,518.064 386.338,547.786 	"/>
	<path id="R_sleeve" style="fill:#428DFC;" d="M484.03,184.76c-6.905,11.694-12.838,23.935-17.74,36.6
		c-13.44,34.43-16.82,63.44-17.02,65.32c-0.005,0.033-0.009,0.066-0.01,0.1l-0.07-0.03c-0.401,3.776-0.348,7.587,0.16,11.35
		c1.42,12.86,3.35,24.39,3.35,24.39l-59.513,26.24c0,0-7.547-19.624-4.597-35.524c3.18-17.09,4.6-19.905,4.179-30.509
		c-0.221-5.569-0.249-13.587,4.061-30.607c2.63-8.84,9.45-23.7,16.37-32.85c20.52-32.82,52.21-46.07,57.98-47.69
		c9.34,10.54,16.45,6.01,16.45,6.01c0-0.53-0.023,0.498-0.003-0.002C486.62,180.05,485.418,182.458,484.03,184.76z"/>
	<path id="face" style="fill:#FFBEB6;" d="M475.281,162.001c6.479,3.268,20.498,7.959,27.065,3.198
		c7.857-5.704,8.512-13.511,10.192-13.647c1.676-0.125,5.198-1.265,5.229-3.063c0.039-1.783-4.61-6.894-5.328-13.407
		c-0.068-0.605-0.143-1.189-0.249-1.757l-0.007-0.015c-0.009-0.139-0.029-0.277-0.059-0.413c-0.009-0.066-0.024-0.131-0.047-0.193
		c-0.008-0.022-0.012-0.045-0.014-0.068c-0.022-0.083-0.039-0.178-0.057-0.273c-0.157-0.675-0.405-1.672-0.798-2.834
		c-0.178-0.543-0.389-1.135-0.642-1.755c-0.274-0.7-0.621-1.431-1.001-2.171c-0.027-0.053-0.054-0.106-0.081-0.159
		c-0.096-0.183-0.179-0.364-0.281-0.548c-0.177-0.327-0.369-0.647-0.573-0.971c-0.152-0.255-0.318-0.503-0.489-0.74
		c-0.074-0.114-0.159-0.233-0.245-0.351c-0.152-0.217-0.315-0.439-0.483-0.649c-0.031-0.049-0.065-0.095-0.104-0.137
		c-0.004,0.011,0.003,0.026-0.004,0.049c-0.008,0.533-0.062,1.065-0.161,1.589c-0.021,0.17-0.061,0.358-0.102,0.547
		c-0.156,0.701-0.374,1.388-0.651,2.051c-0.039,0.113-0.09,0.222-0.144,0.342c-0.051,0.109-0.105,0.229-0.16,0.349
		c-0.109,0.24-0.233,0.488-0.369,0.732c-0.012,0.034-0.031,0.052-0.043,0.086c-0.189,0.364-0.397,0.718-0.623,1.061
		c-0.074,0.139-0.166,0.259-0.251,0.393c-0.004,0.008-0.011,0.015-0.019,0.019c-0.166,0.259-0.358,0.521-0.562,0.779l-0.008,0.023
		c-0.096,0.131-0.204,0.258-0.311,0.385c-0.463,0.587-0.961,1.144-1.492,1.669c-0.18,0.19-0.383,0.373-0.59,0.567
		c-0.096,0.093-0.187,0.175-0.294,0.264c-0.096,0.093-0.195,0.198-0.302,0.287c-0.055,0.051-0.114,0.098-0.176,0.141
		c-0.153,0.149-0.325,0.279-0.501,0.42s-0.351,0.283-0.538,0.42c-0.176,0.141-0.351,0.283-0.55,0.416
		c-0.492,0.36-1.018,0.708-1.571,1.06c-0.309,0.196-0.629,0.389-0.953,0.592c-1.246,0.724-2.53,1.379-3.847,1.963l-0.855,0.385
		c-2.63,1.154-5.107,2.629-7.375,4.392c-0.322,0.306-0.647,0.623-0.988,0.947c-0.922,0.889-1.773,1.85-2.544,2.872
		C478.072,151.31,475.992,156.522,475.281,162.001z"/>
	<path id="eyeglasses" style="fill:#428DFC;" d="M522.91,140.356c1.108-3.262,0.071-6.879-2.309-8.068l-0.001-0.001
		c-2.383-1.185-5.224,0.505-6.333,3.767c-0.127,0.377-0.227,0.763-0.299,1.155c-1.553-0.281-3.151,0.147-4.355,1.167
		c-0.04-0.197-0.061-0.4-0.115-0.593c-0.368-1.624-1.411-3.014-2.868-3.821c-2.757-1.371-6.045,0.591-7.332,4.374
		c-0.616,1.781-0.686,3.705-0.203,5.527c0.317,1.284,1.03,2.436,2.04,3.291c0.257,0.206,0.534,0.383,0.828,0.53
		c1.368,0.673,2.991,0.569,4.261-0.274c1.468-0.969,2.554-2.418,3.07-4.1c0.423-1.255,0.584-2.584,0.473-3.904
		c1.149-0.831,2.627-1.719,4.084-1.271c-0.252,2.061,0.498,4.118,2.017,5.534c0.219,0.176,0.456,0.328,0.707,0.454
		C518.96,145.307,521.801,143.618,522.91,140.356z M505.791,146.568c-1.049,0.705-2.393,0.8-3.532,0.251
		c-1.206-0.676-2.066-1.835-2.364-3.185c-0.426-1.618-0.36-3.326,0.19-4.906c1.124-3.307,3.928-5.056,6.251-3.9
		c0.237,0.118,0.461,0.261,0.667,0.427c0.841,0.718,1.435,1.683,1.697,2.758c0.426,1.618,0.36,3.326-0.19,4.906
		C508.054,144.414,507.093,145.704,505.791,146.568z M516.871,143.257c-1.954-0.974-2.766-4.026-1.818-6.811
		c0.947-2.786,3.304-4.263,5.253-3.293c1.956,0.972,2.766,4.028,1.818,6.811C521.177,142.75,518.821,144.227,516.871,143.257z"/>
	<path id="hair" style="fill:#23286B;" d="M478.819,105.028c-7.019-0.28-13.88,2.135-19.178,6.748
		c-0.038,0.02-0.073,0.047-0.103,0.078c-1.945,1.335-8.127,6.37-11.524,18.017c-0.83,3.13-2.145,6.11-3.898,8.833
		c-5.711,5.296-13.461,7.725-18.997,13.251c-5.103,5.221-7.699,12.393-7.121,19.67c0.04,0.639,1.04,0.644,1,0
		c-0.589-9.398,3.641-17.43,11.434-22.635c3.13-2.091,6.438-3.824,9.542-5.857c-2.905,2.299-6.187,3.809-9.731,6.705
		c-7.427,6.069-10.017,15.796-9.292,22.729c0,0,20.887,12.51,55.749,13.741c-1.375-5.524-2.047-11.2-2.002-16.893
		c-0.078-6.105,1.176-12.153,3.675-17.723c-4.395,11.775-2.871,24.943,4.095,35.403c0.351,0.536,1.217,0.036,0.864-0.505
		c-8.314-12.429-8.602-28.568-0.735-41.285c0.406-0.456,0.83-0.901,1.274-1.331c0.341-0.324,0.666-0.641,0.988-0.947
		c2.525-1.942,5.292-3.548,8.23-4.777c14.45-6.433,14.223-15.774,14.213-16.22c2.466,3.344,4.138,7.206,4.888,11.293
		C514.997,111.563,495.023,105.659,478.819,105.028z"/>
</g>
</svg>
