<?xml version="1.0" encoding="iso-8859-1"?>
<!-- Generator: Adobe Illustrator 23.0.2, SVG Export Plug-In . SVG Version: 6.00 Build 0)  -->
<svg version="1.1" id="illustration" xmlns="http://www.w3.org/2000/svg" xmlns:xlink="http://www.w3.org/1999/xlink" x="0px"
	 y="0px" viewBox="0 0 1080 720" style="enable-background:new 0 0 1080 720;" xml:space="preserve">
<title>page not dounf</title>
<g id="geometry">
	
		<rect id="square" x="493.643" y="304.904" transform="matrix(0.7432 -0.669 0.669 0.7432 -126.1847 518.481)" style="fill:#EEEEEE;" width="237.451" height="237.451"/>
	
		<linearGradient id="half_a_circle_1_" gradientUnits="userSpaceOnUse" x1="809.7416" y1="252.3024" x2="593.2723" y2="339.175" gradientTransform="matrix(1 0 0 -1 0 722)">
		<stop  offset="0" style="stop-color:#23286B"/>
		<stop  offset="1" style="stop-color:#151A4F"/>
	</linearGradient>
	<path id="half_a_circle" style="fill:url(#half_a_circle_1_);" d="M645.122,552.995c64.264,62.248,166.823,60.613,229.071-3.651
		c55.852-57.661,61.052-147.53,12.222-211.248"/>
	<polygon id="triangle" style="fill:#E94A47;" points="680.032,53.342 750.808,305.433 473.27,199.666 	"/>
	<path id="texture" style="opacity:0.86;fill:#FFFFFF;enable-background:new    ;" d="M520.639,190.038
		c0.061,0.156,0.238,0.233,0.394,0.172c0,0,0,0,0,0c0.144-0.052,0.219-0.211,0.167-0.355c-0.004-0.012-0.01-0.024-0.016-0.036
		c-0.055-0.151-0.222-0.229-0.374-0.174C520.655,189.706,520.578,189.882,520.639,190.038
		C520.639,190.038,520.639,190.038,520.639,190.038z M505.236,189.087c0.011,0.166,0.144,0.297,0.31,0.307
		c0.17-0.002,0.306-0.142,0.304-0.312c-0.002-0.168-0.139-0.304-0.307-0.304C505.377,188.788,505.245,188.921,505.236,189.087
		L505.236,189.087z M505.259,181.828c0.006,0.164,0.143,0.292,0.306,0.286c0,0,0,0,0.001,0c0.158,0.012,0.296-0.106,0.309-0.264
		c0.001-0.008,0.001-0.017,0.001-0.025c-0.005-0.168-0.141-0.303-0.31-0.307C505.4,181.529,505.268,181.662,505.259,181.828
		L505.259,181.828z M493.917,198.937c-0.024,0.309,0.207,0.579,0.516,0.603c0.007,0.001,0.013,0.001,0.02,0.001
		c0.301,0.033,0.572-0.184,0.604-0.485c0.001-0.01,0.002-0.02,0.003-0.031c0.01-0.317-0.224-0.588-0.539-0.624
		C494.207,198.385,493.938,198.623,493.917,198.937L493.917,198.937z M494.875,185.218c-0.017,0.315,0.225,0.584,0.54,0.6
		c0.312,0.016,0.579-0.22,0.6-0.532c0.025-0.31-0.205-0.581-0.515-0.607c0,0-0.001,0-0.001,0c-0.314-0.03-0.593,0.201-0.623,0.515
		C494.876,185.202,494.876,185.21,494.875,185.218L494.875,185.218z M518.046,216.748c0.106,0.296,0.429,0.452,0.727,0.352
		c0.292-0.095,0.452-0.409,0.357-0.701c-0.001-0.002-0.001-0.004-0.002-0.006c-0.077-0.291-0.376-0.465-0.668-0.388
		c-0.014,0.004-0.028,0.008-0.042,0.013C518.124,216.129,517.963,216.445,518.046,216.748L518.046,216.748z M513.689,203.682
		c0.111,0.294,0.427,0.455,0.73,0.372c0.296-0.106,0.452-0.429,0.352-0.727c-0.1-0.296-0.421-0.455-0.717-0.355
		c-0.003,0.001-0.007,0.002-0.01,0.003c-0.292,0.095-0.452,0.408-0.357,0.7C513.688,203.678,513.688,203.68,513.689,203.682
		L513.689,203.682z M509.335,190.637c0.088,0.288,0.393,0.451,0.681,0.363c0.009-0.003,0.017-0.005,0.026-0.008
		c0.299-0.089,0.469-0.403,0.381-0.702c-0.003-0.009-0.006-0.018-0.009-0.028c-0.101-0.299-0.426-0.459-0.724-0.357
		c-0.299,0.101-0.459,0.426-0.357,0.724C509.333,190.631,509.334,190.634,509.335,190.637z M504.958,177.574
		c0.106,0.296,0.429,0.452,0.727,0.352c0.288-0.088,0.451-0.393,0.363-0.681c-0.003-0.009-0.005-0.017-0.008-0.025
		c-0.096-0.297-0.411-0.463-0.71-0.375C505.03,176.948,504.865,177.27,504.958,177.574L504.958,177.574z M501.939,202.842
		c0.067,0.268,0.337,0.432,0.606,0.368c0.265-0.058,0.432-0.32,0.374-0.585c-0.002-0.007-0.003-0.014-0.005-0.021
		c-0.058-0.273-0.326-0.448-0.6-0.391c-0.003,0.001-0.006,0.001-0.009,0.002C502.034,202.292,501.872,202.569,501.939,202.842z
		 M499.169,190.851c0.058,0.273,0.326,0.448,0.599,0.391c0.003-0.001,0.006-0.001,0.009-0.002c0.259-0.05,0.429-0.3,0.38-0.559
		c-0.003-0.016-0.007-0.031-0.011-0.047c-0.058-0.273-0.326-0.448-0.6-0.391c-0.003,0.001-0.006,0.001-0.009,0.002
		C499.273,190.317,499.111,190.583,499.169,190.851L499.169,190.851z M480.38,197.069c-0.054,0.264,0.116,0.521,0.379,0.575
		c0.01,0.002,0.02,0.004,0.03,0.005c0.273,0.047,0.533-0.136,0.581-0.409c0.042-0.277-0.138-0.54-0.412-0.601
		C480.68,196.602,480.424,196.793,480.38,197.069L480.38,197.069z M524.336,199.372c0.149,0.22,0.448,0.277,0.668,0.128
		c0.009-0.006,0.017-0.012,0.025-0.018c0.232-0.156,0.293-0.47,0.137-0.702c-0.003-0.005-0.007-0.01-0.01-0.015
		c-0.171-0.221-0.486-0.268-0.714-0.107c-0.225,0.159-0.279,0.47-0.12,0.695C524.327,199.36,524.331,199.366,524.336,199.372
		L524.336,199.372z M517.196,189.364c0.165,0.229,0.483,0.285,0.716,0.127c0.227-0.171,0.272-0.494,0.101-0.721
		c-0.162-0.215-0.464-0.269-0.69-0.122c-0.231,0.151-0.295,0.461-0.144,0.692C517.184,189.348,517.19,189.356,517.196,189.364
		L517.196,189.364z M511.819,206.058c0.201,0.259,0.57,0.316,0.84,0.13c0.258-0.201,0.304-0.574,0.102-0.832
		c-0.195-0.249-0.551-0.302-0.809-0.119C511.695,205.432,511.637,205.793,511.819,206.058L511.819,206.058z M503.469,194.593
		c0.194,0.257,0.555,0.315,0.82,0.133c0.264-0.189,0.325-0.556,0.136-0.82c-0.189-0.264-0.556-0.325-0.82-0.136
		c-0.001,0.001-0.002,0.002-0.003,0.003C503.343,193.965,503.284,194.329,503.469,194.593L503.469,194.593z M495.12,183.128
		c0.192,0.259,0.556,0.319,0.82,0.133c0.259-0.201,0.316-0.57,0.13-0.84c-0.201-0.258-0.574-0.303-0.832-0.102
		C494.99,182.514,494.938,182.87,495.12,183.128L495.12,183.128z M478.225,198.58c0.078,0.318,0.399,0.513,0.717,0.435
		c0,0,0.001,0,0.001,0c0.307-0.076,0.494-0.387,0.418-0.694c0,0,0-0.001,0-0.001c-0.071-0.314-0.383-0.511-0.697-0.44
		c-0.314,0.071-0.511,0.383-0.44,0.696C478.225,198.578,478.225,198.579,478.225,198.58L478.225,198.58z M496.785,199.465
		c0.186,0.267,0.553,0.335,0.823,0.153c0.264-0.179,0.334-0.538,0.156-0.803c-0.164-0.269-0.515-0.354-0.784-0.19
		c-0.007,0.004-0.014,0.009-0.021,0.014c-0.274,0.173-0.357,0.535-0.184,0.81C496.778,199.454,496.782,199.46,496.785,199.465
		L496.785,199.465z"/>
	<path id="texture-2" style="opacity:0.86;fill:#FFFFFF;enable-background:new    ;" d="M517.853,183.702
		c-0.016,0.314,0.222,0.583,0.536,0.604c0.301,0.033,0.571-0.184,0.604-0.485c0.001-0.01,0.002-0.021,0.003-0.031
		c0.016-0.314-0.222-0.583-0.536-0.604C518.151,183.161,517.879,183.391,517.853,183.702
		C517.853,183.701,517.853,183.702,517.853,183.702z M518.812,169.983c-0.019,0.315,0.221,0.585,0.536,0.604
		c0.315,0.019,0.585-0.221,0.604-0.536c0.025-0.31-0.205-0.582-0.515-0.607c0,0-0.001,0-0.001,0
		C519.119,169.434,518.848,169.668,518.812,169.983L518.812,169.983z M543.917,174.052c0.106,0.296,0.429,0.452,0.727,0.352
		c0.292-0.095,0.452-0.409,0.357-0.701c-0.001-0.002-0.001-0.004-0.002-0.006c-0.077-0.291-0.376-0.465-0.668-0.388
		c-0.014,0.004-0.028,0.008-0.042,0.013C543.995,173.433,543.834,173.749,543.917,174.052L543.917,174.052z M539.56,160.986
		c0.111,0.294,0.427,0.455,0.73,0.372c0.296-0.106,0.452-0.429,0.352-0.727c-0.1-0.296-0.421-0.455-0.717-0.355
		c-0.003,0.001-0.007,0.002-0.01,0.003c-0.292,0.095-0.452,0.408-0.357,0.7C539.559,160.982,539.559,160.984,539.56,160.986
		L539.56,160.986z M530.554,172.099c0.074,0.275,0.35,0.444,0.629,0.386c0.265-0.058,0.432-0.32,0.373-0.585
		c-0.002-0.007-0.003-0.014-0.005-0.021c-0.058-0.273-0.326-0.448-0.6-0.39c-0.003,0.001-0.006,0.001-0.009,0.002
		C530.673,171.56,530.504,171.825,530.554,172.099L530.554,172.099z M550.207,156.676c0.149,0.22,0.448,0.277,0.668,0.128
		c0.009-0.006,0.017-0.012,0.025-0.018c0.232-0.156,0.293-0.47,0.137-0.702c-0.003-0.005-0.007-0.01-0.01-0.015
		c-0.171-0.221-0.486-0.268-0.714-0.107c-0.225,0.159-0.279,0.47-0.12,0.695C550.198,156.664,550.202,156.67,550.207,156.676z
		 M537.69,163.362c0.201,0.259,0.57,0.316,0.84,0.13c0.258-0.201,0.304-0.574,0.103-0.832c-0.195-0.25-0.552-0.302-0.81-0.119
		C537.566,162.736,537.507,163.097,537.69,163.362L537.69,163.362z"/>
	<path id="texture-3" style="opacity:0.86;fill:#FFFFFF;enable-background:new    ;" d="M870.551,376.987
		c-0.016,0.314,0.222,0.583,0.536,0.604c0.301,0.033,0.571-0.184,0.604-0.485c0.001-0.01,0.002-0.021,0.003-0.031
		c0.016-0.314-0.222-0.583-0.536-0.604C870.848,376.446,870.576,376.677,870.551,376.987
		C870.551,376.987,870.551,376.987,870.551,376.987z M871.509,363.268c-0.019,0.315,0.221,0.585,0.536,0.604
		s0.585-0.221,0.604-0.536l0,0c0.025-0.31-0.205-0.582-0.515-0.607c0,0-0.001,0-0.001,0
		C871.817,362.719,871.545,362.953,871.509,363.268L871.509,363.268z M872.485,349.526c-0.024,0.309,0.207,0.579,0.516,0.603
		c0.007,0.001,0.013,0.001,0.02,0.001c0.301,0.033,0.571-0.184,0.604-0.485c0.001-0.01,0.002-0.02,0.003-0.031
		c0.01-0.317-0.224-0.588-0.539-0.624C872.775,348.974,872.506,349.212,872.485,349.526L872.485,349.526z M896.614,367.337
		c0.106,0.296,0.429,0.452,0.727,0.352c0.292-0.095,0.452-0.409,0.357-0.701c-0.001-0.002-0.001-0.004-0.002-0.006
		c-0.077-0.291-0.376-0.465-0.668-0.388c-0.014,0.004-0.028,0.008-0.042,0.013C896.692,366.718,896.531,367.034,896.614,367.337z
		 M892.257,354.271c0.111,0.294,0.427,0.455,0.73,0.372c0.296-0.106,0.452-0.429,0.352-0.727c-0.1-0.296-0.421-0.455-0.717-0.355
		c-0.003,0.001-0.007,0.002-0.01,0.003c-0.292,0.095-0.452,0.408-0.357,0.7C892.256,354.267,892.257,354.269,892.257,354.271
		L892.257,354.271z M887.903,341.226c0.088,0.288,0.393,0.451,0.681,0.363c0.009-0.003,0.017-0.005,0.026-0.008
		c0.299-0.089,0.469-0.403,0.381-0.702c-0.003-0.009-0.006-0.018-0.009-0.027c-0.103-0.298-0.428-0.457-0.726-0.354
		c-0.298,0.103-0.457,0.428-0.354,0.726C887.902,341.223,887.903,341.224,887.903,341.226L887.903,341.226z M883.251,365.384
		c0.074,0.275,0.35,0.444,0.629,0.386c0.265-0.058,0.432-0.32,0.373-0.585c-0.002-0.007-0.003-0.014-0.005-0.021
		c-0.058-0.273-0.326-0.448-0.599-0.391c-0.003,0.001-0.006,0.001-0.009,0.002C883.37,364.845,883.201,365.111,883.251,365.384
		L883.251,365.384z M880.507,353.431c0.067,0.268,0.337,0.432,0.606,0.368c0.265-0.058,0.432-0.32,0.374-0.585
		c-0.002-0.007-0.003-0.014-0.005-0.021c-0.058-0.273-0.326-0.448-0.6-0.391c-0.003,0.001-0.006,0.001-0.009,0.002
		C880.602,352.881,880.44,353.158,880.507,353.431L880.507,353.431z M890.387,356.647c0.201,0.259,0.57,0.316,0.84,0.13
		c0.258-0.201,0.304-0.574,0.103-0.832c-0.195-0.25-0.552-0.302-0.81-0.119C890.263,356.021,890.205,356.382,890.387,356.647
		L890.387,356.647z M882.038,345.182c0.194,0.257,0.555,0.315,0.82,0.133c0.264-0.188,0.325-0.555,0.137-0.819
		s-0.555-0.325-0.819-0.137c-0.001,0.001-0.003,0.002-0.005,0.003C881.911,344.554,881.852,344.918,882.038,345.182L882.038,345.182
		z M860.122,362.973c0.091,0.308,0.402,0.497,0.718,0.435c0.309-0.086,0.493-0.404,0.415-0.715c-0.068-0.311-0.375-0.508-0.686-0.44
		c-0.004,0.001-0.008,0.002-0.011,0.003c-0.318,0.078-0.513,0.398-0.435,0.717C860.122,362.973,860.122,362.973,860.122,362.973
		L860.122,362.973z M875.353,350.054c0.186,0.267,0.553,0.335,0.823,0.153c0.264-0.179,0.334-0.538,0.156-0.803
		c-0.164-0.269-0.515-0.354-0.784-0.19c-0.007,0.004-0.014,0.009-0.021,0.014c-0.274,0.173-0.357,0.535-0.184,0.81
		C875.346,350.043,875.35,350.049,875.353,350.054z"/>
</g>
<g id="man">
	
		<linearGradient id="L_trousers_1_" gradientUnits="userSpaceOnUse" x1="277.2061" y1="124.0223" x2="377.6661" y2="239.3653" gradientTransform="matrix(1 0 0 -1 0 722)">
		<stop  offset="0" style="stop-color:#A1C3FC"/>
		<stop  offset="0.6955" style="stop-color:#81AEF2"/>
		<stop  offset="1" style="stop-color:#78A9EF"/>
	</linearGradient>
	<path id="L_trousers" style="fill:url(#L_trousers_1_);" d="M270.173,493.668c0,0,5.428,7.42,25.8,33.285
		c14.712,18.678,20.428,28.752,20.428,28.752s-13.637-6.289-22.642-1.572s-16.296,0-21.87-2.573s-14.58-4.288-21.87-2.144
		l-11.15,45.885h130.793c18.869,0,19.297-20.584,3.002-39.452s-57.892-75.903-57.892-75.903L270.173,493.668"/>
	
		<linearGradient id="R_shoe_1_" gradientUnits="userSpaceOnUse" x1="372.7491" y1="132.9122" x2="291.919" y2="102.0691" gradientTransform="matrix(1 0 0 -1 0 722)">
		<stop  offset="0.1291" style="stop-color:#428DFC"/>
		<stop  offset="0.9987" style="stop-color:#1D72D8"/>
	</linearGradient>
	<path id="R_shoe" style="fill:url(#R_shoe_1_);" d="M433.17,595.17l-79.78-0.01l11-32.02h24.52c1.52,1.44,13.77,12.83,26.53,18.29
		C429.08,587.28,433.17,595.17,433.17,595.17z"/>
	
		<linearGradient id="L_shoe_1_" gradientUnits="userSpaceOnUse" x1="213.7183" y1="150.3309" x2="315.8195" y2="117.8925" gradientTransform="matrix(1 0 0 -1 0 722)">
		<stop  offset="0.1291" style="stop-color:#428DFC"/>
		<stop  offset="0.9987" style="stop-color:#1D72D8"/>
	</linearGradient>
	<path id="L_shoe" style="fill:url(#L_shoe_1_);" d="M247.45,560.01l-6.74,27.7c-4.93,0.51-24.88,2.71-41.51,6.47
		c-8.931,1.918-18.218,1.337-26.84-1.68l64-47.63L247.45,560.01z"/>
	
		<linearGradient id="L_hand_1_" gradientUnits="userSpaceOnUse" x1="390.3805" y1="310.591" x2="384.453" y2="340.9695" gradientTransform="matrix(1 0 0 -1 0 722)">
		<stop  offset="0" style="stop-color:#FFBEB6"/>
		<stop  offset="1" style="stop-color:#F2A19C"/>
	</linearGradient>
	<path id="L_hand" style="fill:url(#L_hand_1_);" d="M393.403,387.379c-6.305-12.368-5.578-19.401-9.943-24.494
		s-8.246-2.668-12.126-0.728s-4.365,3.88-1.698,6.548s7.033,6.063,7.76,8.488s-3.395-0.97-6.79-0.485s1.455,4.123,4.608,4.85
		s5.335,1.455,8.973,11.641s0.473,48.473,0.473,48.473l-0.89,3.265l5.204,5.093l0,0l18.737,5.011
		C414.987,435.882,399.708,399.747,393.403,387.379z"/>
	
		<linearGradient id="L_sleeve_1_" gradientUnits="userSpaceOnUse" x1="365.4246" y1="309.2969" x2="355.1769" y2="255.6187" gradientTransform="matrix(1 0 0 -1 0 722)">
		<stop  offset="0" style="stop-color:#23286B"/>
		<stop  offset="1" style="stop-color:#151A4F"/>
	</linearGradient>
	<path id="L_sleeve" style="fill:url(#L_sleeve_1_);" d="M342.281,398.566c0,0,5.99,37.537,42.378,43.106l12.996,38.616
		c0,0-6.684,8.54-25.62,2.97s-20.422-0.743-31.933-8.54s-36.908-40.062-11.399-75.913l0,0L342.281,398.566L342.281,398.566z"/>
	
		<linearGradient id="R_trousers_1_" gradientUnits="userSpaceOnUse" x1="336.7374" y1="193.2775" x2="372.3665" y2="289.5292" gradientTransform="matrix(1 0 0 -1 0 722)">
		<stop  offset="0" style="stop-color:#A1C3FC"/>
		<stop  offset="0.6008" style="stop-color:#85B1F3"/>
		<stop  offset="0.6955" style="stop-color:#81AEF2"/>
		<stop  offset="1" style="stop-color:#78A9EF"/>
	</linearGradient>
	<path id="R_trousers" style="fill:url(#R_trousers_1_);" d="M270.173,493.668c0,0,6.004,36.879,38.595,30.447
		s48.887-18.869,48.887-18.869s-5.146,10.292-2.144,21.013s-5.575,13.723-6.432,22.299c-0.554,4.873-0.264,9.806,0.858,14.58h53.604
		c0,0,6.432-91.341,3.431-103.777s-9.434-18.869-29.16-12.865S270.173,493.668,270.173,493.668"/>
	<path id="texture-4" style="opacity:0.86;fill:#FFFFFF;enable-background:new    ;" d="M297.324,502.802
		c0.082,0.035,0.177-0.003,0.212-0.085s-0.003-0.177-0.085-0.212c-0.082-0.035-0.177,0.003-0.212,0.085c0,0,0,0,0,0
		C297.204,502.672,297.242,502.767,297.324,502.802C297.324,502.802,297.324,502.802,297.324,502.802z M298.847,499.153
		c0.086,0.033,0.182-0.005,0.223-0.087c0.031-0.085-0.012-0.178-0.096-0.211c-0.075-0.038-0.167-0.007-0.205,0.068
		c-0.003,0.005-0.005,0.011-0.007,0.017C298.726,499.023,298.764,499.118,298.847,499.153
		C298.847,499.153,298.847,499.153,298.847,499.153L298.847,499.153z M313.895,502.76c0.033,0.085,0.129,0.127,0.215,0.094
		c0,0,0,0,0,0c0.079-0.028,0.119-0.115,0.091-0.194c-0.002-0.007-0.005-0.013-0.009-0.019c-0.03-0.082-0.121-0.125-0.204-0.095
		C313.903,502.579,313.861,502.675,313.895,502.76L313.895,502.76L313.895,502.76z M305.501,502.241
		c0.006,0.09,0.078,0.162,0.169,0.167c0.093-0.002,0.167-0.078,0.165-0.171c-0.002-0.091-0.075-0.164-0.167-0.165
		C305.578,502.079,305.507,502.151,305.501,502.241L305.501,502.241z M305.514,498.286c0.003,0.089,0.078,0.159,0.167,0.156
		c0,0,0,0,0,0c0.086,0.007,0.161-0.058,0.168-0.144c0-0.005,0.001-0.009,0-0.014c-0.003-0.092-0.077-0.165-0.169-0.167
		C305.591,498.124,305.519,498.196,305.514,498.286L305.514,498.286z M275.765,503.781c0.109,0.129,0.303,0.145,0.432,0.036
		c0.003-0.002,0.006-0.005,0.008-0.007c0.127-0.109,0.141-0.301,0.032-0.428c-0.001-0.001-0.001-0.001-0.002-0.002
		c-0.109-0.129-0.303-0.145-0.432-0.036c-0.003,0.002-0.006,0.005-0.008,0.007c-0.127,0.109-0.141,0.301-0.032,0.428
		C275.764,503.779,275.765,503.78,275.765,503.781L275.765,503.781z M281.424,498.865c0.114,0.13,0.311,0.142,0.441,0.029
		c0.13-0.114,0.142-0.311,0.029-0.441c-0.109-0.127-0.301-0.141-0.428-0.032c-0.001,0.001-0.001,0.001-0.002,0.002
		C281.335,498.536,281.317,498.73,281.424,498.865L281.424,498.865z M298.28,522.572c-0.009,0.171,0.121,0.317,0.292,0.329
		c0.164,0.018,0.311-0.1,0.329-0.264c0.001-0.006,0.001-0.011,0.001-0.017c0.009-0.171-0.121-0.317-0.292-0.329
		C298.442,522.278,298.294,522.403,298.28,522.572C298.28,522.572,298.28,522.572,298.28,522.572L298.28,522.572z M298.802,515.097
		c-0.01,0.172,0.12,0.319,0.292,0.329s0.319-0.12,0.329-0.292c0.014-0.169-0.112-0.317-0.281-0.331c0,0,0,0,0,0
		C298.97,514.798,298.822,514.925,298.802,515.097L298.802,515.097z M299.334,507.609c-0.013,0.168,0.113,0.315,0.281,0.329
		c0.004,0,0.007,0.001,0.011,0.001c0.164,0.018,0.311-0.1,0.329-0.264c0.001-0.006,0.001-0.011,0.001-0.017
		c0.006-0.173-0.122-0.32-0.293-0.34C299.492,507.308,299.346,507.438,299.334,507.609L299.334,507.609z M299.856,500.133
		c-0.01,0.172,0.12,0.319,0.292,0.329s0.319-0.12,0.329-0.292l0,0c0.014-0.169-0.112-0.317-0.281-0.331c0,0,0,0,0,0
		c-0.171-0.016-0.323,0.11-0.339,0.281C299.857,500.125,299.856,500.129,299.856,500.133L299.856,500.133z M284.026,515.238
		c0.154,0.071,0.337,0.003,0.408-0.151c0.071-0.154,0.003-0.337-0.151-0.408c-0.151-0.07-0.33-0.006-0.404,0.143
		C283.807,514.977,283.872,515.162,284.026,515.238L284.026,515.238z M287.375,508.525c0.154,0.071,0.337,0.003,0.408-0.151
		c0.071-0.154,0.003-0.337-0.151-0.408c-0.151-0.07-0.33-0.006-0.404,0.143C287.156,508.264,287.222,508.449,287.375,508.525
		L287.375,508.525z M290.726,501.822c0.158,0.073,0.346,0.005,0.419-0.153c0.071-0.152,0.01-0.334-0.139-0.412
		c-0.154-0.081-0.345-0.022-0.426,0.133c-0.081,0.154-0.022,0.345,0.133,0.426C290.718,501.818,290.722,501.82,290.726,501.822z
		 M312.482,517.314c0.058,0.161,0.234,0.246,0.396,0.192c0.159-0.052,0.246-0.223,0.194-0.382c0-0.001-0.001-0.002-0.001-0.003
		c-0.042-0.159-0.205-0.253-0.364-0.211c-0.008,0.002-0.015,0.004-0.023,0.007C312.524,516.977,312.436,517.149,312.482,517.314
		L312.482,517.314z M310.108,510.194c0.06,0.16,0.233,0.248,0.398,0.203c0.161-0.058,0.246-0.234,0.192-0.396
		c-0.054-0.161-0.229-0.248-0.391-0.193c-0.002,0.001-0.004,0.001-0.005,0.002c-0.159,0.052-0.246,0.223-0.194,0.382
		C310.107,510.192,310.107,510.193,310.108,510.194L310.108,510.194z M307.735,503.086c0.048,0.157,0.214,0.246,0.371,0.198
		c0.005-0.001,0.009-0.003,0.014-0.005c0.163-0.048,0.256-0.22,0.207-0.383c-0.001-0.005-0.003-0.01-0.005-0.015
		c-0.056-0.163-0.232-0.249-0.395-0.194c-0.163,0.056-0.249,0.232-0.194,0.395C307.734,503.084,307.735,503.085,307.735,503.086
		L307.735,503.086z M277.533,511.779c0.129,0.08,0.298,0.042,0.38-0.086c0.081-0.129,0.043-0.299-0.086-0.38
		c-0.129-0.081-0.299-0.043-0.38,0.086C277.368,511.529,277.406,511.697,277.533,511.779L277.533,511.779z M281.082,506.103
		c0.129,0.079,0.298,0.041,0.38-0.086c0.085-0.126,0.052-0.298-0.075-0.383c-0.126-0.085-0.298-0.052-0.383,0.075
		c-0.003,0.005-0.006,0.009-0.009,0.014c-0.082,0.124-0.048,0.292,0.076,0.374C281.075,506.098,281.078,506.101,281.082,506.103
		L281.082,506.103z M284.518,500.262c0.011,0.069,0.052,0.129,0.112,0.164c0.129,0.079,0.298,0.041,0.38-0.086
		c0.084-0.131,0.046-0.305-0.085-0.389c-0.001-0.001-0.002-0.001-0.003-0.002c-0.078-0.05-0.176-0.057-0.26-0.02l-0.011,0.001
		c-0.049,0.019-0.088,0.057-0.109,0.105C284.496,500.101,284.487,500.187,284.518,500.262L284.518,500.262z M305.2,516.25
		c0.04,0.15,0.191,0.242,0.343,0.21c0.144-0.032,0.235-0.174,0.204-0.319c-0.001-0.004-0.002-0.008-0.003-0.012
		c-0.031-0.149-0.178-0.244-0.327-0.213c-0.002,0-0.003,0.001-0.005,0.001C305.265,515.956,305.173,516.101,305.2,516.25z
		 M303.705,509.737c0.036,0.146,0.184,0.236,0.33,0.201c0.144-0.032,0.235-0.174,0.204-0.319c-0.001-0.004-0.002-0.008-0.003-0.012
		c-0.031-0.149-0.178-0.244-0.327-0.213c-0.002,0-0.003,0.001-0.005,0.001C303.757,509.437,303.669,509.588,303.705,509.737
		L303.705,509.737z M302.196,503.203c0.031,0.149,0.178,0.244,0.327,0.213c0.002,0,0.003-0.001,0.005-0.001
		c0.141-0.027,0.234-0.163,0.207-0.305c-0.002-0.009-0.004-0.017-0.006-0.025c-0.031-0.149-0.178-0.244-0.327-0.213
		c-0.002,0-0.003,0.001-0.005,0.001C302.252,502.912,302.164,503.057,302.196,503.203L302.196,503.203z M290.844,513.196
		c-0.021,0.151,0.083,0.291,0.234,0.315c0.149,0.026,0.29-0.074,0.316-0.223c0.023-0.151-0.075-0.294-0.225-0.327
		C291.016,512.938,290.871,513.042,290.844,513.196L290.844,513.196z M291.958,506.591c-0.03,0.144,0.063,0.284,0.207,0.314
		c0.005,0.001,0.011,0.002,0.016,0.003c0.149,0.026,0.29-0.074,0.316-0.223c0.023-0.151-0.075-0.294-0.225-0.327
		C292.121,506.337,291.981,506.44,291.958,506.591L291.958,506.591z M293.06,499.987c-0.026,0.149,0.074,0.291,0.223,0.316
		s0.291-0.074,0.316-0.223s-0.074-0.291-0.223-0.316S293.085,499.838,293.06,499.987L293.06,499.987z M315.909,507.846
		c0.081,0.12,0.244,0.151,0.364,0.07c0.005-0.003,0.009-0.007,0.014-0.01c0.126-0.085,0.16-0.256,0.075-0.382
		c-0.002-0.003-0.004-0.005-0.006-0.008c-0.093-0.12-0.265-0.146-0.389-0.058c-0.123,0.086-0.152,0.256-0.066,0.379
		C315.904,507.839,315.907,507.843,315.909,507.846L315.909,507.846z M312.018,502.392c0.09,0.125,0.263,0.155,0.39,0.069
		c0.124-0.093,0.148-0.269,0.055-0.393c-0.089-0.117-0.253-0.147-0.376-0.067c-0.126,0.082-0.161,0.251-0.079,0.377
		C312.012,502.383,312.015,502.388,312.018,502.392L312.018,502.392z M293.489,500.902c0.003,0.089,0.078,0.159,0.167,0.156
		c0.089-0.003,0.159-0.078,0.156-0.167c-0.003-0.089-0.078-0.159-0.167-0.156l0,0C293.556,500.738,293.486,500.813,293.489,500.902
		C293.489,500.902,293.489,500.902,293.489,500.902L293.489,500.902z M275.152,499.106c0.083,0.054,0.193,0.03,0.247-0.052
		c0.001-0.002,0.002-0.003,0.003-0.005c0.057-0.083,0.036-0.196-0.047-0.253c-0.004-0.003-0.008-0.005-0.012-0.008
		c-0.083-0.054-0.193-0.03-0.247,0.052c-0.001,0.002-0.002,0.003-0.003,0.005C275.039,498.933,275.065,499.049,275.152,499.106
		L275.152,499.106z M293.752,502.322c0.016,0.094,0.105,0.158,0.199,0.142c0.007-0.001,0.014-0.003,0.021-0.005
		c0.098-0.024,0.16-0.122,0.138-0.221c-0.027-0.098-0.121-0.161-0.222-0.148c-0.101,0.026-0.162,0.129-0.136,0.23
		C293.752,502.321,293.752,502.321,293.752,502.322L293.752,502.322z M292.774,497.921c0.026,0.101,0.129,0.162,0.23,0.136
		c0,0,0.001,0,0.001,0c0.098-0.024,0.16-0.122,0.137-0.221c-0.026-0.098-0.121-0.161-0.222-0.148
		C292.819,497.717,292.756,497.817,292.774,497.921L292.774,497.921z M284.518,500.262c0.022,0.016,0.046,0.027,0.072,0.035
		c0.099,0.018,0.195-0.047,0.213-0.146c0-0.002,0.001-0.004,0.001-0.006c0.016-0.098-0.046-0.191-0.142-0.216l-0.011,0.001
		c-0.099-0.018-0.195,0.047-0.213,0.146c0,0.002-0.001,0.004-0.001,0.006C284.423,500.154,284.456,500.226,284.518,500.262
		L284.518,500.262z M278.602,511.251c-0.028,0.174,0.09,0.338,0.264,0.367c0.174,0.028,0.338-0.09,0.367-0.264
		c0.028-0.174-0.09-0.338-0.264-0.367C278.795,510.959,278.631,511.077,278.602,511.251L278.602,511.251z M279.797,503.615
		c-0.023,0.176,0.099,0.338,0.275,0.365c0.174,0.022,0.333-0.102,0.355-0.276c0.022-0.174-0.102-0.333-0.276-0.355
		C279.98,503.328,279.824,503.446,279.797,503.615z M309.088,511.489c0.11,0.141,0.311,0.172,0.458,0.071
		c0.141-0.11,0.165-0.313,0.056-0.453c-0.106-0.136-0.3-0.164-0.441-0.065C309.021,511.148,308.989,511.345,309.088,511.489
		L309.088,511.489z M304.539,505.242c0.106,0.14,0.302,0.172,0.447,0.073c0.144-0.103,0.177-0.303,0.075-0.446
		c-0.103-0.144-0.303-0.177-0.447-0.075c-0.001,0.001-0.002,0.001-0.002,0.002C304.47,504.9,304.438,505.098,304.539,505.242
		L304.539,505.242z M299.99,498.995c0.105,0.141,0.303,0.174,0.447,0.073c0.141-0.11,0.172-0.311,0.071-0.458
		c-0.11-0.141-0.313-0.166-0.453-0.056C299.918,498.66,299.89,498.854,299.99,498.995L299.99,498.995z M271.616,497.109
		c0.152,0.093,0.351,0.046,0.444-0.106s0.046-0.351-0.106-0.445s-0.351-0.046-0.444,0.106
		C271.421,496.817,271.467,497.013,271.616,497.109L271.616,497.109z M292.597,514.936c0.05,0.168,0.219,0.271,0.391,0.237
		c0.169-0.047,0.269-0.22,0.226-0.39c-0.037-0.17-0.204-0.277-0.374-0.24c-0.002,0-0.004,0.001-0.006,0.001
		C292.661,514.587,292.555,514.762,292.597,514.936C292.597,514.936,292.597,514.936,292.597,514.936L292.597,514.936z
		 M290.784,507.414c0.042,0.173,0.217,0.28,0.391,0.237c0,0,0,0,0.001,0c0.167-0.042,0.269-0.211,0.228-0.378c0,0,0,0,0,0
		c-0.038-0.171-0.208-0.279-0.379-0.241c-0.171,0.038-0.279,0.208-0.241,0.379C290.783,507.412,290.783,507.413,290.784,507.414z
		 M288.971,499.903c0.037,0.17,0.204,0.277,0.374,0.24c0.002,0,0.004-0.001,0.006-0.001c0.175-0.037,0.286-0.208,0.249-0.383
		c-0.037-0.175-0.208-0.286-0.383-0.249c-0.175,0.037-0.286,0.208-0.249,0.383C288.97,499.896,288.97,499.9,288.971,499.903z
		 M287.913,517.421c0.039,0.171,0.209,0.277,0.379,0.238c0.171-0.039,0.277-0.209,0.238-0.379c-0.038-0.166-0.201-0.273-0.368-0.241
		C287.988,517.076,287.876,517.247,287.913,517.421L287.913,517.421z M286.419,509.866c0.037,0.174,0.207,0.286,0.382,0.25
		c0.168-0.038,0.278-0.2,0.251-0.371c-0.04-0.174-0.207-0.288-0.383-0.261C286.497,509.525,286.387,509.693,286.419,509.866
		L286.419,509.866z M284.925,502.311c0.037,0.174,0.207,0.286,0.382,0.25c0.172-0.033,0.285-0.198,0.252-0.37
		s-0.198-0.285-0.37-0.252c0,0-0.001,0-0.001,0C285.014,501.973,284.899,502.137,284.925,502.311L284.925,502.311z M274.923,498.017
		c-0.037,0.171,0.072,0.34,0.243,0.377c0.171,0.037,0.34-0.072,0.377-0.243c0.001-0.002,0.001-0.005,0.001-0.007
		c0.03-0.174-0.082-0.341-0.254-0.379c-0.171-0.033-0.335,0.079-0.368,0.25C274.923,498.016,274.923,498.016,274.923,498.017
		L274.923,498.017z M300.897,507.896c0.102,0.146,0.301,0.183,0.448,0.084c0.144-0.097,0.182-0.293,0.085-0.437
		c-0.089-0.147-0.281-0.193-0.427-0.104c-0.004,0.002-0.008,0.005-0.012,0.007c-0.15,0.094-0.194,0.292-0.1,0.441
		C300.893,507.891,300.895,507.893,300.897,507.896L300.897,507.896z M296.627,501.487c0.102,0.146,0.301,0.183,0.448,0.084
		c0.144-0.097,0.182-0.293,0.085-0.437c-0.089-0.147-0.281-0.193-0.427-0.104c-0.004,0.002-0.008,0.005-0.012,0.007
		c-0.15,0.094-0.194,0.292-0.1,0.441C296.623,501.481,296.625,501.484,296.627,501.487L296.627,501.487z M288.077,504.126
		c0.053,0.122,0.195,0.178,0.317,0.125c0.12-0.052,0.176-0.189,0.128-0.31c-0.045-0.119-0.178-0.179-0.297-0.134
		c-0.008,0.003-0.015,0.006-0.023,0.01C288.085,503.87,288.029,504.007,288.077,504.126L288.077,504.126z M285.794,498.797
		c0.054,0.122,0.197,0.178,0.32,0.124s0.178-0.197,0.124-0.32l0,0c-0.051-0.121-0.19-0.178-0.312-0.127
		c-0.003,0.001-0.005,0.002-0.008,0.003C285.797,498.534,285.743,498.675,285.794,498.797L285.794,498.797z M275.766,503.545
		c0.005,0.132,0.113,0.236,0.245,0.235c0.13-0.009,0.231-0.115,0.235-0.245c-0.002-0.132-0.111-0.237-0.243-0.235
		c-0.001,0-0.002,0-0.002,0c-0.128-0.002-0.233,0.1-0.235,0.228C275.766,503.534,275.766,503.54,275.766,503.545L275.766,503.545z
		 M275.69,497.732c0.005,0.134,0.113,0.241,0.247,0.246c0.132-0.002,0.237-0.111,0.235-0.243c0-0.001,0-0.001,0-0.002
		c0.003-0.128-0.098-0.233-0.226-0.236c-0.003,0-0.006,0-0.009,0c-0.132-0.004-0.243,0.1-0.247,0.232
		C275.69,497.729,275.69,497.731,275.69,497.732L275.69,497.732z"/>
	
		<linearGradient id="finger_1_" gradientUnits="userSpaceOnUse" x1="428.4867" y1="305.6216" x2="435.3481" y2="305.6216" gradientTransform="matrix(1 0 0 -1 0 722)">
		<stop  offset="0" style="stop-color:#FFBEB6"/>
		<stop  offset="1" style="stop-color:#F2A19C"/>
	</linearGradient>
	<path id="finger" style="fill:url(#finger_1_);" d="M433.633,424.077c0,0-2.451-12.253-5.146-14.703c0,0,2.451-1.715,4.166,0.245
		c1.169,1.47,2.08,3.127,2.696,4.901L433.633,424.077"/>
	
		<linearGradient id="R_hand_1_" gradientUnits="userSpaceOnUse" x1="399.6913" y1="266.3852" x2="479.6851" y2="313.7448" gradientTransform="matrix(1 0.0015 0.0015 -1 -0.4594 721.5797)">
		<stop  offset="0" style="stop-color:#FFBEB6"/>
		<stop  offset="1" style="stop-color:#F2A19C"/>
	</linearGradient>
	<path id="R_hand" style="fill:url(#R_hand_1_);" d="M377.586,456.836c0,0,30.115-5.447,44.202-19.491s11.178-14.534,12.398-19.382
		s4.377-7.511,10.205-12.595s5.11-10.905,6.807-10.66s6.784,4.133,4.108,9.949s-10.44,7.987-7.305,19.39
		s-6.566,12.116-12.152,16.958s-32.663,44.503-49.895,53.692L377.586,456.836"/>
	
		<linearGradient id="sweater_1_" gradientUnits="userSpaceOnUse" x1="290.7584" y1="281.7564" x2="361.5505" y2="202.9038" gradientTransform="matrix(1 0 0 -1 0 722)">
		<stop  offset="0" style="stop-color:#23286B"/>
		<stop  offset="1" style="stop-color:#151A4F"/>
	</linearGradient>
	<path id="sweater" style="fill:url(#sweater_1_);" d="M340.97,405.79c-0.37,1.03-0.68,1.84-0.68,1.84l-0.03,0.35l-7.44,82.58
		c-1.33,0.39-2.64,0.76-3.93,1.11c-0.42,0.11-0.84,0.23-1.25,0.33c-0.21,0.06-0.43,0.11-0.64,0.17
		c-60.7,15.94-77.94-7.63-77.94-7.63c0.89-33.99,18.07-42.37,26.71-48.93c8.66-6.56,8.97-13.67,24.33-24.41
		c0.5-0.34,0.99-0.68,1.48-1.01c0.16-0.11,0.33-0.21,0.49-0.32c1.86-1.22,3.7-2.3,5.48-3.25c4.88-2.709,10.063-4.833,15.44-6.33
		c1.88-0.49,2.05-0.54,3.78-0.98l0.84-0.21c0.77-0.2,1.09-0.29,1.09-0.29C333.732,398.82,338.39,401.47,340.97,405.79z"/>
	
		<linearGradient id="neck_1_" gradientUnits="userSpaceOnUse" x1="330.7076" y1="316.4474" x2="350.6277" y2="327.8682" gradientTransform="matrix(1 0 0 -1 0 722)">
		<stop  offset="0" style="stop-color:#FFBEB6"/>
		<stop  offset="1" style="stop-color:#F2A19C"/>
	</linearGradient>
	<path id="neck" style="fill:url(#neck_1_);" d="M353.165,397.148c0,0-8.845,6.357-10.503,12.162l-13.958-10.503l15.755-11.747
		L353.165,397.148"/>
	<path id="face" style="fill:#FFBEB6;" d="M373.412,391.8c0,0-7.2,9.159-16.429,6.89c-5.345-1.301-9.362-3.85-11.525-6.323
		c5.829-1.931,11.46-7.263,12.49-11.774c0,0,5.95,6.788,9.259-2.017c3.402,0.991,7.005,1.067,10.446,0.22
		c-0.141,3.685,0.05,7.376,0.57,11.027C378.89,393.399,373.412,391.8,373.412,391.8z"/>
	<path id="mouth" style="fill:#1C2868;" d="M371.303,396.401c-0.236-1.708-1.813-2.902-3.521-2.665
		c-0.619,0.086-1.197,0.355-1.661,0.772c-0.355,0.315,0.071,0.93,0.431,0.61c0.942-0.915,2.447-0.893,3.362,0.049
		c0.345,0.355,0.571,0.809,0.645,1.298C370.638,396.936,371.383,396.876,371.303,396.401L371.303,396.401z"/>
	<path id="hair" style="fill:#23286B;" d="M387.165,364.377c-0.15-0.562-1.012-0.291-0.862,0.271
		c1.394,5.099-0.861,10.493-5.47,13.082c-2.221,1.286-4.78,1.869-7.339,1.672c4.375-0.081,9.77-1.697,11.78-8.6
		c3.352-11.511-8.609-12.85-11.369-8.224c1.01-2.854,2.73-10.503-5.502-15.285c-10.274-5.968-9.985,5.219-8.826,8.07
		c0,0-2.051-4.606-8.343-4.233s-3.918,5.829-3.918,5.829s-12.318-7.21-19.851,4.258c-4.975,7.573-0.415,11.909,3.849,13.671
		c-4.27-0.673-7.744-3.274-7.552-8.805c0.02-0.581-0.883-0.539-0.903,0.04c-0.28,8.048,6.671,10.448,13.219,9.662
		c-1.362,0.773-7.836,5.037-2.107,13.555c6.37,9.472,22.183-0.881,23.98-8.746c0,0,5.913,6.746,9.225-1.949
		c4.84,2.248,10.438,2.409,15.037-0.714C386.611,374.951,388.606,369.49,387.165,364.377z"/>
	<path style="fill:#23286B;" d="M392.45,505.71c0,0-12.06,12.51-27.29,5.08c-15.22-7.42-14.45-12.39-22.99-14.25
		c-3.61-0.78-9.52-1.09-14.72-4.11c-0.15-0.08-0.3-0.16-0.45-0.26c-0.042-0.02-0.082-0.043-0.12-0.07
		c-6.85-4.28-14.12-11.48-19.55-23.79c-7.31-16.61-6.64-45.4-5.75-58.12c0.16-0.11,0.33-0.21,0.49-0.32c1.86-1.22,3.7-2.3,5.48-3.25
		c4.88-2.709,10.063-4.833,15.44-6.33c1.88-0.49,2.05-0.54,3.78-0.98l0.84-0.21c0.77-0.2,1.09-0.29,1.09-0.29
		c5.032,0.01,9.69,2.66,12.27,6.98c0.689,1.109,1.256,2.289,1.69,3.52c0,0,0.79,11.28,6.36,31.33s28.39,16.69,28.39,16.69
		L392.45,505.71z"/>
</g>
</svg>
