<?xml version="1.0" encoding="UTF-8"?>
<svg version="1.1" xmlns="http://www.w3.org/2000/svg" viewBox="0 0 1200 800" width="1200" height="800" x="0px" y="0px">
              
              <!-- ITEM 0 -->
<g transform="translate(123.0 101.0) rotate(0.0 466.0 349.5) scale(1.165 1.165)">
<g transform="translate(-0.0 -0.0)">
<g clip-path="url(#clipPathId-collage-item-0)">
		<defs>
			<clipPath id="clipPathId-collage-item-0">
				<rect x="0.0" y="0.0" width="800.0" height="600.0"/>
			</clipPath>
		</defs>

<linearGradient id="SVGID_1_-i0" gradientUnits="userSpaceOnUse" x1="861.8562" y1="-2476.7854" x2="3464.1475" y2="-2476.7854" gradientTransform="matrix(0.1 0 0 -0.1 0 18)">
	<stop offset="0" style="stop-color:#E8F1FE"/>
	<stop offset="1" style="stop-color:#C1D7F8"/>
</linearGradient>
<ellipse style="fill:url(#SVGID_1_-i0);" cx="216.3" cy="265.679" rx="130.115" ry="132.422"/>
<g style="opacity:0.69;">
	<g>
		<polygon style="fill:#87B4EA;" points="687.917,146.204 671.509,129.924 687.917,113.515 690.609,116.207 677.021,129.924     690.609,143.512   "/>
	</g>
	<g>
		<polygon style="fill:#87B4EA;" points="675.739,146.204 659.459,129.924 675.739,113.515 678.559,116.207 664.843,129.924     678.559,143.512   "/>
	</g>
</g>
<g style="opacity:0.69;">
	<g>
		<polygon style="fill:#1D72D8;" points="15.552,285.805 12.86,282.984 26.448,269.396 12.86,255.68 15.552,252.988 31.832,269.396       "/>
	</g>
	<g>
		<polygon style="fill:#1D72D8;" points="27.73,285.805 24.91,282.984 38.627,269.396 24.91,255.68 27.73,252.988 44.011,269.396       "/>
	</g>
</g>
<g>
	<path style="opacity:0.45;fill:#78A9EF;enable-background:new    ;" d="M713.684,499.628l12.435,6.41   c1.282,0.385,2.564,0.641,3.846,0.897l-19.357-9.999C711.633,497.962,712.658,498.859,713.684,499.628z"/>
	<path style="opacity:0.45;fill:#78A9EF;enable-background:new    ;" d="M707.018,493.091l28.202,14.486c0.641,0,1.41,0,2.051,0   l-31.407-16.152C706.249,491.937,706.633,492.45,707.018,493.091z"/>
	<path style="opacity:0.45;fill:#78A9EF;enable-background:new    ;" d="M704.326,488.476l36.663,18.844   c0.513-0.128,1.026-0.128,1.666-0.256l-38.842-19.998C703.941,487.578,704.07,487.963,704.326,488.476z"/>
	<path style="opacity:0.45;fill:#78A9EF;enable-background:new    ;" d="M703.429,484.758l42.175,21.664   c0.513-0.128,0.897-0.256,1.41-0.385l-43.585-22.434C703.3,483.989,703.3,484.374,703.429,484.758z"/>
	<path style="opacity:0.45;fill:#78A9EF;enable-background:new    ;" d="M703.557,481.682l46.021,23.587   c0.385-0.128,0.769-0.256,1.154-0.513l-46.918-24.1C703.557,480.912,703.557,481.297,703.557,481.682z"/>
	<path style="opacity:0.45;fill:#78A9EF;enable-background:new    ;" d="M704.198,478.733l48.713,25.126   c0.385-0.128,0.641-0.385,1.026-0.513l-49.482-25.51C704.326,478.092,704.198,478.477,704.198,478.733z"/>
	<path style="opacity:0.45;fill:#78A9EF;enable-background:new    ;" d="M705.095,476.041l50.764,26.151   c0.256-0.128,0.641-0.385,0.897-0.641l-51.405-26.407C705.352,475.528,705.223,475.785,705.095,476.041z"/>
	<path style="opacity:0.45;fill:#78A9EF;enable-background:new    ;" d="M706.249,473.477l52.302,26.92   c0.256-0.256,0.641-0.385,0.897-0.641l-52.687-27.177C706.633,472.836,706.505,473.221,706.249,473.477z"/>
	<path style="opacity:0.45;fill:#78A9EF;enable-background:new    ;" d="M708.3,470.913c-0.128,0.128-0.128,0.128-0.256,0.256   l53.071,27.305c0.256-0.256,0.513-0.385,0.769-0.641l-52.943-27.177C708.685,470.657,708.428,470.785,708.3,470.913z"/>
	<path style="opacity:0.45;fill:#78A9EF;enable-background:new    ;" d="M713.043,470.144c-0.256,0-0.385,0-0.641,0l50.892,26.151   c0.256-0.256,0.385-0.513,0.641-0.769l-49.61-25.51C713.812,470.144,713.428,470.144,713.043,470.144z"/>
	<path style="opacity:0.45;fill:#78A9EF;enable-background:new    ;" d="M717.402,469.632l47.687,24.485   c0.256-0.256,0.385-0.513,0.513-0.769l-47.046-24.1C718.299,469.375,717.914,469.503,717.402,469.632z"/>
	<path style="opacity:0.45;fill:#78A9EF;enable-background:new    ;" d="M720.991,468.221l45.764,23.587   c0.128-0.256,0.385-0.513,0.513-0.769l-45.252-23.203C721.76,467.837,721.375,468.093,720.991,468.221z"/>
	<path style="opacity:0.45;fill:#78A9EF;enable-background:new    ;" d="M723.939,466.555l44.354,22.818   c0.128-0.256,0.256-0.513,0.385-0.897l-43.842-22.562C724.452,466.042,724.196,466.299,723.939,466.555z"/>
	<path style="opacity:0.45;fill:#78A9EF;enable-background:new    ;" d="M726.247,464.504l43.072,22.177   c0.128-0.256,0.256-0.641,0.385-0.897l-42.816-22.049C726.76,464.119,726.503,464.247,726.247,464.504z"/>
	<path style="opacity:0.45;fill:#78A9EF;enable-background:new    ;" d="M728.17,462.325l42.047,21.664   c0.128-0.256,0.128-0.641,0.256-0.897l-41.79-21.536C728.554,461.812,728.426,462.068,728.17,462.325z"/>
	<path style="opacity:0.45;fill:#78A9EF;enable-background:new    ;" d="M729.708,459.889l41.15,21.152   c0-0.385,0.128-0.641,0.128-1.026l-40.765-21.023C730.092,459.376,729.964,459.633,729.708,459.889z"/>
	<path style="opacity:0.45;fill:#78A9EF;enable-background:new    ;" d="M771.114,476.938l-39.868-20.511   c-0.128,0.256-0.256,0.641-0.256,0.897l40.124,20.639C771.114,477.579,771.114,477.323,771.114,476.938z"/>
	<path style="opacity:0.45;fill:#78A9EF;enable-background:new    ;" d="M770.729,473.477l-38.842-19.998   c0,0.385-0.128,0.641-0.128,1.026l39.227,20.126C770.857,474.246,770.857,473.862,770.729,473.477z"/>
	<path style="opacity:0.45;fill:#78A9EF;enable-background:new    ;" d="M769.704,469.76l-37.047-19.101   c-0.128,0.256-0.256,0.513-0.385,0.897l37.817,19.485C770.088,470.657,769.96,470.272,769.704,469.76z"/>
	<path style="opacity:0.45;fill:#78A9EF;enable-background:new    ;" d="M767.781,465.786c-0.128-0.128-0.128-0.256-0.256-0.256   l-32.817-16.921c-0.385,0.128-0.641,0.385-0.897,0.641l34.612,17.819C768.294,466.683,768.037,466.17,767.781,465.786z"/>
	<path style="opacity:0.45;fill:#78A9EF;enable-background:new    ;" d="M761.756,459.248l-21.152-10.896   c-0.897-0.256-1.923-0.385-2.82-0.385l26.792,13.845C763.679,460.914,762.781,460.145,761.756,459.248z"/>
</g>
<linearGradient id="SVGID_2_-i0" gradientUnits="userSpaceOnUse" x1="3785.9087" y1="-3135.6907" x2="7734.5659" y2="-3135.6907" gradientTransform="matrix(0.1 0 0 -0.1 0 18)">
	<stop offset="0" style="stop-color:#A1C3FC"/>
	<stop offset="1" style="stop-color:#78A9EF"/>
</linearGradient>
<path style="opacity:0.7;fill:url(#SVGID_2_-i0);enable-background:new    ;" d="M728.811,161.715  c-2.307-2.948-4.615-5.769-6.922-8.589L378.591,416.176c2.051,3.077,4.23,6.025,6.538,8.973  c12.691,16.537,27.177,30.638,43.072,42.431l4.358-5.256l168.572-40.252c-0.128,2.179-0.256,4.358-0.385,6.538l-170.239,40.637  c1.282,0.897,2.692,1.923,3.974,2.82l165.88-39.611c-0.128,2.179-0.513,3.846-0.769,6.153L441.02,476.426  c0.769,0.513,1.666,1.026,2.564,1.538l155.625-37.176c-0.513,2.307-1.026,5.128-1.667,7.435l-145.498,34.74  c1.41,0.769,2.82,1.538,4.102,2.179l140.626-33.586c-0.641,1.795-1.282,4.102-1.923,6.41l-130.627,31.151  c1.538,0.769,3.077,1.41,4.615,2.179l124.602-29.74c-0.769,2.307-1.538,4.615-2.564,6.538l-112.937,26.92  c2.051,0.769,4.102,1.538,6.153,2.307l104.989-25.126c-1.282,2.436-2.564,4.871-3.974,7.435l-89.606,21.408  c1.41,0.385,2.692,0.769,4.102,1.154l84.094-19.998c-1.41,3.077-3.205,5.64-4.871,8.204l-64.48,15.383  c2.564,0.513,5.128,1.026,7.692,1.41l53.456-12.691c-0.641,1.282-1.41,1.923-2.179,2.82c-1.282,1.538-2.436,3.077-3.846,4.487  l-31.151,7.435c4.23,0.385,8.461,0.641,12.691,0.769l14.101-3.333c-1.154,1.154-2.307,2.307-3.461,3.333  c44.483-0.897,89.093-15.511,127.038-44.611C783.548,392.588,801.495,256.705,728.811,161.715z M549.983,317.724  c0.128,0.128,0.385,0.385,0.513,0.385l-1.026,0.256L549.983,317.724z M545.753,322.98l8.332-2.051  c0.385,0.513,0.641,0.385,0.897,0.641c1.795,1.41,3.461,3.077,5.128,4.359l-21.023,4.999L545.753,322.98z M535.497,335.671  l27.818-6.666c1.666,1.795,3.077,3.077,4.615,4.743l-38.329,9.102L535.497,335.671z M527.421,345.67l42.175-9.999  c1.538,1.795,3.077,3.589,4.615,5.384l-53.328,12.691L527.421,345.67z M517.166,358.361l59.353-14.229  c1.282,1.795,2.307,3.205,3.589,5.128l-68.839,16.409L517.166,358.361z M507.552,370.283l74.608-17.819  c1.026,1.41,2.051,3.333,2.948,4.615l-83.453,19.87L507.552,370.283z M498.707,380.923l87.811-21.023  c1.026,1.923,2.179,4.358,3.205,6.281l-98.451,23.459L498.707,380.923z M489.092,392.46l101.528-24.228  c1.026,2.436,1.795,4.358,2.564,6.41l-110.629,26.279L489.092,392.46z M478.837,405.023l115.372-27.561  c0.641,2.051,1.282,3.974,1.795,5.512L472.94,412.33L478.837,405.023z M470.761,415.022l125.884-29.997  c0.641,2.564,1.154,4.615,1.795,7.051l-134.858,32.176L470.761,415.022z M460.377,427.713l138.447-33.073  c0.385,2.051,0.769,4.102,1.026,5.64l-145.241,34.612L460.377,427.713z M450.891,439.763l149.343-35.637  c0.256,2.051,0.385,3.718,0.513,5.769L444.994,447.07L450.891,439.763z M434.739,459.633l7.307-9.23l158.958-37.945  c0.128,2.692,0.128,4.743,0.256,7.435L434.739,459.633z"/>
<path style="fill:#EBF2FE;" d="M471.658,543.342l65.25-15.639c4.871-2.82,9.743-5.512,14.229-9.358l-96.528,23.075  C460.377,542.829,465.889,543.085,471.658,543.342z"/>
<path style="fill:#EBF2FE;" d="M550.88,509.884L436.79,537.06c3.718,1.282,7.435,2.564,11.281,3.205l108.322-25.895  c1.795-1.41,3.461-2.948,5.128-4.615C558.059,510.012,554.47,510.012,550.88,509.884z"/>
<path style="fill:#BED6FD;" d="M564.982,506.551l-14.101,3.333c3.589,0.128,7.051,0.128,10.64,0  C562.674,508.858,563.828,507.704,564.982,506.551z"/>
<path style="fill:#EBF2FE;" d="M394.23,509.115l-1.666,2.051c1.282,1.154,2.564,2.564,3.846,3.333l81.402-19.485  c-3.077-1.154-6.025-2.436-8.973-3.718L394.23,509.115z"/>
<path style="fill:#BED6FD;" d="M593.44,461.555l-124.602,29.741c2.948,1.282,6.025,2.564,8.973,3.718l112.937-26.92  C591.902,466.299,592.671,463.863,593.44,461.555z"/>
<path style="fill:#EBF2FE;" d="M414.228,485.015l-7.435,8.717l45.38-10.768c-2.82-1.538-5.64-3.205-8.461-4.999L414.228,485.015z"/>
<path style="fill:#BED6FD;" d="M599.209,440.917l-155.625,37.176c2.82,1.666,5.64,3.333,8.461,4.999l145.498-34.74  C598.183,445.916,598.696,443.096,599.209,440.917z"/>
<path style="fill:#EBF2FE;" d="M403.845,497.706l-5.897,7.307l66.275-15.768c-2.692-1.282-5.384-2.564-7.948-3.974L403.845,497.706z  "/>
<path style="fill:#BED6FD;" d="M596.773,451.685l-140.626,33.586c2.692,1.41,5.256,2.692,7.948,3.974l130.884-31.279  C595.491,455.659,596.132,453.479,596.773,451.685z"/>
<path style="fill:#EBF2FE;" d="M399.999,517.447c2.179,1.666,4.487,3.205,6.794,4.871l88.709-21.152  c-3.846-1.154-7.691-2.307-11.409-3.718L399.999,517.447z"/>
<path style="fill:#BED6FD;" d="M589.082,472.324l-104.989,25.126c3.846,1.41,7.563,2.564,11.409,3.718l89.606-21.408  C586.518,477.195,587.8,474.759,589.082,472.324z"/>
<path style="fill:#BED6FD;" d="M554.983,321.698c-0.256-0.256-0.513-0.256-0.897-0.641l-8.332,2.051l-6.666,8.076l21.023-4.999  C558.572,324.775,556.777,323.108,554.983,321.698z"/>
<path style="fill:#BED6FD;" d="M596.645,385.025l-125.884,29.997l-7.307,9.23l134.858-32.176  C597.799,389.64,597.286,387.589,596.645,385.025z"/>
<path style="fill:#EBF2FE;" d="M422.048,531.035c2.82,1.41,5.769,2.948,8.717,3.846l107.425-25.638  c-5.384-0.513-10.896-1.154-16.28-2.051L422.048,531.035z"/>
<path style="fill:#BED6FD;" d="M573.186,497.193c0.769-0.897,1.538-1.666,2.179-2.82l-53.456,12.691  c5.384,0.897,10.768,1.538,16.28,2.051l31.151-7.435C570.622,500.398,571.904,498.731,573.186,497.193z"/>
<path style="fill:#BED6FD;" d="M549.983,317.724l-0.513,0.641l1.026-0.256C550.368,318.109,550.111,317.853,549.983,317.724z"/>
<path style="fill:#EBF2FE;" d="M409.229,523.857c2.692,2.051,5.384,3.589,8.076,5.128l96.913-23.203  c-4.871-1.026-9.871-2.179-14.742-3.461L409.229,523.857z"/>
<path style="fill:#BED6FD;" d="M583.569,482.194l-84.094,19.998c4.871,1.282,9.743,2.436,14.742,3.461l64.48-15.383  C580.493,487.835,582.159,485.271,583.569,482.194z"/>
<path style="fill:#EBF2FE;" d="M422.304,475.016l-5.897,7.307l24.613-5.897c-2.179-1.41-4.358-2.82-6.538-4.358L422.304,475.016z"/>
<path style="fill:#BED6FD;" d="M600.363,432.456l-165.88,39.611c2.179,1.538,4.359,2.948,6.538,4.358l158.573-37.817  C599.85,436.43,600.234,434.635,600.363,432.456z"/>
<path style="fill:#BED6FD;" d="M582.159,352.464l-74.608,17.819l-6.025,6.794l83.453-19.87  C584.21,355.669,583.185,353.874,582.159,352.464z"/>
<path style="fill:#BED6FD;" d="M569.597,335.543l-42.175,9.999l-6.666,8.076l53.328-12.691  C572.673,339.132,571.135,337.338,569.597,335.543z"/>
<path style="fill:#BED6FD;" d="M576.519,344.132l-59.353,14.229l-5.897,7.307l68.839-16.409  C578.955,347.337,577.801,345.927,576.519,344.132z"/>
<path style="fill:#BED6FD;" d="M586.518,360.028l-87.811,21.023l-7.435,8.717l98.451-23.459  C588.825,364.258,587.672,361.951,586.518,360.028z"/>
<path style="fill:#BED6FD;" d="M563.315,329.005l-27.818,6.666l-5.897,7.307l38.329-9.102  C566.392,332.082,564.982,330.8,563.315,329.005z"/>
<path style="fill:#EBF2FE;" d="M425.894,470.401l4.615-1.154c-0.769-0.513-1.538-1.154-2.307-1.666L425.894,470.401z"/>
<path style="fill:#BED6FD;" d="M601.132,422.072L432.56,462.325l-4.358,5.256c0.769,0.513,1.538,1.154,2.307,1.666l170.239-40.637  C600.875,426.431,601.003,424.252,601.132,422.072z"/>
<path style="fill:#EBF2FE;" d="M520.755,535.394l-31.279,7.435C500.117,541.419,510.757,539.368,520.755,535.394z"/>
<path style="fill:#BED6FD;" d="M600.363,403.997l-149.343,35.637l-5.897,7.307l155.753-37.176  C600.619,407.715,600.619,406.177,600.363,403.997z"/>
<path style="fill:#BED6FD;" d="M442.046,450.403l-7.307,9.23l166.393-39.739c0-2.692,0-4.871-0.256-7.435L442.046,450.403z"/>
<path style="fill:#BED6FD;" d="M594.209,377.59l-115.373,27.561l-5.897,7.307l123.064-29.356  C595.491,381.564,594.978,379.513,594.209,377.59z"/>
<path style="fill:#BED6FD;" d="M598.824,394.768l-138.447,33.073l-5.897,7.307l145.241-34.612  C599.593,398.87,599.209,396.819,598.824,394.768z"/>
<path style="fill:#BED6FD;" d="M590.62,368.232L489.092,392.46l-6.538,8.589l110.501-26.408  C592.415,372.59,591.645,370.668,590.62,368.232z"/>
<path style="fill:#EEEEEE;" d="M663.305,229.785h3.846v8.973h-3.846V229.785z M663.305,306.7h3.846v10.255h-3.846V306.7z   M656.895,209.274h5.128v10.255h-5.128V209.274z M656.895,286.189h5.128v10.255h-5.128V286.189z M650.485,190.045h5.128v8.973  h-5.128V190.045z M650.485,266.96h5.128v10.255h-5.128V266.96z M650.485,346.439h5.128v10.255h-5.128V346.439z M641.512,169.535  h5.128v10.255h-5.128V169.535z M641.512,249.014h5.128v10.255h-5.128V249.014z M641.512,325.929h5.128v10.255h-5.128V325.929z   M635.102,229.785h3.846v8.973h-3.846V229.785z M635.102,306.7h3.846v10.255h-3.846V306.7z M628.693,209.274h3.846v10.255h-3.846  V209.274z M628.693,286.189h3.846v10.255h-3.846V286.189z M628.693,365.668h3.846v8.973h-3.846V365.668z M621.001,190.045h3.846  v8.973h-3.846V190.045z M621.001,266.96h3.846v10.255h-3.846V266.96z M621.001,346.439h3.846v10.255h-3.846V346.439z   M612.028,169.535h5.128v10.255h-5.128V169.535z M612.028,249.014h5.128v10.255h-5.128V249.014z M612.028,325.929h5.128v10.255  h-5.128V325.929z M612.028,405.407h5.128v8.973h-5.128V405.407z M605.618,151.588h5.128v7.692h-5.128V151.588z M605.618,229.785  h5.128v8.973h-5.128V229.785z M605.618,306.7h5.128v10.255h-5.128V306.7z M605.618,386.179h5.128v8.973h-5.128V386.179z   M599.209,131.077h3.846v8.973h-3.846V131.077z M599.209,209.274h3.846v10.255h-3.846V209.274z M599.209,286.189h3.846v10.255  h-3.846V286.189z M599.209,365.668h3.846v8.973h-3.846V365.668z M591.517,111.849h5.128v8.973h-5.128V111.849z M591.517,190.045  h5.128v8.973h-5.128V190.045z M591.517,266.96h5.128v10.255h-5.128V266.96z M591.517,346.439h5.128v10.255h-5.128V346.439z   M591.517,425.918h5.128v8.973h-5.128V425.918z M583.826,169.535h5.128v10.255h-5.128V169.535z M583.826,249.014h5.128v10.255  h-5.128V249.014z M583.826,325.929h5.128v10.255h-5.128V325.929z M583.826,405.407h5.128v8.973h-5.128V405.407z M577.416,151.588  h3.846v7.692h-3.846V151.588z M577.416,229.785h3.846v8.973h-3.846V229.785z M577.416,306.7h3.846v10.255h-3.846V306.7z   M577.416,386.179h3.846v8.973h-3.846V386.179z M569.725,131.077h5.128v8.973h-5.128V131.077z M569.725,209.274h5.128v10.255h-5.128  V209.274z M569.725,286.189h5.128v10.255h-5.128V286.189z M569.725,365.668h5.128v8.973h-5.128V365.668z M563.315,111.849h5.128  v8.973h-5.128V111.849z M563.315,190.045h5.128v8.973h-5.128V190.045z M563.315,266.96h5.128v10.255h-5.128V266.96z   M563.315,346.439h5.128v10.255h-5.128V346.439z M563.315,425.918h5.128v8.973h-5.128V425.918z M554.342,91.338h5.128v8.973h-5.128  V91.338z M554.342,169.535h5.128v10.255h-5.128V169.535z M554.342,249.014h5.128v10.255h-5.128V249.014z M554.342,325.929h5.128  v10.255h-5.128V325.929z M554.342,405.407h5.128v8.973h-5.128V405.407z M547.932,151.588h3.846v7.692h-3.846V151.588z   M547.932,229.785h3.846v8.973h-3.846V229.785z M547.932,306.7h3.846v10.255h-3.846V306.7z M547.932,386.179h3.846v8.973h-3.846  V386.179z M541.523,131.077h3.846v8.973h-3.846V131.077z M541.523,209.274h3.846v10.255h-3.846V209.274z M541.523,286.189h3.846  v10.255h-3.846V286.189z M541.523,365.668h3.846v8.973h-3.846V365.668z M541.523,445.147h3.846v8.973h-3.846V445.147z   M533.831,111.849h5.128v8.973h-5.128V111.849z M533.831,190.045h5.128v8.973h-5.128V190.045z M533.831,266.96h5.128v10.255h-5.128  V266.96z M533.831,346.439h5.128v10.255h-5.128V346.439z M533.831,425.918h5.128v8.973h-5.128V425.918z M526.14,91.338h3.846v8.973  h-3.846V91.338z M526.14,169.535h3.846v10.255h-3.846V169.535z M526.14,249.014h3.846v10.255h-3.846V249.014z M526.14,325.929h3.846  v10.255h-3.846V325.929z M526.14,405.407h3.846v8.973h-3.846V405.407z M518.448,72.109h5.128v8.973h-5.128V72.109z M518.448,151.588  h5.128v7.692h-5.128V151.588z M518.448,229.785h5.128v8.973h-5.128V229.785z M518.448,306.7h5.128v10.255h-5.128V306.7z   M518.448,386.179h5.128v8.973h-5.128V386.179z M518.448,465.658h5.128v8.973h-5.128V465.658z M512.038,131.077h5.128v8.973h-5.128  V131.077z M512.038,209.274h5.128v10.255h-5.128V209.274z M512.038,286.189h5.128v10.255h-5.128V286.189z M512.038,365.668h5.128  v8.973h-5.128V365.668z M512.038,445.147h5.128v8.973h-5.128V445.147z M505.629,111.849h3.846v8.973h-3.846V111.849z   M505.629,190.045h3.846v8.973h-3.846V190.045z M505.629,266.96h3.846v10.255h-3.846V266.96z M505.629,346.439h3.846v10.255h-3.846  V346.439z M505.629,425.918h3.846v8.973h-3.846V425.918z M496.655,91.338h5.128v8.973h-5.128V91.338z M496.655,169.535h5.128v10.255  h-5.128V169.535z M496.655,249.014h5.128v10.255h-5.128V249.014z M496.655,325.929h5.128v10.255h-5.128V325.929z M496.655,405.407  h5.128v8.973h-5.128V405.407z M488.964,72.109h6.41v8.973h-6.41V72.109z M488.964,151.588h6.41v7.692h-6.41V151.588z   M488.964,229.785h6.41v8.973h-6.41V229.785z M488.964,306.7h6.41v10.255h-6.41V306.7z M488.964,386.179h6.41v8.973h-6.41V386.179z   M488.964,465.658h6.41v8.973h-6.41V465.658z M482.554,131.077h5.128v8.973h-5.128V131.077z M482.554,209.274h5.128v10.255h-5.128  V209.274z M482.554,286.189h5.128v10.255h-5.128V286.189z M482.554,365.668h5.128v8.973h-5.128V365.668z M482.554,445.147h5.128  v8.973h-5.128V445.147z M476.145,111.849h5.128v8.973h-5.128V111.849z M476.145,190.045h5.128v8.973h-5.128V190.045z   M476.145,266.96h5.128v10.255h-5.128V266.96z M476.145,346.439h5.128v10.255h-5.128V346.439z M476.145,425.918h5.128v8.973h-5.128  V425.918z M468.453,91.338h3.846v8.973h-3.846V91.338z M468.453,169.535h3.846v10.255h-3.846V169.535z M468.453,249.014h3.846  v10.255h-3.846V249.014z M468.453,325.929h3.846v10.255h-3.846V325.929z M468.453,405.407h3.846v8.973h-3.846V405.407z   M231.299,238.758h-3.846v-8.973h3.846V238.758z M238.99,336.184h-3.846v-10.255h3.846V336.184z M238.99,259.269h-3.846v-10.255  h3.846V259.269z M246.682,356.695h-3.846v-10.255h3.846V356.695z M246.682,277.216h-3.846V266.96h3.846V277.216z M246.682,199.019  h-3.846v-8.973h3.846V199.019z M254.373,374.641h-3.846v-8.973h3.846V374.641z M254.373,296.445h-3.846v-10.255h3.846V296.445z   M254.373,219.53h-3.846v-10.255h3.846V219.53z M260.783,316.955h-5.128V306.7h5.128V316.955z M260.783,238.758h-5.128v-8.973h5.128  V238.758z M267.192,336.184h-3.846v-10.255h3.846V336.184z M267.192,259.269h-3.846v-10.255h3.846V259.269z M267.192,179.79h-3.846  v-10.255h3.846V179.79z M276.166,356.695h-5.128v-10.255h5.128V356.695z M276.166,277.216h-5.128V266.96h5.128V277.216z   M276.166,199.019h-5.128v-8.973h5.128V199.019z M283.857,374.641h-5.128v-8.973h5.128V374.641z M283.857,296.445h-5.128v-10.255  h5.128V296.445z M283.857,219.53h-5.128v-10.255h5.128V219.53z M283.857,140.051h-5.128v-8.973h5.128V140.051z M290.267,395.152  h-5.128v-8.973h5.128V395.152z M290.267,316.955h-5.128V306.7h5.128V316.955z M290.267,238.758h-5.128v-8.973h5.128V238.758z   M290.267,159.279h-5.128v-7.692h5.128V159.279z M296.676,414.381h-3.846v-8.973h3.846V414.381z M296.676,336.184h-3.846v-10.255  h3.846V336.184z M296.676,259.269h-3.846v-10.255h3.846V259.269z M296.676,179.79h-3.846v-10.255h3.846V179.79z M305.65,434.892  h-5.128v-8.973h5.128V434.892z M305.65,356.695h-5.128v-10.255h5.128V356.695z M305.65,277.216h-5.128V266.96h5.128V277.216z   M305.65,199.019h-5.128v-8.973h5.128V199.019z M305.65,120.822h-5.128v-8.973h5.128V120.822z M312.059,374.641h-5.128v-8.973h5.128  V374.641z M312.059,296.445h-5.128v-10.255h5.128V296.445z M312.059,219.53h-5.128v-10.255h5.128V219.53z M312.059,140.051h-5.128  v-8.973h5.128V140.051z M318.469,395.152h-5.128v-8.973h5.128V395.152z M318.469,316.955h-5.128V306.7h5.128V316.955z   M318.469,238.758h-5.128v-8.973h5.128V238.758z M318.469,159.279h-5.128v-7.692h5.128V159.279z M326.16,414.381h-5.128v-8.973  h5.128V414.381z M326.16,336.184h-5.128v-10.255h5.128V336.184z M326.16,259.269h-5.128v-10.255h5.128V259.269z M326.16,179.79  h-5.128v-10.255h5.128V179.79z M326.16,100.311h-5.128v-8.973h5.128V100.311z M333.852,434.892h-3.846v-8.973h3.846V434.892z   M333.852,356.695h-3.846v-10.255h3.846V356.695z M333.852,277.216h-3.846V266.96h3.846V277.216z M333.852,199.019h-3.846v-8.973  h3.846V199.019z M333.852,120.822h-3.846v-8.973h3.846V120.822z M341.543,454.12h-5.128v-8.973h5.128V454.12z M341.543,374.641  h-5.128v-8.973h5.128V374.641z M341.543,296.445h-5.128v-10.255h5.128V296.445z M341.543,219.53h-5.128v-10.255h5.128V219.53z   M341.543,140.051h-5.128v-8.973h5.128V140.051z M347.953,395.152h-3.846v-8.973h3.846V395.152z M347.953,316.955h-3.846V306.7  h3.846V316.955z M347.953,238.758h-3.846v-8.973h3.846V238.758z M347.953,159.279h-3.846v-7.692h3.846V159.279z M354.363,414.381  h-3.846v-8.973h3.846V414.381z M354.363,336.184h-3.846v-10.255h3.846V336.184z M354.363,259.269h-3.846v-10.255h3.846V259.269z   M354.363,179.79h-3.846v-10.255h3.846V179.79z M354.363,100.311h-3.846v-8.973h3.846V100.311z M363.336,434.892h-5.128v-8.973  h5.128V434.892z M363.336,356.695h-5.128v-10.255h5.128V356.695z M363.336,277.216h-5.128V266.96h5.128V277.216z M363.336,199.019  h-5.128v-8.973h5.128V199.019z M363.336,120.822h-5.128v-8.973h5.128V120.822z M369.746,454.12h-5.128v-8.973h5.128V454.12z   M369.746,374.641h-5.128v-8.973h5.128V374.641z M369.746,296.445h-5.128v-10.255h5.128V296.445z M369.746,219.53h-5.128v-10.255  h5.128V219.53z M369.746,140.051h-5.128v-8.973h5.128V140.051z M376.155,474.631h-3.846v-8.973h3.846V474.631z M376.155,395.152  h-3.846v-8.973h3.846V395.152z M376.155,316.955h-3.846V306.7h3.846V316.955z M376.155,238.758h-3.846v-8.973h3.846V238.758z   M376.155,159.279h-3.846v-7.692h3.846V159.279z M376.155,81.083h-3.846v-8.973h3.846V81.083z M383.847,414.381h-5.128v-8.973h5.128  V414.381z M383.847,336.184h-5.128v-10.255h5.128V336.184z M383.847,259.269h-5.128v-10.255h5.128V259.269z M383.847,179.79h-5.128  v-10.255h5.128V179.79z M383.847,100.311h-5.128v-8.973h5.128V100.311z M392.82,434.892h-5.128v-8.973h5.128V434.892z   M392.82,356.695h-5.128v-10.255h5.128V356.695z M392.82,277.216h-5.128V266.96h5.128V277.216z M392.82,199.019h-5.128v-8.973h5.128  V199.019z M392.82,120.822h-5.128v-8.973h5.128V120.822z M399.23,454.12h-5.128v-8.973h5.128V454.12z M399.23,374.641h-5.128v-8.973  h5.128V374.641z M399.23,296.445h-5.128v-10.255h5.128V296.445z M399.23,219.53h-5.128v-10.255h5.128V219.53z M399.23,140.051  h-5.128v-8.973h5.128V140.051z M405.639,474.631h-5.128v-8.973h5.128V474.631z M405.639,395.152h-5.128v-8.973h5.128V395.152z   M405.639,316.955h-5.128V306.7h5.128V316.955z M405.639,238.758h-5.128v-8.973h5.128V238.758z M405.639,159.279h-5.128v-7.692  h5.128V159.279z M405.639,81.083h-5.128v-8.973h5.128V81.083z M413.331,414.381h-5.128v-8.973h5.128V414.381z M413.331,336.184  h-5.128v-10.255h5.128V336.184z M413.331,259.269h-5.128v-10.255h5.128V259.269z M413.331,179.79h-5.128v-10.255h5.128V179.79z   M413.331,100.311h-5.128v-8.973h5.128V100.311z M421.022,434.892h-3.846v-8.973h3.846V434.892z M421.022,356.695h-3.846v-10.255  h3.846V356.695z M421.022,277.216h-3.846V266.96h3.846V277.216z M421.022,199.019h-3.846v-8.973h3.846V199.019z M421.022,120.822  h-3.846v-8.973h3.846V120.822z M428.714,454.12h-5.128v-8.973h5.128V454.12z M428.714,374.641h-5.128v-8.973h5.128V374.641z   M428.714,296.445h-5.128v-10.255h5.128V296.445z M428.714,219.53h-5.128v-10.255h5.128V219.53z M428.714,140.051h-5.128v-8.973  h5.128V140.051z M435.123,474.631h-5.128v-8.973h5.128V474.631z M435.123,395.152h-5.128v-8.973h5.128V395.152z M435.123,316.955  h-5.128V306.7h5.128V316.955z M435.123,238.758h-5.128v-8.973h5.128V238.758z M435.123,159.279h-5.128v-7.692h5.128V159.279z   M435.123,81.083h-5.128v-8.973h5.128V81.083z M441.533,414.381h-5.128v-8.973h5.128V414.381z M441.533,336.184h-5.128v-10.255  h5.128V336.184z M441.533,259.269h-5.128v-10.255h5.128V259.269z M441.533,179.79h-5.128v-10.255h5.128V179.79z M441.533,100.311  h-5.128v-8.973h5.128V100.311z M451.788,434.892h-5.128v-8.973h5.128V434.892z M451.788,356.695h-5.128v-10.255h5.128V356.695z   M451.788,277.216h-5.128V266.96h5.128V277.216z M451.788,199.019h-5.128v-8.973h5.128V199.019z M451.788,120.822h-5.128v-8.973  h5.128V120.822z M459.48,454.12h-5.128v-8.973h5.128V454.12z M459.48,374.641h-5.128v-8.973h5.128V374.641z M459.48,296.445h-5.128  v-10.255h5.128V296.445z M459.48,219.53h-5.128v-10.255h5.128V219.53z M459.48,140.051h-5.128v-8.973h5.128V140.051z M459.48,60.572  h-5.128v-8.973h5.128V60.572z M465.889,474.631h-5.128v-8.973h5.128V474.631z M465.889,395.152h-5.128v-8.973h5.128V395.152z   M465.889,316.955h-5.128V306.7h5.128V316.955z M465.889,238.758h-5.128v-8.973h5.128V238.758z M465.889,159.279h-5.128v-7.692  h5.128V159.279z M460.762,81.083v-8.973h5.128v8.973H460.762z"/>
<g>
	<polygon style="fill:#FFFFFF;" points="250.527,132.359 232.581,132.359 232.581,212.607 250.527,230.298  "/>
	<polygon style="fill:#FFFFFF;" points="217.198,132.359 199.251,132.359 199.251,179.79 217.198,197.481  "/>
	<polygon style="fill:#FFFFFF;" points="183.868,132.359 167.203,132.359 167.203,146.973 183.868,164.663  "/>
	<polygon style="fill:#FFFFFF;" points="314.623,132.359 297.958,132.359 297.958,278.241 314.623,295.291  "/>
	<polygon style="fill:#FFFFFF;" points="330.006,310.289 345.389,325.416 345.389,132.359 330.006,132.359  "/>
	<polygon style="fill:#FFFFFF;" points="282.575,132.359 264.628,132.359 264.628,245.424 282.575,263.115  "/>
</g>

</g>
</g>
</g>

<!-- ITEM 1 -->
<g transform="translate(444.0 97.0) rotate(0.0 194.0 220.0) scale(0.4978839930296241 0.4972245827833728)">
<g transform="translate(-0.0 -0.0)">
<g clip-path="url(#clipPathId-collage-item-1)">
		<defs>
			<clipPath id="clipPathId-collage-item-1">
				<rect x="0.0" y="0.0" width="779.298" height="884.912"/>
			</clipPath>
		</defs>

<path fill="#EEEEEE" d="M125.225,539.452c-8.701-0.646-15.994-3.947-25.456-1.762c-9.355,2.161-23.517,2.675-33.204,3.503  c-18.218,1.556-33.905-2.878-51.333-0.667c-28.898,3.667-11.295,27.888,8.485,29.727c15.563,1.446,43.778-3.95,54.848,10.94  c-7.639,2.939-32.281,8.894-26.667,22c6.207,14.49,28.172-2.912,35.216-6.817c9.27-5.139,33.332-11.567,38.179-18.317  C130.541,570.753,129.242,539.75,125.225,539.452z"/>
<path fill="#C0D7FD" d="M115.443,560.444c-0.748,8.121-2.211,14.082-1.544,24.749c26.492,15.909,58.173,21.533,87.915,27.563  c32.105,6.51,66.353,8.279,98.725,1.408c17.308-3.674,31.984-15.208,35.6-33.787c3.595-18.476-0.385-40.867-21.086-47.172  c-29.986-9.134-58.29,7.475-87.198,11.818c-17.312,2.601-31.654,0.693-48.945-1.099c-20.232-2.097-43.011-2.731-62.955-6.398  C116.404,538.211,116.038,553.989,115.443,560.444z"/>
<path fill="#A1C3FC" d="M189.898,545.193c2.505,10.982,3.701,18.371,3.634,30.192c-0.058,10.103-2.769,28.323-3.988,35.005  c15.841,3.509,30.79,7.157,47.021,8.136c7.362,0.444,15.138,1.207,22.667,0.518c7.979-0.73,15.85-4.208,23.785-4.471  c-3.292-3.422-0.717-13.275-0.452-18.196c0.372-6.912-0.837-13.442-2.667-20c-3.84-13.765-9.262-27.345-14.783-40.45  c-23.333,9.511-18.854,6.224-48.985,8.439C215.993,545.331,188.739,544.723,189.898,545.193z"/>
<path fill="#EEEEEE" d="M649.585,308.671c9.931-12.43,29.481-37.928,34.224-35.526c8.727,7.472,80.013,73.817,95.489,88.362  c-1.431,3.722-4.291,5.463-7.947,7.011c-9.929,4.203-23.84,2.321-32.913-1.293c-9.073-3.615-13.542-6.965-22.811-10.169  c-10.587-3.66-19.191-2.574-28.39-8.625c-3.72-2.447-10.635-11.749-13.717-14.944C665.542,325.214,657.563,316.943,649.585,308.671z  "/>
<path fill="#D6D7D8" d="M562.696,289.524c-4.063-15.382-12.885-46.278-8.129-48.654c11.201-2.555,106.962-20.255,127.865-24.013  c2.136,3.368,1.829,6.701,0.893,10.56c-2.542,10.478-12.345,20.527-20.654,25.658s-13.664,6.723-21.761,12.256  c-9.248,6.32-14.78,12.219-25.121,16c-4.182,1.529-14.498,3.194-18.9,3.764C585.49,286.571,574.093,288.047,562.696,289.524z"/>
<path fill="#EEEEEE" d="M219.898,781.193c-9.164,9.433-15.031,15.997-28,19.333c-8.986,2.312-30,4.667-26.614,12.298  c6.837,12.648,26.965,3.732,36.614,0.368c8.766,14.244-7.085,35.976,4.887,52.026c9.241,12.39,36.152,25.887,50.625,16.621  c15.481-9.911-6.996-31.037-7.512-45.314c-0.723-20.018,14.395-29.405,18.65-47.452C253.3,789.849,231.902,768.838,219.898,781.193z  "/>
<path fill="#81AEF2" d="M621.79,278.539c0.286,18.749,1.417,44.028,1.795,59.874c0.435,18.284-3.084,37.864-4.905,56.216  c-1.703,17.162-9.519,46.098-13.582,63.007c-4.339,18.058,1.304,25.153-7.141,41.128c-22.782-4.842-56.75-13.858-80.324-16.79  c-0.313-19.002,2.962-30.119,8.098-49.813c5.815-22.297,19.09-38.977,23.906-58.661c3.931-16.067,5.066-25.829,3.352-41.435  c-2.319-21.123,3.839-29.381,8.344-48.36C562.752,284.685,604.265,277.736,621.79,278.539z"/>
<g>
	<path fill="#A1C3FC" d="M441.295,480.048l-2.889-7.461c21.958-8.5,46.526-42.055,51.237-63.562   c6.093-27.816-4.355-55.778-26.619-71.238c-8.233-5.717-16.852-11.036-25.186-16.18c-14.576-8.996-29.647-18.299-43.119-30.018   c-11.163-9.711-21.77-24.396-28.375-39.281c-5.581-12.578-11.021-31.25-5.249-48.775c14.393-43.691,50.593-65.876,85.602-87.331   c6.377-3.908,12.972-7.95,19.295-12.042c35.255-22.815,45.803-56.144,32.247-101.887L505.911,0   c14.497,48.916,2.529,86.22-35.57,110.877c-6.405,4.146-13.042,8.213-19.461,12.146c-35.334,21.654-68.709,42.107-82.184,83.014   c-9.137,27.736,13.261,63.846,31.275,79.518c12.978,11.29,27.109,20.011,42.069,29.244c8.425,5.2,17.136,10.577,25.547,16.418   c24.934,17.313,36.659,48.527,29.87,79.52C492.301,434.278,466.099,470.445,441.295,480.048z"/>
</g>
<linearGradient id="SVGID_1_-i1" gradientUnits="userSpaceOnUse" x1="477.6797" y1="513.3561" x2="481.6797" y2="633.3561">
	<stop offset="0" style="stop-color:#D0E1FD"/>
	<stop offset="1" style="stop-color:#B8D1F8"/>
</linearGradient>
<path fill="url(#SVGID_1_-i1)" d="M263.171,610.06c3.371,12.811,13.685,21.451,25.43,28.538c9.983,6.024,22.618,9.131,33.868,11.669  c25.839,5.829,49.109,4.869,74.798,1.026c58.946-8.818,99.845-34.473,143.275-74.531c21.236-19.587,37.413-44.798,48.458-71.914  c6.028-14.801,11.252-23.957,14.211-39.29c4.078-21.133,21.852-47.542,34.983-65.683c12.936-17.871,30.498-41.208,51.793-49.39  c-7.555-9.956-16.876-18.875-24.965-28.315c-5.68-6.628-13.518-13.942-13.518-13.942s-11.067,3.421-19.319,6.473  c-12.295,4.546-27.125,10.992-35.429,21.606c-8.394,10.729-10.955,23.97-21.46,33.627c-9.931,9.13-24.203,14.295-32.243,25.776  c-7.321,10.454-16.063,27.43-22.846,38.533c-14.127,23.127-31.366,31.407-54.828,43.213  c-41.299,20.783-81.043,33.936-125.939,41.254c-47.702,7.775-75.895,28-76.269,75.503  C264.486,593.109,262.834,603.317,263.171,610.06z"/>
<linearGradient id="SVGID_2_-i1" gradientUnits="userSpaceOnUse" x1="494.0187" y1="484.8001" x2="610.6498" y2="484.8001">
	<stop offset="0" style="stop-color:#B8D2FD"/>
	<stop offset="1" style="stop-color:#A0C2F5"/>
</linearGradient>
<path fill="url(#SVGID_2_-i1)" d="M524.736,424.057c0,0,33.83,2.605,49.467,8.807c17.917,7.106,33.537,19.867,34.291,26.281  c1.962,16.68,4.72,34.643-2.795,49.667c-8.27,16.532-22.641,27.196-37.952,36.732c5.736-34.026-37.543-87.225-73.728-84.715  C509.644,447.449,524.736,424.057,524.736,424.057z"/>
<linearGradient id="SVGID_3_-i1" gradientUnits="userSpaceOnUse" x1="366.2272" y1="469.765" x2="405.2253" y2="526.7621">
	<stop offset="0" style="stop-color:#EEEEEE"/>
	<stop offset="0.9516" style="stop-color:#D6D7D8"/>
</linearGradient>
<path fill="url(#SVGID_3_-i1)" d="M469.481,498.422c-29.258,38.213-77.849,59.094-135.518,71.835l-17.635-30.698  c-13.415-23.352-5.359-53.157,17.993-66.572l57.921-33.273c23.352-13.415,53.157-5.359,66.572,17.993l12.004,20.897  C474.418,484.872,473.875,492.682,469.481,498.422z"/>
<linearGradient id="SVGID_4_-i1" gradientUnits="userSpaceOnUse" x1="198.6395" y1="538.5573" x2="348.0047" y2="538.5573">
	<stop offset="0" style="stop-color:#23286B"/>
	<stop offset="1" style="stop-color:#151A4F"/>
</linearGradient>
<circle fill="url(#SVGID_4_-i1)" cx="273.322" cy="538.557" r="74.683"/>
<linearGradient id="SVGID_5_-i1" gradientUnits="userSpaceOnUse" x1="274.2829" y1="665.2249" x2="346.2829" y2="717.2249">
	<stop offset="0" style="stop-color:#D0E1FD"/>
	<stop offset="1" style="stop-color:#B8D1F8"/>
</linearGradient>
<path fill="url(#SVGID_5_-i1)" d="M359.694,566.192c-56.139,0-60.117,55.277-77.93,101.242c-7.722,19.927-16.461,35.236-28.533,53.093  c-6.922,10.239-14.778,25.7-20.534,36.594c-2.812,5.322-17.742,30.587-17.983,30.913c8.655,7.392,20.32,15.229,29.346,21.07  c4.936,3.194,10.534,5.436,10.534,5.436s8.76-9.157,16.779-17.155c20.241-20.188,40.091-40.12,59.776-61.112  c16.92-18.043,33.067-38.263,43.187-60.936c8.644-19.366,22.465-42.373,19.193-65.05  C392.074,600.188,384.372,566.192,359.694,566.192z"/>
<linearGradient id="SVGID_6_-i1" gradientUnits="userSpaceOnUse" x1="255.8983" y1="710.4678" x2="361.8983" y2="710.4678">
	<stop offset="0" style="stop-color:#B8D2FD"/>
	<stop offset="1" style="stop-color:#A0C2F5"/>
</linearGradient>
<path fill="url(#SVGID_6_-i1)" d="M281.538,664.409c24.092,0,64.225,13.332,80.36,32.117c-9.848,24.341-30.667,49.333-52,60  c-10.667-12-38-35.333-54-40.667C263.184,708.04,277.898,675.193,281.538,664.409z"/>
<path fill="#151A4F" d="M287.864,566.564l-11.477-25.898c-4.06-9.16-14.776-13.295-23.937-9.236l-52.085,23.082  c5.057,23.229,20.918,42.409,42.06,52.033l36.203-16.044C287.789,586.441,291.924,575.724,287.864,566.564z"/>
<linearGradient id="SVGID_7_-i1" gradientUnits="userSpaceOnUse" x1="258.2968" y1="585.584" x2="258.2968" y2="543.5798">
	<stop offset="0" style="stop-color:#FFBEB6"/>
	<stop offset="1" style="stop-color:#F2A19C"/>
</linearGradient>
<path fill="url(#SVGID_7_-i1)" d="M287.864,566.564l-11.477-25.898c-4.06-9.16-14.776-13.295-23.937-9.236l-25.121,11.133  c3.091,17.82-0.793,30.809-0.069,32.625c1.07,2.683,3.936,2.163,6.324,2.189c3,0.033,4.417,0.489,6.024,3.287  c2.976,5.183,5.825,9.296,10.593,12.697c3.135,2.236,8.558,3.515,12.515,4.192l15.911-7.051  C287.789,586.441,291.924,575.724,287.864,566.564z"/>
<g>
	<path fill="#D6D7D8" d="M242.426,609.046c-0.959,0-1.874-0.555-2.287-1.488c-0.56-1.262,0.01-2.739,1.273-3.298l36.204-16.044   c7.885-3.495,11.458-12.753,7.963-20.639l-11.477-25.898c-3.495-7.886-12.753-11.46-20.639-7.964l-52.085,23.083   c-1.262,0.56-2.739-0.011-3.298-1.272s0.01-2.739,1.272-3.298l52.085-23.083c10.406-4.612,22.623,0.102,27.235,10.509   l11.477,25.898c2.234,5.041,2.371,10.649,0.386,15.794c-1.985,5.144-5.854,9.207-10.895,11.44l-36.204,16.044   C243.109,608.977,242.765,609.046,242.426,609.046z"/>
</g>
<path id="texure_3_-i1" fill="#FFFFFF" enable-background="new    " d="M390.697,470.817c0.194-0.046,0.312-0.243,0.265-0.437  c-0.047-0.193-0.244-0.313-0.437-0.266c-0.194,0.046-0.312,0.243-0.266,0.438l0,0C390.31,470.744,390.504,470.863,390.697,470.817  L390.697,470.817z M388.526,462.234c0.198-0.056,0.319-0.253,0.283-0.456c-0.059-0.193-0.26-0.304-0.453-0.249  c-0.185,0.033-0.31,0.21-0.276,0.397c0.001,0.013,0.006,0.026,0.011,0.042C388.137,462.163,388.333,462.281,388.526,462.234  L388.526,462.234L388.526,462.234z M420.297,448.539c0.174,0.108,0.402,0.053,0.509-0.12l0,0c0.103-0.156,0.059-0.367-0.096-0.468  c-0.011-0.01-0.027-0.018-0.042-0.023c-0.166-0.107-0.384-0.062-0.493,0.102C420.067,448.203,420.122,448.431,420.297,448.539  L420.297,448.539L420.297,448.539z M371.923,466.961c0.192,0.029,0.373-0.102,0.405-0.296c0.028-0.193-0.102-0.373-0.296-0.406  c-0.194-0.033-0.373,0.102-0.405,0.296c-0.039,0.181,0.078,0.362,0.26,0.4C371.901,466.959,371.911,466.961,371.923,466.961z   M404.581,458.855c0.133,0.154,0.358,0.184,0.527,0.073c0.166-0.125,0.197-0.36,0.072-0.528c-0.125-0.166-0.361-0.2-0.527-0.073  C404.5,458.46,404.47,458.687,404.581,458.855z M399.296,451.746c0.124,0.157,0.352,0.181,0.509,0.057l0,0  c0.162-0.103,0.211-0.319,0.108-0.484c-0.006-0.008-0.011-0.017-0.018-0.026c-0.128-0.16-0.358-0.193-0.527-0.073  C399.216,451.351,399.184,451.579,399.296,451.746z M353.433,501.456c0.368,0.084,0.738-0.146,0.822-0.517  c0.003-0.007,0.002-0.016,0.005-0.024c0.081-0.365-0.152-0.729-0.517-0.81c0,0-0.003,0.001-0.005,0  c-0.368-0.084-0.738,0.146-0.822,0.517c-0.003,0.007-0.002,0.016-0.005,0.024c-0.081,0.365,0.152,0.729,0.517,0.81  c0.002,0.003,0.002,0.003,0.002,0.003L353.433,501.456z M356.961,485.062c0.376,0.082,0.749-0.153,0.834-0.532  c0.084-0.378-0.154-0.75-0.533-0.836c-0.005,0-0.007-0.003-0.013-0.003c-0.365-0.081-0.729,0.151-0.808,0.516  c0,0.001,0.001,0.003,0.001,0.003C356.362,484.592,356.592,484.963,356.961,485.062L356.961,485.062z M418.933,504.982  c0.214,0.318,0.642,0.407,0.963,0.2c0.317-0.19,0.422-0.598,0.235-0.915c-0.008-0.012-0.012-0.022-0.02-0.031  c-0.214-0.318-0.642-0.407-0.965-0.199C418.828,504.238,418.732,504.661,418.933,504.982L418.933,504.982L418.933,504.982z   M400.744,476.742c0.204,0.32,0.623,0.413,0.943,0.211c0,0,0.014-0.009,0.018-0.014c0.317-0.19,0.422-0.598,0.235-0.915  c-0.008-0.012-0.012-0.022-0.02-0.031c-0.221-0.317-0.648-0.412-0.982-0.218C400.624,475.992,400.535,476.421,400.744,476.742  L400.744,476.742z M391.648,462.638c0.21,0.322,0.644,0.411,0.963,0.2c0.322-0.21,0.409-0.643,0.198-0.964  c-0.202-0.322-0.625-0.418-0.946-0.218l0,0c-0.326,0.201-0.431,0.629-0.23,0.959C391.638,462.624,391.644,462.631,391.648,462.638  L391.648,462.638z M383.586,510.931c0.372-0.079,0.608-0.445,0.527-0.818c-0.079-0.373-0.446-0.609-0.818-0.53  c-0.365,0.078-0.599,0.432-0.53,0.799C382.846,510.757,383.21,511.001,383.586,510.931L383.586,510.931z M380.574,494.407  c0.372-0.079,0.608-0.445,0.527-0.818c-0.079-0.373-0.446-0.609-0.818-0.53c-0.365,0.078-0.599,0.432-0.53,0.799  C379.832,494.233,380.196,494.477,380.574,494.407L380.574,494.407z M377.578,477.899c0.381-0.081,0.622-0.456,0.541-0.838  c-0.078-0.367-0.43-0.61-0.799-0.552c-0.385,0.06-0.646,0.421-0.587,0.806c0.06,0.385,0.422,0.648,0.807,0.59  C377.555,477.905,377.566,477.903,377.578,477.899z M437.294,476.529c0.319,0.211,0.75,0.131,0.967-0.189  c0.217-0.305,0.141-0.729-0.164-0.945c-0.001,0-0.003-0.003-0.006-0.003c-0.288-0.227-0.706-0.178-0.935,0.109  c-0.01,0.014-0.021,0.027-0.033,0.044C436.917,475.865,436.993,476.292,437.294,476.529z M409.711,457.375  c0.297,0.216,0.712,0.155,0.929-0.142c0.006-0.007,0.013-0.017,0.017-0.028c0.228-0.304,0.163-0.736-0.142-0.965  c-0.01-0.008-0.018-0.015-0.027-0.021c-0.32-0.217-0.751-0.135-0.968,0.182c-0.216,0.319-0.133,0.752,0.184,0.968  C409.706,457.372,409.71,457.374,409.711,457.375z M367.329,513.43c0.339-0.03,0.59-0.326,0.566-0.664  c-0.027-0.338-0.324-0.592-0.664-0.567c-0.341,0.026-0.591,0.324-0.566,0.664l0,0C366.694,513.201,366.99,513.453,367.329,513.43  L367.329,513.43z M366.062,498.498c0.339-0.03,0.59-0.326,0.566-0.664c-0.017-0.34-0.306-0.603-0.645-0.587  c-0.34,0.017-0.603,0.305-0.586,0.646c-0.001,0.012,0.002,0.026,0.002,0.039c0.019,0.332,0.306,0.587,0.639,0.569  C366.044,498.5,366.053,498.497,366.062,498.498L366.062,498.498z M364.374,483.42c0.11,0.109,0.265,0.161,0.422,0.142  c0.339-0.03,0.59-0.326,0.566-0.664c-0.027-0.349-0.325-0.609-0.676-0.586c0,0-0.003,0.001-0.007,0.001  c-0.205,0.016-0.391,0.133-0.494,0.313l-0.018,0.019c-0.062,0.099-0.082,0.218-0.052,0.333  C364.12,483.162,364.219,483.33,364.374,483.42L364.374,483.42z M422.835,484.375c0.275,0.214,0.665,0.178,0.895-0.082  c0.215-0.252,0.185-0.627-0.065-0.844c-0.007-0.006-0.014-0.01-0.022-0.017c-0.256-0.226-0.646-0.201-0.868,0.056  c-0.003,0.003-0.003,0.006-0.003,0.006C422.558,483.762,422.587,484.146,422.835,484.375z M399.954,465.008  c0.256,0.226,0.646,0.201,0.872-0.054c0,0,0.004-0.006,0.008-0.01c0.218-0.237,0.198-0.607-0.039-0.823  c-0.014-0.014-0.029-0.027-0.046-0.037c-0.256-0.226-0.646-0.201-0.872,0.054c-0.002,0.004-0.004,0.006-0.008,0.01  C399.666,464.412,399.703,464.79,399.954,465.008L399.954,465.008z M388.524,455.351c0.271,0.214,0.663,0.171,0.877-0.1  c0.209-0.262,0.172-0.643-0.085-0.862c-0.265-0.209-0.646-0.183-0.877,0.064C388.225,454.728,388.262,455.121,388.524,455.351  L388.524,455.351z M393.049,498.134c0.166,0.298,0.54,0.409,0.841,0.251c0.301-0.155,0.42-0.522,0.265-0.822  c-0.162-0.301-0.53-0.427-0.84-0.287C393.011,497.442,392.889,497.823,393.049,498.134z M386.178,484.801  c0.139,0.296,0.495,0.426,0.791,0.286c0.009-0.005,0.022-0.013,0.032-0.016c0.301-0.155,0.42-0.522,0.265-0.822  c-0.162-0.301-0.53-0.427-0.84-0.287C386.13,484.126,386.02,484.501,386.178,484.801z M379.292,471.485  c0.157,0.3,0.526,0.415,0.825,0.259c0.295-0.155,0.414-0.517,0.264-0.816c-0.152-0.301-0.518-0.427-0.823-0.276  c-0.304,0.152-0.426,0.517-0.276,0.822C379.287,471.477,379.289,471.48,379.292,471.485z M416.443,450.394  c0.327,0.103,0.678-0.073,0.791-0.4c0.095-0.332-0.095-0.681-0.429-0.778c-0.318-0.091-0.65,0.078-0.763,0.385  c-0.113,0.316,0.05,0.668,0.364,0.782C416.421,450.386,416.433,450.392,416.443,450.394z M381.286,472.551  c0.124,0.157,0.352,0.181,0.509,0.057c0.156-0.123,0.18-0.353,0.057-0.509s-0.352-0.181-0.509-0.057l0,0  C381.184,472.165,381.161,472.395,381.286,472.551L381.286,472.551L381.286,472.551z M375.737,465.667  c0.137,0.152,0.368,0.167,0.527,0.038c0.156-0.123,0.18-0.353,0.057-0.509l0,0c-0.113-0.155-0.331-0.187-0.487-0.072  c-0.008,0.006-0.014,0.01-0.022,0.018c-0.164,0.121-0.198,0.353-0.08,0.52C375.734,465.663,375.734,465.665,375.737,465.667z   M363.175,476.95c0.185-0.068,0.29-0.261,0.248-0.454c-0.049-0.189-0.246-0.304-0.437-0.254c-0.007,0.001-0.012,0.004-0.02,0.006  c-0.187,0.045-0.302,0.233-0.257,0.421c0.004,0.012,0.006,0.022,0.01,0.032C362.78,476.896,362.983,477.008,363.175,476.95  L363.175,476.95z M389.398,455.952c0.175,0.099,0.393,0.037,0.49-0.138c0.099-0.176,0.036-0.394-0.14-0.492  c-0.157-0.104-0.367-0.061-0.468,0.095c-0.009,0.01-0.017,0.028-0.023,0.042c-0.099,0.168-0.04,0.388,0.128,0.486  C389.391,455.95,389.394,455.95,389.398,455.952L389.398,455.952z M346.062,493.898c0.219-0.014,0.386-0.206,0.371-0.425  c-0.001-0.003,0-0.007,0.001-0.012c-0.009-0.225-0.198-0.4-0.421-0.393c-0.01,0.001-0.022,0.002-0.033,0.002  c-0.219,0.014-0.386,0.206-0.371,0.425c0.001,0.003,0,0.007-0.001,0.012C345.63,493.74,345.831,493.911,346.062,493.898  L346.062,493.898z M383.664,474.743c0.154,0.148,0.4,0.142,0.547-0.012c0.012-0.011,0.021-0.024,0.031-0.039  c0.145-0.174,0.123-0.433-0.049-0.579c-0.18-0.139-0.435-0.127-0.598,0.033C383.449,474.328,383.478,474.595,383.664,474.743  C383.66,474.741,383.66,474.741,383.664,474.743L383.664,474.743z M376.008,468.165c0.183,0.148,0.447,0.12,0.596-0.066l0-0.001  c0.145-0.174,0.123-0.433-0.049-0.579c-0.18-0.139-0.435-0.127-0.598,0.033C375.814,467.737,375.836,468.002,376.008,468.165  L376.008,468.165z M364.374,483.42c0.06-0.001,0.119-0.013,0.174-0.035c0.202-0.098,0.285-0.345,0.184-0.548  c-0.002-0.003-0.003-0.006-0.005-0.013c-0.104-0.198-0.339-0.282-0.542-0.197l-0.018,0.019c-0.202,0.098-0.285,0.345-0.184,0.548  c0.002,0.003,0.005,0.009,0.005,0.013C364.061,483.354,364.214,483.438,364.374,483.42L364.374,483.42z M389.651,454.409  c0.217,0.073,0.451-0.046,0.523-0.263c0-0.005,0.004-0.01,0.003-0.013c0.068-0.213-0.048-0.442-0.261-0.51  c-0.204-0.082-0.434,0.012-0.519,0.217c-0.004,0.01-0.006,0.016-0.011,0.026C389.312,454.087,389.428,454.328,389.651,454.409  L389.651,454.409z M376.623,526.359c0.199,0.342,0.629,0.469,0.984,0.288c0.348-0.184,0.484-0.613,0.303-0.962  c-0.196-0.345-0.631-0.474-0.984-0.288C376.576,525.579,376.44,526.008,376.623,526.359L376.623,526.359z M368.531,511.051  c0.183,0.35,0.613,0.486,0.963,0.305c0.35-0.18,0.484-0.613,0.303-0.962c-0.183-0.35-0.613-0.486-0.963-0.305  C368.487,510.269,368.351,510.7,368.531,511.051L368.531,511.051z M360.423,495.759c0.196,0.345,0.631,0.474,0.982,0.289  c0.341-0.195,0.459-0.63,0.265-0.97c-0.193-0.34-0.63-0.46-0.97-0.267C360.368,494.997,360.244,495.42,360.423,495.759z   M406.884,465.525c0.376,0.108,0.772-0.095,0.896-0.469c0.118-0.378-0.091-0.779-0.47-0.897c-0.378-0.119-0.778,0.091-0.896,0.469  l0,0C406.302,465.004,406.509,465.402,406.884,465.525L406.884,465.525z M390.36,460.419c0.376,0.112,0.775-0.094,0.896-0.469  c0.107-0.387-0.107-0.788-0.488-0.915c-0.387-0.104-0.781,0.126-0.885,0.508C389.786,459.916,389.996,460.3,390.36,460.419z   M385.183,487.849c0.31,0.254,0.764,0.21,1.018-0.096l0-0.001c0.244-0.298,0.198-0.739-0.1-0.982l0,0  c-0.296-0.257-0.744-0.223-1,0.074c-0.258,0.297-0.222,0.744,0.076,1.001C385.178,487.846,385.181,487.849,385.183,487.849  L385.183,487.849z M371.862,476.812c0.293,0.254,0.736,0.223,0.991-0.069c0.003-0.003,0.006-0.007,0.009-0.01  c0.262-0.299,0.234-0.756-0.067-1.021c-0.3-0.263-0.756-0.236-1.02,0.066c-0.262,0.299-0.234,0.756,0.067,1.021  C371.849,476.803,371.856,476.808,371.862,476.812z M380.662,498.096c0.3,0.263,0.755,0.234,1.018-0.064  c0.251-0.292,0.228-0.734-0.049-1.001c-0.305-0.26-0.757-0.239-1.035,0.046C380.344,497.38,380.372,497.827,380.662,498.096  L380.662,498.096z M367.853,486.551c0.3,0.263,0.755,0.234,1.018-0.064c0.263-0.289,0.241-0.739-0.049-1.001  c-0.289-0.263-0.739-0.243-1.002,0.046l0,0C367.559,485.824,367.572,486.274,367.853,486.551L367.853,486.551z M351.613,507.839  c0.173,0.349,0.593,0.492,0.941,0.326c0-0.001,0.004,0,0.003-0.002c0.359-0.165,0.516-0.585,0.355-0.944  c-0.177-0.356-0.605-0.505-0.965-0.341C351.6,507.057,351.453,507.48,351.613,507.839L351.613,507.839z M344.19,492.254  c0.162,0.358,0.585,0.514,0.943,0.352c0.357-0.161,0.512-0.584,0.35-0.942c-0.002-0.003-0.005-0.009-0.009-0.017  c-0.18-0.35-0.604-0.502-0.965-0.341c-0.35,0.169-0.491,0.592-0.325,0.941C344.19,492.251,344.19,492.251,344.19,492.254  L344.19,492.254z M403.928,475.165c0.377,0.123,0.786-0.077,0.914-0.451c0.126-0.368-0.066-0.771-0.435-0.898  c-0.356-0.144-0.762,0.03-0.903,0.386c-0.004,0.01-0.009,0.018-0.01,0.03c-0.142,0.37,0.042,0.783,0.413,0.924  C403.913,475.161,403.92,475.163,403.928,475.165z M387.688,469.393c0.377,0.123,0.786-0.077,0.914-0.451  c0.126-0.368-0.066-0.771-0.435-0.898c-0.356-0.144-0.762,0.03-0.903,0.386c-0.004,0.01-0.009,0.018-0.01,0.03  c-0.142,0.37,0.044,0.785,0.413,0.924C387.673,469.387,387.681,469.389,387.688,469.393z M375.929,485.58  c0.259,0.146,0.587,0.057,0.735-0.203c0.142-0.253,0.059-0.571-0.186-0.724c-0.24-0.151-0.559-0.081-0.712,0.156  c-0.01,0.015-0.02,0.033-0.027,0.048C375.597,485.111,375.683,485.432,375.929,485.58z M364.692,479.086  c0.26,0.149,0.592,0.054,0.738-0.205c0.146-0.259,0.052-0.593-0.207-0.739c-0.254-0.149-0.581-0.064-0.729,0.188  c-0.003,0.006-0.005,0.01-0.01,0.017C364.345,478.609,364.436,478.935,364.692,479.086L364.692,479.086z M353.117,501.034  c0.184,0.23,0.52,0.27,0.752,0.091c0.22-0.193,0.26-0.516,0.09-0.754c-0.18-0.233-0.516-0.278-0.75-0.097  c0,0.001,0,0.001-0.003,0.002c-0.229,0.169-0.283,0.491-0.116,0.724C353.101,501.015,353.109,501.024,353.117,501.034z   M345.181,490.714c0.188,0.234,0.526,0.281,0.772,0.109c0.233-0.18,0.276-0.516,0.095-0.75c0,0-0.001,0-0.002-0.003  c-0.168-0.233-0.488-0.287-0.722-0.121c0,0-0.009,0.008-0.015,0.013c-0.242,0.171-0.301,0.503-0.132,0.747  C345.178,490.709,345.18,490.712,345.181,490.714L345.181,490.714z"/>

</g>
</g>
</g>

              </svg>