<?xml version="1.0" encoding="iso-8859-1" ?>
              <svg
                version="1.1"
                xmlns="http://www.w3.org/2000/svg"
                xmlns:xlink="http://www.w3.org/1999/xlink"
                viewBox="0 0 1221 814"
                width="1221"
                height="814"
              >
                <g transform="translate(132.275 -93.61) scale(3.024 3.025) rotate(0 140.98214285714286 150.0198347107438)"><g clip-path="url(#clipPath_7RE1_92mEGIVnnzEHpMmV)"><defs>
          <clipPath id="clipPath_7RE1_92mEGIVnnzEHpMmV">
            <rect x="0" y="0" width="282" height="300" />
          </clipPath>
       </defs> <linearGradient id="SVGID_1_7RE1_92mEGIVnnzEHpMmV" gradientUnits="userSpaceOnUse" x1="1876.5844" y1="-3124.0313" x2="2823.7722" y2="-3124.0313" gradientTransform="matrix(0.1875 -0.0696 -0.0696 -0.1875 -497.8444 -243.9663)">  <stop offset="0" stop-color="#23286B"/>  <stop offset="1" stop-color="#151A4F"/> </linearGradient> <polygon fill="url(#SVGID_1_7RE1_92mEGIVnnzEHpMmV)" points="282,234.033 104.443,300 38.493,122.4 216.05,56.434 "/> <path fill="#A1C3FC" d="M91.398,62.484h-1.062c0.357,0.191,0.708,0.387,1.062,0.584V62.484z"/> <path fill="#A1C3FC" d="M89.883,173.387h4.544v-3.056c-1.475,0.936-2.99,1.814-4.544,2.629  C89.883,172.96,89.883,173.387,89.883,173.387z"/> <path fill="#A1C3FC" d="M51,58.484v-2.514c-1.536,0.248-3.049,0.557-4.544,0.914v1.598H51V58.484z"/> <path fill="#A1C3FC" d="M61.857,58.484v-3.299c-0.285-0.004-0.569-0.022-0.854-0.022c-1.24,0-2.468,0.046-3.69,0.118v3.204h4.544  V58.484z"/> <path fill="#A1C3FC" d="M72.714,58.484v-2.209c-1.497-0.284-3.012-0.515-4.544-0.691v2.9H72.714z"/> <path fill="#A1C3FC" d="M81.087,58.484c-0.682-0.231-1.366-0.459-2.058-0.668v0.668H81.087z"/> <path fill="#A1C3FC" d="M26.258,69.719v-3.991c-1.568,1.054-3.082,2.179-4.544,3.366v0.625h4.544V69.719z"/> <rect x="32.571" y="62.484" fill="#A1C3FC" width="4.544" height="7.235"/> <rect x="43.427" y="62.484" fill="#A1C3FC" width="4.544" height="7.235"/> <rect x="54.283" y="62.484" fill="#A1C3FC" width="4.544" height="7.235"/> <rect x="65.141" y="62.484" fill="#A1C3FC" width="4.544" height="7.235"/> <rect x="75.997" y="62.484" fill="#A1C3FC" width="4.544" height="7.235"/> <path fill="#A1C3FC" d="M86.854,69.719h4.544v-6.651c-0.352-0.197-0.705-0.394-1.062-0.584h-3.483  C86.854,62.484,86.854,69.719,86.854,69.719z"/> <path fill="#A1C3FC" d="M101.054,69.719c-1.084-0.907-2.2-1.775-3.344-2.607v2.607H101.054z"/> <path fill="#A1C3FC" d="M18.432,81.465V74.23h-2.31c-0.766,0.794-1.509,1.606-2.234,2.439v4.796  C13.886,81.465,18.432,81.465,18.432,81.465z"/> <rect x="24.743" y="74.231" fill="#A1C3FC" width="4.544" height="7.235"/> <rect x="35.599" y="74.231" fill="#A1C3FC" width="4.544" height="7.235"/> <rect x="46.456" y="74.231" fill="#A1C3FC" width="4.544" height="7.235"/> <rect x="57.313" y="74.231" fill="#A1C3FC" width="4.544" height="7.235"/> <rect x="68.169" y="74.231" fill="#A1C3FC" width="4.544" height="7.235"/> <rect x="79.026" y="74.231" fill="#A1C3FC" width="4.544" height="7.235"/> <rect x="89.883" y="74.231" fill="#A1C3FC" width="4.544" height="7.235"/> <rect x="100.74" y="74.231" fill="#A1C3FC" width="4.544" height="7.235"/> <path fill="#A1C3FC" d="M111.896,81.465c-0.099-0.14-0.198-0.281-0.298-0.421v0.421H111.896z"/> <path fill="#A1C3FC" d="M4.544,90.951c-0.273,0.578-0.534,1.161-0.789,1.747h0.789V90.951z"/> <rect x="10.857" y="85.465" fill="#A1C3FC" width="4.544" height="7.235"/> <rect x="21.713" y="85.465" fill="#A1C3FC" width="4.544" height="7.235"/> <rect x="32.571" y="85.465" fill="#A1C3FC" width="4.544" height="7.235"/> <rect x="43.427" y="85.465" fill="#A1C3FC" width="4.544" height="7.235"/> <rect x="54.283" y="85.465" fill="#A1C3FC" width="4.544" height="7.235"/> <rect x="65.141" y="85.465" fill="#A1C3FC" width="4.544" height="7.235"/> <rect x="75.997" y="85.465" fill="#A1C3FC" width="4.544" height="7.235"/> <rect x="86.854" y="85.465" fill="#A1C3FC" width="4.544" height="7.235"/> <rect x="97.711" y="85.465" fill="#A1C3FC" width="4.544" height="7.235"/> <rect x="108.567" y="85.465" fill="#A1C3FC" width="4.544" height="7.235"/> <rect x="3.029" y="97.212" fill="#A1C3FC" width="4.544" height="7.235"/> <rect x="13.886" y="97.212" fill="#A1C3FC" width="4.544" height="7.235"/> <rect x="24.743" y="97.212" fill="#A1C3FC" width="4.544" height="7.235"/> <rect x="35.599" y="97.212" fill="#A1C3FC" width="4.544" height="7.235"/> <rect x="46.456" y="97.212" fill="#A1C3FC" width="4.544" height="7.235"/> <rect x="57.313" y="97.212" fill="#A1C3FC" width="4.544" height="7.235"/> <rect x="68.169" y="97.212" fill="#A1C3FC" width="4.544" height="7.235"/> <rect x="79.026" y="97.212" fill="#A1C3FC" width="4.544" height="7.235"/> <rect x="89.883" y="97.212" fill="#A1C3FC" width="4.544" height="7.235"/> <rect x="100.74" y="97.212" fill="#A1C3FC" width="4.544" height="7.235"/> <rect x="111.596" y="97.212" fill="#A1C3FC" width="4.544" height="7.235"/> <rect x="0" y="108.446" fill="#A1C3FC" width="4.544" height="7.235"/> <rect x="10.857" y="108.446" fill="#A1C3FC" width="4.544" height="7.235"/> <rect x="21.713" y="108.446" fill="#A1C3FC" width="4.544" height="7.235"/> <rect x="32.571" y="108.446" fill="#A1C3FC" width="4.544" height="7.235"/> <rect x="43.427" y="108.446" fill="#A1C3FC" width="4.544" height="7.235"/> <rect x="54.283" y="108.446" fill="#A1C3FC" width="4.544" height="7.235"/> <rect x="65.141" y="108.446" fill="#A1C3FC" width="4.544" height="7.235"/> <rect x="75.997" y="108.446" fill="#A1C3FC" width="4.544" height="7.235"/> <rect x="86.854" y="108.446" fill="#A1C3FC" width="4.544" height="7.235"/> <rect x="97.711" y="108.446" fill="#A1C3FC" width="4.544" height="7.235"/> <rect x="108.567" y="108.446" fill="#A1C3FC" width="4.544" height="7.235"/> <path fill="#A1C3FC" d="M119.424,115.681h3.958c-0.075-2.449-0.277-4.864-0.626-7.235h-3.332V115.681z"/> <rect x="3.029" y="120.191" fill="#A1C3FC" width="4.544" height="7.235"/> <rect x="13.886" y="120.191" fill="#A1C3FC" width="4.544" height="7.235"/> <rect x="24.743" y="120.191" fill="#A1C3FC" width="4.544" height="7.235"/> <rect x="35.599" y="120.191" fill="#A1C3FC" width="4.544" height="7.235"/> <rect x="46.456" y="120.191" fill="#A1C3FC" width="4.544" height="7.235"/> <rect x="57.313" y="120.191" fill="#A1C3FC" width="4.544" height="7.235"/> <rect x="68.169" y="120.191" fill="#A1C3FC" width="4.544" height="7.235"/> <rect x="79.026" y="120.191" fill="#A1C3FC" width="4.544" height="7.235"/> <rect x="89.883" y="120.191" fill="#A1C3FC" width="4.544" height="7.235"/> <rect x="100.74" y="120.191" fill="#A1C3FC" width="4.544" height="7.235"/> <rect x="111.596" y="120.191" fill="#A1C3FC" width="4.544" height="7.235"/> <path fill="#A1C3FC" d="M122.453,120.191v7.235h0.202c0.374-2.369,0.609-4.785,0.71-7.235H122.453z"/> <path fill="#A1C3FC" d="M4.544,131.425H0.13c0.558,2.47,1.253,4.886,2.094,7.235h2.32C4.544,138.661,4.544,131.425,4.544,131.425z"/> <rect x="10.857" y="131.425" fill="#A1C3FC" width="4.544" height="7.235"/> <rect x="21.713" y="131.425" fill="#A1C3FC" width="4.544" height="7.235"/> <rect x="32.571" y="131.425" fill="#A1C3FC" width="4.544" height="7.235"/> <rect x="43.427" y="131.425" fill="#A1C3FC" width="4.544" height="7.235"/> <rect x="54.283" y="131.425" fill="#A1C3FC" width="4.544" height="7.235"/> <rect x="65.141" y="131.425" fill="#A1C3FC" width="4.544" height="7.235"/> <rect x="75.997" y="131.425" fill="#A1C3FC" width="4.544" height="7.235"/> <rect x="86.854" y="131.425" fill="#A1C3FC" width="4.544" height="7.235"/> <rect x="97.711" y="131.425" fill="#A1C3FC" width="4.544" height="7.235"/> <rect x="108.567" y="131.425" fill="#A1C3FC" width="4.544" height="7.235"/> <path fill="#A1C3FC" d="M119.424,138.661h0.358c0.841-2.348,1.537-4.765,2.094-7.235h-2.454v7.235H119.424z"/> <path fill="#A1C3FC" d="M4.053,143.172c1.044,2.323,2.212,4.579,3.52,6.741v-6.741H4.053z"/> <rect x="13.886" y="143.172" fill="#A1C3FC" width="4.544" height="7.235"/> <rect x="24.743" y="143.172" fill="#A1C3FC" width="4.544" height="7.235"/> <rect x="35.599" y="143.172" fill="#A1C3FC" width="4.544" height="7.235"/> <rect x="46.456" y="143.172" fill="#A1C3FC" width="4.544" height="7.235"/> <rect x="57.313" y="143.172" fill="#A1C3FC" width="4.544" height="7.235"/> <rect x="68.169" y="143.172" fill="#A1C3FC" width="4.544" height="7.235"/> <rect x="79.026" y="143.172" fill="#A1C3FC" width="4.544" height="7.235"/> <rect x="89.883" y="143.172" fill="#A1C3FC" width="4.544" height="7.235"/> <rect x="100.74" y="143.172" fill="#A1C3FC" width="4.544" height="7.235"/> <path fill="#A1C3FC" d="M111.596,143.172v7.235h2.524c0.711-1.149,1.383-2.322,2.02-3.518v-3.717H111.596z"/> <path fill="#A1C3FC" d="M10.857,154.405v0.387c1.411,1.9,2.932,3.709,4.544,5.433v-5.821h-4.544V154.405z"/> <rect x="21.713" y="154.405" fill="#A1C3FC" width="4.544" height="7.235"/> <rect x="32.571" y="154.405" fill="#A1C3FC" width="4.544" height="7.235"/> <rect x="43.427" y="154.405" fill="#A1C3FC" width="4.544" height="7.235"/> <rect x="54.283" y="154.405" fill="#A1C3FC" width="4.544" height="7.235"/> <rect x="65.141" y="154.405" fill="#A1C3FC" width="4.544" height="7.235"/> <rect x="75.997" y="154.405" fill="#A1C3FC" width="4.544" height="7.235"/> <rect x="86.854" y="154.405" fill="#A1C3FC" width="4.544" height="7.235"/> <rect x="97.711" y="154.405" fill="#A1C3FC" width="4.544" height="7.235"/> <path fill="#A1C3FC" d="M108.567,158.025c0.996-1.171,1.951-2.378,2.859-3.621h-2.859V158.025z"/> <path fill="#A1C3FC" d="M24.743,166.152v2.265c1.47,1.051,2.983,2.042,4.544,2.966v-5.231L24.743,166.152L24.743,166.152z"/> <rect x="35.599" y="166.152" fill="#A1C3FC" width="4.544" height="7.235"/> <rect x="46.456" y="166.152" fill="#A1C3FC" width="4.544" height="7.235"/> <rect x="57.313" y="166.152" fill="#A1C3FC" width="4.544" height="7.235"/> <rect x="68.169" y="166.152" fill="#A1C3FC" width="4.544" height="7.235"/> <rect x="79.026" y="166.152" fill="#A1C3FC" width="4.544" height="7.235"/> <path fill="#A1C3FC" d="M89.883,166.152v6.807c1.554-0.813,3.07-1.692,4.544-2.629v-4.179L89.883,166.152L89.883,166.152z"/> <path fill="#A1C3FC" d="M43.427,177.386v0.134c1.494,0.437,3.007,0.829,4.544,1.153v-1.287H43.427z"/> <path fill="#A1C3FC" d="M54.283,177.386v2.296c1.499,0.161,3.015,0.258,4.544,0.31v-2.606H54.283z"/> <path fill="#A1C3FC" d="M65.141,177.386v2.509c1.53-0.101,3.047-0.254,4.544-0.463v-2.047H65.141z"/> <path fill="#A1C3FC" d="M75.997,178.222c1.029-0.253,2.048-0.532,3.057-0.836h-3.057V178.222z"/> <rect x="135.797" y="2.065" transform="matrix(-0.7511 -0.6602 0.6602 -0.7511 241.9085 105.371)" fill="#23286B" width="10.04" height="10.04"/> <rect x="156.081" y="46.829" transform="matrix(-0.7511 -0.6602 0.6602 -0.7511 247.8769 197.1477)" fill="#89B3F4" width="10.04" height="10.04"/> <g>  <path fill="#78A9EF" d="M175.613,56.113c-0.264,0-0.482-0.207-0.495-0.474c-0.105-2.28,0.036-10.28,6.292-17.427   c6.256-7.15,15.456-11.144,19.795-10.25c0.269,0.054,0.439,0.317,0.387,0.585c-0.055,0.269-0.322,0.437-0.586,0.386   c-4.059-0.83-12.99,3.236-18.85,9.932c-6.01,6.869-6.147,14.542-6.048,16.73c0.014,0.274-0.198,0.505-0.472,0.517   C175.628,56.113,175.621,56.113,175.613,56.113z"/> </g> <g>  <path fill="#78A9EF" d="M135.171,53.963c-0.228,0-0.435-0.158-0.483-0.39c-2.716-12.41-10.917-23.589-21.935-29.906   c-0.238-0.136-0.32-0.439-0.184-0.676c0.136-0.238,0.438-0.32,0.676-0.184c11.258,6.455,19.636,17.877,22.411,30.554   c0.059,0.267-0.111,0.532-0.378,0.591C135.24,53.96,135.205,53.963,135.171,53.963z"/> </g> <g>  <path fill="#E94A47" d="M255.508,205.995l-50.767-15.467c-1.084,1.379-2.062,2.874-2.901,4.488   c-0.712,1.37-1.299,2.774-1.772,4.193l54.485,16.597C255.457,212.566,255.761,209.248,255.508,205.995z"/>  <path fill="#E94A47" d="M240.598,183.081l-10.743-3.273c-6.47-0.625-12.949,0.997-18.339,4.518l41.827,12.742   C250.903,191.285,246.541,186.276,240.598,183.081z"/>  <path fill="#E94A47" d="M233.295,235.974l-26.823-8.172c2.114,2.224,4.621,4.144,7.493,5.64   C220.152,236.662,226.979,237.381,233.295,235.974z"/>  <path fill="#E94A47" d="M251.356,223.104l-52.711-16.057c-0.14,3.621,0.418,7.216,1.608,10.594l43.888,13.37   C246.961,228.911,249.422,226.252,251.356,223.104z"/> </g> </g></g><g transform="translate(403.948 321.53) scale(2.289 2.288) rotate(0 100.01747487986019 283.0594405594406)"><g clip-path="url(#clipPath_6E7xuEJ8IIEAB2sQXYPXM)"><defs>
          <clipPath id="clipPath_6E7xuEJ8IIEAB2sQXYPXM">
            <rect x="0" y="0" width="200" height="566" />
          </clipPath>
       </defs> <path fill="#FF4945" d="M100.221,324.943c19.466,1.92,39.149,1.623,58.548-0.881c6.265,73.595-2.388,148.429-25.283,218.655  c-9.568,0.293-19.135,0.587-28.704,0.88c5.29-16.302,3.412-33.939,1.778-51C101.225,436.897,99.106,380.888,100.221,324.943z"/> <path fill="#F92424" d="M100.869,415.595c0.696-6.952,2.223-13.921,1.402-20.859c4.654,0.552,9.361,0.657,14.036,0.314  c2.527,49.768,0.951,99.743-4.708,149.251c-2.426-0.385-4.95-0.124-7.247,0.748c7.046-28.171-1.26-57.591-3.281-86.559  c-0.546-7.822-0.629-15.669-0.711-23.509C100.293,428.514,100.225,422.031,100.869,415.595z"/> <linearGradient id="SVGID_1_6E7xuEJ8IIEAB2sQXYPXM" gradientUnits="userSpaceOnUse" x1="40.5972" y1="290.1608" x2="200" y2="290.1608" gradientTransform="matrix(1 0 0 -1 0 600)">  <stop offset="0" stop-color="#1B236D"/>  <stop offset="1" stop-color="#0A134F"/> </linearGradient> <path fill="url(#SVGID_1_6E7xuEJ8IIEAB2sQXYPXM)" d="M162.216,417.453c-28.307,4.089-53.51-0.203-82.061,1.488c2.091-5.367,2.906-8.623,4.997-13.992  c-15.156-3.234-31.685-4.309-44.555-12.942c21.506-62.522,38.427-126.62,50.581-191.611c19.959,0.706,39.919,1.412,59.877,2.117  c7.452,65.259,28.26,128.147,48.945,190.488c-13.383,3.751-27.027,6.574-40.8,8.439  C160.206,406.777,161.212,412.116,162.216,417.453z"/> <path fill="#D7D8D9" d="M57.126,550.941c-2.956,1.205-5.964,2.474-8.482,4.862c-2.518,2.388-4.509,6.126-4.513,10.186  c24.085,0.148,48.291-1.333,72.382-1.466c-0.659-6.713-0.506-15.694-1.124-25.526c-11.01-0.628-22.094,0.443-32.953,3.187  C73.872,544.347,65.468,547.541,57.126,550.941z"/> <path fill="#EFEFEF" d="M74.845,549.532c-3.158,1.404-6.371,2.882-9.066,5.651c-2.695,2.768-4.828,5.933-4.847,10.619  c25.357-0.794,50.557-0.427,76.252-0.866c-0.67-8.345,0.367-18.913-0.154-29.46c-11.741-0.675-23.568,0.613-35.16,3.831  C92.73,541.845,83.755,545.569,74.845,549.532z"/> <line fill="none" stroke="#0073DC" stroke-width="4" stroke-miterlimit="10" x1="78.06" y1="309.699" x2="135.004" y2="278.545"/> <line fill="none" stroke="#0073DC" stroke-width="4" stroke-miterlimit="10" x1="81.283" y1="326.888" x2="138.227" y2="295.733"/> <line fill="none" stroke="#0073DC" stroke-width="4" stroke-miterlimit="10" x1="117.813" y1="394.568" x2="174.757" y2="363.414"/> <line fill="none" stroke="#0073DC" stroke-width="4" stroke-miterlimit="10" x1="98.474" y1="269.95" x2="155.417" y2="238.796"/> <line fill="none" stroke="#0073DC" stroke-width="4" stroke-miterlimit="10" x1="58.72" y1="373.082" x2="89.878" y2="356.035"/> <line fill="none" stroke="#0073DC" stroke-width="4" stroke-miterlimit="10" x1="110.292" y1="298.956" x2="127.483" y2="330.37"/> <line fill="none" stroke="#FF4945" stroke-width="4" stroke-miterlimit="10" x1="89.878" y1="286.065" x2="107.069" y2="317.478"/> <line fill="none" stroke="#FF4945" stroke-width="4" stroke-miterlimit="10" x1="81.283" y1="358.042" x2="98.474" y2="389.456"/> <line fill="none" stroke="#5BABF2" stroke-width="4" stroke-miterlimit="10" x1="159.715" y1="353.745" x2="176.906" y2="385.158"/> <line fill="none" stroke="#5BABF2" stroke-width="4" stroke-miterlimit="10" x1="135.004" y1="242.019" x2="152.194" y2="273.432"/> <line fill="none" stroke="#5BABF2" stroke-width="4" stroke-miterlimit="10" x1="65.167" y1="348.374" x2="82.357" y2="379.787"/> <line fill="none" stroke="#5BABF2" stroke-width="4" stroke-miterlimit="10" x1="114.59" y1="347.299" x2="126.408" y2="368.896"/> <path fill="#FFFFFF" d="M96.473,48.681c-2.382,2.921-4.182,6.81-3.045,10.403c0.358,1.131,0.987,2.156,1.448,3.25  c1.804,4.281,0.722,9.617-2.609,12.856c7.454,12.129,10.625,26.756,19.549,37.848c4.73-14.62,13.564-27.998,15.657-43.221  c-2.218,0.266-4.178-2.428-3.245-4.456c0.473-1.026,1.45-1.721,2.1-2.646c1.516-2.157,1.003-5.115,0.141-7.606  c-0.863-2.491-2.033-5.043-1.632-7.649c-3.943,2.806-9.254,2.348-14.059,1.772c-3.979-0.478-7.957-0.956-11.936-1.434  c-0.496-0.06-1.023-0.115-1.478,0.091C96.999,48.056,96.727,48.37,96.473,48.681z"/> <linearGradient id="SVGID_2_6E7xuEJ8IIEAB2sQXYPXM" gradientUnits="userSpaceOnUse" x1="81.824" y1="492.0624" x2="62.5337" y2="409.2437" gradientTransform="matrix(1 0 0 -1 0 600)">  <stop offset="0" stop-color="#92C4FE"/>  <stop offset="1" stop-color="#5BABF2"/> </linearGradient> <path fill="url(#SVGID_2_6E7xuEJ8IIEAB2sQXYPXM)" d="M78.779,184.468c6.983-6.157,8.925-16.11,10.249-25.324c2.364-16.453,4.057-33.077,3.266-49.68  c-0.289-6.063-0.939-12.229-3.369-17.791c-2.431-5.563-6.9-10.504-12.727-12.205c-0.673-0.197-1.372-0.35-2.069-0.288  c-0.981,0.087-1.879,0.593-2.656,1.199c-4.492,3.506-5.316,9.862-5.79,15.541c-1.409,16.864-2.817,33.728-4.226,50.593  c-0.55,6.584-1.099,13.23-0.218,19.778c0.881,6.548,3.321,13.081,7.99,17.755c1.345,1.347,3.018,2.583,4.922,2.593  C75.893,186.646,77.471,185.621,78.779,184.468z"/> <linearGradient id="SVGID_3_6E7xuEJ8IIEAB2sQXYPXM" gradientUnits="userSpaceOnUse" x1="137.7638" y1="475.5028" x2="169.8301" y2="475.5028" gradientTransform="matrix(1 0 0 -1 0 600)">  <stop offset="0" stop-color="#92C4FE"/>  <stop offset="1" stop-color="#5BABF2"/> </linearGradient> <path fill="url(#SVGID_3_6E7xuEJ8IIEAB2sQXYPXM)" d="M165.87,171.344c-1.392,2.941-3.637,5.886-6.605,5.981c-1.446,0.046-2.851-0.619-4.037-1.549  c-3.67-2.88-5.323-7.987-6.465-12.845c-4.083-17.371-4.342-35.637-8.248-53.059c-2.639-11.767-3.88-24.218-1.436-36.037  c6.286-4.688,12.215-1.21,17.266,5.082c5.052,6.292,7.043,14.885,8.544,23.182c2.34,12.932,3.899,26.042,4.663,39.209  C170.142,151.529,170.154,162.299,165.87,171.344z"/> <linearGradient id="SVGID_4_6E7xuEJ8IIEAB2sQXYPXM" gradientUnits="userSpaceOnUse" x1="152.7643" y1="539.7013" x2="164.6213" y2="516.2546" gradientTransform="matrix(1 0 0 -1 0 600)">  <stop offset="0" stop-color="#FFBFB7"/>  <stop offset="1" stop-color="#FFA29D"/> </linearGradient> <path fill="url(#SVGID_4_6E7xuEJ8IIEAB2sQXYPXM)" d="M162.172,18.216c3.294,2.849,2.076,17.501,1.923,26.056c-0.026,1.449,0.452,3.561,1.149,4.832  c0.944,1.721,3.332-2.568,5.109-1.444c1.038,0.656-1.117,7.103,2.333,2.332c1.165-1.611,3.998-0.399,4.054,0.5  c0.222,3.609-0.944,3.997,2.61,1.61c1.613-1.083,2.666,0.778,3.554,2.221c-0.999,9.772-5.092,17.092-6.802,24.97  c-3.676,16.922,0.551,34.523-0.441,51.812c-0.061,1.068-0.188,2.238-0.956,2.983c-0.679,0.659-1.689,0.814-2.63,0.912  c-4.973,0.519-10.017,0.351-14.945-0.497c1.181-17.501,2.36-35.004,3.541-52.505c0.105,0.862,0.211,1.724,0.315,2.586  c2.073-3.673,0.825-8.297-0.903-12.144c-1.728-3.847-3.945-7.746-3.69-11.955c0.097-1.587,0.547-3.127,0.861-4.686  c0.664-3.299,0.718-6.686,0.768-10.051c0.105-6.993,0.211-13.986,0.316-20.979C158.381,21.937,160.03,16.364,162.172,18.216z"/> <linearGradient id="SVGID_5_6E7xuEJ8IIEAB2sQXYPXM" gradientUnits="userSpaceOnUse" x1="164.1009" y1="539.7997" x2="170.2807" y2="551.3795" gradientTransform="matrix(1 0 0 -1 0 600)">  <stop offset="0" stop-color="#FFBFB7"/>  <stop offset="1" stop-color="#FFA29D"/> </linearGradient> <path fill="url(#SVGID_5_6E7xuEJ8IIEAB2sQXYPXM)" d="M162.393,59.365c0.084,1.642,0.851,3.535,2.466,3.843c1.203,0.229,2.414-0.578,3.038-1.633  c0.413-0.696,0.627-1.488,0.838-2.27c0.692-2.565,1.384-5.131,2.076-7.696c0.391-1.45,0.861-3.041,0.154-4.367  c-0.187-0.351-0.898-0.523-1.054-0.538c-0.71-0.07-1.126,0.008-1.826,0.141c-0.557,0.106-1.007,0.445-1.516,0.886  c-0.561,0.486-0.967,1.112-1.29,1.779C163.766,52.623,162.216,55.908,162.393,59.365z"/> <linearGradient id="SVGID_6_6E7xuEJ8IIEAB2sQXYPXM" gradientUnits="userSpaceOnUse" x1="110.1815" y1="539.6528" x2="117.2646" y2="561.059" gradientTransform="matrix(1.0618 0.0075 -0.0075 -1.0009 55.9149 606.7929)">  <stop offset="0" stop-color="#FFBFB7"/>  <stop offset="1" stop-color="#FFA29D"/> </linearGradient> <path fill="url(#SVGID_6_6E7xuEJ8IIEAB2sQXYPXM)" d="M168.274,61.093c0.097,1.563,0.884,3.372,2.517,3.676c1.217,0.227,2.434-0.533,3.057-1.532  c0.411-0.66,0.623-1.413,0.831-2.154c0.68-2.438,1.36-4.874,2.041-7.312c0.385-1.378,0.972-2.971,0.184-4.205  c-0.332-0.519-2.212-0.636-2.918-0.514c-0.562,0.097-1.137,0.582-1.609,0.879c-0.619,0.389-0.937,1.168-1.259,1.801  C169.61,54.685,168.07,57.8,168.274,61.093z"/> <linearGradient id="SVGID_7_6E7xuEJ8IIEAB2sQXYPXM" gradientUnits="userSpaceOnUse" x1="176.542" y1="539.7632" x2="184.3384" y2="545.1305" gradientTransform="matrix(1 0 0 -1 0 600)">  <stop offset="0" stop-color="#FFBFB7"/>  <stop offset="1" stop-color="#FFA29D"/> </linearGradient> <path fill="url(#SVGID_7_6E7xuEJ8IIEAB2sQXYPXM)" d="M173.599,62.325c-0.15,1.471,0.27,3.26,1.663,3.756c1.039,0.37,2.226-0.182,2.926-1.033  c0.462-0.562,0.763-1.237,1.057-1.903c0.968-2.186,1.936-4.371,2.904-6.557c0.547-1.235,1.107-2.584,0.797-3.899  c-0.034-0.145-0.649-0.553-0.953-0.647c-0.612-0.188-0.792-0.407-1.827-0.164c-1.194,0.281-2.268,1.533-2.648,2.082  C175.745,56.52,173.917,59.227,173.599,62.325z"/> <linearGradient id="SVGID_8_6E7xuEJ8IIEAB2sQXYPXM" gradientUnits="userSpaceOnUse" x1="162.5401" y1="539.2348" x2="174.4999" y2="524.9913" gradientTransform="matrix(1 0 0 -1 0 600)">  <stop offset="0" stop-color="#FFCAC3"/>  <stop offset="1" stop-color="#FFA29D"/> </linearGradient> <path fill="url(#SVGID_8_6E7xuEJ8IIEAB2sQXYPXM)" d="M159.205,61.254c2.704-2.43,5.871-4.342,9.28-5.606c2.191-0.812,4.972-1.233,6.596,0.448  c0.4,0.414,0.697,0.958,0.688,1.532c-0.02,1.141-1.156,1.893-2.159,2.438c-2.321,1.262-4.643,2.525-6.963,3.787  c-0.577,0.314-1.179,0.65-1.536,1.201c-0.358,0.551-0.372,1.386,0.148,1.787c0.212,0.163,0.478,0.233,0.733,0.312  c2.964,0.912,5.348,3.504,6.009,6.534c0.661,3.031-0.428,6.379-2.744,8.442c-0.584,0.521-1.265,0.973-2.035,1.114  c-1.228,0.225-2.488-0.395-3.351-1.298c-0.863-0.902-1.402-2.058-1.926-3.191c-1.844-3.985-3.701-8.014-4.579-12.316  c-0.167-0.815-0.297-1.666-0.098-2.474C157.537,62.869,158.367,62.008,159.205,61.254z"/> <path fill="#92C4FE" d="M153.107,178.438c-0.414-0.453-0.586-1.072-0.732-1.668c-3.766-15.276,0.199-31.23,1.679-46.893  c0.637-6.742,0.809-13.519,0.98-20.289c0.287-11.34,0.574-22.679,0.862-34.02c8.429,0.07,16.859-0.097,25.278-0.501  c-4.794,26.148,1.327,53.33-3.071,79.548c-1.042,6.213-2.76,12.512-6.616,17.494c-3.856,4.981-10.253,8.396-16.442,7.215  C154.335,179.189,153.595,178.972,153.107,178.438z"/> <path fill="#FFBFB7" d="M126.492,31.361c-0.745-2.151-2.259-3.967-3.827-5.657c-3.532-3.809-8.013-7.461-13.313-7.526  c-5.429-0.067-10.247,3.817-12.692,8.488c-3.59,6.856-2.937,15.228,0.072,22.339c0.759,1.793,1.688,3.569,3.147,4.901  c1.713,1.564,4.241,3.607,6.459,4.382c3.353,1.172,6.73,1.129,10.17,0.222c4.899-1.29,7.626-6.315,8.963-11.036  c0.988-3.493,1.54-7.099,1.638-10.717C127.159,34.936,127.089,33.085,126.492,31.361z"/> <path fill="#FF4945" d="M114.617,7.699c-0.621,1.154-0.945,2.488-1.816,3.467c-0.653,0.735-1.607,1.264-1.927,2.195  c-0.537,1.561,0.971,3.516-0.049,4.814c2.116,0.237,4.031,1.774,4.722,3.788c0.293,0.855,0.381,1.779,0.759,2.602  c1.275,2.787,5.201,3.33,6.912,5.873c2.465,3.662-1,8.918,0.813,12.942c0.345,0.765,0.869,1.445,1.154,2.235  c0.586,1.624,0.071,3.428-0.587,5.024c-0.514,1.246-1.128,2.578-0.809,3.889c0.199,0.816,0.738,1.501,1.145,2.236  c1.312,2.367,1.2,5.455-0.282,7.72c8.61,3.234,18.201-0.546,27.376,0.1c0.444-2.164,0.206-4.462-0.669-6.489  c-0.688-1.592-1.758-3.021-2.234-4.688c-0.997-3.491,0.785-7.244,0.172-10.822c-0.711-4.151-4.49-7.286-5.142-11.447  c-0.476-3.035,0.784-6.268-0.281-9.149c-1.461-3.948-6.689-5.607-7.898-9.64c-0.355-1.182-0.315-2.458-0.704-3.629  c-0.912-2.743-3.885-4.206-6.68-4.945c-2.526-0.668-5.2-0.986-7.754-0.436C118.282,3.889,115.854,5.398,114.617,7.699z"/> <path fill="#FF4945" d="M69.585,55.773c-0.361,1.664-0.033,3.389,0.002,5.092s-0.321,3.583-1.661,4.634  c2.155,1.165,4.777,1.046,7.175,0.546c2.398-0.5,4.733-1.349,7.174-1.558c4.491-0.385,9.102,1.416,13.452,0.233  c-1.645-3.205-1.645-7.2-0.002-10.406c0.589-1.148,1.381-2.218,1.671-3.476c1.01-4.384-4.388-8.712-2.645-12.86  c0.687-1.633,2.381-2.761,2.777-4.487c0.571-2.482-1.774-5.179-0.634-7.457c0.478-0.956,1.457-1.535,2.226-2.277  c0.914-0.882,1.553-2.023,2.49-2.88c2.586-2.36,6.839-2.91,10.296-2.356c0.289-1.273,0.318-1.59,0.608-2.863  c0.14-0.616,0.29-1.254,0.68-1.749c0.334-0.425,0.814-0.707,1.204-1.082c1.434-1.378,1.352-3.814,0.316-5.512  c-1.036-1.698-2.793-2.81-4.537-3.77c-4.059-2.233-8.891-3.996-13.254-2.438c-1.929,0.689-3.584,1.976-5.106,3.345  c-2.554,2.299-4.901,5.009-5.892,8.3c-0.824,2.739-0.824,6.036-3.035,7.853c-1.212,0.996-2.892,1.327-4.014,2.424  c-2.424,2.37-0.912,6.583-2.206,9.717c-1.012,2.452-3.654,3.986-4.504,6.498c-1.041,3.081,0.964,6.463,0.357,9.658  C72.058,51.36,70.114,53.328,69.585,55.773z"/> <circle fill="none" stroke="#1B236D" stroke-width="3" stroke-miterlimit="10" cx="97.589" cy="37.608" r="8.152"/> <circle fill="none" stroke="#1B236D" stroke-width="3" stroke-miterlimit="10" cx="118.866" cy="37.608" r="8.152"/> <path fill="none" stroke="#1B236D" stroke-width="3" stroke-miterlimit="10" d="M105.528,36.006c0.646-0.894,1.728-1.457,2.83-1.473  c1.103-0.016,2.2,0.517,2.871,1.392"/> <path fill="none" stroke="#FF4945" stroke-linecap="round" stroke-miterlimit="10" d="M108.462,3.7  c-3.744-3.151-9.039-4.362-13.78-3.151c-4.741,1.211-8.807,4.813-10.581,9.373c-1.314,3.379-1.537,7.38-4.091,9.952  c-1.82,1.833-4.699,2.781-5.597,5.203c-0.367,0.99-0.328,2.077-0.398,3.13c-0.163,2.479-0.968,4.913-2.314,7.001  c-1.017,1.578-2.366,3.025-2.774,4.857c-0.503,2.254,0.531,4.588,0.321,6.888c-0.297,3.245-2.973,5.805-3.714,8.98  c-0.394,1.687-0.218,3.458-0.501,5.167c-0.259,1.567-0.908,3.069-1.873,4.332"/> <path fill="#92C4FE" d="M115.459,224.125c-0.566,9.057-1.613,18.102-1.481,27.175c0.008,0.531,0.021,1.06,0.038,1.59  c15.264-0.301,30.516-1.204,45.711-2.693c-0.656-5.254-1.312-10.51-1.968-15.764c-4.798-38.433-9.6-76.892-12.182-115.538  c-0.223-3.346,0.587-3.517-0.211-6.774c-0.979-4.001-2.211-10.208-2.333-14.325c-0.333-11.326-1.997-19.291,4.208-25.931  c-7.383-0.848-14.768-1.696-22.151-2.544c-3.959,10.745-7.918,21.49-11.878,32.236c-1.546,4.196-3.101,8.424-3.825,12.836  c-1.14,6.94-0.184,14.032,0.739,21.005C114.018,164.82,117.31,194.506,115.459,224.125z"/> <path fill="#92C4FE" d="M77.649,129.288c-1.235,14.002,4.711,27.649,5.479,41.685c0.394,7.206-0.582,14.408-1.516,21.564  c-2.597,19.898-4.882,39.836-6.854,59.806c13.243,0.626,26.506,0.808,39.761,0.536c1.491-10.185,2.627-20.41,2.951-30.696  c0.28-8.887-0.046-17.78-0.373-26.664c-0.718-19.537-1.435-39.075-2.153-58.612c-0.373-10.151-0.762-20.408-3.43-30.209  c-3.344-12.282-10.113-23.307-16.798-34.141c-8.446,2.872-12.539,3.714-20.985,6.585c4.967,6.12,6.966,17.222,8.329,24.985  C83.68,113.346,78.471,119.963,77.649,129.288z"/> <linearGradient id="SVGID_9_6E7xuEJ8IIEAB2sQXYPXM" gradientUnits="userSpaceOnUse" x1="-1.818989e-012" y1="481.9411" x2="77.0654" y2="481.9411" gradientTransform="matrix(1 0 0 -1 0 600)">  <stop offset="0" stop-color="#FFBFB7"/>  <stop offset="1" stop-color="#FFA29D"/> </linearGradient> <path fill="url(#SVGID_9_6E7xuEJ8IIEAB2sQXYPXM)" d="M72.028,137.684c-2.467-8.049-10.438-28.515-11.825-33.977c-1.991-7.842-1.645-16.601-6.251-23.254  c-5.367-7.752-12.387-8.155-18.732-15.14c-4.015-4.42-1.045,7.645,3.857,11.054c1.953,1.358,0.965,1.102,4.291,2.881  c-1.036-0.269-4.116-0.692-7.741-1.105c-3.11-0.618-5.81-0.685-8.921-1.303c-2.468-0.49-4.953-0.986-7.281-1.939  c-4.395-1.799-8.343-5.241-13.092-5.275c-0.507-0.003-1.098,0.082-1.352,0.521c-0.19,0.33-0.116,0.75,0.028,1.103  c0.334,0.825,0.972,1.446,1.713,1.958c-0.986-0.379-2.06-0.794-3.253-1.253c-4.52-1.738-4.227,0.958-1.387,4.16  c3.854,4.343,17.387,11.789,28.2,12.348c10.8,1.452,15.745,0.537,16.99,0.985c1.391,0.502,1.922,2.166,2.257,3.606  c1.887,8.111,1.449,39.196,2.071,62.887c2.275,25.82,21.394,13.633,23.833,7.788C79.478,154.035,75.106,147.725,72.028,137.684z"/> <path fill="#92C4FE" d="M77.092,185.874c2.509-1.78,3.816-4.828,4.121-7.839s-0.273-6.035-0.879-9.004  c-1.905-9.325-4.125-18.585-6.343-27.843c-1.747-7.292-3.495-14.585-5.242-21.878c-2.145-8.948-4.326-17.997-8.61-26.178  c-6.417,3.887-13.093,7.369-19.97,10.416c2.894,10.639,2.619,21.855,4.74,32.666c0.85,4.33,2.08,8.579,3.31,12.822  c2.41,8.316,4.828,16.657,8.255,24.627c1.797,4.182,3.99,8.402,7.665,11.179C67.814,187.619,73.333,188.542,77.092,185.874z"/> <path fill="none" stroke="#FFFFFF" stroke-linecap="round" stroke-linejoin="round" stroke-miterlimit="10" d="M136.269,72.528  c-4.582,7.624-8.702,15.528-12.328,23.651c2.789,0.054,5.579,0.106,8.369,0.16c-5.229,3.756-8.173,9.867-10.595,15.832  c-4.771,11.751-8.356,23.982-10.682,36.45c-1.964,10.526-1.651,20.467-1.651,35.125"/> <path fill="none" stroke="#FFFFFF" stroke-linecap="round" stroke-linejoin="round" stroke-miterlimit="10" d="M109.245,126.583  c-2.242-10.214-8.574-19.472-17.282-25.263c1.298-1.365,2.863-2.475,4.58-3.251c-1.867-2.772-3.735-5.543-5.603-8.315"/> <path fill="none" stroke="#FFFFFF" stroke-linecap="round" stroke-miterlimit="10" d="M157.995,90.974  c6.373-1.152,12.888-1.527,19.351-1.112"/> <path fill="none" stroke="#FFFFFF" stroke-linecap="round" stroke-miterlimit="10" d="M62.232,109.466  c-5.944,1.446-11.997,4.11-17.941,5.556"/> <rect x="114.542" y="149.466" transform="matrix(-0.7071 -0.7071 0.7071 -0.7071 93.2661 344.377)" fill="#FFFFFF" width="6.817" height="6.817"/> <rect x="115.117" y="185.128" transform="matrix(-0.7071 -0.7071 0.7071 -0.7071 69.0323 405.6655)" fill="#FFFFFF" width="6.817" height="6.817"/> <rect x="115.693" y="220.793" transform="matrix(-0.7071 -0.7071 0.7071 -0.7071 44.7976 466.9564)" fill="#FFFFFF" width="6.817" height="6.817"/> <path fill="none" stroke="#FF4945" stroke-linecap="round" stroke-miterlimit="10" d="M100.377,0.558  c-6.268-1.739-13.482,0.69-17.422,5.866c-2.925,3.843-4.114,8.916-7.576,12.282c-2.171,2.111-5.149,3.451-6.728,6.035  c-1.009,1.65-1.322,3.619-1.973,5.44c-0.651,1.821-1.839,3.665-3.711,4.158"/> </g></g><g transform="translate(539.2750000000001 191.29) scale(-0.945 0.943) rotate(0 91.52380952380953 149.97879109225875)"><g clip-path="url(#clipPath_uFwVbtNgCGhpmqfw6w3kT)"><defs>
          <clipPath id="clipPath_uFwVbtNgCGhpmqfw6w3kT">
            <rect x="0" y="0" width="183" height="300" />
          </clipPath>
       </defs> <path fill="#EBECEC" d="M163.568,119.564c0-39.701-32.265-71.884-72.068-71.884s-72.067,32.183-72.067,71.884  c0,22.594,12.219,38.459,23.846,55.921c15.814,23.75,21.727,42.92,21.982,55.208h52.481c0.98-13.762,8.289-37.939,21.982-55.208  C155.189,155.98,163.568,142.158,163.568,119.564z"/> <polygon fill="#E94A47" points="64.596,261.905 125.862,261.905 122.88,252.075 61.613,252.075 "/> <polygon fill="#E94A47" points="111.077,213.155 63.544,227.498 115.426,227.498 "/> <polygon fill="#E94A47" points="71.926,286.08 127.605,269.278 66.83,269.278 "/> <polygon fill="#E94A47" points="56.396,234.871 59.378,244.702 120.645,244.702 117.663,234.871 "/> <polygon fill="#FFFFFF" points="115.426,227.498 63.544,227.498 54.946,230.092 56.396,234.871 117.663,234.871 "/> <polygon fill="#FFFFFF" points="61.613,252.075 122.88,252.075 120.645,244.702 59.378,244.702 "/> <polygon fill="#FFFFFF" points="66.83,269.278 127.605,269.278 128.058,269.142 125.862,261.905 64.596,261.905 "/> <rect x="79.182" y="275.423" fill="#428DFC" width="24.64" height="24.577"/> <g>  <path fill="#428DFC" d="M89.993,245.162c-0.006,0-0.013,0-0.019,0c-0.408-0.012-0.73-0.349-0.72-0.758   c1.013-38.245,0.904-78.234-10.286-114.996c-0.959-0.612-1.885-1.276-2.77-1.991c-5.164-4.17-16.636-14.79-11.643-23.33   c0.494-0.846,1.261-1.28,2.14-1.231c2.598,0.152,5.55,4.402,6.483,6.535c2.725,6.238,5.055,12.602,7.043,19.061   c6.108,3.741,13.587,5.297,20.667,4.189c2.716-0.425,5.267-1.231,7.556-2.359c0.807-3.771,1.682-7.526,2.62-11.267l0.143-0.572   c0.941-3.802,2.383-9.536,6.408-8.637c1.202,0.27,2.115,1.015,2.641,2.156c1.402,3.041-0.186,8.144-1.517,10.648   c-1.912,3.597-5.068,6.587-8.996,8.663c-4.906,23.132-7.323,46.763-7.19,70.415c0.003,0.407-0.327,0.739-0.735,0.742   c-0.001,0-0.003,0-0.004,0c-0.407,0-0.736-0.327-0.739-0.733c-0.13-23.378,2.218-46.733,6.99-69.613   c-2.146,0.942-4.483,1.628-6.947,2.013c-6.893,1.075-14.145-0.251-20.273-3.585c10.799,36.538,10.891,76.087,9.89,113.929   C90.722,244.845,90.393,245.162,89.993,245.162z M116.865,111.196c-2.339,0-3.464,4.54-4.221,7.602l-0.143,0.578   c-0.832,3.313-1.613,6.639-2.342,9.976c3.155-1.892,5.685-4.436,7.277-7.431c1.49-2.803,2.479-7.172,1.48-9.34   c-0.336-0.728-0.866-1.163-1.622-1.333C117.146,111.212,117.003,111.196,116.865,111.196z M66.55,104.327   c-0.218,0-0.467,0.078-0.717,0.504c-4.417,7.553,6.428,17.511,11.295,21.441c0.371,0.299,0.75,0.59,1.136,0.87   c-1.848-5.81-3.983-11.539-6.438-17.161c-1.057-2.418-3.724-5.565-5.212-5.652C66.591,104.327,66.569,104.327,66.55,104.327z"/> </g> <rect x="30.005" y="53.126" fill="#428DFC" width="9.61" height="9.585"/> <polygon fill="#E94A47" points="41.218,35.379 33.75,42.188 26.923,34.739 34.391,27.93 "/> <polygon fill="#89B3F4" points="138.46,11.469 126.961,22.938 115.463,11.469 126.961,0 "/> <polygon fill="#E94A47" points="132.218,42.529 128.581,35.152 135.978,31.524 139.615,38.901 "/> <g>  <path fill="#23286B" d="M137.939,209.049c-0.072,0-0.145-0.01-0.216-0.032c-0.392-0.119-0.61-0.531-0.489-0.92   c6.608-21.461,23.759-39.808,44.761-47.883c0.381-0.145,0.809,0.044,0.955,0.423c0.146,0.38-0.043,0.807-0.424,0.953   c-20.588,7.914-37.401,25.9-43.881,46.938C138.548,208.847,138.256,209.049,137.939,209.049z"/> </g> <g>  <path fill="#428DFC" d="M118.765,49.121c-0.031,0-0.06-0.001-0.091-0.004c-0.404-0.05-0.694-0.417-0.645-0.821   c0.801-6.586,4.573-13.941,9.17-17.885c4.205-3.607,8.148-5.314,14.55-6.302c0.401-0.056,0.781,0.214,0.843,0.616   c0.062,0.401-0.215,0.779-0.618,0.841c-6.177,0.953-9.79,2.513-13.811,5.962c-4.343,3.726-7.908,10.695-8.668,16.946   C119.452,48.847,119.133,49.121,118.765,49.121z"/> </g> <g>  <path fill="#23286B" d="M100.998,33.89c-0.086,0-0.171-0.015-0.258-0.046c-0.383-0.142-0.578-0.565-0.436-0.947   c3.254-8.778,6.941-18.726,4.916-28.368c-0.084-0.398,0.171-0.789,0.572-0.873c0.392-0.087,0.792,0.171,0.875,0.571   c2.114,10.058-1.653,20.218-4.977,29.182C101.58,33.706,101.297,33.89,100.998,33.89z"/> </g> <g>  <path fill="#A1C3FC" d="M26.351,73.569c-0.258,0-0.507-0.134-0.643-0.372C19.891,63.021,11.973,58.541,0.777,59.119   c-0.412,0.013-0.756-0.292-0.776-0.699c-0.021-0.407,0.293-0.754,0.701-0.774c11.812-0.602,20.165,4.108,26.291,14.821   c0.203,0.354,0.078,0.804-0.277,1.006C26.601,73.538,26.476,73.569,26.351,73.569z"/> </g> </g></g><g transform="translate(719.589 259.102) scale(1.473 1.483) rotate(-20.41411402998949 44.63679565512559 38.907619689817935)"><g clip-path="url(#clipPath_t_QBtPDYFVS-toTCLtkfd)"><defs>
          <clipPath id="clipPath_t_QBtPDYFVS-toTCLtkfd">
            <rect x="0" y="0" width="89.283" height="77.816" />
          </clipPath>
       </defs><title>decoration_lightning_spark</title><g id="Layer_2t_QBtPDYFVS-toTCLtkfd" data-name="Layer 2"><g id="decoration_lightning_sparkt_QBtPDYFVS-toTCLtkfd"><path d="M33.25,51.232a1.522,1.522,0,0,0,1.972-.493h0l11.831-21.2,12.16,8.216.821.493a6.088,6.088,0,0,0,1.808.821,5.861,5.861,0,0,0,7.065-4.108h0L77.452,1.936A1.381,1.381,0,0,0,76.8.129a1.382,1.382,0,0,0-1.808.657L61.02,23.133l-12.488-8.38-.822-.493a4.833,4.833,0,0,0-2.136-.821,5.928,5.928,0,0,0-6.9,4.6L32.429,49.753A1.961,1.961,0,0,0,33.25,51.232Z" fill="#ffb400"/><path d="M8.11,45.481a1.139,1.139,0,0,0,1.643.493,1.1,1.1,0,0,0,.657-1.151v-13.8l5.258-2.136.986-.493a4.183,4.183,0,0,0,2.136-5.259L11.56,5.223a1.116,1.116,0,0,0-1.314-.657.9.9,0,0,0-.657.985L8.767,20.34,3.345,22.805l-.986.493h0A4.144,4.144,0,0,0,.387,28.72h0Z" fill="#ffb400"/><path d="M70.058,61.913l-.493-.986h0a4.041,4.041,0,0,0-5.587-1.315h0l-15.61,9.531a1.661,1.661,0,0,0-.658,1.15,1.271,1.271,0,0,0,1.315,1.15l13.638-1.315,2.958,4.93.493.822a4.163,4.163,0,0,0,5.422,1.478l17.09-9.037a1.351,1.351,0,0,0,.657-.986c0-.657-.493-.986-1.15-.986l-14.789.822Z" fill="#ffb400"/></g></g></g></g>
              </svg>