<?xml version="1.0" encoding="UTF-8"?>
<svg version="1.1" xmlns="http://www.w3.org/2000/svg" viewBox="0 0 1500 1500"
     width="1500" height="1500" x="0px" y="0px">

    <!-- ITEM 0 -->
    <g transform="translate(207.0 155.0) scale(1.215 1.215) rotate(0.0 299.99999999999994 299.99999999999994)">
        <g transform="translate(-0.0 -0.0)">

            <path fill="#E7F0FE"
                  d="M432.134,300.847c-81.836,0-148.177-66.341-148.177-148.177c0-61.525,37.5-114.282,90.887-136.685  C348.05,7.792,319.608,3.369,290.131,3.369C130.358,3.369,0.835,132.891,0.835,292.664s129.522,289.299,289.296,289.299  s289.296-129.522,289.296-289.296c0-28.046-4.006-55.153-11.451-80.796C545.125,264.233,492.918,300.847,432.134,300.847z"/>
            <path opacity="0.44" fill="#B0CDFC" enable-background="new    "
                  d="M567.977,211.87c7.915-18.135,12.332-38.148,12.332-59.2  c0-81.836-66.341-148.177-148.177-148.177c-20.311,0-39.664,4.095-57.288,11.492C467.791,44.409,540.835,118.372,567.977,211.87z"/>
            <path fill="#B0CDFC"
                  d="M283.958,152.672c0,81.836,66.341,148.177,148.177,148.177c60.783,0,112.991-36.614,135.843-88.977  c-27.143-93.5-100.187-167.463-193.133-195.886C321.458,38.388,283.958,91.147,283.958,152.672z"/>
            <path opacity="0.44" fill="#BBD4FD" enable-background="new    "
                  d="M283.958,152.672c0,81.836,66.341,148.177,148.177,148.177  c60.783,0,112.991-36.614,135.843-88.977c-27.143-93.5-100.187-167.463-193.133-195.886  C321.458,38.388,283.958,91.147,283.958,152.672z"/>
            <rect x="207.221" y="170.133" fill="#1D72D8" width="135.625" height="135.625"/>
            <g opacity="0.47">
                <path fill="#428DFC"
                      d="M461.08,299.746h38.098c-2.213,0.699-4.426,1.282-6.757,1.632h-24.466   C465.623,300.911,463.41,300.327,461.08,299.746z M452.458,296.365h55.341c1.165-0.466,2.213-1.048,3.261-1.632h-61.748   C450.245,295.317,451.41,295.901,452.458,296.365z M444.419,291.357h72.117c0.816-0.582,1.515-1.048,2.33-1.632h-76.194   C443.254,290.307,443.837,290.891,444.419,291.357z M440.109,286.463h82.836c0.582-0.582,1.282-1.048,1.864-1.632h-85.515   C439.526,285.298,439.758,285.881,440.109,286.463z M437.779,281.453h90.293c0.466-0.582,0.933-1.048,1.515-1.632h-92.274   C437.43,280.405,437.662,280.871,437.779,281.453z M436.497,276.443h95.769c0.466-0.582,0.816-1.048,1.165-1.632h-97.167   C436.38,275.395,436.497,275.978,436.497,276.443z M435.914,271.55h99.729c0.349-0.582,0.699-1.048,0.933-1.632H435.681   C435.798,270.385,435.798,270.968,435.914,271.55z M435.681,266.54H538.44c0.232-0.582,0.582-1.048,0.816-1.632H435.681   C435.681,265.492,435.681,265.959,435.681,266.54z M436.614,260.949c-0.117,0.232-0.117,0.349-0.232,0.582h104.273   c0.232-0.582,0.466-1.048,0.582-1.632H437.313C437.079,260.25,436.846,260.599,436.614,260.949z M443.371,256.054   c-0.349,0.232-0.699,0.349-1.048,0.466h99.963c0.117-0.582,0.232-1.048,0.466-1.632h-97.399   C444.768,255.355,444.069,255.705,443.371,256.054z M449.778,251.628h93.671c0.117-0.582,0.232-1.048,0.232-1.632h-92.274   C450.943,250.58,450.362,251.161,449.778,251.628z M454.323,246.735h89.944c0-0.582,0.117-1.048,0.117-1.632H455.49   C455.137,245.57,454.788,246.151,454.323,246.735z M457.468,241.725h87.03c0-0.582,0-1.048,0-1.632h-86.214   C458.051,240.56,457.702,241.142,457.468,241.725z M459.565,236.715h84.7c0-0.582-0.117-1.048-0.232-1.632h-84.001   C459.915,235.667,459.683,236.249,459.565,236.715z M460.846,231.822h82.603c-0.117-0.582-0.232-1.165-0.349-1.632h-82.02   C460.963,230.657,460.846,231.239,460.846,231.822z M461.312,226.812h80.74c-0.232-0.582-0.349-1.165-0.582-1.632h-80.156   C461.312,225.647,461.312,226.229,461.312,226.812z M539.023,220.171h-78.292c0.117,0.582,0.232,1.048,0.232,1.632h78.876   C539.605,221.336,539.255,220.753,539.023,220.171z M535.76,215.278h-76.311c0.117,0.582,0.349,1.048,0.466,1.632h77.01   C536.576,216.326,536.226,215.745,535.76,215.278z M531.333,210.268h-72.701c0,0.582,0,1.048,0.117,1.632h74.331   C532.382,211.316,531.8,210.735,531.333,210.268z M525.158,205.608c-0.232-0.117-0.349-0.232-0.582-0.349h-64.428   c-0.349,0.466-0.699,1.048-0.933,1.632h67.923C526.441,206.539,525.857,205.957,525.158,205.608z M510.478,200.366h-41.593   c-1.632,0.349-3.146,0.933-4.66,1.632h52.661C514.789,201.297,512.691,200.715,510.478,200.366z"/>
            </g>
            <path fill="#D6D7D8"
                  d="M548.961,439.325l-21.57-28.085c-4.254,1.107-8.243,2.861-11.825,5.457l23.32,30.366  c1.309,1.702,0.988,4.144-0.715,5.451c-1.702,1.309-4.144,0.988-5.451-0.715l-22.886-29.8c-3.001,3.511-5.248,7.606-6.734,12.086  l19.309,25.143c1.309,1.702,0.988,4.144-0.715,5.451c-1.702,1.309-4.144,0.988-5.451-0.715l-15.166-19.747  c-1.053,13.091,3.283,27.894,13.111,40.691c0.229,0.3,0.463,0.592,0.697,0.887c-2.231,2.422-4.355,4.953-6.319,7.626  c-5.508,7.496-11.937,19.304-11.286,32.977l3.884-0.184c-0.598-12.534,5.4-23.499,10.536-30.49c1.772-2.41,3.69-4.71,5.71-6.925  c9.411,10.566,21.297,17.355,32.898,19.525L535.9,489.56c-1.309-1.702-0.988-4.144,0.715-5.451c1.702-1.309,4.144-0.988,5.451,0.715  l18.569,24.18c4.707-0.287,9.213-1.436,13.318-3.511l-21.577-28.096c-1.309-1.702-0.988-4.144,0.715-5.451  c1.702-1.309,4.144-0.988,5.451,0.715l21.873,28.481c3.277-2.875,5.875-6.453,7.948-10.502l-19.749-25.714  c-1.309-1.702-0.988-4.144,0.715-5.451c1.702-1.309,4.144-0.988,5.451,0.716l16.975,22.102c1.64-5.127,2.742-10.66,3.518-16.271  l-10.656-13.877c-1.309-1.702-0.988-4.144,0.715-5.451c1.702-1.309,4.144-0.988,5.451,0.715l5.675,7.39  c1.254-15.812,1.059-30.472,4.375-36.435c-8.525,0.823-22.309-3.263-37.054-6.116l7.345,9.566c1.309,1.702,0.988,4.144-0.715,5.451  c-1.702,1.309-4.144,0.988-5.451-0.715l-12.378-16.117c-5.581-0.69-11.146-0.995-16.47-0.592l19.011,24.755  c1.309,1.702,0.988,4.144-0.715,5.451C552.71,441.348,550.27,441.029,548.961,439.325z"/>
            <rect x="309.675" y="75.767" transform="matrix(-0.975 0.2224 -0.2224 -0.975 641.1821 90.9273)"
                  fill="#79AEFD" width="11.593" height="11.594"/>
            <rect x="247.564" y="240.316" transform="matrix(-0.981 -0.1942 0.1942 -0.981 454.1836 536.835)"
                  fill="#A1C3FC" width="11.68" height="11.68"/>
            <polygon fill="#FFFFFF" points="163.563,39.105 211.505,50.446 161.142,73.388 177.172,54.32 "/>
            <g>
                <path fill="#FFFFFF"
                      d="M146.221,63.069c-0.36,0-0.697-0.22-0.83-0.576c-0.172-0.459,0.06-0.97,0.52-1.142   c16.395-6.138,24.757-8.702,41.712-9.341c0.528-0.048,0.901,0.364,0.92,0.851c0.02,0.489-0.364,0.901-0.851,0.92   c-16.697,0.63-24.955,3.164-41.159,9.231C146.428,63.051,146.324,63.069,146.221,63.069z"/>
            </g>
            <polygon fill="#FFFFFF" points="74.944,443.828 83.21,382.805 117.891,442.663 92.213,425.044 "/>
            <g>
                <path fill="#FFFFFF"
                      d="M106.686,463.479c-0.328,0-0.644-0.183-0.796-0.497c-9.624-19.625-13.827-29.705-16.682-50.687   c-0.066-0.484,0.275-0.931,0.759-0.998c0.488-0.08,0.933,0.273,0.998,0.759c2.82,20.726,6.984,30.703,16.516,50.147   c0.216,0.438,0.035,0.97-0.406,1.186C106.95,463.45,106.817,463.479,106.686,463.479z"/>
            </g>
            <polygon fill="#FFFFFF" points="354.865,102.491 348.733,126.347 337.75,100.95 347.128,109.147 "/>
            <g>
                <path fill="#FFFFFF"
                      d="M346.779,115.529c-0.482,0-0.878-0.387-0.887-0.871c-0.011-0.562-0.012-1.302-0.016-2.19   c-0.137-36.819-7.973-57.23-23.292-60.67c-0.479-0.108-0.779-0.582-0.672-1.059c0.11-0.479,0.58-0.775,1.061-0.67   c16.234,3.644,24.537,24.636,24.677,62.394c0.004,0.88,0.005,1.608,0.016,2.165c0.009,0.489-0.381,0.894-0.871,0.903   C346.788,115.529,346.782,115.529,346.779,115.529z"/>
            </g>
            <g>
                <rect x="430.212" y="216.364" fill="#1D72D8" width="16.807" height="16.807"/>
            </g>
            <path fill="#FFFFFF"
                  d="M467.461,165.77h-57.207c0-16.533,13.403-29.935,29.935-29.935c16.533,0,29.935,13.403,29.935,29.935  H467.461z"/>
            <path fill="#D62929"
                  d="M476.333,165.77h-12.414c0-13.084-10.646-23.728-23.73-23.728s-23.728,10.644-23.728,23.728h-12.414  c0-19.93,16.214-36.142,36.142-36.142C460.121,129.628,476.333,145.841,476.333,165.77z"/>
            <g>
                <polygon fill="#D62929"
                         points="443.772,207.259 431.358,207.259 431.358,176.895 470.126,176.895 470.126,189.308    443.772,189.308  "/>
            </g>
            <g>
                <polygon fill="#1D72D8" points="5.691,78.788 5.691,89.615 20.827,78.788  "/>
                <polygon fill="#1D72D8" points="37.798,78.788 5.691,101.754 5.691,116.59 58.54,78.788  "/>
                <polygon fill="#1D72D8"
                         points="86.319,78.788 75.512,78.788 5.691,128.729 5.691,143.565 86.319,85.894  "/>
                <polygon fill="#1D72D8"
                         points="86.319,98.033 5.691,155.704 5.691,159.416 21.242,159.416 86.319,112.869  "/>
                <polygon fill="#1D72D8" points="86.319,125.008 38.213,159.416 58.955,159.416 86.319,139.845  "/>
                <polygon fill="#1D72D8" points="86.319,151.984 75.925,159.416 86.319,159.416  "/>
            </g>
            <circle fill="#FFFFFF" cx="527.072" cy="263.932" r="11.907"/>
            <circle fill="#FFFFFF" cx="527.072" cy="307.357" r="11.907"/>
            <g>
                <path fill="#A1C3FC"
                      d="M377.405,182.428l-91.657,17.064c-0.573,3.029-0.885,6.15-0.885,9.346c0,2.713,0.223,5.373,0.638,7.97   l98.367-18.312C382.653,192.706,380.433,187.29,377.405,182.428z"/>
                <path fill="#A1C3FC"
                      d="M335.592,158.813l-19.394,3.611c-10.585,4.27-19.373,12.052-24.92,21.909l75.517-14.058   C358.301,163.241,347.444,158.973,335.592,158.813z"/>
                <path fill="#A1C3FC"
                      d="M367.082,247.148l-48.428,9.016c5.097,1.75,10.559,2.713,16.25,2.713   C347.16,258.876,358.382,254.463,367.082,247.148z"/>
                <path fill="#A1C3FC"
                      d="M384.801,212.45l-95.168,17.716c2.717,5.756,6.501,10.906,11.094,15.203l79.238-14.751   C382.656,225.06,384.338,218.924,384.801,212.45z"/>
            </g>
            <polygon fill="#FFFFFF" points="443.167,460.077 401.96,477.758 426.362,433.693 424.97,456.323 "/>
            <g>
                <path fill="#FFFFFF"
                      d="M417.389,464.734l-0.763-1.603c5.76-2.735,10.394-7.537,14.877-12.18   c4.944-5.123,10.055-10.421,16.769-13.116c4.471-1.795,9.303-2.281,13.98-2.752c2.231-0.223,4.538-0.456,6.758-0.828   c3.873-0.649,13.191-2.956,16.087-10.327c1.371-3.492,1.037-7.328,0.685-11.391c-0.385-4.426-0.782-9.004,1.252-13.066   c4.091-8.165,13.99-8.589,23.565-8.998c9.438-0.404,18.355-0.784,22.162-7.858c1.765-3.275,1.74-7.076,1.717-11.102   c-0.023-3.808-0.046-7.746,1.559-11.282c3.659-8.062,13.852-10.16,19.602-10.69c1.632-0.151,3.286-0.25,4.941-0.348   c5.756-0.34,11.708-0.697,16.682-3.417l0.851,1.555c-5.326,2.914-11.479,3.279-17.429,3.632c-1.637,0.099-3.272,0.195-4.884,0.344   c-5.365,0.497-14.859,2.41-18.149,9.658c-1.444,3.181-1.422,6.755-1.399,10.538c0.027,4.07,0.051,8.278-1.928,11.953   c-4.286,7.961-14.13,8.381-23.65,8.787c-9.479,0.406-18.433,0.787-22.054,8.019c-1.811,3.616-1.451,7.746-1.071,12.119   c0.356,4.089,0.724,8.314-0.798,12.192c-2.274,5.785-8.631,9.949-17.445,11.428c-2.279,0.381-4.616,0.617-6.876,0.844   c-4.551,0.459-9.259,0.931-13.494,2.632c-6.363,2.554-11.119,7.484-16.154,12.701C428.187,456.938,423.438,461.86,417.389,464.734z   "/>
            </g>
            <rect x="554.816" y="27.818" transform="matrix(0.7596 0.6503 -0.6503 0.7596 156.6064 -356.5076)"
                  fill="#FFFFFF" width="11.591" height="11.591"/>
            <g>
                <polygon fill="#78A9EF"
                         points="59.599,315.062 52.505,315.062 52.505,255.565 227.294,255.565 227.294,262.658 59.599,262.658     "/>
            </g>
            <line fill="none" stroke="#78A9EF" stroke-width="4" stroke-miterlimit="10" x1="88.266" y1="259.111"
                  x2="88.266" y2="260.807"/>
            <g>

                <rect x="69.535" y="257.065" transform="matrix(0.8194 0.5733 -0.5733 0.8194 172.1153 9.2947)"
                      fill="#78A9EF" width="3.547" height="41.395"/>
            </g>
            <g>

                <rect x="88.184" y="257.066" transform="matrix(0.8194 0.5733 -0.5733 0.8194 175.4839 -1.396)"
                      fill="#78A9EF" width="3.547" height="41.395"/>
            </g>
            <g>

                <rect x="99.204" y="254.959" transform="matrix(0.8194 0.5733 -0.5733 0.8194 182.9412 -5.991)"
                      fill="#78A9EF" width="3.547" height="64.68"/>
            </g>
            <g>

                <rect x="117.007" y="254.726" transform="matrix(0.8194 0.5733 -0.5733 0.8194 186.7649 -16.0059)"
                      fill="#78A9EF" width="3.547" height="67.266"/>
            </g>
            <g>

                <rect x="144.133" y="257.065" transform="matrix(0.8194 0.5733 -0.5733 0.8194 185.5901 -33.4705)"
                      fill="#78A9EF" width="3.547" height="41.395"/>
            </g>
            <g>

                <rect x="162.783" y="257.065" transform="matrix(0.8194 0.5733 -0.5733 0.8194 188.9592 -44.1622)"
                      fill="#78A9EF" width="3.547" height="41.395"/>
            </g>
            <g>

                <rect x="181.433" y="257.065" transform="matrix(0.8194 0.5733 -0.5733 0.8194 192.3281 -54.8534)"
                      fill="#78A9EF" width="3.547" height="41.395"/>
            </g>
            <g>

                <rect x="250.669" y="91.773" transform="matrix(0.8067 0.5909 -0.5909 0.8067 108.3836 -129.6824)"
                      fill="#78A9EF" width="3.547" height="18.151"/>
            </g>
            <g>

                <rect x="257.165" y="97.389" transform="matrix(0.8194 0.5733 -0.5733 0.8194 113.9043 -127.2903)"
                      fill="#78A9EF" width="3.547" height="39.423"/>
            </g>
            <g>

                <rect x="265.17" y="115.485" transform="matrix(0.8194 0.5733 -0.5733 0.8194 124.0669 -129.1329)"
                      fill="#78A9EF" width="3.547" height="33.639"/>
            </g>
            <g>

                <rect x="201.557" y="257.534" transform="matrix(0.8193 0.5734 -0.5734 0.8193 194.8535 -66.9045)"
                      fill="#78A9EF" width="4" height="36.218"/>
            </g>
            <g>

                <rect x="238.916" y="412.272" transform="matrix(0.8192 0.5735 -0.5735 0.8192 283.1479 -70.0812)"
                      fill="#78A9EF" width="27.621" height="3.547"/>
            </g>
            <g>

                <rect x="238.914" y="424.717" transform="matrix(0.8192 0.5735 -0.5735 0.8192 290.2853 -67.8304)"
                      fill="#78A9EF" width="27.621" height="3.547"/>
            </g>
            <g>

                <rect x="224.777" y="432.071" transform="matrix(0.8192 0.5735 -0.5735 0.8192 293.351 -62.8478)"
                      fill="#78A9EF" width="43.156" height="3.547"/>
            </g>
            <g>

                <rect x="223.214" y="443.949" transform="matrix(0.8192 0.5735 -0.5735 0.8192 300.0368 -60.2988)"
                      fill="#78A9EF" width="44.883" height="3.547"/>
            </g>
            <g>

                <rect x="238.913" y="462.049" transform="matrix(0.8192 0.5735 -0.5735 0.8192 311.695 -61.0802)"
                      fill="#78A9EF" width="27.621" height="3.547"/>
            </g>
            <g>

                <rect x="238.913" y="474.494" transform="matrix(0.8192 0.5735 -0.5735 0.8192 318.832 -58.83)"
                      fill="#78A9EF" width="27.621" height="3.547"/>
            </g>
            <g>

                <rect x="238.913" y="486.939" transform="matrix(0.8192 0.5735 -0.5735 0.8192 325.9692 -56.58)"
                      fill="#78A9EF" width="27.621" height="3.547"/>
            </g>
            <g>

                <rect x="242.058" y="500.466" transform="matrix(0.8193 0.5734 -0.5734 0.8193 333.9059 -54.9584)"
                      fill="#78A9EF" width="24.165" height="3.547"/>
            </g>
            <g>
                <path fill="#78A9EF"
                      d="M93.98,240.29l-2.304-2.697c19.362-16.541,40.198-31.217,62.234-43.855l-5.928-10.475l2.735-0.25   c12.556-1.149,25.088-3.408,37.252-6.718l1.202,3.325c-10.367,4.728-20.518,9.885-30.426,15.453l4.38,7.739   c3.203-6.022,7.753-11.258,13.302-15.273l2.078,2.873c-5.971,4.32-10.685,10.172-13.632,16.925l-1.421,3.254l-7.794-13.769   C133.818,209.353,113.168,223.899,93.98,240.29z M153.763,186.281l3.231,5.709c5.308-2.983,10.683-5.849,16.126-8.596   C166.711,184.641,160.243,185.607,153.763,186.281z"/>
            </g>
            <g>
                <path fill="#78A9EF"
                      d="M152.396,432.542c-2.54-10.383-6.363-21.394-15.468-24.32l-12.095-3.885l12.696,0.426   c4.136,0.137,8.276,0.074,12.407-0.19c-1.649-26.479-1.429-53.117,0.665-79.514l3.536,0.28c-2.08,26.209-2.298,52.665-0.665,78.957   c5.224-0.481,10.422-1.282,15.555-2.401l4.024-0.88l-11.642,19.305l-3.038-1.832l7.432-12.323c-4.004,0.745-8.046,1.303-12.1,1.672   c0.552,8.049,1.277,16.083,2.178,24.088L152.396,432.542z M144.323,408.354c2.717,2.289,4.831,5.308,6.53,8.706   c-0.252-2.981-0.481-5.962-0.686-8.949C148.221,408.235,146.272,408.317,144.323,408.354z"/>
            </g>
            <g>
                <path fill="#78A9EF"
                      d="M278.284,162.62l-31.49-24.008l-29.939,21.933l1.071-55.144l30.231-18.133l29.935,16.895L278.284,162.62z    M246.837,134.182l27.878,21.254l-0.161-49.198l-26.342-14.866l-26.777,16.062l-0.894,46.015L246.837,134.182z"/>
            </g>
            <g>
                <polygon fill="#78A9EF"
                         points="247.204,181.484 216.751,160.299 218.776,157.389 247.31,177.239 276.132,159.263 278.01,162.273     "/>
            </g>
            <g>

                <rect x="245.289" y="89.468" transform="matrix(1 0.0044 -0.0044 1 0.4991 -1.086)" fill="#78A9EF"
                      width="3.547" height="46.831"/>
            </g>
            <g>
                <path fill="#78A9EF"
                      d="M261.038,343.57c-8.965,0-17.933-0.52-26.819-1.557c-1.945-0.227-3.339-1.988-3.111-3.933   c0.227-1.947,1.995-3.348,3.933-3.112c14.627,1.706,29.483,1.965,44.16,0.773c1.94-0.17,3.664,1.293,3.822,3.247   c0.16,1.953-1.295,3.662-3.247,3.822C273.555,343.318,267.296,343.57,261.038,343.57z"/>
            </g>
            <g>
                <path fill="#78A9EF"
                      d="M316.774,479.592c-8.97,0-17.94-0.52-26.826-1.557c-1.945-0.227-3.339-1.988-3.111-3.933   c0.227-1.947,2.006-3.355,3.933-3.112c14.622,1.708,29.479,1.965,44.16,0.775c1.958-0.174,3.664,1.295,3.822,3.247   c0.16,1.953-1.295,3.664-3.247,3.822C329.282,479.34,323.027,479.592,316.774,479.592z"/>
            </g>
            <g>
                <path fill="#78A9EF"
                      d="M316.774,497.395c-8.97,0-17.94-0.52-26.826-1.557c-1.945-0.227-3.339-1.988-3.111-3.933   c0.227-1.947,2.006-3.352,3.933-3.112c14.622,1.708,29.479,1.967,44.16,0.775c1.958-0.184,3.664,1.295,3.822,3.247   c0.16,1.953-1.295,3.664-3.247,3.822C329.282,497.142,323.027,497.395,316.774,497.395z"/>
            </g>
            <g>
                <path fill="#78A9EF"
                      d="M257.195,365.126c-1.821,0-3.369-1.394-3.529-3.242c-1.344-15.59-1.098-31.377,0.732-46.923   c0.229-1.945,1.984-3.346,3.937-3.109c1.945,0.229,3.336,1.992,3.107,3.937c-1.773,15.07-2.013,30.373-0.709,45.484   c0.168,1.953-1.277,3.669-3.229,3.838C257.401,365.122,257.298,365.126,257.195,365.126z"/>
            </g>
            <g>
                <path fill="#78A9EF"
                      d="M226.072,407.906c-22.584,0-46.589-5.976-46.589-17.051c0-11.075,24.005-17.051,46.589-17.051   s46.589,5.976,46.589,17.051C272.661,401.929,248.656,407.906,226.072,407.906z M226.072,377.348   c-25.365,0-43.042,7.118-43.042,13.504s17.677,13.505,43.042,13.505s43.042-7.118,43.042-13.505   C269.114,384.466,251.437,377.348,226.072,377.348z"/>
            </g>
            <g>
                <path fill="#78A9EF"
                      d="M226.072,525.706c-22.584,0-46.589-5.976-46.589-17.051h3.547c0,6.388,17.677,13.504,43.042,13.504   s43.042-7.118,43.042-13.504h3.547C272.661,519.729,248.656,525.706,226.072,525.706z"/>
            </g>
            <g>
                <rect x="269.114" y="394.867" fill="#78A9EF" width="3.547" height="118.557"/>
            </g>
            <g>
                <rect x="178.463" y="391.202" fill="#78A9EF" width="3.547" height="118.557"/>
            </g>
            <path id="texture_6_-i0" fill="#D62929"
                  d="M488.694,361.104c-0.36,0.117-0.58,0.426-0.463,0.786l0,0  c0.117,0.36,0.426,0.58,0.786,0.463l0,0c0.36-0.117,0.58-0.426,0.463-0.786l0,0C489.364,361.205,489.054,360.987,488.694,361.104  L488.694,361.104z M431.409,388.355c-0.309-0.218-0.67-0.103-0.888,0.207c-0.218,0.309-0.103,0.67,0.207,0.888l0,0  c0.309,0.218,0.67,0.103,0.888-0.207C432.003,388.96,431.719,388.574,431.409,388.355L431.409,388.355L431.409,388.355z   M445.666,396.015c-0.309-0.218-0.67-0.103-0.888,0.207c-0.218,0.309-0.103,0.67,0.207,0.888l0,0  c0.309,0.218,0.67,0.103,0.888-0.207l0,0C446.066,396.761,445.974,396.233,445.666,396.015L445.666,396.015z M458.663,366.977  c-0.218,0.309-0.27,0.644-0.153,1.006c0.309,0.218,0.644,0.27,1.005,0.152c0.218-0.309,0.27-0.644,0.128-0.837  C459.385,366.745,459.049,366.693,458.663,366.977z M468.894,379.676c-0.218,0.309-0.27,0.644-0.153,1.006  c0.309,0.218,0.644,0.27,1.005,0.153c0.218-0.309,0.27-0.644,0.128-0.837C469.615,379.444,469.114,379.368,468.894,379.676  L468.894,379.676z M429.017,420.896c-0.335-0.051-0.722,0.232-0.771,0.568c-0.051,0.335,0.232,0.722,0.568,0.771l0,0  c0.335,0.051,0.722-0.232,0.771-0.568l0,0C429.636,421.334,429.352,420.947,429.017,420.896z M445.197,422.678  c-0.335-0.051-0.722,0.232-0.771,0.568c-0.051,0.335,0.232,0.722,0.568,0.771c0.335,0.051,0.722-0.232,0.771-0.568l0,0  C445.816,423.116,445.533,422.729,445.197,422.678L445.197,422.678L445.197,422.678z M471.261,357.417  c-0.193,0.142-0.438,0.619-0.128,0.837c0.142,0.193,0.619,0.438,0.837,0.128c0.193-0.142,0.436-0.619,0.128-0.837l0,0  C471.983,357.183,471.648,357.131,471.261,357.417L471.261,357.417z M479.366,369.449c-0.193,0.142-0.436,0.619-0.128,0.837  c0.142,0.193,0.452,0.411,0.837,0.128c0.193-0.142,0.411-0.452,0.128-0.837l0,0C479.894,369.359,479.559,369.307,479.366,369.449  L479.366,369.449L479.366,369.449z M437.721,407.655c-0.335-0.051-0.695,0.066-0.747,0.401s0.09,0.528,0.401,0.747l0,0  c0.335,0.051,0.695-0.066,0.747-0.401l0,0C438.171,408.067,438.056,407.707,437.721,407.655L437.721,407.655z M451.855,410.496  c-0.335-0.051-0.695,0.066-0.747,0.401c-0.051,0.335,0.09,0.528,0.401,0.747l0,0c0.335,0.051,0.695-0.066,0.747-0.401l0,0  C452.305,410.91,452.19,410.548,451.855,410.496L451.855,410.496z M456.506,382.244c-0.309-0.218-0.67-0.103-0.888,0.207  s-0.103,0.67,0.208,0.888c0.309,0.218,0.67,0.103,0.888-0.207S456.815,382.462,456.506,382.244L456.506,382.244z M457.547,350.697  c-0.309-0.218-0.67-0.103-0.888,0.207c-0.218,0.309-0.103,0.67,0.207,0.888c0.309,0.218,0.67,0.103,0.888-0.207  C457.973,351.275,457.858,350.915,457.547,350.697L457.547,350.697z M471.38,360.004c-0.309-0.218-0.67-0.103-0.888,0.207  c-0.218,0.309-0.103,0.67,0.207,0.888c0.309,0.218,0.67,0.103,0.888-0.207C471.806,360.582,471.69,360.224,471.38,360.004  L471.38,360.004z M485.408,369.171c-0.309-0.218-0.67-0.103-0.888,0.207s-0.103,0.67,0.208,0.888  c0.309,0.218,0.67,0.103,0.888-0.207C485.665,369.724,485.549,369.364,485.408,369.171z M443.454,419.498  c-0.36,0.117-0.58,0.426-0.463,0.786c0.117,0.36,0.426,0.58,0.786,0.463s0.58-0.426,0.463-0.786  C444.293,419.626,443.816,419.383,443.454,419.498L443.454,419.498z M506.467,359.187c-0.284-0.387-0.619-0.438-1.005-0.152   M451.601,384.066c-0.335-0.051-0.722,0.232-0.771,0.568c-0.051,0.335,0.232,0.722,0.568,0.771s0.722-0.232,0.771-0.568l0,0  C452.22,384.504,451.936,384.117,451.601,384.066L451.601,384.066L451.601,384.066z M450.941,372.654  c-0.335-0.051-0.722,0.232-0.771,0.568c-0.051,0.335,0.232,0.722,0.568,0.771s0.695-0.066,0.771-0.568  C451.56,373.092,451.277,372.705,450.941,372.654L450.941,372.654z M467.152,376.499c-0.335-0.051-0.722,0.232-0.771,0.568  c-0.051,0.335,0.066,0.695,0.568,0.771c0.335,0.051,0.722-0.232,0.94-0.543C467.771,376.935,467.486,376.548,467.152,376.499  L467.152,376.499z M487.243,354.884c-0.309-0.218-0.67-0.103-0.888,0.207l0,0c-0.218,0.309-0.103,0.67,0.181,1.055  c0.309,0.218,0.67,0.103,1.055-0.181C487.669,355.462,487.553,355.102,487.243,354.884L487.243,354.884z M489.171,361.347  c-0.335-0.051-0.529,0.09-0.722,0.232c-0.051,0.335,0.09,0.528,0.232,0.722c0.335,0.051,0.528-0.09,0.722-0.232l0,0  C489.454,361.733,489.339,361.373,489.171,361.347L489.171,361.347L489.171,361.347z"/>
            <path fill="#FFFFFF"
                  d="M319.911,363.136h86.511l-41.044,41.044C365.378,404.18,319.911,361.93,319.911,363.136z"/>
            <path fill="#FFFFFF" d="M369.574,401.646c0,0-40.818,37.93-40.818,36.848h77.666"/>
            <polygon fill="#D62929"
                     points="408.965,445.903 330.132,445.903 325.743,435.308 391.437,369.612 317.416,369.612 317.416,357.199   406.422,357.199 410.811,367.793 345.117,433.489 408.965,433.489 "/>

        </g>
    </g>

    <!-- ITEM 1 -->
    <g transform="translate(807.0 286.0) scale(2.693121693121693 2.6925) rotate(0.0 94.5 200.00000000000003)">
        <g transform="translate(-0.0 -0.0)">

            <g>

                <linearGradient id="SVGID_1_-i1" gradientUnits="userSpaceOnUse" x1="26.5393" y1="379.9109" x2="64.4518"
                                y2="379.9109" gradientTransform="matrix(1 0 0 -1 0 430)">
                    <stop offset="0" style="stop-color:#1B236D"/>
                    <stop offset="1" style="stop-color:#0A134F"/>
                </linearGradient>
                <path fill="url(#SVGID_1_-i1)"
                      d="M32.882,53.29l-6.342-3.095l32.985-3.064c1.592-0.149,3.237-0.305,4.928-0.217l-0.157,3.136   c-1.463-0.071-2.995,0.069-4.479,0.207l-26.662,2.477L32.882,53.29z"/>
            </g>
            <path fill="#0A134F"
                  d="M22.257,59.686c-0.826-0.419-1.259-1.336-1.568-2.208c-0.115-0.326-0.223-0.656-0.268-0.999  c-0.129-0.972,0.252-1.936,0.699-2.808c1.374-2.681,3.469-4.989,6.006-6.617c0.59-0.379,1.214-0.725,1.898-0.878  c0.684-0.153,1.441-0.093,2.025,0.294c0.591,0.392,0.94,1.076,1.064,1.773c0.124,0.697,0.046,1.414-0.066,2.114  c-0.159,0.999-0.391,1.997-0.836,2.905c-0.311,0.634-0.721,1.214-1.161,1.767c-1.179,1.481-2.583,2.782-4.143,3.857  c-0.539,0.372-1.105,0.72-1.733,0.905S22.841,59.982,22.257,59.686z"/>
            <linearGradient id="SVGID_2_-i1" gradientUnits="userSpaceOnUse" x1="61.859" y1="338.296" x2="126.0822"
                            y2="338.296" gradientTransform="matrix(1 0 0 -1 0 430)">
                <stop offset="0" style="stop-color:#FF4945"/>
                <stop offset="1" style="stop-color:#F92424"/>
            </linearGradient>
            <path fill="url(#SVGID_2_-i1)"
                  d="M125.54,118.837c-1.167-4.71-3.86-8.876-6.522-12.934c-8.699-13.27-17.639-26.582-28.506-38.077  c2.983,0.355,6.257,0.52,4.401-1.558c-5.526-6.177-10.747-11.629-15.887-16.889c-0.911-0.932-1.804-1.913-2.939-2.554  c-3.794-2.145-8.498-0.074-12.339,1.985c-0.134,0.072-1.318,1-1.791,1.355c-1.135,0.854,7.715,39.424,17.139,54.901  c4.031,6.619,18.933,22.573,22.902,29.229c0.616,1.034,1.215,2.17,2.272,2.746c0.987,0.538,2.179,0.477,3.3,0.402  c5.443-0.363,11.435-0.973,15.18-4.934C126.087,128.982,126.706,123.547,125.54,118.837z"/>
            <linearGradient id="SVGID_3_-i1" gradientUnits="userSpaceOnUse" x1="545.8102" y1="310.2025" x2="609.5738"
                            y2="310.2025" gradientTransform="matrix(0.8122 -0.5834 -0.5834 -0.8122 -130.5018 955.8697)">
                <stop offset="0" style="stop-color:#008EFF"/>
                <stop offset="1" style="stop-color:#0073DC"/>
            </linearGradient>
            <path fill="url(#SVGID_3_-i1)"
                  d="M136.614,384.444c1.61-10.357,6.856-20.114,14.611-27.174c2.909-2.649,6.14-4.915,9.362-7.173  c5.097-3.574,10.195-7.148,15.292-10.721c4.506,5.971,15.03,16.634,12.819,18.293c-15.79,12.996-31.296,24.017-48.783,36.803  C137.077,396.302,136.011,388.321,136.614,384.444z"/>
            <path fill="#0A134F"
                  d="M176.322,340.212c0-9.073-0.396-12.341-5.825-19.493c-3.837-5.054-8.273-9.089-12.168-14.097  c-5.44-6.995-8.827-19.859-14.672-26.521c-9.639-10.985-23.719-11.48-30.004-24.67c-2.771-5.814-2.689-12.522-2.608-18.96  c0.439-34.967-7.745-70.235-24.678-100.84c-8.275,7.64-20.936,8.561-32.139,9.771c0.774,11.182,2.987,23.038,6.101,35.127  c6.118,23.755,15.714,48.412,24.7,70.628c2.314,5.721,2.512,12.131,4.898,17.823c3.037,7.248,7.795,13.622,12.505,19.914  c19.378,25.888,33.542,38.958,52.92,64.846C166.451,347.375,167.423,345.665,176.322,340.212z"/>
            <linearGradient id="SVGID_4_-i1" gradientUnits="userSpaceOnUse" x1="0.8548" y1="41.9344" x2="64.2699"
                            y2="41.9344" gradientTransform="matrix(1 0 0 -1 0 430)">
                <stop offset="0" style="stop-color:#008EFF"/>
                <stop offset="1" style="stop-color:#0073DC"/>
            </linearGradient>
            <path fill="url(#SVGID_4_-i1)"
                  d="M5.432,390.083c7.356-7.474,17.315-12.342,27.737-13.556c3.909-0.455,7.858-0.414,11.793-0.371  c6.227,0.068,12.454,0.136,18.682,0.204c0.173,7.477,1.568,23.058-0.471,23.058C43.4,399.61,23.827,399.805,2.158,400  C-1.201,399.951,2.678,392.88,5.432,390.083z"/>
            <linearGradient id="SVGID_5_-i1" gradientUnits="userSpaceOnUse" x1="86.3593" y1="251.9238" x2="47.7802"
                            y2="99.9428" gradientTransform="matrix(1 0 0 -1 0 430)">
                <stop offset="0" style="stop-color:#1B236D"/>
                <stop offset="1" style="stop-color:#0A134F"/>
            </linearGradient>
            <path fill="url(#SVGID_5_-i1)"
                  d="M77.969,333.255c1.759-5.586,5.501-10.357,7.51-15.857c4.017-10.995,0.661-23.121,0.209-34.816  c-0.864-22.288,8.931-43.379,16.205-64.467c7.274-21.089,11.913-45.279,1.438-64.977c-3.958-7.443-9.924-13.872-12.557-21.88  c-8.037,6.307-18.891,8.885-28.91,6.865c2.602,14.954,5.203,29.908,7.806,44.86c-2.079,18.326-4.158,36.653-6.238,54.978  c-1.429,12.6-2.86,25.208-4.918,37.721c-2.486,15.115-5.883,30.065-9.279,45.003c-4.259,18.74-8.596,36.864-12.856,55.604  c8.883,0.437,18.64,0.437,27.071,0.416c6.559-9.786,10.901-21.046,12.611-32.699C76.589,340.4,76.875,336.731,77.969,333.255z"/>
            <path fill="#F92424"
                  d="M138.997,43.46c-11.434,1.065-20-11.506-31.417-12.736c-4.433-0.477-8.836,0.824-13.234,1.557  c-9.388,1.564-19.722,0.28-27.089-5.74c-4.177-3.414-7.177-8.14-11.547-11.302c-4.774-3.455-11.048-4.759-16.805-3.495  c2.845-4.881,9.21-6.775,14.812-6.016s10.656,3.641,15.579,6.42c4.922,2.778,10.055,5.566,15.682,6.102  c11.768,1.121,22.48-7.741,34.301-7.878c9.493-0.111,18.364,5.626,23.995,13.262C138.534,28.892,136.845,36.718,138.997,43.46z"/>
            <path fill="#FFA29D"
                  d="M23.949,32.961c-3.386,2.934-6.866,5.758-10.436,8.466c4.03,6.734,7.732,13.663,11.091,20.754  c5.128-2.883,10.693-4.991,16.445-6.227C33.357,50.156,28.54,41.425,23.949,32.961z"/>
            <linearGradient id="SVGID_6_-i1" gradientUnits="userSpaceOnUse" x1="34.8361" y1="288.5829" x2="82.7452"
                            y2="352.3351" gradientTransform="matrix(1 0 0 -1 0 430)">
                <stop offset="0" style="stop-color:#008EFF"/>
                <stop offset="1" style="stop-color:#0073DC"/>
            </linearGradient>
            <path fill="url(#SVGID_6_-i1)"
                  d="M44.446,175.411c10.683-8.154,45.273-19.802,57.291-25.824  c-14.227-29.675-12.008-26.311-26.549-55.834c-1.865-3.787-10.48-23.73-19.563-33.5c-4.253-4.575-12.032-9.273-18.165-10.469  c-6.633-1.293-9.781,4.188-14.672,10.469c-2.778,3.568,1.831,27.688,2.795,32.105C35.363,137.2,33.267,124.463,44.446,175.411z"/>
            <linearGradient id="SVGID_7_-i1" gradientUnits="userSpaceOnUse" x1="0" y1="401.4996" x2="39.4909"
                            y2="401.4996" gradientTransform="matrix(1 0 0 -1 0 430)">
                <stop offset="0" style="stop-color:#FFBFB7"/>
                <stop offset="1" style="stop-color:#FFA29D"/>
            </linearGradient>
            <path fill="url(#SVGID_7_-i1)"
                  d="M35.367,11.885c-3.353-2.729-8.029-2.986-12.353-2.986c-2.087,0-4.239,0.045-6.148,0.889  c-1.04,0.46-1.965,1.14-2.845,1.858c-1.54,1.256-2.959,2.653-4.255,4.157c-2.994,2.616-5.193,4.574-9.074,5.454  c-1.572,1.57-0.138,3.341,1.048,5.758c-0.462,1.546-1.073,3.113-1.31,4.711c-0.713,4.803,1.236,12.099,5.257,14.827  c3.257,2.211,7.641,1.738,11.39,0.532c7.858-2.529,14.738-7.972,19.003-15.033c1.9-3.146,3.311-6.68,3.406-10.353  C39.581,18.026,38.217,14.206,35.367,11.885z"/>
            <linearGradient id="SVGID_8_-i1" gradientUnits="userSpaceOnUse" x1="63.8769" y1="297.9284" x2="88.1892"
                            y2="375.6716" gradientTransform="matrix(1 0 0 -1 0 430)">
                <stop offset="0" style="stop-color:#008EFF"/>
                <stop offset="1" style="stop-color:#0073DC"/>
            </linearGradient>
            <path fill="url(#SVGID_8_-i1)"
                  d="M51.943,52.092c11.912,2.207,12.376,8.705,23.001,14.52c5.897,3.228,30.719,15.376,37.51,20.548  c2.957,2.253,6.021,4.631,7.627,7.981c1.607,3.35,1.232,7.965-1.837,10.063c-3.257,2.227-7.661,0.738-11.292-0.808  c-11.33-4.825-14.769-5.675-26.099-10.5c-4.674-1.99-30.406-16.836-37.057-25.69c-2.519-3.352-5.539-10.614-2.556-13.562  C43.338,52.572,49.042,51.555,51.943,52.092z"/>
            <linearGradient id="SVGID_9_-i1" gradientUnits="userSpaceOnUse" x1="102.2908" y1="295.1243" x2="102.2908"
                            y2="295.1243" gradientTransform="matrix(1 0 0 -1 0 430)">
                <stop offset="0" style="stop-color:#1B236D"/>
                <stop offset="1" style="stop-color:#0A134F"/>
            </linearGradient>
            <path fill="none" stroke="url(#SVGID_9_)" stroke-width="4" stroke-miterlimit="10" d="M102.291,134.876"/>
            <linearGradient id="SVGID_10_-i1" gradientUnits="userSpaceOnUse" x1="11.6965" y1="407.4054" x2="41.2885"
                            y2="407.4054" gradientTransform="matrix(1 0 0 -1 0 430)">
                <stop offset="0" style="stop-color:#FF4945"/>
                <stop offset="1" style="stop-color:#F92424"/>
            </linearGradient>
            <path fill="url(#SVGID_10_-i1)"
                  d="M11.697,13.405c4.081,0.56,4.772,3.268,5.977,7.204c1.205,3.935,1.713,8.249,4.228,11.509  c3.624,4.697,10.08,7.014,14.686,3.272c2.977-4.094,5.532-10.856,4.448-15.801c-1.084-4.943-4.753-9.348-9.572-10.904  c-2.57-0.83-5.334-0.862-8.023-0.604C18.709,8.534,15.365,9.218,11.697,13.405z"/>
            <g>
                <path fill="#F92424"
                      d="M85.488,12.873c-1.969,0-3.955-0.229-5.912-0.775c-3.581-0.999-6.798-2.975-9.909-4.886   c-3.176-1.951-6.461-3.97-10.068-4.878c-7.787-1.963-16.548,1.877-20.378,8.928c-0.138,0.254-0.457,0.348-0.711,0.21   c-0.255-0.138-0.349-0.455-0.211-0.71c4.053-7.458,13.319-11.517,21.555-9.444c3.764,0.947,7.118,3.009,10.362,5.001   c3.049,1.874,6.202,3.811,9.642,4.77c7.573,2.112,15.752-0.76,21.245-3.106c1.53-0.653,3.052-1.345,4.575-2.036   c5.211-2.368,10.598-4.818,16.357-5.678c7.113-1.06,16.084,0.915,20.105,7.728c0.147,0.249,0.064,0.57-0.186,0.717   c-0.249,0.147-0.571,0.064-0.718-0.185c-3.774-6.393-12.285-8.235-19.046-7.225c-5.613,0.84-10.934,3.257-16.078,5.596   c-1.53,0.695-3.059,1.39-4.597,2.047C97.275,10.758,91.466,12.873,85.488,12.873z"/>
            </g>
            <linearGradient id="SVGID_11_-i1" gradientUnits="userSpaceOnUse" x1="35.3635" y1="418.6011" x2="45.1445"
                            y2="418.6011" gradientTransform="matrix(1 0 0 -1 0 430)">
                <stop offset="0" style="stop-color:#69B0F5"/>
                <stop offset="1" style="stop-color:#5BABF2"/>
            </linearGradient>
            <rect x="35.363" y="6.514" fill="url(#SVGID_11_-i1)" width="9.781" height="9.771"/>
            <g>
                <path fill="#1B236D"
                      d="M12.382,22.71c-1.529,0-3.059-0.505-4.251-1.483c-0.223-0.183-0.256-0.513-0.072-0.737   c0.182-0.223,0.514-0.256,0.738-0.072c1.702,1.398,4.339,1.637,6.267,0.571c0.254-0.139,0.572-0.049,0.713,0.204   s0.048,0.572-0.204,0.712C14.595,22.445,13.489,22.71,12.382,22.71z"/>
            </g>
            <path fill="none"
                  d="M117.997,43.845c1.782,2.196,4.472,3.633,7.289,3.893c-0.267-0.079-0.536-0.157-0.803-0.236"/>
            <path id="texture-2_15_-i1" fill="#FFFFFF"
                  d="M76.188,172.473c0.071-0.047,0.09-0.144,0.043-0.216s-0.145-0.09-0.216-0.043  c-0.071,0.047-0.09,0.144-0.043,0.216l0,0C76.02,172.501,76.117,172.521,76.188,172.473L76.188,172.473z M84.881,159.084  c0.086,0.018,0.171-0.038,0.189-0.125l0,0c0.019-0.079-0.03-0.157-0.108-0.175c-0.006-0.002-0.014-0.003-0.02-0.003  c-0.083-0.019-0.165,0.032-0.184,0.114C84.741,158.981,84.794,159.066,84.881,159.084L84.881,159.084L84.881,159.084z   M80.042,165.582c0.077,0.043,0.173,0.022,0.224-0.048c0.048-0.074,0.027-0.175-0.048-0.224c-0.074-0.048-0.175-0.027-0.224,0.048  C79.952,165.434,79.972,165.53,80.042,165.582z M92.657,182.104c0.133,0.097,0.32,0.069,0.42-0.062  c0.101-0.124,0.083-0.305-0.04-0.405c-0.004-0.003-0.008-0.007-0.013-0.009c-0.133-0.097-0.32-0.069-0.42,0.062  C92.505,181.818,92.528,182.003,92.657,182.104L92.657,182.104z M86.896,177.749c0.134,0.097,0.322,0.067,0.418-0.068  c0.095-0.132,0.068-0.315-0.062-0.414c-0.129-0.1-0.314-0.076-0.415,0.052l0,0C86.742,177.457,86.768,177.644,86.896,177.749z   M81.129,173.381c0.13,0.099,0.313,0.075,0.413-0.054c0.002-0.003,0.004-0.005,0.005-0.008c0.101-0.124,0.083-0.305-0.04-0.405  c-0.004-0.003-0.008-0.007-0.013-0.009c-0.136-0.095-0.323-0.07-0.43,0.058C80.969,173.095,80.997,173.282,81.129,173.381z   M79.226,189.743c0.138-0.087,0.18-0.27,0.092-0.408c-0.087-0.138-0.27-0.18-0.409-0.092c-0.136,0.086-0.179,0.264-0.097,0.402  C78.902,189.783,79.085,189.827,79.226,189.743L79.226,189.743z M75.57,183.51c0.138-0.087,0.18-0.27,0.092-0.408  c-0.087-0.138-0.27-0.18-0.409-0.092c-0.136,0.086-0.179,0.264-0.097,0.402C75.244,183.549,75.429,183.594,75.57,183.51  L75.57,183.51z M95.891,167.881c0.16,0.038,0.323-0.059,0.363-0.219c0.042-0.156-0.05-0.315-0.206-0.358  c-0.001,0-0.002-0.001-0.002-0.001c-0.151-0.05-0.313,0.032-0.363,0.182c-0.002,0.007-0.004,0.015-0.007,0.023  C95.64,167.669,95.732,167.831,95.891,167.881z M88.89,166.05c0.161,0.037,0.323-0.057,0.373-0.214  c0.038-0.16-0.06-0.322-0.219-0.362c-0.158-0.041-0.322,0.054-0.362,0.213c-0.001,0.002-0.001,0.004-0.002,0.005  c-0.042,0.156,0.05,0.315,0.205,0.357C88.889,166.05,88.89,166.05,88.89,166.05z M81.901,164.224  c0.152,0.044,0.311-0.043,0.354-0.195c0.001-0.004,0.003-0.009,0.003-0.014c0.047-0.157-0.043-0.321-0.199-0.369  c-0.005-0.002-0.009-0.003-0.015-0.004c-0.161-0.041-0.324,0.057-0.365,0.217c-0.041,0.161,0.057,0.323,0.217,0.364  C81.899,164.224,81.9,164.224,81.901,164.224z M73.015,193.161c0.132-0.062,0.191-0.219,0.131-0.352  c-0.061-0.133-0.219-0.192-0.352-0.131c-0.134,0.061-0.192,0.219-0.131,0.352l0,0C72.725,193.162,72.882,193.221,73.015,193.161z   M91.197,173.195c0.143,0.046,0.296-0.026,0.35-0.166c0.05-0.133-0.018-0.282-0.151-0.332c-0.004-0.001-0.007-0.002-0.012-0.003  c-0.137-0.053-0.291,0.015-0.343,0.152c-0.001,0.002-0.001,0.003-0.002,0.005C90.993,172.988,91.062,173.138,91.197,173.195  L91.197,173.195z M85.149,170.974c0.137,0.048,0.287-0.024,0.336-0.16c0.05-0.133-0.018-0.282-0.151-0.332  c-0.004-0.001-0.007-0.002-0.012-0.003c-0.137-0.053-0.291,0.015-0.345,0.151c-0.001,0.002-0.001,0.003-0.002,0.005  C84.934,170.774,85.009,170.925,85.149,170.974L85.149,170.974z M79.078,168.754c0.137,0.053,0.291-0.015,0.345-0.151  c0.001-0.002,0.001-0.003,0.002-0.005c0.052-0.128-0.009-0.274-0.137-0.328c-0.007-0.003-0.016-0.006-0.024-0.008  c-0.137-0.053-0.291,0.015-0.345,0.151c-0.001,0.002-0.001,0.003-0.002,0.005C78.873,168.555,78.944,168.703,79.078,168.754  L79.078,168.754z M81.169,183.17c0.111,0.095,0.279,0.086,0.377-0.023c0.1-0.107,0.093-0.273-0.014-0.372  c-0.11-0.097-0.278-0.094-0.383,0.008C81.051,182.894,81.059,183.066,81.169,183.17L81.169,183.17z M76.422,178.796  c0.101,0.099,0.263,0.098,0.362-0.001c0.003-0.003,0.007-0.007,0.012-0.012c0.1-0.107,0.093-0.273-0.014-0.372  c-0.11-0.097-0.278-0.094-0.383,0.008C76.303,178.53,76.313,178.697,76.422,178.796L76.422,178.796z M90.05,160.135  c0.139-0.003,0.25-0.117,0.248-0.256c0-0.005,0-0.012-0.001-0.016c-0.002-0.146-0.123-0.264-0.269-0.262c-0.003,0-0.006,0-0.009,0  c-0.146,0.013-0.257,0.136-0.253,0.284c0.004,0.144,0.127,0.258,0.271,0.252C90.042,160.136,90.046,160.135,90.05,160.135  L90.05,160.135z M83.597,160.404c0.148-0.007,0.264-0.13,0.262-0.278c-0.01-0.149-0.138-0.262-0.287-0.251  c-0.141,0.009-0.252,0.127-0.252,0.269c0,0.144,0.118,0.263,0.263,0.262C83.586,160.405,83.591,160.405,83.597,160.404  L83.597,160.404z M78.684,197.011c0.131,0.109,0.324,0.096,0.44-0.029c0.114-0.126,0.106-0.319-0.02-0.434  c-0.13-0.111-0.326-0.098-0.44,0.029C78.549,196.703,78.558,196.896,78.684,197.011L78.684,197.011z M73.151,192.02  c0.126,0.114,0.32,0.106,0.435-0.02c0.114-0.125,0.106-0.319-0.02-0.434c-0.126-0.114-0.32-0.106-0.435,0.02  C73.017,191.711,73.026,191.906,73.151,192.02L73.151,192.02z M89.399,167.554c0.172-0.014,0.303-0.159,0.299-0.332  c-0.015-0.171-0.166-0.298-0.337-0.283c-0.166,0.014-0.289,0.156-0.284,0.32C89.089,167.429,89.231,167.557,89.399,167.554  L89.399,167.554z M81.959,167.937c0.169-0.012,0.298-0.153,0.294-0.322c-0.008-0.171-0.152-0.301-0.323-0.294  c-0.17,0.008-0.302,0.152-0.294,0.322C81.646,167.812,81.79,167.943,81.959,167.937L81.959,167.937z M83.498,182.67  c0.161,0.049,0.334-0.035,0.398-0.191c0.05-0.161-0.036-0.333-0.196-0.387c-0.156-0.06-0.331,0.019-0.391,0.176  c-0.001,0.002-0.001,0.004-0.002,0.006C83.25,182.436,83.335,182.613,83.498,182.67C83.497,182.67,83.498,182.67,83.498,182.67  L83.498,182.67z M76.469,180.177c0.162,0.057,0.341-0.028,0.397-0.189c0,0,0,0,0-0.001c0.055-0.156-0.028-0.329-0.185-0.382l0,0  c-0.159-0.057-0.334,0.025-0.391,0.184C76.231,179.943,76.312,180.117,76.469,180.177L76.469,180.177z M83.037,187.756  c0.157,0.059,0.333-0.023,0.393-0.181c0.059-0.158-0.023-0.333-0.181-0.393c-0.154-0.057-0.326,0.018-0.388,0.17  C82.799,187.514,82.878,187.694,83.037,187.756L83.037,187.756z M76.15,184.987c0.16,0.062,0.34-0.017,0.402-0.177  c0.058-0.155-0.016-0.33-0.167-0.398c-0.161-0.06-0.342,0.016-0.412,0.172C75.915,184.745,75.993,184.921,76.15,184.987  L76.15,184.987z M82.184,172.272c0.171-0.005,0.306-0.148,0.304-0.318c-0.003-0.168-0.14-0.301-0.308-0.298  c-0.166-0.005-0.304,0.125-0.309,0.29c0,0.004-0.001,0.008,0,0.014c-0.003,0.171,0.132,0.31,0.303,0.312  C82.177,172.272,82.18,172.272,82.184,172.272L82.184,172.272z"/>
            <path fill="#FFA29D"
                  d="M31.62,76.554c2.502,4.161,5.003,8.322,7.506,12.483c0.401,0.668,0.831,1.364,1.508,1.75  c0.642,0.366,0.088-6.312,0.755-6.632c-4.026-7.75-7.611-14.089-10.73-13.043C28.883,71.705,30.616,74.885,31.62,76.554z"/>
            <g>

                <linearGradient id="SVGID_12_-i1" gradientUnits="userSpaceOnUse" x1="34.9745" y1="337.234" x2="104.1992"
                                y2="337.234" gradientTransform="matrix(1 0 0 -1 0 430)">
                    <stop offset="0" style="stop-color:#1B236D"/>
                    <stop offset="1" style="stop-color:#0A134F"/>
                </linearGradient>
                <path fill="url(#SVGID_12_-i1)"
                      d="M102.773,139.693c-2.466-0.888-48.911-25.372-65.767-47.823   c-2.887-3.846-2.481-19.859-0.135-29.784c1.439-6.088,3.44-9.697,6.115-11.034c6.478-3.235,19.647-5.496,23.129-5.185l-0.369,4.171   c-2.707-0.235-14.994,1.816-20.887,4.76c-0.522,0.261-2.344,1.625-3.91,8.249c-2.567,10.858-1.964,24.48-0.59,26.308   c16.191,21.565,61.299,45.439,63.84,46.398L102.773,139.693z"/>
            </g>
            <linearGradient id="SVGID_13_-i1" gradientUnits="userSpaceOnUse" x1="120.234" y1="426.8284" x2="159.4855"
                            y2="426.8284" gradientTransform="matrix(0.9891 -0.1471 -0.1471 -0.9891 -19.4174 528.8284)">
                <stop offset="0" style="stop-color:#FFBFB7"/>
                <stop offset="1" style="stop-color:#FFA29D"/>
            </linearGradient>
            <path fill="url(#SVGID_13_-i1)"
                  d="M44.699,79.024c-0.231,2.216-0.24,4.74,1.336,6.317c1.229,1.23,3.086,1.525,4.811,1.758  c8.598,1.158,17.197,2.316,25.794,3.475c-1.86,2.863-1.388,11.923-2.4,15.183c-8.141-2.203-28.427-10.955-31.19-11.958  c-1.177-0.427-2.386-0.938-3.183-1.902c-1.405-1.701-1.092-4.18-0.803-6.366c0.73-5.52,1.5-10.551,0.946-16.091  c-0.527,0.408-1.847,0.094-2.51,0.169c1.996,2.299,2.605,5.717,1.523,8.562c-0.135,0.355-0.33,0.736-0.69,0.858  c-0.657,0.225-1.202-0.534-1.476-1.173c-1.193-2.779-2.2-5.637-3.012-8.55c-0.133-0.476-0.26-0.988-0.095-1.454  c0.335-0.953,1.589-1.122,2.599-1.13c1.794-0.014,3.588-0.027,5.383-0.041c1.874-0.014,4.31,0.417,4.604,2.265  c0.084,0.53-0.049,1.067-0.176,1.588C45.485,73.329,44.996,76.166,44.699,79.024z"/>
            <linearGradient id="SVGID_14_-i1" gradientUnits="userSpaceOnUse" x1="84.9774" y1="341.764" x2="105.2883"
                            y2="310.4318" gradientTransform="matrix(1 0 0 -1 0 430)">
                <stop offset="0" style="stop-color:#008EFF"/>
                <stop offset="1" style="stop-color:#0073DC"/>
            </linearGradient>
            <path fill="url(#SVGID_14_-i1)"
                  d="M66.942,105.387c-2.977-0.523,0.267-14.605,2.111-15.892c13.973,1.745,31.827,0.472,41.207,2.269  c2.895,0.554,5.947,1.185,8.127,3.166c2.792,2.538,3.806,5.875,3.96,9.643c0.044,1.082-0.334,3.037-1.055,3.847  c-1.229,1.383-8.483,3.802-18.963,3.454C87.853,111.391,66.942,105.387,66.942,105.387z"/>
            <linearGradient id="SVGID_15_-i1" gradientUnits="userSpaceOnUse" x1="100.5145" y1="293.8471" x2="110.4705"
                            y2="293.8471" gradientTransform="matrix(1 0 0 -1 0 430)">
                <stop offset="0" style="stop-color:#1B236D"/>
                <stop offset="1" style="stop-color:#0A134F"/>
            </linearGradient>
            <rect x="100.514" y="130.918" fill="url(#SVGID_15_-i1)" width="9.956" height="10.469"/>
            <linearGradient id="SVGID_16_-i1" gradientUnits="userSpaceOnUse" x1="23.4781" y1="372.7762" x2="37.9091"
                            y2="372.7762" gradientTransform="matrix(1 0 0 -1 0 430)">
                <stop offset="0" style="stop-color:#1B236D"/>
                <stop offset="1" style="stop-color:#0A134F"/>
            </linearGradient>
            <path fill="url(#SVGID_16_-i1)"
                  d="M31.341,45.353c-1.226,3.788-7.863,13.793-7.863,13.793s3.228,7.48,4.407,9.949  c2.945-6.672,6.666-13.627,10.024-20.101C35.912,47.749,33.357,46.67,31.341,45.353z"/>
            <linearGradient id="SVGID_17_-i1" gradientUnits="userSpaceOnUse" x1="20.3624" y1="366.1599" x2="23.5745"
                            y2="366.1599" gradientTransform="matrix(1 0 0 -1 0 430)">
                <stop offset="0" style="stop-color:#1B236D"/>
                <stop offset="1" style="stop-color:#0A134F"/>
            </linearGradient>
            <path fill="url(#SVGID_17_-i1)"
                  d="M20.411,65.899c0,0,0.095-6.082-0.048-9.818c0.587,0.803,2.389,2.505,3.212,3.065  c-0.434,4.314-0.189,8.137-0.624,12.452C21.992,70.497,20.411,65.899,20.411,65.899z"/>
            <g>

                <linearGradient id="SVGID_18_-i1" gradientUnits="userSpaceOnUse" x1="62.0232" y1="387.8973" x2="79.5442"
                                y2="387.8973" gradientTransform="matrix(1 0 0 -1 0 430)">
                    <stop offset="0" style="stop-color:#1B236D"/>
                    <stop offset="1" style="stop-color:#0A134F"/>
                </linearGradient>
                <path fill="url(#SVGID_18_-i1)"
                      d="M66.473,51.125l-1.391-1.321l-1.185-0.597l0.116-0.26c-0.054-0.042-0.11-0.083-0.166-0.125   c-1.516-1.141-2.084-1.569-1.717-2.665l0.02-0.059c0.882-4.808,4.823-8.129,8.795-11.12c2.689-2.025,4.916-2.394,6.65-1.276   c0.921,0.595,1.591,1.622,1.836,2.816c0.572,2.792-1.139,5.267-2.932,6.652c-1.29,0.996-2.723,1.63-4.108,2.243   c-0.474,0.209-0.948,0.419-1.414,0.644c-1.759,0.849-2.895,1.766-3.463,2.797l-0.476,1.204h-0.082L66.473,51.125z M65.445,45.838   l0.224,0.21c0.93-1.063,2.232-1.993,3.938-2.816c0.496-0.24,1.002-0.464,1.507-0.687c1.27-0.563,2.47-1.094,3.459-1.857   c1.074-0.829,2.04-2.245,1.775-3.535c-0.074-0.363-0.252-0.673-0.461-0.809c-0.128-0.083-0.262-0.119-0.437-0.119   c-0.425,0-1.225,0.22-2.615,1.265C69.629,39.904,66.451,42.53,65.445,45.838z"/>
            </g>

        </g>
    </g>

    <!-- ITEM 2 -->
    <g transform="translate(834.0 793.0) scale(0.3248407643312102 0.32) rotate(22.15344844291717 78.5 100.0)">
        <g transform="translate(-0.0 -0.0)">

            <path fill="#DBECFF"
                  d="M76.416,47.676L35.565,6.686c-6.647,2.703-12.726,6.397-17.968,11.374l44.167,44.317  c2.478,2.486,2.478,6.515,0,9.001s-6.493,2.486-8.97,0L9.45,27.887c-4.109,6.338-6.873,13.462-8.327,21.049l36.57,36.694  c2.478,2.486,2.478,6.515,0,9.001c-2.478,2.486-6.493,2.486-8.97,0L0,65.811c1.076,21.472,11.232,44.574,29.844,63.25  c0.435,0.436,0.875,0.863,1.315,1.291c-3.095,4.408-5.994,8.967-8.602,13.723C15.238,157.415,7.345,177.947,11.302,200l6.243-1.128  c-3.628-20.218,3.745-39.29,10.569-51.729c2.353-4.29,4.969-8.431,7.768-12.457c17.468,15.145,38.132,23.631,57.36,24.684  L65.95,131.986c-2.478-2.486-2.478-6.515,0-9.001c2.478-2.486,6.493-2.486,8.97,0l35.17,35.29c7.55-1.47,14.597-4.295,20.796-8.536  l-40.866-41.005c-2.478-2.486-2.478-6.515,0-9.001c2.478-2.486,6.493-2.486,8.97,0l41.426,41.567  c4.69-5.365,8.133-11.726,10.628-18.739L113.643,85.03c-2.478-2.486-2.478-6.515,0-9.001c2.478-2.486,6.493-2.486,8.97,0  l32.148,32.257c1.567-8.671,2.173-17.886,2.238-27.158l-20.182-20.252c-2.478-2.486-2.478-6.515,0-9.001s6.493-2.486,8.97,0  l10.748,10.785c-1.328-25.929-4.756-49.683-0.656-60.066c-13.615,3.15-36.779-0.543-61.233-2.034l13.912,13.959  c2.478,2.486,2.478,6.515,0,9.001c-2.478,2.486-6.493,2.486-8.97,0L76.147,0c-9.175,0.069-18.24,0.76-26.767,2.546l36.007,36.129  c2.478,2.486,2.478,6.515,0,9.001C82.909,50.161,78.893,50.161,76.416,47.676z"/>

        </g>
    </g>

    <!-- ITEM 3 -->
    <g transform="translate(198.0 349.0) scale(-0.35668789808917195 0.355) rotate(-343.39512151832764 78.5 100.00000000000001)">
        <g transform="translate(-0.0 -0.0)">

            <path fill="#DBECFF"
                  d="M76.416,47.676L35.565,6.686c-6.647,2.703-12.726,6.397-17.968,11.374l44.167,44.317  c2.478,2.486,2.478,6.515,0,9.001s-6.493,2.486-8.97,0L9.45,27.887c-4.109,6.338-6.873,13.462-8.327,21.049l36.57,36.694  c2.478,2.486,2.478,6.515,0,9.001c-2.478,2.486-6.493,2.486-8.97,0L0,65.811c1.076,21.472,11.232,44.574,29.844,63.25  c0.435,0.436,0.875,0.863,1.315,1.291c-3.095,4.408-5.994,8.967-8.602,13.723C15.238,157.415,7.345,177.947,11.302,200l6.243-1.128  c-3.628-20.218,3.745-39.29,10.569-51.729c2.353-4.29,4.969-8.431,7.768-12.457c17.468,15.145,38.132,23.631,57.36,24.684  L65.95,131.986c-2.478-2.486-2.478-6.515,0-9.001c2.478-2.486,6.493-2.486,8.97,0l35.17,35.29c7.55-1.47,14.597-4.295,20.796-8.536  l-40.866-41.005c-2.478-2.486-2.478-6.515,0-9.001c2.478-2.486,6.493-2.486,8.97,0l41.426,41.567  c4.69-5.365,8.133-11.726,10.628-18.739L113.643,85.03c-2.478-2.486-2.478-6.515,0-9.001c2.478-2.486,6.493-2.486,8.97,0  l32.148,32.257c1.567-8.671,2.173-17.886,2.238-27.158l-20.182-20.252c-2.478-2.486-2.478-6.515,0-9.001s6.493-2.486,8.97,0  l10.748,10.785c-1.328-25.929-4.756-49.683-0.656-60.066c-13.615,3.15-36.779-0.543-61.233-2.034l13.912,13.959  c2.478,2.486,2.478,6.515,0,9.001c-2.478,2.486-6.493,2.486-8.97,0L76.147,0c-9.175,0.069-18.24,0.76-26.767,2.546l36.007,36.129  c2.478,2.486,2.478,6.515,0,9.001C82.909,50.161,78.893,50.161,76.416,47.676z"/>

        </g>
    </g>

    <!-- ITEM 4 -->
    <g transform="translate(291.0 770.0) scale(-0.5222929936305732 0.52) rotate(-331.7992715303674 78.5 99.99999999999999)">
        <g transform="translate(-0.0 -0.0)">

            <path fill="#DBECFF"
                  d="M76.416,47.676L35.565,6.686c-6.647,2.703-12.726,6.397-17.968,11.374l44.167,44.317  c2.478,2.486,2.478,6.515,0,9.001s-6.493,2.486-8.97,0L9.45,27.887c-4.109,6.338-6.873,13.462-8.327,21.049l36.57,36.694  c2.478,2.486,2.478,6.515,0,9.001c-2.478,2.486-6.493,2.486-8.97,0L0,65.811c1.076,21.472,11.232,44.574,29.844,63.25  c0.435,0.436,0.875,0.863,1.315,1.291c-3.095,4.408-5.994,8.967-8.602,13.723C15.238,157.415,7.345,177.947,11.302,200l6.243-1.128  c-3.628-20.218,3.745-39.29,10.569-51.729c2.353-4.29,4.969-8.431,7.768-12.457c17.468,15.145,38.132,23.631,57.36,24.684  L65.95,131.986c-2.478-2.486-2.478-6.515,0-9.001c2.478-2.486,6.493-2.486,8.97,0l35.17,35.29c7.55-1.47,14.597-4.295,20.796-8.536  l-40.866-41.005c-2.478-2.486-2.478-6.515,0-9.001c2.478-2.486,6.493-2.486,8.97,0l41.426,41.567  c4.69-5.365,8.133-11.726,10.628-18.739L113.643,85.03c-2.478-2.486-2.478-6.515,0-9.001c2.478-2.486,6.493-2.486,8.97,0  l32.148,32.257c1.567-8.671,2.173-17.886,2.238-27.158l-20.182-20.252c-2.478-2.486-2.478-6.515,0-9.001s6.493-2.486,8.97,0  l10.748,10.785c-1.328-25.929-4.756-49.683-0.656-60.066c-13.615,3.15-36.779-0.543-61.233-2.034l13.912,13.959  c2.478,2.486,2.478,6.515,0,9.001c-2.478,2.486-6.493,2.486-8.97,0L76.147,0c-9.175,0.069-18.24,0.76-26.767,2.546l36.007,36.129  c2.478,2.486,2.478,6.515,0,9.001C82.909,50.161,78.893,50.161,76.416,47.676z"/>

        </g>
    </g>

</svg>