<?xml version="1.0" encoding="UTF-8"?>
<svg version="1.1" id="Layer_1" xmlns="http://www.w3.org/2000/svg" x="0px"
     y="0px" width="271px" height="400px" viewBox="0 0 271 400" enable-background="new 0 0 271 400"
     xml:space="preserve">
<polygon fill="#A1C3FC" points="191.889,189.897 123.847,121.868 191.889,53.839 259.932,121.868 "/>
    <path fill="#F2A19C" d="M97.035,308.413c0.402-14.541,2.005-29.045,4.784-43.286c-7.922,4.063-17.012,5.451-25.674,3.92
	c2.605,12.635,2.591,25.883-0.042,38.511C82.974,305.772,90.307,306.073,97.035,308.413z"/>
    <path fill="#428DFC" d="M144.5,374.675c0.37-12.232,0.12-20.802-3.532-30.954c-5.367-14.92-12.957-30.584-27.445-37.732
	c-5.062-2.497-10.68-3.776-16.318-4.409c-5.567,4.509-14.546,4.34-19.928-0.376c-3.858,1.185-10.441,0.118-14.333,1.197
	c-4.879,1.352-6.314,2.095-8.155,3.335c-8.382,5.644-10.797,12.723-15.349,21.597c-7.494,14.603-8.448,31.373-12.137,47.341H144.5z"/>
    <path fill="#F2A19C" d="M127.265,246.309c-1.837,9.195-1.873,18.746-0.105,27.957c-1.887-0.45-4.005-1.119-4.816-2.881
	c-0.268-0.583-0.357-1.23-0.443-1.867c-0.561-4.149-1.11-8.361-0.52-12.506C121.97,252.867,123.847,248.727,127.265,246.309z"/>
    <path fill="none" d="M128.291,259.205c-1.914-0.896-3.432-2.601-4.102-4.604c1.282,3.42,2.563,6.84,3.846,10.261"/>
    <linearGradient id="SVGID_1_" gradientUnits="userSpaceOnUse" x1="951.8336" y1="2020.8578" x2="1156.4746"
                    y2="2020.8578" gradientTransform="matrix(0.2222 0 0 0.2222 -142.56 -192.5444)">
	<stop offset="0" style="stop-color:#FFBEB6"/>
        <stop offset="1" style="stop-color:#F2A19C"/>
</linearGradient>
    <path fill="url(#SVGID_1_)" d="M86.475,230.967c-6.676-0.802-13.236,3.894-15.884,10.074c-2.648,6.18-1.89,13.411,0.669,19.627
	c3.525,8.563,10.422,15.687,18.867,19.486c1.908,0.859,3.908,1.558,5.983,1.823c2.065,0.264,4.173,0.093,6.207-0.352
	c4.164-0.907,8.247-3.143,10.337-6.856c1.597-2.837,1.882-6.229,1.71-9.48c-0.724-13.766-9.584-26.8-22.121-32.54
	C90.409,231.909,88.483,231.209,86.475,230.967z"/>
    <g>
	<path fill="#428DFC" d="M100.212,249.769c-2.482,0-4.558-1.007-5.693-2.762c-2.132-3.296-0.313-8.273,4.054-11.097
		c1.9-1.227,4.064-1.904,6.092-1.904c2.482,0,4.558,1.007,5.692,2.762c1.069,1.655,1.2,3.749,0.364,5.896
		c-0.787,2.02-2.355,3.869-4.417,5.201C104.405,249.093,102.242,249.769,100.212,249.769z M104.665,236.23
		c-1.606,0-3.34,0.549-4.884,1.548c-3.336,2.158-4.859,5.756-3.394,8.022c0.719,1.109,2.112,1.745,3.825,1.745
		c1.606,0,3.341-0.55,4.884-1.549c1.67-1.081,2.932-2.551,3.551-4.141c0.57-1.463,0.514-2.842-0.159-3.881
		C107.772,236.867,106.378,236.23,104.665,236.23z"/>
</g>
    <g>
	<path fill="#428DFC" d="M82.363,263.309c-2.482,0-4.558-1.007-5.693-2.762c-2.131-3.297-0.312-8.273,4.054-11.097
		c1.9-1.227,4.064-1.904,6.092-1.904c2.482,0,4.558,1.007,5.692,2.762c1.069,1.655,1.2,3.749,0.364,5.896
		c-0.787,2.02-2.355,3.869-4.417,5.201C86.555,262.631,84.392,263.309,82.363,263.309z M86.816,249.769
		c-1.606,0-3.34,0.549-4.884,1.548c-3.336,2.155-4.858,5.756-3.394,8.022c0.719,1.109,2.112,1.745,3.825,1.745
		c1.606,0,3.34-0.55,4.884-1.549c1.67-1.081,2.933-2.551,3.551-4.141c0.57-1.463,0.514-2.842-0.159-3.881
		C89.923,250.405,88.528,249.769,86.816,249.769z"/>
</g>
    <g>
	<path fill="#428DFC" d="M90.332,251.032c-0.487-1.803,0.165-3.851,1.589-4.98c1.456-1.158,2.974-1.212,4.506-0.159l-1.259,1.832
		c-0.723-0.494-1.175-0.481-1.865,0.068c-0.725,0.576-1.079,1.719-0.825,2.659L90.332,251.032z"/>
</g>
    <path fill="#FFBEB6" d="M139.883,375.743c1.205,0.237,2.235,0.988,3.238,1.696c9.138,6.443,19.66,10.911,30.643,13.009
	c-3.574,3.779-9.421,4.731-14.475,3.497c-5.054-1.234-9.444-4.332-13.401-7.708c-0.891-0.76-1.834-1.57-2.99-1.749
	c-2.062-0.32-3.789,1.411-5.374,2.767c-5.307,4.544-12.649,5.987-19.637,5.906c-6.987-0.08-13.888-1.504-20.862-1.948
	c-16.435-1.048-32.894,3.356-49.301,1.938c7.994-7.804,15.987-15.608,23.981-23.411c0.607-0.593,1.259-1.211,2.087-1.398
	c0.745-0.168,1.518,0.04,2.249,0.262c11.11,3.394,20.821,10.558,32.036,13.588c2.42,0.654,4.951,1.11,7.427,0.725
	c2.149-0.335,4.143-1.284,6.14-2.144c4.847-2.086,9.896-3.699,15.055-4.807C137.748,375.741,138.832,375.536,139.883,375.743z"/>
    <path fill="#FFBEB6" d="M140.336,378.522c8.876,2.873,18.082,4.723,27.38,5.504c1.835,0.153,3.675,0.267,5.502,0.487
	c1.01,0.122,2.069,0.299,2.859,0.941c-0.214,1.104-1.549,1.518-2.656,1.718c-3.617,0.654-7.261,1.311-10.938,1.292
	C154.151,388.421,145.903,384.72,140.336,378.522z"/>
    <path fill="#428DFC" d="M0.993,381.822c1.806,3.812,5.943,5.843,9.793,7.566c3.418,1.529,7.001,3.068,10.742,2.896
	c4.485-0.207,8.572-2.92,11.368-6.431c2.796-3.511,4.474-7.77,5.912-12.022c2.514-7.434,4.419-15.073,5.69-22.817
	c1.235-7.52,1.89-15.208,4.466-22.379c3.203-8.914,9.253-16.663,11.885-25.762C26.985,317.599,2.171,364.479,0.849,370.63
	C0.049,374.347-0.634,378.386,0.993,381.822z"/>
    <path fill="#23286B" d="M79.247,258.24c-0.993,5.949-1.665,12.099-4.429,17.462c-2.764,5.363-8.256,9.85-14.269,9.361
	c1.12-0.675,2.773-2.249,3.083-2.832c-0.763-2.24-4.284-2.069-6.65-2.09c-2.367-0.021-4.915,0.337-6.95-0.871
	c-2.177-1.292-3.056-3.955-3.688-6.408c-1.427-5.538-2.466-11.176-3.111-16.859c0.663,2.646,4.592,2.302,6.98,0.979
	c3.953-2.189,7.339-5.388,9.747-9.21c3.112-4.937,4.645-10.906,8.654-15.149c6.09-6.445,20.035-4.882,26.441,1.25
	c-1.938-1.018-6.956-2.01-8.461-0.422c-1.506,1.588-2.237,3.741-2.879,5.832C81.81,245.493,80.317,251.832,79.247,258.24z"/>
    <g>
	<path fill="#23286B" d="M43.693,251.469c-3.015,0-5.903-0.993-7.924-3.308c-0.202-0.231-0.178-0.582,0.053-0.785
		c0.23-0.202,0.582-0.178,0.785,0.053c3.693,4.235,10.711,3.491,15.36,0.326c3.488-2.374,6.159-5.83,8.742-9.172
		c0.949-1.228,1.933-2.501,2.946-3.706c4.956-5.899,10.094-8.781,15.2-8.653c4.52,0.137,8.71,2.541,12.763,4.868l0.785,0.45
		c0.267,0.152,0.359,0.492,0.207,0.759c-0.152,0.266-0.493,0.359-0.759,0.207l-0.787-0.45c-3.934-2.257-8.001-4.592-12.242-4.72
		c-5.945-0.168-11.067,4.39-14.315,8.256c-0.999,1.189-1.974,2.451-2.917,3.671c-2.636,3.411-5.362,6.938-8.996,9.411
		C50.032,250.418,46.795,251.469,43.693,251.469z"/>
</g>
    <linearGradient id="SVGID_2_" gradientUnits="userSpaceOnUse" x1="642.9507" y1="2574.1851" x2="1026.8557"
                    y2="2574.1851" gradientTransform="matrix(0.2222 0 0 0.2222 -142.56 -192.5444)">
	<stop offset="0" style="stop-color:#428DFC"/>
        <stop offset="1" style="stop-color:#1D72D8"/>
</linearGradient>
    <path fill="url(#SVGID_2_)" d="M0.677,380.518c-0.252-0.774-0.473-1.593-0.327-2.395c0.246-1.351,1.44-2.292,2.55-3.101
	c9.5-6.934,19.512-14.084,31.154-15.758c6.912-0.994,13.958,0.029,20.775,1.541c10.111,2.243,19.984,5.564,29.395,9.89
	c0.461,6.861,0.921,13.724,1.383,20.586c-15.526,9.247-34.698,9.05-52.762,8.529c-4.724-0.136-9.512-0.286-14.042-1.635
	C10.395,395.669,3.399,388.854,0.677,380.518z"/>
    <path fill="#428DFC" d="M210.187,373.139c-5.198-14.016-24.09-28.368-34.447-39.148c-2.397-2.494-4.83-5-7.723-6.896
	c-3.04-1.992-6.49-3.251-9.907-4.492c-5.795-2.105-11.591-4.211-17.386-6.315c-4.909-1.784-9.905-3.584-15.12-3.884
	c-2.675,8.91-1.485,18.666,1.906,27.329c3.391,8.663,8.861,16.359,14.807,23.515c2.105,2.531,4.298,5.029,6.946,6.984
	c3.012,2.223,6.513,3.67,9.974,5.096c11.782,4.852,33.093,12.774,45.434,9.604c2.266-0.581,4.629-1.568,5.816-3.583
	C211.923,378.904,211.173,375.797,210.187,373.139z"/>
    <path fill="#FFBEB6" d="M121.052,246.633c0.95,9.25,3.577,18.325,7.71,26.656c0.364,0.732,0.749,1.55,0.518,2.334
	c-0.194,0.662-0.778,1.121-1.33,1.536c-4.211,3.155-8.42,6.311-12.63,9.466c-2.459,1.843-5.215,4.771-3.853,7.526
	c0.724,1.463,2.371,2.176,3.879,2.801c17.639,7.307,33.735,18.315,46.937,32.105c-5.563,5.422-11.124,10.847-16.688,16.269
	c-8.167-9.677-16.335-19.354-24.503-29.031c-4.632-5.487-9.292-11.004-14.775-15.644c-4.011-3.395-8.949-7.475-8.049-12.653
	c0.742-4.27,5.151-6.722,9.074-8.568c4.797-2.255,9.593-4.511,14.391-6.766c-3.02-6.823-4.198-14.45-3.38-21.866
	C118.55,249.016,119.267,246.831,121.052,246.633z"/>
    <linearGradient id="SVGID_3_" gradientUnits="userSpaceOnUse" x1="1357.2122" y1="2448.7271" x2="1587.2233"
                    y2="2448.7271" gradientTransform="matrix(0.2222 0 0 0.2222 -142.56 -192.5444)">
	<stop offset="0" style="stop-color:#428DFC"/>
        <stop offset="1" style="stop-color:#1D72D8"/>
</linearGradient>
    <path fill="url(#SVGID_3_)" d="M207.893,360.591c1.553,5.957,8.893,22.054,2.966,23.72c-11.863,3.336-22.243-0.742-31.51-5.559
	c-8.714-4.53-21.66-12.03-28.716-18.86c-4.638-4.49-8.101-10.061-10.984-15.836c-1.938-3.883-3.638-7.884-5.085-11.977
	c5.035-4.508,10.095-9.972,15.129-14.482c10.813,0.379,16.954,3.481,26.321,8.895c9.017,5.213,20.167,12.65,25.615,21.526
	C203.306,350.756,207.081,357.485,207.893,360.591z"/>
    <g>
	<path fill="#23286B" d="M93.777,209.183c-0.296,0-0.541-0.233-0.555-0.53c-0.453-9.819-7.972-19.082-17.489-21.546
		c-0.297-0.077-0.476-0.38-0.398-0.677c0.076-0.297,0.381-0.481,0.677-0.398c10.134,2.623,17.84,12.116,18.322,22.57
		c0.014,0.307-0.224,0.567-0.53,0.58C93.796,209.183,93.787,209.183,93.777,209.183z"/>
</g>
    <g>
	<path fill="#23286B" d="M226.835,60.102c-0.071,0-0.14-0.013-0.209-0.04c-0.284-0.116-0.422-0.439-0.307-0.724
		c3.681-9.115,0.707-20.666-6.919-26.871c-0.239-0.193-0.275-0.544-0.08-0.782c0.195-0.24,0.545-0.273,0.782-0.08
		c8.12,6.605,11.168,18.444,7.25,28.149C227.264,59.971,227.055,60.102,226.835,60.102z"/>
</g>
    <g>
	<path fill="#23286B" d="M119.806,210.947c-0.04,0-0.08-0.004-0.121-0.013c-0.3-0.066-0.488-0.364-0.422-0.664
		c2.127-9.582,9.891-17.853,19.322-20.582c0.292-0.085,0.603,0.085,0.688,0.379c0.085,0.296-0.085,0.603-0.38,0.689
		c-9.052,2.619-16.503,10.559-18.543,19.755C120.29,210.772,120.062,210.947,119.806,210.947z"/>
</g>
    <rect x="81.853" y="171.566" transform="matrix(0.6617 0.7498 -0.7498 0.6617 161.568 -5.3129)" fill="#E94A47"
          width="9.637" height="9.637"/>
    <rect x="105.208" y="207.519" transform="matrix(0.6617 0.7498 -0.7498 0.6617 196.4246 -10.661)" fill="#A1C3FC"
          width="9.637" height="9.637"/>
    <rect x="41.896" y="183.829" transform="matrix(0.6617 0.7498 -0.7498 0.6617 155.2837 29.5351)" fill="#23286B"
          width="6.032" height="6.033"/>
    <linearGradient id="SVGID_4_" gradientUnits="userSpaceOnUse" x1="1174.1136" y1="1572.0823" x2="1438.8644"
                    y2="1572.0823" gradientTransform="matrix(0.2222 0 0 0.2222 -142.56 -192.5444)">
	<stop offset="0" style="stop-color:#A1C3FC"/>
        <stop offset="1" style="stop-color:#78A9EF"/>
</linearGradient>
    <path fill="url(#SVGID_4_)" d="M172.387,147.088c-0.172-0.438-0.356-0.87-0.548-1.293l2.3-2.103
	c-0.794-1.605-1.719-3.111-2.757-4.507l-2.85,1.18c-0.791-1.003-1.648-1.938-2.562-2.804l1.345-2.813
	c-1.45-1.287-3.019-2.421-4.679-3.391l-2.165,2.2c-1.111-0.609-2.265-1.137-3.451-1.58l0.139-3.112
	c-1.667-0.563-3.387-0.98-5.138-1.238l-1.182,2.85c-1.252-0.149-2.521-0.208-3.796-0.174l-1.037-2.937
	c-1.901,0.112-3.811,0.412-5.707,0.91l0.024,3.086c-0.759,0.223-1.515,0.478-2.266,0.773c-0.438,0.172-0.87,0.356-1.293,0.548
	l-2.104-2.3c-1.606,0.794-3.111,1.719-4.509,2.756l1.18,2.85c-1.003,0.791-1.938,1.648-2.805,2.562l-2.813-1.344
	c-1.287,1.45-2.421,3.018-3.392,4.678l2.2,2.165c-0.609,1.111-1.137,2.264-1.58,3.45l-3.112-0.139
	c-0.563,1.667-0.981,3.386-1.239,5.137l2.85,1.182c-0.149,1.252-0.208,2.52-0.174,3.795l-2.938,1.037
	c0.112,1.901,0.412,3.81,0.91,5.706l3.086-0.024c0.223,0.759,0.478,1.515,0.773,2.265c0.172,0.438,0.356,0.87,0.548,1.293
	l-2.3,2.103c0.794,1.605,1.719,3.111,2.757,4.507l2.85-1.18c0.791,1.003,1.648,1.938,2.562,2.804l-1.345,2.813
	c1.45,1.287,3.019,2.42,4.679,3.391l2.165-2.2c1.111,0.609,2.265,1.137,3.451,1.58l-0.139,3.112c1.667,0.563,3.387,0.98,5.138,1.238
	l1.182-2.85c1.252,0.149,2.521,0.208,3.796,0.174l1.037,2.937c1.901-0.112,3.811-0.412,5.707-0.91l-0.024-3.086
	c0.759-0.223,1.515-0.478,2.266-0.773c0.438-0.172,0.87-0.356,1.293-0.548l2.104,2.3c1.606-0.794,3.111-1.719,4.508-2.756
	l-1.18-2.85c1.003-0.791,1.938-1.648,2.805-2.562l2.813,1.344c1.287-1.45,2.421-3.018,3.392-4.678l-2.2-2.165
	c0.609-1.11,1.137-2.264,1.58-3.45l3.112,0.139c0.563-1.667,0.981-3.386,1.239-5.137l-2.85-1.182
	c0.149-1.252,0.208-2.52,0.174-3.795l2.938-1.037c-0.112-1.901-0.412-3.81-0.91-5.706l-3.086,0.024
	C172.939,148.594,172.683,147.839,172.387,147.088z"/>
    <linearGradient id="SVGID_5_" gradientUnits="userSpaceOnUse" x1="871.4526" y1="3618.8242" x2="999.2737"
                    y2="3618.8242" gradientTransform="matrix(0.1944 -0.1076 0.1076 0.1944 -423.5557 -446.0405)">
	<stop offset="0.1291" style="stop-color:#428DFC"/>
        <stop offset="0.9987" style="stop-color:#1D72D8"/>
</linearGradient>
    <path fill="url(#SVGID_5_)" d="M157.233,151.516c-1.147-2.071-0.946-4.524,0.311-6.349c-3.304-2.789-7.672-4.044-11.955-3.433
	c0.097,2.215-1.035,4.4-3.106,5.546c-2.071,1.147-4.525,0.946-6.35-0.311c-2.79,3.303-4.045,7.671-3.434,11.952
	c2.215-0.097,4.401,1.035,5.548,3.106c1.147,2.071,0.946,4.524-0.311,6.349c3.304,2.789,7.672,4.044,11.955,3.433
	c-0.097-2.215,1.035-4.4,3.106-5.546c2.071-1.147,4.524-0.946,6.35,0.311c2.79-3.303,4.045-7.671,3.434-11.952
	C160.566,154.72,158.381,153.588,157.233,151.516z M150.698,162.11c-2.949,1.632-6.664,0.566-8.296-2.383
	c-1.632-2.95-0.566-6.663,2.384-8.294c2.949-1.632,6.664-0.566,8.296,2.383C154.714,156.764,153.647,160.479,150.698,162.11z"/>
    <path fill="#D6D7D8" d="M147.503,92.354c-0.14-0.356-0.288-0.706-0.444-1.05l1.867-1.706c-0.644-1.303-1.395-2.524-2.238-3.658
	l-2.313,0.957c-0.642-0.814-1.337-1.573-2.079-2.276l1.091-2.281c-1.176-1.044-2.449-1.965-3.796-2.752l-1.757,1.785
	c-0.902-0.494-1.837-0.922-2.8-1.282l0.112-2.525c-1.354-0.457-2.749-0.795-4.17-1.005l-0.959,2.313
	c-1.017-0.12-2.045-0.169-3.08-0.142l-0.842-2.383c-1.542,0.091-3.093,0.335-4.631,0.739l0.02,2.504
	c-0.616,0.18-1.229,0.388-1.837,0.627c-0.356,0.14-0.707,0.288-1.05,0.444l-1.706-1.866c-1.303,0.644-2.525,1.395-3.659,2.237
	l0.958,2.313c-0.814,0.642-1.573,1.337-2.277,2.079l-2.282-1.09c-1.044,1.176-1.965,2.45-2.753,3.795l1.785,1.756
	c-0.494,0.902-0.922,1.837-1.282,2.799l-2.526-0.112c-0.458,1.353-0.795,2.748-1.005,4.169l2.313,0.958
	c-0.12,1.017-0.169,2.045-0.142,3.08l-2.384,0.841c0.091,1.542,0.335,3.093,0.739,4.63l2.505-0.02
	c0.18,0.616,0.388,1.228,0.627,1.837c0.14,0.356,0.288,0.706,0.444,1.05l-1.867,1.706c0.644,1.303,1.395,2.524,2.238,3.658
	l2.313-0.957c0.642,0.814,1.338,1.573,2.079,2.276l-1.091,2.281c1.176,1.044,2.45,1.965,3.796,2.752l1.757-1.785
	c0.902,0.494,1.837,0.922,2.8,1.282l-0.112,2.525c1.354,0.458,2.749,0.795,4.17,1.005l0.959-2.313
	c1.017,0.12,2.045,0.169,3.08,0.142l0.842,2.383c1.542-0.091,3.093-0.335,4.631-0.739l-0.02-2.504
	c0.616-0.18,1.229-0.388,1.837-0.627c0.356-0.14,0.707-0.288,1.05-0.444l1.706,1.866c1.303-0.644,2.525-1.395,3.659-2.237
	l-0.958-2.313c0.814-0.642,1.573-1.337,2.277-2.079l2.282,1.09c1.044-1.176,1.965-2.45,2.753-3.795l-1.785-1.756
	c0.494-0.902,0.922-1.837,1.282-2.799l2.526,0.112c0.458-1.353,0.795-2.748,1.005-4.169l-2.313-0.958
	c0.12-1.017,0.169-2.045,0.142-3.08l2.384-0.841c-0.091-1.542-0.335-3.093-0.739-4.63l-2.505,0.02
	C147.95,93.575,147.742,92.963,147.503,92.354z"/>
    <rect x="118.188" y="92.121" transform="matrix(0.7072 0.707 -0.707 0.7072 106.3036 -59.3065)" fill="#FFFFFF"
          width="13.128" height="13.128"/>
    <g>
	<polygon fill="#FFFFFF" points="238.602,199.461 226.302,200.273 234.823,205.555 	"/>
        <polygon fill="#FFFFFF" points="248.017,184.279 205.07,187.113 216.747,194.352 242.838,192.629 	"/>
        <polygon fill="#FFFFFF"
                 points="257.432,169.094 191.911,173.421 189.431,177.42 195.517,181.192 252.253,177.446 	"/>
        <polygon fill="#FFFFFF"
                 points="262.964,160.172 254.207,154.746 201.325,158.237 196.149,166.588 261.668,162.261 	"/>
        <polygon fill="#FFFFFF" points="232.976,141.587 210.741,143.054 205.563,151.405 244.653,148.825 	"/>
        <polygon fill="#FFFFFF" points="217.572,132.039 214.977,136.222 223.422,135.665 	"/>
</g>
    <g>
	<path fill="#A1C3FC" d="M253.962,68.305l-19.515,3.632c-0.122,0.645-0.187,1.309-0.187,1.989c0,0.577,0.047,1.144,0.136,1.697
		l20.943-3.899C255.079,70.493,254.607,69.341,253.962,68.305z"/>
        <path fill="#A1C3FC" d="M245.059,63.279l-4.129,0.768c-2.255,0.91-4.125,2.566-5.306,4.664l16.078-2.993
		C249.894,64.22,247.582,63.313,245.059,63.279z"/>
        <path fill="#A1C3FC" d="M251.764,82.081L241.453,84c1.086,0.373,2.249,0.577,3.46,0.577
		C247.523,84.578,249.912,83.638,251.764,82.081z"/>
        <path fill="#A1C3FC" d="M255.537,74.696l-20.262,3.772c0.579,1.225,1.384,2.322,2.363,3.237l16.871-3.14
		C255.081,77.38,255.439,76.074,255.537,74.696z"/>
</g>
    <g>
	<g>
		<rect x="183.273" y="127.604" fill="#1D72D8" width="12.865" height="12.862"/>
	</g>
        <g>
		<path fill="#FFFFFF" d="M167.995,88.883c0-12.654,10.259-22.911,22.916-22.911s22.916,10.257,22.916,22.911"/>
            <path fill="#D62929" d="M217.72,88.883h-7.785c0-10.487-8.535-19.019-19.023-19.019s-19.023,8.531-19.023,19.019h-7.785
			c0-14.78,12.025-26.803,26.808-26.803C205.695,62.08,217.72,74.104,217.72,88.883z"/>
	</g>
        <g>
		<polygon fill="#D62929" points="192.793,120.637 185.008,120.637 185.008,98.256 213.827,98.256 213.827,106.039 192.793,106.039 
					"/>
	</g>
</g>
    <g>
	<polygon fill="#428DFC" points="227.922,175.975 224.786,160.884 268.487,151.808 271,163.901 235.192,171.337 233.301,162.244 
		260.311,156.634 260.763,158.812 235.932,163.968 236.918,168.708 268.369,162.176 266.764,154.438 227.417,162.61 
		229.648,173.345 248.662,169.397 249.113,171.573 	"/>
</g>
    <g>
	<polygon fill="#E94A47" points="191.81,47.076 176.889,43.206 188.096,0.01 200.052,3.111 190.869,38.505 181.877,36.172 
		188.804,9.477 190.956,10.036 184.588,34.579 189.276,35.795 197.342,4.705 189.69,2.721 179.6,41.612 190.215,44.365 
		195.092,25.571 197.245,26.13 	"/>
</g>
</svg>