<?xml version="1.0" encoding="iso-8859-1"?>
<!-- Generator: Adobe Illustrator 22.1.0, SVG Export Plug-In . SVG Version: 6.00 Build 0)  -->
<svg version="1.1" id="Layer_14" xmlns="http://www.w3.org/2000/svg" x="0px" y="0px"
     viewBox="0 0 800 600" style="enable-background:new 0 0 800 600;" xml:space="preserve">
<rect style="fill:#FFFFFF;" width="800" height="600"/>
    <g>
	
		<radialGradient id="SVGID_1_" cx="-5989.8721" cy="683.2218" r="259.6739"
                        gradientTransform="matrix(0.4669 0 0 -0.4685 3355.4954 555.5894)"
                        gradientUnits="userSpaceOnUse">
		<stop offset="0" style="stop-color:#F5F5F5"/>
            <stop offset="1" style="stop-color:#EEEEEE;stop-opacity:0"/>
	</radialGradient>
        <ellipse style="fill:url(#SVGID_1_);" cx="558.824" cy="235.5" rx="154.176" ry="146.085"/>
        <circle style="fill:#FFFFFF;" cx="558.993" cy="235.981" r="41.365"/>
</g>
    <g>
	<g>
		<rect x="630.18" y="217.551" style="fill:#EEEEEE;" width="3.845" height="57.719"/>
        <polygon style="fill:#EEEEEE;" points="630.18,217.551 630.18,262.764 598.434,262.764 		"/>
	</g>
        <g>
		<rect x="505.123" y="207.932" style="fill:#EEEEEE;" width="4.81" height="69.262"/>
            <polygon style="fill:#EEEEEE;" points="505.123,207.889 505.123,260.84 467.605,260.84 		"/>
	</g>
</g>
    <path style="fill:#FFFFFF;" d="M698.74,272.466v146.15H90.5v-145.88c17.16,0,31.32-6.06,33.5-13.9c2.18,7.84,16.34,13.9,33.5,13.9
	c16.16,0,29.66-5.37,33-12.55c3.34,7.18,16.84,12.55,33,12.55c17.16,0,31.32-6.06,33.5-13.9c2.18,7.84,16.34,13.9,33.5,13.9
	s31.32-6.06,33.5-13.9c2.18,7.84,16.34,13.9,33.5,13.9s31.32-6.06,33.5-13.9c2.18,7.84,16.34,13.9,33.5,13.9s31.32-6.06,33.5-13.9
	c2.18,7.84,16.34,13.9,33.5,13.9s31.32-6.06,33.5-13.9c2.18,7.84,16.34,13.9,33.5,13.9s31.32-6.06,33.5-13.9
	c2.18,7.84,16.34,13.9,33.5,13.9s31.32-6.06,33.5-13.9c2.18,7.84,16.34,13.9,33.5,13.9
	C694.63,272.736,696.72,272.646,698.74,272.466z"/>
    <linearGradient id="SVGID_2_" gradientUnits="userSpaceOnUse" x1="394.62" y1="181.384" x2="394.62" y2="341.164"
                    gradientTransform="matrix(1 0 0 -1 0 600)">
	<stop offset="0" style="stop-color:#FFFFFF;stop-opacity:0"/>
        <stop offset="1" style="stop-color:#F5F5F5"/>
</linearGradient>
    <path style="fill:url(#SVGID_2_);" d="M698.74,272.466v146.15H90.5v-145.88c17.16,0,31.32-6.06,33.5-13.9
	c2.18,7.84,16.34,13.9,33.5,13.9c16.16,0,29.66-5.37,33-12.55c3.34,7.18,16.84,12.55,33,12.55c17.16,0,31.32-6.06,33.5-13.9
	c2.18,7.84,16.34,13.9,33.5,13.9s31.32-6.06,33.5-13.9c2.18,7.84,16.34,13.9,33.5,13.9s31.32-6.06,33.5-13.9
	c2.18,7.84,16.34,13.9,33.5,13.9s31.32-6.06,33.5-13.9c2.18,7.84,16.34,13.9,33.5,13.9s31.32-6.06,33.5-13.9
	c2.18,7.84,16.34,13.9,33.5,13.9s31.32-6.06,33.5-13.9c2.18,7.84,16.34,13.9,33.5,13.9s31.32-6.06,33.5-13.9
	c2.18,7.84,16.34,13.9,33.5,13.9C694.63,272.736,696.72,272.646,698.74,272.466z"/>
    <linearGradient id="SVGID_3_" gradientUnits="userSpaceOnUse" x1="394.62" y1="141.384" x2="394.62" y2="301.164"
                    gradientTransform="matrix(1 0 0 -1 0 600)">
	<stop offset="0" style="stop-color:#FFFFFF;stop-opacity:0"/>
        <stop offset="0.6802" style="stop-color:#F5F5F5;stop-opacity:0.6802"/>
        <stop offset="1" style="stop-color:#EEEEEE"/>
</linearGradient>
    <path style="fill:url(#SVGID_3_);" d="M698.74,312.466v146.15H90.5v-145.88c17.16,0,31.32-6.06,33.5-13.9
	c2.18,7.84,16.34,13.9,33.5,13.9c16.16,0,29.66-5.37,33-12.55c3.34,7.18,16.84,12.55,33,12.55c17.16,0,31.32-6.06,33.5-13.9
	c2.18,7.84,16.34,13.9,33.5,13.9s31.32-6.06,33.5-13.9c2.18,7.84,16.34,13.9,33.5,13.9s31.32-6.06,33.5-13.9
	c2.18,7.84,16.34,13.9,33.5,13.9s31.32-6.06,33.5-13.9c2.18,7.84,16.34,13.9,33.5,13.9s31.32-6.06,33.5-13.9
	c2.18,7.84,16.34,13.9,33.5,13.9s31.32-6.06,33.5-13.9c2.18,7.84,16.34,13.9,33.5,13.9s31.32-6.06,33.5-13.9
	c2.18,7.84,16.34,13.9,33.5,13.9C694.63,312.736,696.72,312.646,698.74,312.466z"/>
    <linearGradient id="SVGID_4_" gradientUnits="userSpaceOnUse" x1="394.62" y1="101.384" x2="394.62" y2="261.164"
                    gradientTransform="matrix(1 0 0 -1 0 600)">
	<stop offset="0" style="stop-color:#FFFFFF;stop-opacity:0"/>
        <stop offset="0.4295" style="stop-color:#F5F5F5;stop-opacity:0.4295"/>
        <stop offset="1" style="stop-color:#E0E0E0"/>
</linearGradient>
    <path style="fill:url(#SVGID_4_);" d="M698.74,352.466v146.15H90.5v-145.88c17.16,0,31.32-6.06,33.5-13.9
	c2.18,7.84,16.34,13.9,33.5,13.9c16.16,0,29.66-5.37,33-12.55c3.34,7.18,16.84,12.55,33,12.55c17.16,0,31.32-6.06,33.5-13.9
	c2.18,7.84,16.34,13.9,33.5,13.9s31.32-6.06,33.5-13.9c2.18,7.84,16.34,13.9,33.5,13.9s31.32-6.06,33.5-13.9
	c2.18,7.84,16.34,13.9,33.5,13.9s31.32-6.06,33.5-13.9c2.18,7.84,16.34,13.9,33.5,13.9s31.32-6.06,33.5-13.9
	c2.18,7.84,16.34,13.9,33.5,13.9s31.32-6.06,33.5-13.9c2.18,7.84,16.34,13.9,33.5,13.9s31.32-6.06,33.5-13.9
	c2.18,7.84,16.34,13.9,33.5,13.9C694.63,352.736,696.72,352.646,698.74,352.466z"/>
    <radialGradient id="SVGID_5_" cx="389.9207" cy="402.4046" r="327.8811"
                    gradientTransform="matrix(1 -0.0029 -0.0037 -1.2761 0.6856 653.578)" gradientUnits="userSpaceOnUse">
	<stop offset="0.0894" style="stop-color:#FFFFFF;stop-opacity:0"/>
        <stop offset="0.8713" style="stop-color:#FFFFFF;stop-opacity:0.8587"/>
        <stop offset="1" style="stop-color:#FFFFFF"/>
</radialGradient>
    <path style="fill:url(#SVGID_5_);" d="M692.5,272.736c-17.16,0-31.32-6.06-33.5-13.9c-2.18,7.84-16.34,13.9-33.5,13.9
	s-31.32-6.06-33.5-13.9c-2.18,7.84-16.34,13.9-33.5,13.9s-31.32-6.06-33.5-13.9c-2.18,7.84-16.34,13.9-33.5,13.9
	s-31.32-6.06-33.5-13.9c-2.18,7.84-16.34,13.9-33.5,13.9s-31.32-6.06-33.5-13.9c-2.18,7.84-16.34,13.9-33.5,13.9
	s-31.32-6.06-33.5-13.9c-2.18,7.84-16.34,13.9-33.5,13.9s-31.32-6.06-33.5-13.9c-2.18,7.84-16.34,13.9-33.5,13.9
	c-16.16,0-29.66-5.37-33-12.55c-3.34,7.18-16.84,12.55-33,12.55c-17.16,0-31.32-6.06-33.5-13.9c-2.18,7.84-106.34,13.9-123.5,13.9
	v40v40v65.88v40v40h798.24v-40v-40v-66.15v-40v-40C796.72,272.646,694.63,272.736,692.5,272.736z"/>
    <g>
	<path style="fill:#F5F5F5;" d="M173.256,175c0,0-5.983-47.721,39.889-42.645c0,0,6.981-37.568,51.855-30.461
		c0,0-37.894,6.092-39.889,33.507c0,0-5.983,12.184-17.95,19.292l1.994-12.184C209.156,142.509,183.228,142.509,173.256,175z"/>
        <path style="fill:#F5F5F5;" d="M653,105.114c0,0,25.44-3.052,24.456,22.382c0,0,19.673,1.017,14.755,29.504
		c0,0-5.342-22.249-18.689-23.399c0,0-4.96-2.254-8.853-9.156l5.902,1.017C670.571,125.462,670.797,110.866,653,105.114z"/>
</g>
    <g>
	<polygon style="fill:#A1887F;" points="349,375 338,476 323,488 323,488 308,492 308,492 289,499 266,501 234,502 234,502 137,502 
		137,454 240.52,441.66 240.53,441.66 268.48,422.43 294.85,421.83 313,404 332,408 	"/>
        <polygon style="fill:#D7CCC8;" points="166,382 192,379 211,373 285,363 311,373 349,375 332,408 313,404 295,422 268,423 241,442
		137,454 	"/>
        <polygon style="fill:#A1887F;" points="349,375 338,476 323,488 332,408 	"/>
        <polygon style="fill:#8D6E63;" points="332,408 323,488 308,492 313,404 	"/>
        <polygon style="fill:#8D6E63;" points="234,502 137,502 137,454 241,442 	"/>
        <polygon style="fill:#A1887F;" points="313,404 308,492 289,499 295,422 	"/>
        <polygon style="fill:#8D6E63;" points="295,422 289,499 266,501 268,423 	"/>
        <polygon style="fill:#A1887F;" points="268,423 266,501 234,502 241,442 	"/>
</g>
    <g>
	<g>
		<path style="fill:#616161;" d="M326.65,174.686c-0.003,0-0.006,0.005-0.01,0.005v-0.004l-9.071,0.628l0.807,11.662l9.071-0.628
			v-0.004c0.003,0,0.007,0.004,0.01,0.004c0.71-0.049,1.105-2.7,0.882-5.92C328.116,177.208,327.36,174.637,326.65,174.686z"/>

        <ellipse transform="matrix(0.9976 -0.0691 0.0691 0.9976 -11.7566 22.4052)" style="fill:#424242;" cx="317.974"
                 cy="181.136" rx="1.299" ry="5.845"/>
        <path style="fill:#616161;" d="M318.601,181.102c-0.159-2.297-0.526-4.159-0.854-4.437c-0.054-0.056-0.088-0.055-0.088-0.055
			l-22.344,1.547l0.628,9.071l22.344-1.547c0,0,0.033-0.005,0.079-0.067C318.652,185.296,318.76,183.4,318.601,181.102z"/>

        <ellipse transform="matrix(0.9976 -0.0691 0.0691 0.9976 -11.9169 20.8648)" style="fill:#424242;" cx="295.629"
                 cy="182.684" rx="0.932" ry="4.546"/>
        <path style="fill:#616161;" d="M295.242,179.464l-19.108,1.323l0.449,6.479l19.108-1.323c0.324-0.022,0.486-1.491,0.362-3.28
			C295.929,180.874,295.566,179.442,295.242,179.464z"/>
	</g>

        <linearGradient id="SVGID_6_" gradientUnits="userSpaceOnUse" x1="242.7358" y1="157.6734" x2="242.7358"
                        y2="201.844" gradientTransform="matrix(1 0 0 -1 0 600)">
		<stop offset="0" style="stop-color:#FFFFFF;stop-opacity:0"/>
            <stop offset="0.1417" style="stop-color:#E6E2E0;stop-opacity:0.1511"/>
            <stop offset="0.9379" style="stop-color:#5D4037"/>
            <stop offset="0.9428" style="stop-color:#553A32"/>
            <stop offset="0.9545" style="stop-color:#482F29"/>
            <stop offset="0.9696" style="stop-color:#402924"/>
            <stop offset="1" style="stop-color:#3E2723"/>
	</linearGradient>
        <path style="opacity:0.2;fill:url(#SVGID_6_);enable-background:new    ;" d="M292.511,401.659c0,0-59.119,37.721-83.011,40.497
		c-3.459,0.402-15.749,0.346-16.5-3.055c-0.725-3.284,8.742-6.861,12-7.695c20.5-5.25,62.5-33.25,62.5-33.25L292.511,401.659z"/>

        <linearGradient id="SVGID_7_" gradientUnits="userSpaceOnUse" x1="206.9258" y1="171.8384" x2="206.9258"
                        y2="209.866" gradientTransform="matrix(1 0 0 -1 0 600)">
		<stop offset="0" style="stop-color:#FFFFFF;stop-opacity:0"/>
            <stop offset="0.2276" style="stop-color:#D2CDCC;stop-opacity:0.2276"/>
            <stop offset="1" style="stop-color:#3E2723"/>
	</linearGradient>
        <path style="opacity:0.2;fill:url(#SVGID_7_);enable-background:new    ;" d="M249.169,392.335c0,0-90.502,40.614-84.169,35.357
		c13.748-11.412,60.4-37.558,60.4-37.558L249.169,392.335z"/>
        <path style="fill:#FFCCBC;" d="M275.289,196.255c-0.766,1.76-2.71,3.561-7.226,6.233c0,0-1.807,0.89-0.903,5.343h-16.258
		c0,0,2.575-1.523,4.226-5.338c0.932-2.152,0.529-4.624-0.898-6.494c-1.841-2.412-4.231-6.45-4.231-15.773
		c0-10.685,7.854-14.216,14.342-14.226c9.298-0.015,13.658,6.212,13.658,17.788C277.999,187.945,277.469,191.254,275.289,196.255z"
        />
        <path style="fill:#6D4C41;" d="M253.5,196.436c-1.646-2.536-3.5-5.869-3.5-15.279c0-10.785,6.125-16.131,15.644-16.156
		c7.981-0.021,11.339,5.607,12.214,11c0,0-1.664-0.321-2.89,0.938c-1.75,1.798-0.401,4.098-0.538,6.122
		c-0.12,1.775-1.024,2.501-1.712,2.878c-1.438-5.719-4.649-5.383-5.812-4.188c-1.75,1.798-0.694,6.863,1.093,8.222
		c0,3.595-0.569,6.569-3.194,8.367C260.111,201.553,255.25,199.132,253.5,196.436z"/>
        <path style="fill:#FFCCBC;" d="M302.824,206.088c-9.528-12.519-11.892-23.921-12.306-26.317c-0.046-0.267-0.253-0.476-0.522-0.53
		l0,0c-5.936-0.853-9.346,0.826-9.346,0.826c-0.989,0.558-1.061,2.172-0.954,3.29c0.322,3.369-0.695,3.642-0.695,3.642
		c0,1.492,1.408,2.08,2.618,2.975l2.524,1.209c0,0,3.558,3.506,10.675,18.408C295.876,211.812,304.316,208.049,302.824,206.088z"/>
        <path style="fill:#78909C;" d="M234.279,213.782L234,264l-3.066-4.766C229.658,256.69,229,253.843,229,251v-22
		c0-3.689,0.807-7.136,2.33-10.402C232.122,216.89,233.108,215.279,234.279,213.782z"/>
        <path style="fill:#607D8B;" d="M267,391v6.877c0,0,0,4.123,4,4.123c7.923,0,21,0,21,0s1.046-5.35-5.901-6.543
		C276,394,276,391,276,391H267z"/>
        <path style="fill:#607D8B;" d="M248.92,392.181l-21.128,2.641c-1.459,0-2.641-1.182-2.641-2.641l0.88-5.282l8.803-1.761l0,0
		c1.058,2.116,5.083,3.348,7.434,3.087l0.169-0.015C245.239,387.955,247.875,389.57,248.92,392.181L248.92,392.181z"/>
        <polygon style="fill:#FFCCBC;" points="226.031,386.899 234.834,385.138 236,378 227,378 	"/>
        <path style="fill:#01579B;" d="M235.103,278.165c0,0-3.714,32.027-2.603,53.561C228.377,345.705,225,379,225,379h12
		c0,0,14.119-46.471,18.917-65.664c1.761-7.043,1.725-32.918,1.725-32.918L235.103,278.165z"/>
        <polygon style="fill:#FFCCBC;" points="266,380.692 267,391 276,391 276,379.692 	"/>
        <path style="fill:#1A68A5;" d="M280.059,281.998l-1.596,98.416l-11.612,0.829l-3.52,0.251c0,0-3.336-21.637-5.688-44.553
		c-6.142-17.75-8.851-40.223-11.918-62L280.059,281.998z"/>
        <polygon style="fill:#90CAF9;" points="280.059,237.601 280.059,281.998 255.625,279.692 	"/>
        <path style="fill:#90A4AE;" d="M280.937,231.567l22.355-2.692c6.321-0.79,9.734-7.831,6.441-13.288L302.587,204l-9.325,4.665
		l1.748,3.155c0.464,0.788-0.432,1.675-1.215,1.201l-6.966-4.222c-3.895-1.834-8.094-2.938-12.387-3.257l-18.518-1.375
		c-8.493-0.653-16.425,2.473-21.646,9.573c-0.128,0.174-1.76,28.873-1.76,47.061c0,7.35-1.659,10.448-5.621,13.4
		C224.14,276.254,223,277,223,277s1.312,3.43,7.5,8.812c3.874,3.37,13.777,4.127,21.875,4.127S268,294,268,294
		s9.801-25.744,11.369-38.595S280.937,231.567,280.937,231.567z"/>
        <path style="fill:#78909C;" d="M226.896,274.211C224.14,276.264,223,277,223,277s1.312,3.438,7.5,8.817
		c3.874,3.368,13.777,4.125,21.875,4.125S268,294,268,294s0.937-2.008,2.136-5.428C259,278.858,237.333,289.692,226.896,274.211z"/>
        <polygon style="fill:#78909C;" points="293.262,208.71 302.587,204.048 305.356,208.925 295.01,211.863 	"/>
</g>
</svg>
