<?xml version="1.0" encoding="utf-8"?>
<!-- Generator: Adobe Illustrator 23.0.2, SVG Export Plug-In . SVG Version: 6.00 Build 0)  -->
<svg version="1.1" xmlns="http://www.w3.org/2000/svg" xmlns:xlink="http://www.w3.org/1999/xlink" x="0px" y="0px" viewBox="0 0 569.9 600" style="enable-background:new 0 0 569.9 600;" xml:space="preserve">

<g id="Layer_2">
</g>
<g id="Layer_4">
	<path d="M32.2,471.2c0,0,43,53.2,88.9,60.6c45.8,7.3,44.1-29.8,100.1,9.5c63.4,44.4,145.5,15.3,186.2,1.8
		c43-14.4,77.4-43.4,109.6-91.7c32.2-48.3-3.2-60.2-18.9-48.3s-22.4,12.2-41.6-3.5s-37.8,4.5-58.1,31.1s-32.9,75.2-68.2,28
		c-33.6-44.8-60.4-26.6-67.9-2.8c-10.5,33.2-5.6,84-5.6,84l-148.8-60.6l-10.2-3.5c0,0-7.7-3.7-17.5-20.6
		c-10.5-18.2-19.2,4.6-26.2,11.2C46.9,473,32.2,471.2,32.2,471.2z" style="fill:#FFE1E1;"/>
	<path d="M327.6,253.2c-1.3,0-2.6,0.1-3.8,0.3c1.2-3.2,1.2-6.7-0.3-9.5c-2.9-5.7-10.5-6.8-17.1-2.5
		c-2.2,1.4-3.9,3.3-5.2,5.3c0.2-0.6,0.4-1.2,0.6-1.9c3.5-11.5,0.1-23.2-7.6-26.3c-7.7-3-16.7,3.8-20.2,15.3
		c-0.9,2.8-1.3,5.7-1.4,8.5c-3.8-2.8-9-5-14.9-5.9c-12.8-2-24,2.8-24.9,10.7c-0.9,7.9,8.7,15.9,21.6,17.9c5.4,0.8,10.5,0.5,14.7-0.8
		c-0.1,0.6-0.1,1.3-0.1,1.9c0,10.7,10.7,19.3,23.8,19.3c10.1,0,18.7-5.1,22.2-12.3c3.1,2.5,7.7,4.1,12.7,4.1c9.4,0,17-5.4,17-12.1
		C344.6,258.6,337,253.2,327.6,253.2z" style="fill:#FF9B19;"/>
	<g>
		<path d="M445,184.7l3-51.6l-41.6-9.4l-10.2,47.9l-214.8-58l-63,48.3l267.6,59l-68.8,332.3l13.3-1l9.5-49.3h74.2
			l-1.5,19.9l12.2,1l17.2-290.5l88.9,19.6l2.8-44.1L445,184.7z M420.2,417.5l-62.5-1.3l67.1-63.5L420.2,417.5z M415.2,487.5
			l-57.8-69l62.6,1.3L415.2,487.5z M370.9,344.4l54.1,4.9l0,0l-67.6,64L370.9,344.4z M382.1,286.9l42.6,60.1l-53.4-4.9L382.1,286.9z
			 M425.4,344l-41.6-58.7l45.4,6.3L425.4,344z M383.8,283l49.5-49.9l-4,56.1L383.8,283z M237.4,179.4l57.1-27.1l-8.1,38.2
			L237.4,179.4z M291.7,151.1l-57.9,27.5l-0.2,0l8.8-40.6L291.7,151.1z M341.6,202.9l-41.4-49.6l48.9,13l-7.3,36.6L341.6,202.9z
			 M231.5,178.1l-0.1,0l-44.6-54.9l53.5,14.2L231.5,178.1z M184.1,123.5l43.7,53.7l-50.9-11.5L184.1,123.5z M296.8,152.8l41.2,49.3
			L288.7,191L296.8,152.8z M343.9,203.4l7.3-36.5l42.1,11.2L343.9,203.4L343.9,203.4z M402.6,182.3L431,223l-34.9-7.9L402.6,182.3z
			 M404.5,181.1l31.9,8.5l-2.4,33.7L404.5,181.1z M405.5,174.1l34.3-33.3l-3,41.8L405.5,174.1z M487.9,205.2l34.5,38.5l-36-8.1
			L487.9,205.2z M484.1,235l-39.1-8.8l40.6-22.1L484.1,235z M484.1,202.3l-41.5,22.6l2-33.2L484.1,202.3z M412.3,133.1l26.3,5.7
			l-34,33L412.3,133.1z M181.8,123.5l-7.2,41.8l-37.1-8.4L181.8,123.5z M347.5,204.2l46.9-24.1l-6.9,33.1L347.5,204.2z M394.7,222.8
			l37.5,8.3l-48.7,49L394.7,222.8z M342.4,490.5l13.7-70l58.6,70H342.4z M524.5,242.5l-34.8-38.8l37.2,9.9L524.5,242.5z" style="fill:#2568EF;"/>
		<g>
			<path d="M149.6,201.9c0-8-5.9-14.5-13.5-15.6v-24.7c0-1.2-1-2.3-2.3-2.3s-2.3,1-2.3,2.3v24.7
				c-7.7,1.1-13.5,7.7-13.5,15.6c0,8,5.9,14.5,13.5,15.6v25.6c0,1.2,1,2.3,2.3,2.3s2.3-1,2.3-2.3v-25.6
				C143.7,216.5,149.6,209.9,149.6,201.9z" style="fill:#324A58;"/>
			<path d="M109.8,230.3l43.7-2.9l-9.7,31.9h-35.1l-2.7-24.4C105.6,232.6,107.4,230.5,109.8,230.3z" style="fill:#324A58;"/>
			<path d="M108.6,264.2h38l11.3-37.4l0,0c1.8,0,3.9,0.8,4,2.6l1.3,40.1c0.1,2.6-2,4.7-4.5,4.7h-45.7
				c-1.8,0-3.3-1.3-3.6-3.1L108.6,264.2z" style="fill:#324A58;"/>
		</g>
		<path d="M411.4,542c4.4-1.6,8.6-3.3,12.8-5.2l8.3-140c-3.8,1.8-7.5,4.5-11.4,8l-6.1,86.1h-72.6l3.1-16
			c-3.2-2.1-6.6-5.2-10.2-9.4l-20.6,99.5c4.5-0.3,9.1-0.7,13.5-1.3l11.8-60.5h74.2L411.4,542z" style="fill:#FF564F;"/>
		<g>
			<path d="M408.9,417.4c-0.6,0.7-1.2,1.5-1.9,2.2l17.1,0.3c0,0,0,0,0,0c0.6,0,1.1-0.5,1.1-1.1c0-0.6-0.5-1.1-1.1-1.2
				L408.9,417.4z" style="fill:#FF564F;"/>
			<path d="M416.2,491.7c0.3,0,0.5-0.1,0.7-0.3c0.5-0.4,0.5-1.1,0.1-1.6l-32.1-38.3c-0.4,0.7-0.8,1.4-1.2,2.1l31.6,37.7
				C415.5,491.6,415.9,491.7,416.2,491.7z" style="fill:#FF564F;"/>
		</g>
	</g>
	<g>
		<g>
			<path d="M443.2,136.9c-0.1,0-0.2,0-0.3,0c-0.6-0.1-1-0.7-0.9-1.3l10-47.2l-14.7,30.2c-0.2,0.5-0.8,0.7-1.3,0.6
				c-0.5-0.1-0.9-0.6-0.9-1.1l-0.4-41.7l-10.1,39.1c-0.1,0.5-0.6,0.9-1.1,0.9c-0.5,0-1-0.4-1.1-0.9l-6.3-33.6l-3.4,46.3
				c0,0.6-0.6,1.1-1.2,1.1c-0.6,0-1.1-0.6-1.1-1.2l4-55.1c0-0.6,0.5-1,1.1-1.1c0.6,0,1.1,0.4,1.2,0.9l7,37.2l11-42.6
				c0.1-0.6,0.7-0.9,1.2-0.8c0.6,0.1,1,0.5,1,1.1l0.4,45.6L454.1,79c0.3-0.5,0.8-0.8,1.4-0.6c0.5,0.2,0.9,0.8,0.7,1.3l-12,56.3
				C444.1,136.6,443.7,136.9,443.2,136.9z" style="fill:#2568EF;"/>
		</g>
		<g>
			<path d="M415.7,65c-0.9,0-1.7-0.1-2.5-0.5c-3.2-1.3-4.7-5-3.4-8.2c1.3-3.2,5-4.8,8.2-3.4c3.2,1.3,4.7,5,3.4,8.2l0,0
				c-0.6,1.6-1.8,2.8-3.4,3.4C417.3,64.9,416.5,65,415.7,65z M415.6,54.7c-1.5,0-3,1-3.6,2.5c-0.8,2.1,0.1,4.4,2.1,5.2
				c1,0.4,2.1,0.4,3.1,0c1-0.4,1.8-1.2,2.2-2.2c0,0,0,0,0,0c0.8-2.1-0.1-4.4-2.1-5.2C416.6,54.8,416.1,54.7,415.6,54.7z" style="fill:#2568EF;"/>
		</g>
		<g>
			<path d="M438.4,61.3c-0.9,0-1.8-0.1-2.7-0.5c-1.7-0.7-3-2-3.7-3.7c-0.7-1.7-0.7-3.5,0-5.2c0.7-1.7,2-3,3.7-3.7
				c1.7-0.7,3.5-0.7,5.2,0c1.7,0.7,3,2,3.7,3.7c0.7,1.7,0.7,3.5,0,5.2c-0.7,1.7-2,3-3.7,3.7C440,61.1,439.2,61.3,438.4,61.3z
				 M438.2,49.9c-0.6,0-1.1,0.1-1.6,0.4c-1.1,0.5-2,1.3-2.4,2.5c-0.5,1.1-0.5,2.4,0,3.5c0.5,1.1,1.3,2,2.4,2.4
				c1.1,0.5,2.3,0.5,3.4,0c1.1-0.5,2-1.3,2.4-2.5l0,0c0.5-1.1,0.5-2.4,0-3.5c-0.5-1.1-1.3-2-2.4-2.4C439.4,50,438.8,49.9,438.2,49.9
				z" style="fill:#2568EF;"/>
		</g>
		<g>
			<path d="M458.5,72.1c-0.8,0-1.7-0.1-2.5-0.5c-1.5-0.6-2.7-1.8-3.3-3.4c-0.6-1.5-0.6-3.2,0-4.8
				c1.3-3.2,4.9-4.7,8.1-3.4c3.1,1.3,4.6,4.9,3.3,8.1c-0.6,1.5-1.8,2.7-3.3,3.4C460,71.9,459.3,72.1,458.5,72.1z M458.3,61.9
				c-1.5,0-2.9,1-3.6,2.5c-0.4,1-0.4,2,0,3c0.4,1,1.1,1.7,2.1,2.1c1,0.4,2,0.4,3,0c1-0.4,1.7-1.2,2.1-2.1c0.8-2-0.1-4.3-2.1-5.1
				C459.4,62,458.9,61.9,458.3,61.9z" style="fill:#2568EF;"/>
		</g>
	</g>
	<path d="M279.4,64.1c-4.2-0.6-8.2,0.2-11.4,2.2c-0.1-0.8-0.3-1.6-0.5-2.5c-2.3-9.5-9.3-15.9-15.7-14.4
		c-6.3,1.6-9.5,10.5-7.2,20c1.2,4.8,3.6,8.9,6.5,11.5c-2,0-4.1,0.3-6.2,1c-7.5,2.5-12.2,8.9-10.4,14.2c1.8,5.3,9.4,7.6,16.9,5
		c0.7-0.2,1.3-0.5,1.9-0.7c2.3,3.3,5.5,5.1,8.8,4.7c4.7-0.6,8-5.8,8.3-12.2c1.3,0.6,2.7,1,4.2,1.2c8.9,1.4,17.1-4.2,18.4-12.5
		C294.5,73.4,288.3,65.5,279.4,64.1z" style="fill:#FF9B19;"/>
	<path d="M520.1,103.9c-4.2-3-11-0.7-15,5.1c-0.7,1-1.3,2.1-1.7,3.1c-0.1-0.3-0.1-0.6-0.2-1c-1.8-6.6-6.2-11.2-9.9-10.2
		c-3.7,1-5.2,7.2-3.4,13.8c0.5,2,1.3,3.8,2.2,5.3c-4.9,2-8.3,5.8-8.3,10.1c0,6.5,7.4,11.7,16.6,11.7s16.6-5.2,16.6-11.7
		c0-2-0.7-3.9-1.9-5.5c2-1.1,3.9-2.8,5.4-4.9C524.5,113.9,524.4,106.8,520.1,103.9z" style="fill:#FF9B19;"/>
	<path d="M542,310.6c-2.3-6.1-12.3-7.9-22.3-4.1c-1.8,0.7-3.4,1.5-4.9,2.4c0.1-2.9-0.2-6-1-9.1
		c-2.9-11.9-11.2-20.2-18.5-18.4c-7.3,1.8-10.9,12.9-8.1,24.8c1.1,4.6,3,8.6,5.3,11.7c-1.4,0.3-2.9,0.7-4.3,1.2
		c-9.7,3.3-16.4,9.6-14.9,14.1c1.5,4.5,10.6,5.5,20.4,2.2c2.1-0.7,4-1.5,5.8-2.5c1.3,5.7,5.8,9.8,11.2,9.8c6.2,0,11.2-5.6,11.5-12.6
		c1.9-0.3,3.9-0.9,5.9-1.6C538.1,324.7,544.3,316.7,542,310.6z" style="fill:#FF9B19;"/>
	<path d="M111.6,53.6c0.9-0.6,1.8-1,2.7-1.5c0.9-0.4,1.9-0.8,2.9-1.1c2-0.6,4.1-1,6.3-0.9c1.1,0,2.2,0.2,3.2,0.4
		c0.5,0.2,1.1,0.3,1.6,0.5l0.8,0.3c0.3,0.1,0.5,0.2,0.7,0.4c2,1.1,3.6,2.7,4.9,4.5c1.3,1.8,2.2,3.8,3,5.8l0.5,1.5
		c0.1,0.3,0.2,0.5,0.2,0.8l0.2,0.8l0.4,1.5c0.1,0.5,0.2,1,0.3,1.6c0.8,4.2,1,8.3,1.1,12.5l-4.6-0.8c0.1-0.5,0.3-1,0.4-1.4
		c0.1-0.5,0.3-0.9,0.4-1.4c0.3-0.9,0.6-1.8,1-2.7c0.7-1.8,1.4-3.6,2.3-5.3c1.8-3.4,4.1-6.7,7.3-9.4c0.8-0.7,1.6-1.3,2.6-1.8
		c0.9-0.5,1.9-1,2.9-1.4c2-0.8,4.3-1,6.4-0.7c1.1,0.2,2.1,0.4,3,0.8c1,0.4,1.8,0.9,2.7,1.4c0.8,0.6,1.6,1.2,2.3,1.8
		c0.4,0.3,0.7,0.7,1,1c0.3,0.4,0.6,0.7,0.9,1.1c0.1,0.1,0.1,0.3,0,0.4c-0.1,0.1-0.2,0.1-0.3,0l0,0c-1.7-0.9-3.3-1.6-4.9-2.1
		c-0.8-0.3-1.6-0.4-2.5-0.5c-0.8-0.1-1.6-0.1-2.4-0.1c-3.1,0.2-5.7,1.8-8,4.1c-2.2,2.3-4.2,5.1-6,8.1c-0.9,1.5-1.8,3-2.6,4.6
		c-0.4,0.8-0.8,1.6-1.1,2.4c-0.2,0.4-0.4,0.8-0.5,1.2c-0.2,0.4-0.3,0.8-0.5,1.2l-0.1,0.2c-0.5,1.2-1.8,1.8-3,1.4
		c-1-0.4-1.6-1.3-1.5-2.3c0.2-4,0.2-7.9-0.3-11.8c-0.1-0.5-0.1-1-0.2-1.5l-0.2-1.4l-0.1-0.7c0-0.2-0.1-0.5-0.2-0.7l-0.3-1.4
		c-0.5-1.8-1.2-3.6-2.2-5.2c-1-1.6-2.2-3-3.7-4c-0.2-0.1-0.4-0.3-0.6-0.4l-0.6-0.3c-0.4-0.2-0.8-0.4-1.3-0.6
		c-0.9-0.3-1.8-0.5-2.8-0.6c-0.2,0-0.5-0.1-0.7-0.1l-0.7,0c-0.5,0-1,0-1.5,0c-1,0.1-2,0.2-2.9,0.4c-1,0.2-1.9,0.4-2.9,0.8
		c-0.9,0.3-1.9,0.7-2.8,1.1l0,0c-0.1,0.1-0.3,0-0.4-0.1C111.5,53.8,111.5,53.7,111.6,53.6z" style="fill:#324A58;"/>
	<path d="M323.9,109.6c0.8-1.6,1.7-3.2,2.8-4.7c1.1-1.5,2.2-2.9,3.6-4.1c1.4-1.2,2.9-2.2,4.7-2.8c1.8-0.6,3.8-0.6,5.7,0
		c1.8,0.6,3.5,1.6,4.9,2.9c0.7,0.6,1.4,1.3,2,2c0.3,0.4,0.6,0.7,0.9,1.1l0.4,0.6l0.4,0.6c2.2,3,3.8,6.3,5.4,9.7l-3.8,0.7
		c0-0.5,0-0.8,0-1.2l0.1-1.2c0.1-0.8,0.1-1.6,0.2-2.4c0.2-1.6,0.4-3.1,0.8-4.7c0.4-1.6,0.9-3.1,1.6-4.6c0.7-1.5,1.6-2.9,2.8-4.2
		c1.2-1.3,2.6-2.4,4.3-3c0.8-0.3,1.7-0.5,2.5-0.5c0.9,0,1.7,0,2.5,0.2c0.8,0.2,1.5,0.4,2.3,0.7c0.4,0.2,0.7,0.3,1,0.5l0.5,0.3
		l0.5,0.3c0.6,0.4,1.2,0.9,1.8,1.3c0.3,0.2,0.6,0.5,0.8,0.7c0.3,0.3,0.5,0.5,0.8,0.8c0.1,0.1,0.1,0.3,0,0.4
		c-0.1,0.1-0.2,0.1-0.2,0.1l0,0c-0.3-0.1-0.7-0.3-1-0.4l-1-0.4c-0.7-0.2-1.3-0.4-2-0.6c-0.7-0.2-1.3-0.3-2-0.4
		c-0.6-0.1-1.3-0.1-1.9-0.1c-1.2,0-2.3,0.3-3.3,0.9c-1,0.5-1.8,1.3-2.5,2.3c-0.7,1-1.3,2.1-1.8,3.3c-0.5,1.2-1,2.5-1.4,3.8
		c-0.4,1.3-0.8,2.7-1.1,4.1c-0.1,0.7-0.3,1.4-0.4,2.1c-0.1,0.4-0.1,0.7-0.2,1.1c0,0.3-0.1,0.7-0.1,1l0,0.2c-0.1,1.1-1.1,2-2.2,1.8
		c-0.7-0.1-1.3-0.6-1.6-1.3c-1.2-3.3-2.6-6.5-4.4-9.4c-0.9-1.4-1.9-2.8-3-4c-1.1-1.2-2.4-2.1-3.8-2.7c-1.4-0.6-2.9-0.7-4.4-0.4
		c-1.5,0.3-3,1.1-4.3,2.1c-1.3,1-2.6,2.2-3.7,3.5c-1.1,1.3-2.2,2.7-3.1,4.2l0,0c-0.1,0.1-0.2,0.1-0.3,0.1
		C323.9,109.8,323.9,109.7,323.9,109.6z" style="fill:#324A58;"/>
	<path d="M35.5,188.3c1.2-2.3,2.9-4.4,5.2-5.9c1.1-0.8,2.4-1.3,3.8-1.6c1.4-0.3,2.8-0.3,4.2,0c1.4,0.3,2.7,0.8,3.9,1.5
		l0.5,0.2l0.4,0.3l0.9,0.6c0.3,0.2,0.5,0.4,0.8,0.6c0.3,0.2,0.6,0.4,0.8,0.6c2.1,1.8,3.8,3.8,5.5,5.8l-3.6,1.5
		c-0.1-0.4-0.1-0.7-0.2-1l-0.1-1c-0.1-0.6-0.2-1.3-0.2-1.9c-0.1-1.3-0.2-2.6-0.2-3.9c0-2.6,0.5-5.3,1.7-7.9c0.6-1.3,1.3-2.5,2.3-3.6
		c1-1.1,2.1-2,3.4-2.7c1.3-0.7,2.7-1,4-1.1c0.3,0,0.7,0,1,0c0.3,0,0.7,0,1,0.1c0.7,0,1.3,0.2,1.9,0.4c0.1,0,0.2,0.2,0.2,0.3
		c0,0.1-0.1,0.2-0.2,0.2l0,0c-2.4,0.7-4.5,1.7-6,3.1c-1.5,1.4-2.5,3.2-3.1,5.2c-0.6,2-1,4.2-1.3,6.4c-0.1,1.1-0.3,2.3-0.3,3.4
		c0,0.6,0,1.2,0,1.7c0,0.3,0,0.6,0,0.9c0,0.3,0,0.6,0.1,0.8l0,0.2c0.1,1.1-0.7,2-1.8,2.1c-0.7,0.1-1.4-0.3-1.8-0.9
		c-1.3-2.1-2.8-4-4.5-5.7c-0.4-0.4-0.9-0.8-1.3-1.2l-0.7-0.6l-0.3-0.3l-0.4-0.2c-0.9-0.7-2-1.2-3-1.5c-1.1-0.3-2.2-0.5-3.3-0.4
		c-1.1,0.1-2.3,0.4-3.3,1c-1.1,0.5-2.1,1.2-3,2.1c-0.9,0.8-1.8,1.7-2.5,2.7l0,0c-0.1,0.1-0.2,0.1-0.3,0.1
		C35.5,188.5,35.5,188.4,35.5,188.3z" style="fill:#324A58;"/>
	<g>
		<path d="M87.5,376.7c0,0,66.3-19.1,138.2-18.2l49,204.4c0,0-31.1-0.1-53.6-20.3c-17.5-15.8-43.5-23.3-58.1-16.8
			c-42.3,18.9-77.4-7.7-77.4-7.7L87.5,376.7z" style="fill:#FF564F;"/>
		<path d="M247.6,298.8l-1.8,53.3c4.3-0.1,6.8-0.1,6.8-0.1l2.7-51.7C255.3,300.3,252.7,299.6,247.6,298.8z" style="fill:#FF564F;"/>
		<path d="M202.3,317.9h8.1l-1.5-22.6c-2.6-0.1-5.2-0.1-8-0.1L202.3,317.9z" style="fill:#FF564F;"/>
		<path d="M135.7,325.5l10-1.3l-4.5-25.3c-3.4,0.5-6.8,1-10.1,1.5L135.7,325.5z" style="fill:#FF564F;"/>
		<g>
			<path d="M76.8,340.4l6.4-2.2L75.4,315c-2.4,0.9-4.7,1.7-6.8,2.6L76.8,340.4z" style="fill:#FF564F;"/>
			<path d="M227.5,296.3v24.9h-11.9l-16.5,0.3l-2.1-26.4c-8.1,0-16.9,0.3-26.5,0.9l2.4,28.1l-21.6,2.7l0,0l-18.2,2.9
				l-5.5-28.8c-10.2,1.8-19.7,4.1-28.4,6.4l6.4,27.7L90.1,340l-16.3,5.4l-9.6-26.2c-15.1,6.2-22.8,11.3-22.8,11.3l19.2,48.7
				c0,0,42.7-15.2,90.4-21.2c34.9-4.4,73.2-5.5,91.2-5.8l1.8-53.9C239.7,297.6,234.2,296.9,227.5,296.3z" style="fill:#FF564F;"/>
		</g>
		<g>
			<path d="M109.2,509.2c-0.7,0-1.3-0.5-1.5-1.2l-4.9-19.2c-0.1-0.4,0-0.9,0.2-1.2c0.2-0.4,0.6-0.6,1-0.7l122.5-25.9
				c0.4-0.1,0.9,0,1.3,0.3c0.4,0.3,0.6,0.7,0.6,1.1l2.1,20.3c0.1,0.8-0.5,1.5-1.2,1.7l-119.7,24.9
				C109.4,509.2,109.3,509.2,109.2,509.2z M106.3,489.6l4.1,16.2l116.8-24.3l-1.8-17.1L106.3,489.6z" style="fill:#FFFFFF;"/>
		</g>
		<g>
			<path d="M148.1,428.3c-0.6,0-1.2-0.4-1.5-1l-14.7-37.1c-0.2-0.4-0.1-0.9,0.1-1.3c0.2-0.4,0.6-0.7,1.1-0.8l41.6-7.7
				c0.5-0.1,1,0.1,1.4,0.4c0.4,0.3,0.6,0.8,0.5,1.3l-4.2,42c-0.1,0.9-0.9,1.5-1.7,1.4c-0.9-0.1-1.5-0.9-1.4-1.7l4-39.9l-37.7,7
				l14,35.3c0.3,0.8-0.1,1.7-0.9,2C148.5,428.3,148.3,428.3,148.1,428.3z" style="fill:#FFFFFF;"/>
		</g>
		<g>
			<path d="M221.9,463.7c-0.9,0-1.6-0.7-1.6-1.6c0-0.1-0.1-13.8-7.3-38.4c-3.6-12.3-11.2-21.1-22.7-26.1
				c-8.6-3.8-16.3-3.9-16.4-3.9c-0.9,0-1.6-0.7-1.6-1.6c0-0.9,0.7-1.6,1.6-1.6c0.3,0,8.3,0.1,17.5,4.1c8.5,3.7,19.7,11.6,24.6,28.2
				c7.3,25.1,7.4,38.7,7.4,39.3C223.5,463,222.8,463.7,221.9,463.7z" style="fill:#FFFFFF;"/>
		</g>
		<g>
			<path d="M109.6,488.9c-0.8,0-1.4-0.5-1.6-1.3c-0.2-1.5-5.9-36.7,0.4-58.4c6.4-22.1,26.6-31.7,27.4-32.1
				c0.8-0.4,1.7,0,2.1,0.8c0.4,0.8,0,1.7-0.8,2.1l0,0c-0.2,0.1-19.7,9.4-25.8,30.2c-2.5,8.7-3.4,21.3-2.5,36.4
				c0.7,11.5,2.2,20.5,2.2,20.6c0.1,0.9-0.4,1.7-1.3,1.8C109.7,488.9,109.7,488.9,109.6,488.9z" style="fill:#FFFFFF;"/>
		</g>
		<g>
			<path d="M183.4,428c-0.3,0-0.5-0.1-0.7-0.3c-0.5-0.4-0.6-1.2-0.2-1.7l18.2-23.8c0.4-0.5,1.2-0.6,1.7-0.2
				c0.5,0.4,0.6,1.2,0.2,1.7l-18.2,23.8C184.2,427.8,183.8,428,183.4,428z" style="fill:#FFFFFF;"/>
		</g>
		<g>
			<path d="M185.5,444.4c-0.4,0-0.9-0.2-1.1-0.6c-0.3-0.6-0.1-1.3,0.5-1.7l30.1-16.5c0.6-0.3,1.3-0.1,1.7,0.5
				c0.3,0.6,0.1,1.3-0.5,1.7l-30.1,16.5C185.9,444.4,185.7,444.4,185.5,444.4z" style="fill:#FFFFFF;"/>
		</g>
		<g>
			<path d="M188.3,458.8c-0.6,0-1.1-0.4-1.2-0.9c-0.2-0.7,0.3-1.3,0.9-1.5l31.1-7.4c0.7-0.2,1.3,0.3,1.5,0.9
				c0.2,0.7-0.3,1.3-0.9,1.5l-31.2,7.3C188.5,458.8,188.4,458.8,188.3,458.8z" style="fill:#FFFFFF;"/>
		</g>
		<g>
			<path d="M140.4,432.9c-0.2,0-0.4-0.1-0.7-0.2L117,418.4c-0.6-0.4-0.7-1.1-0.4-1.7c0.4-0.6,1.1-0.7,1.7-0.4l22.8,14.3
				c0.6,0.4,0.7,1.1,0.4,1.7C141.2,432.7,140.8,432.9,140.4,432.9z" style="fill:#FFFFFF;"/>
		</g>
		<g>
			<path d="M136.5,447.9c-0.1,0-0.1,0-0.2,0l-28.4-3.5c-0.7-0.1-1.1-0.7-1.1-1.4s0.7-1.1,1.4-1.1l28.4,3.5
				c0.7,0.1,1.1,0.7,1.1,1.4C137.7,447.5,137.1,447.9,136.5,447.9z" style="fill:#FFFFFF;"/>
		</g>
		<g>
			<path d="M107.8,469.3c-0.6,0-1.1-0.5-1.2-1.1c-0.1-0.7,0.4-1.3,1.1-1.4l30.4-3.5c0.7-0.1,1.3,0.4,1.4,1.1
				c0.1,0.7-0.4,1.3-1.1,1.4l-30.4,3.5C107.9,469.3,107.9,469.3,107.8,469.3z" style="fill:#FFFFFF;"/>
		</g>
		<path d="M137.6,479.6l57.8-12.2c0,0-1.6-55.8-36.8-49.7C120.1,424.3,137.6,479.6,137.6,479.6z" style="fill:#324A58;"/>
	</g>
</g>
</svg>
