<?xml version="1.0" encoding="iso-8859-1"?>
<!-- Generator: Adobe Illustrator 23.0.2, SVG Export Plug-In . SVG Version: 6.00 Build 0)  -->
<svg version="1.1" id="Layer_1" xmlns="http://www.w3.org/2000/svg" xmlns:xlink="http://www.w3.org/1999/xlink" x="0px" y="0px"
	 viewBox="0 0 1105.6 1080" style="enable-background:new 0 0 1105.6 1080;" xml:space="preserve">
<g style="opacity:0.3;">
	<g>
		<path style="fill:#C4ECFE;" d="M1027,80.4v683.5H78.6V80.4H1027 M1029.8,77.6H75.7v689.2h954.1L1029.8,77.6L1029.8,77.6z"/>
	</g>
	<g>
		<g>
			<rect x="182.2" y="77.6" style="fill:#C4ECFE;" width="2.8" height="686.3"/>
		</g>
		<g>
			<rect x="305.3" y="77.6" style="fill:#C4ECFE;" width="2.8" height="686.3"/>
		</g>
		<g>
			<rect x="428.3" y="77.6" style="fill:#C4ECFE;" width="2.8" height="686.3"/>
		</g>
		<g>
			<rect x="551.4" y="77.6" style="fill:#C4ECFE;" width="2.8" height="686.3"/>
		</g>
		<g>
			<rect x="674.4" y="77.6" style="fill:#C4ECFE;" width="2.8" height="689.2"/>
		</g>
		<g>
			<rect x="797.5" y="77.6" style="fill:#C4ECFE;" width="2.8" height="689.2"/>
		</g>
		<g>
			<rect x="920.6" y="77.6" style="fill:#C4ECFE;" width="2.8" height="686.3"/>
		</g>
	</g>
	<g>
		<g>
			<rect x="75.7" y="630.3" style="fill:#C4ECFE;" width="954.1" height="2.8"/>
		</g>
		<g>
			<rect x="75.7" y="519.7" style="fill:#C4ECFE;" width="954.1" height="2.8"/>
		</g>
		<g>
			<rect x="75.7" y="409.2" style="fill:#C4ECFE;" width="954.1" height="2.8"/>
		</g>
		<g>
			<rect x="75.7" y="298.6" style="fill:#C4ECFE;" width="954.1" height="2.8"/>
		</g>
		<g>
			<rect x="75.7" y="188.1" style="fill:#C4ECFE;" width="954.1" height="2.8"/>
		</g>
	</g>
</g>
<g>
	
		<linearGradient id="SVGID_1_" gradientUnits="userSpaceOnUse" x1="789.95" y1="627" x2="789.95" y2="814.4966" gradientTransform="matrix(1 0 0 -1 0 1392)">
		<stop  offset="0" style="stop-color:#ADDCC8"/>
		<stop  offset="0.401" style="stop-color:#DBECC2"/>
		<stop  offset="0.5011" style="stop-color:#FED3B5"/>
		<stop  offset="0.595" style="stop-color:#F4A9A6"/>
		<stop  offset="1" style="stop-color:#F48B94"/>
	</linearGradient>
	<path style="fill:url(#SVGID_1_);" d="M550.1,765h479.7V629.4c0-59.5-65.1-96.2-115.9-65.3c-22.5,13.7-43.8,33-59,60.3
		C784.9,750.4,649.5,650,550.1,765z"/>
	<g>
		<g>
			<path style="fill:#FFFFFF;" d="M951.4,820.3c-3,0-5.5-2.5-5.5-5.5v-196c0-3,2.5-5.5,5.5-5.5s5.5,2.5,5.5,5.5v196
				C956.9,817.8,954.4,820.3,951.4,820.3z"/>
		</g>
		<g>
			<path style="fill:#FFFFFF;" d="M951.4,661.5c-0.3,0-0.6,0-0.9-0.1c-3-0.5-5-3.3-4.5-6.3c2.6-15.5,16.3-26.2,31.9-25
				c3,0.2,5.3,2.9,5.1,5.9s-2.9,5.3-5.9,5.1c-9.8-0.8-18.5,6-20.1,15.8C956.4,659.6,954,661.5,951.4,661.5z"/>
		</g>
		<g>
			<path style="fill:#FFFFFF;" d="M951.4,661.5c-2.6,0-5-1.9-5.4-4.6c-1.6-9.8-10.3-16.6-20.1-15.8c-3,0.2-5.7-2-5.9-5.1
				c-0.2-3,2-5.7,5.1-5.9c15.6-1.2,29.3,9.5,31.9,25c0.5,3-1.5,5.8-4.5,6.3C952,661.5,951.7,661.5,951.4,661.5z"/>
		</g>
		<g>
			<path style="fill:#FFFFFF;" d="M951.4,690.2c-0.3,0-0.6,0-0.9-0.1c-3-0.5-5-3.3-4.5-6.3c2.6-15.5,16.3-26.2,31.9-25
				c3,0.2,5.3,2.9,5.1,5.9s-2.9,5.3-5.9,5.1c-9.8-0.8-18.5,6-20.1,15.8C956.4,688.3,954,690.2,951.4,690.2z"/>
		</g>
		<g>
			<path style="fill:#FFFFFF;" d="M951.4,690.2c-2.6,0-5-1.9-5.4-4.6c-1.6-9.8-10.3-16.6-20.1-15.8c-3,0.2-5.7-2-5.9-5.1
				c-0.2-3,2-5.7,5.1-5.9c15.6-1.2,29.3,9.5,31.9,25c0.5,3-1.5,5.8-4.5,6.3C952,690.2,951.7,690.2,951.4,690.2z"/>
		</g>
		<g>
			<path style="fill:#FFFFFF;" d="M951.4,719c-0.3,0-0.6,0-0.9-0.1c-3-0.5-5-3.3-4.5-6.3c2.6-15.5,16.3-26.2,31.9-25
				c3,0.2,5.3,2.9,5.1,5.9s-2.9,5.3-5.9,5.1c-9.8-0.8-18.5,6-20.1,15.8C956.4,717.1,954,719,951.4,719z"/>
		</g>
		<g>
			<path style="fill:#FFFFFF;" d="M951.4,719c-2.6,0-5-1.9-5.4-4.6c-1.6-9.8-10.3-16.6-20.1-15.8c-3,0.2-5.7-2-5.9-5.1
				c-0.2-3,2-5.7,5.1-5.9c15.6-1.2,29.3,9.5,31.9,25c0.5,3-1.5,5.8-4.5,6.3C952,719,951.7,719,951.4,719z"/>
		</g>
	</g>
	
		<linearGradient id="SVGID_2_" gradientUnits="userSpaceOnUse" x1="814.35" y1="488.1608" x2="814.35" y2="700.9776" gradientTransform="matrix(1 0 0 -1 0 1392)">
		<stop  offset="0" style="stop-color:#BFE7D1"/>
		<stop  offset="0.4092" style="stop-color:#E89AC0"/>
		<stop  offset="0.4989" style="stop-color:#A7A7AE"/>
		<stop  offset="0.599" style="stop-color:#47A6D3"/>
		<stop  offset="1" style="stop-color:#9774AC"/>
	</linearGradient>
	<path style="fill:url(#SVGID_2_);" d="M598.8,888.1h431.1c0-89.5-46.8-107.6-97.9-109.5c-44.6-1.7-55.5-85.7-130.2-74.1
		c-45.1,7-48,45.6-87.4,54.1C679.3,766.1,598.8,797.4,598.8,888.1z"/>
</g>
<g>
	<g>
		<g>
			<path style="fill:#CAE6C4;" d="M839.7,432.4c-3,0-5.5-2.5-5.5-5.5V312.7c0-3,2.5-5.5,5.5-5.5s5.5,2.5,5.5,5.5v114.2
				C845.2,429.9,842.7,432.4,839.7,432.4z"/>
		</g>
		<g>
			<path style="fill:#CAE6C4;" d="M839.7,353.8c-0.3,0-0.6,0-0.9-0.1c-3-0.5-5-3.3-4.5-6.3c2.5-14.8,15.7-25.2,30.7-24.1
				c3,0.2,5.3,2.9,5.1,5.9s-2.9,5.3-5.9,5.1c-9.3-0.7-17.5,5.7-19.1,14.9C844.7,351.9,842.3,353.8,839.7,353.8z"/>
		</g>
		<g>
			<path style="fill:#CAE6C4;" d="M839.7,353.8c-2.6,0-5-1.9-5.4-4.6c-1.5-9.2-9.7-15.6-19.1-14.9c-3,0.2-5.7-2-5.9-5.1
				s2-5.7,5.1-5.9c15.1-1.1,28.3,9.2,30.7,24.1c0.5,3-1.5,5.8-4.5,6.3C840.3,353.8,840,353.8,839.7,353.8z"/>
		</g>
		<g>
			<path style="fill:#CAE6C4;" d="M839.7,381.4c-0.3,0-0.6,0-0.9-0.1c-3-0.5-5-3.3-4.5-6.3c2.5-14.8,15.7-25.2,30.7-24.1
				c3,0.2,5.3,2.9,5.1,5.9s-2.9,5.3-5.9,5.1c-9.3-0.7-17.5,5.7-19.1,14.9C844.7,379.5,842.3,381.4,839.7,381.4z"/>
		</g>
		<g>
			<path style="fill:#CAE6C4;" d="M839.7,381.4c-2.6,0-5-1.9-5.4-4.6c-1.5-9.2-9.7-15.6-19.1-14.9c-3,0.2-5.7-2-5.9-5.1
				s2-5.7,5.1-5.9c15.1-1.1,28.3,9.2,30.7,24.1c0.5,3-1.5,5.8-4.5,6.3C840.3,381.4,840,381.4,839.7,381.4z"/>
		</g>
	</g>
	<g>
		<path style="fill:#F9D5FF;" d="M1019.8,418.1c-0.1-3.5-0.6-6.9-2-10c-0.6-1.6-1.5-3-2.4-4.4c-1-1.4-2.1-2.7-3.3-3.9
			c-4.9-4.8-11.9-7.5-18.7-7.4c-0.9,0-1.7,0.1-2.5,0.2l-1.3,0.2c-0.4,0-0.8,0.1-1.2,0.2c-1.7,0.3-3.2,0.9-4.8,1.6
			c-0.8,0.4-1.5,0.7-2.3,1.2c-0.4,0.2-0.8,0.4-1.1,0.7l-1.1,0.7c-0.7,0.5-1.4,1.1-2.1,1.6l-2.9,2.5c-7.9,6.5-16.6,12.2-26,16.6
			s-19.5,7.6-29.9,9.1c-1.3,0.2-2.6,0.4-3.9,0.5c-1.3,0.1-2.7,0.3-3.8,0.4l-7,0.6c-4.7,0.4-9.4,0.9-14,1.4
			c-18.6,2-37.1,4.6-55.4,8.4c-9.1,1.8-18.1,4-27.1,6.4c-4.5,1.2-8.9,2.5-13.3,3.8c-4.4,1.4-8.8,2.8-13.1,4.4
			c-4.4,1.5-8.6,3.2-12.9,4.8c-4.2,1.8-8.5,3.5-12.7,5.4c-4.2,1.8-8.3,3.9-12.4,5.9c-4,2.2-8.1,4.2-12.1,6.6
			c-16,9-30.9,19.8-44.6,31.8l-5.1,4.6l-2.5,2.3l-2.4,2.4l-4.9,4.8l-4.7,5L664,529l-2.3,2.6l-4.5,5.2c-1.5,1.8-2.9,3.6-4.3,5.4
			c-1.4,1.8-2.8,3.5-4.3,5.5c-11.7,15.2-24,30.1-37,44.3c-13.1,14.2-27,28-42.8,40c-3.9,3.1-8,5.9-12.1,8.7l-6.3,4
			c-1,0.7-2.1,1.3-3.2,1.9l-3.3,1.9c-8.8,4.9-18.1,9-27.7,12.2c-9.6,3.2-19.4,5.4-29.1,7s-19.2,2.8-28.4,4.1
			c-9.3,1.3-18.3,2.8-27.2,4.9c-8.9,2.1-17.5,4.7-26,7.8l-3.2,1.2l-1.6,0.6l-1.6,0.7l-6.4,2.7l-6.4,2.7l-1.6,0.7l-1.6,0.7l-3.2,1.5
			l-6.3,2.9c-2.1,1-4.2,1.9-6.3,3l-12.4,6.3c-16.4,8.7-32.3,18.4-47.4,29.1c-3.7,2.7-7.5,5.4-11.2,8.2c-1.8,1.4-3.7,2.8-5.5,4.2
			l-5.4,4.4c-3.5,2.9-7.1,5.9-10.4,9c-1.7,1.5-3.3,3.1-5,4.6l-2.4,2.4l-1.2,1.2l-1.1,1.1l-7.3-6.8c13.3-13.5,28.3-25.4,43.7-36.4
			c15.5-11,31.7-20.9,48.5-29.8c16.8-8.9,34.1-16.7,51.8-23.5c8.9-3.3,18-6,27.2-8.2s18.6-3.7,28-5.1c9.4-1.3,18.8-2.5,28.2-4.1
			c9.4-1.6,18.6-3.7,27.7-6.6c9-3,17.7-6.8,26-11.4l3.1-1.8c1-0.6,2.1-1.2,3.1-1.8l6-3.8c3.9-2.7,7.8-5.4,11.5-8.3
			c15.1-11.6,28.7-24.9,41.5-38.9s24.9-28.6,36.5-43.7c11.5-15.1,24.5-29.1,38.6-41.7c14.3-12.5,29.8-23.6,46.3-33
			c4.1-2.4,8.3-4.5,12.5-6.8c4.3-2.1,8.5-4.2,12.8-6.1c4.3-2,8.7-3.8,13.1-5.6c4.4-1.7,8.8-3.5,13.3-5c4.5-1.6,9-3,13.5-4.5
			c4.6-1.3,9.1-2.7,13.7-3.9c9.2-2.5,18.4-4.7,27.7-6.5c18.6-3.8,37.4-6.5,56.3-8.5c4.7-0.5,9.4-1,14.2-1.4
			c4.7-0.4,9.5-0.8,14.2-1.5c9.4-1.3,18.5-4.2,27.1-8.2s16.6-9.3,23.9-15.3c1.8-1.5,3.6-3.1,5.5-4.5l1.5-1c0.5-0.3,1-0.6,1.5-0.9
			c1-0.6,2.1-1.1,3.2-1.6c2.2-0.9,4.4-1.8,6.7-2.2c0.6-0.1,1.2-0.3,1.7-0.3c0.6-0.1,1.2-0.2,1.8-0.3c1.2-0.1,2.4-0.2,3.5-0.2
			c9.5-0.2,19,3.6,25.8,10.2c1.7,1.7,3.2,3.5,4.6,5.4c1.3,2,2.5,4,3.4,6.2c1.9,4.4,2.7,9.1,2.7,13.9h-10.1L1019.8,418.1
			L1019.8,418.1z"/>
	</g>
</g>
<g>
	
		<linearGradient id="SVGID_3_" gradientUnits="userSpaceOnUse" x1="644.0496" y1="1056.5133" x2="179.4294" y2="1056.5133" gradientTransform="matrix(0.9967 -0.0809 -0.0809 -0.9967 61.2172 1380.2754)">
		<stop  offset="0" style="stop-color:#77879D"/>
		<stop  offset="0.4092" style="stop-color:#FDBB6D"/>
		<stop  offset="0.4989" style="stop-color:#FDBB9F"/>
		<stop  offset="0.599" style="stop-color:#D1D2D1"/>
		<stop  offset="1" style="stop-color:#FECEAA"/>
	</linearGradient>
	<path style="fill:url(#SVGID_3_);" d="M572.6,155.8c-38.4,38.5-84.2,19.1-134.7,16.7c-50.5-2.4-70.2,45.6-100.6,55.9
		c-30.4,10.3-80.4-34.3-142.3-6c-133.7,61-40.5,273.1,115.7,185c35.6-20.1,26.1-35,72.4-46.4s93.3-18.7,121.3-47.2
		C532.5,285.2,572.6,155.8,572.6,155.8z"/>
	<path style="fill:#F9D5FF;" d="M557.8,272.3l-29.5-7.4c-0.6-0.2-1.3-0.3-1.9-0.4c-30.1-6.5-57.9,18.1-56.3,48.8l-1.6,15.5
		l-25.4,22.8l-1.6-0.4l0,0c-0.8,1.6-1.5,3.2-2.2,4.8v0.1l0,0c-13.2,32.4,5.1,69.8,39.9,78.6l28.3,6.2c31.7,8,63-11.5,70.9-41.8
		c1.5-5.7,1.1-11.8-1.1-17.3l-5.2-13.2c-3.5-8.8-2.3-18.7,3.2-26.4l0,0c16.2-23,9.1-55.3-15.7-68.6
		C555.7,271.4,562.2,273.5,557.8,272.3z"/>
	<path style="fill:#4C7DE0;" d="M808.9,468.6l-0.6,2.4l-47.6,195.7l-2.8,11.4l-9.1,37.3l0,0l-1,3.9l-24.2,99.5l-78.9-19.3l2.7-17.6
		l1-6.6l8.6-55.7l1.5-9.9l6.2-39.9l0,0l0.8-5.3l0,0l5.7-36.6l1.7-10.8l3.6-23.1l1.6-10.3l3.5-22.9l2-13.1l5.9-37.9l-23.3,1l-5,0.2
		l0,0l-106.9,4.5c-3.4,0.2-6.8,0-10.1-0.5l0,0c-3.7-0.5-7.3-1.4-10.7-2.6c-21.6-7.8-36.8-28.9-35.8-53.4l0.8-20.9l0.4-11l1.9-48.3
		l157.7,15.8l0,0l2.9,0.3l30.5,3.1l0,0l18.2,1.8l48.9,4.9c15.2,1.5,29.1,9.2,38.5,21.3c6.7,8.6,10.6,18.9,11.4,29.5
		C809.7,459.9,809.6,464.2,808.9,468.6z"/>
	<g>
		<path style="fill:#99B1E7;" d="M688,592.2l-10.2,1.6c-0.3,0-0.5,0.1-0.8,0.1c-0.1,0-0.1,0-0.2,0l1.6-10.3l8.1-1.3
			c2.7-0.4,5.3,1.4,5.7,4.2C692.6,589.2,690.7,591.8,688,592.2z"/>
		<path style="fill:#99B1E7;" d="M684,440.1c-0.4,0-0.9-0.1-1.4-0.2c-2.7-0.7-4.2-3.5-3.5-6.2l2.8-10c0.7-2.7,3.5-4.2,6.2-3.5
			s4.2,3.5,3.5,6.2l-2.8,10C688.2,438.7,686.2,440.1,684,440.1z"/>
		<path style="fill:#99B1E7;" d="M753.5,419.6c-0.8,0-1.7-0.2-2.5-0.7l-9-5.1c-2.4-1.4-3.2-4.4-1.9-6.8c1.4-2.4,4.4-3.2,6.8-1.9
			l9,5.1c2.4,1.4,3.2,4.4,1.9,6.8C756.9,418.7,755.2,419.6,753.5,419.6z"/>
		<path style="fill:#99B1E7;" d="M711.4,403.7c-0.5,2.4-2.5,4.1-4.9,4.1c-0.3,0-0.6,0-0.9-0.1l-10.2-1.9c-2.7-0.5-4.5-3.1-4-5.8
			c0.1-0.8,0.5-1.4,0.9-2l0,0l18.2,1.8C711.3,400.9,711.7,402.3,711.4,403.7z"/>
		<path style="fill:#99B1E7;" d="M728.8,454c-2.1,0-4.1-1.3-4.8-3.4l-3.2-9.8c-0.9-2.6,0.6-5.4,3.2-6.3c2.6-0.9,5.4,0.6,6.3,3.2
			l3.2,9.8c0.9,2.6-0.6,5.4-3.2,6.3C729.8,453.9,729.3,454,728.8,454z"/>
		<path style="fill:#99B1E7;" d="M716.1,513.2c-0.6,0-1.2-0.1-1.8-0.3c-2.6-1-3.8-3.9-2.8-6.5l3.8-9.7c1-2.6,3.9-3.8,6.5-2.8
			s3.8,3.9,2.8,6.5l-3.8,9.7C720,512,718.1,513.2,716.1,513.2z"/>
		<path style="fill:#99B1E7;" d="M772.6,453.8c-0.5,0-1-0.1-1.5-0.2c-2.6-0.8-4.1-3.6-3.3-6.3l3.1-9.9c0.8-2.6,3.6-4.1,6.3-3.3
			c2.6,0.8,4.1,3.6,3.3,6.3l-3.1,9.9C776.7,452.4,774.7,453.8,772.6,453.8z"/>
		<path style="fill:#99B1E7;" d="M787.3,499.5c-1,0-2-0.3-2.9-0.9l-8.5-6c-2.3-1.6-2.8-4.7-1.2-7s4.7-2.8,7-1.2l8.5,6
			c2.3,1.6,2.8,4.7,1.2,7C790.4,498.8,788.9,499.5,787.3,499.5z"/>
		<path style="fill:#99B1E7;" d="M808.9,468.6l-0.6,2.4c-0.9,0.7-2,1-3,1c-1.2,0-2.5-0.5-3.4-1.4c-2-1.9-2.1-5.1-0.2-7.1l7.1-7.5
			c0.2-0.2,0.4-0.4,0.6-0.5C809.7,459.9,809.6,464.2,808.9,468.6z"/>
		<path style="fill:#99B1E7;" d="M741.6,483.1c-0.4,0-0.9-0.1-1.4-0.2l-10-2.8c-2.7-0.7-4.2-3.5-3.5-6.2s3.5-4.2,6.2-3.5l10,2.8
			c2.7,0.7,4.2,3.5,3.5,6.2C745.8,481.7,743.8,483.1,741.6,483.1z"/>
		<path style="fill:#99B1E7;" d="M641.7,421.7c-1.1,0-2.2-0.3-3.1-1.1l-8.2-6.4c-2.2-1.7-2.6-4.8-0.9-7c1.7-2.2,4.8-2.6,7-0.9
			l8.2,6.4c2.2,1.7,2.6,4.8,0.9,7C644.7,421,643.2,421.7,641.7,421.7z"/>
		<path style="fill:#99B1E7;" d="M661.8,394.9c-0.3,0.1-0.6,0.1-1,0.1c-0.6,0-1.3-0.1-1.9-0.4L661.8,394.9z"/>
		<path style="fill:#99B1E7;" d="M596.7,403.5c-0.5,0-1.1-0.1-1.6-0.3l-9.8-3.3c-2.6-0.9-4-3.7-3.1-6.3c0.9-2.6,3.7-4,6.3-3.1
			l9.8,3.3c2.6,0.9,4,3.7,3.1,6.3C600.7,402.2,598.8,403.5,596.7,403.5z"/>
		<path style="fill:#99B1E7;" d="M612.5,452.4c-2.4,0-4.5-1.7-4.9-4.1l-1.9-10.2c-0.5-2.7,1.3-5.3,4-5.8s5.3,1.3,5.8,4l1.9,10.2
			c0.5,2.7-1.3,5.3-4,5.8C613.1,452.4,612.8,452.4,612.5,452.4z"/>
		<path style="fill:#99B1E7;" d="M656,458.1c-0.7,0-1.4-0.1-2.1-0.5c-2.5-1.1-3.6-4.1-2.5-6.6l4.3-9.4c1.1-2.5,4.1-3.6,6.6-2.5
			s3.6,4.1,2.5,6.6l-4.3,9.4C659.7,457,657.9,458.1,656,458.1z"/>
		<path style="fill:#99B1E7;" d="M664.2,505.4c-1.2,0-2.5-0.5-3.4-1.4l-7.5-7.1c-2-1.9-2.1-5.1-0.2-7.1c1.9-2,5.1-2.1,7.1-0.2
			l7.5,7.1c2,1.9,2.1,5.1,0.2,7.1C666.8,504.9,665.5,505.4,664.2,505.4z"/>
		<path style="fill:#99B1E7;" d="M685.8,480.7c-1.5,0-2.9-0.6-3.9-1.9c-1.7-2.2-1.4-5.3,0.8-7l8.1-6.5c2.2-1.7,5.3-1.4,7,0.8
			c1.7,2.2,1.4,5.3-0.8,7l-8.1,6.5C688,480.3,686.9,480.7,685.8,480.7z"/>
		<path style="fill:#99B1E7;" d="M621.2,483c-0.7,0-1.4-0.1-2-0.4l-9.5-4.2c-2.5-1.1-3.7-4.1-2.6-6.6c1.1-2.5,4.1-3.7,6.6-2.6
			l9.5,4.2c2.5,1.1,3.7,4.1,2.6,6.6C624.9,481.9,623.1,483,621.2,483z"/>
		<path style="fill:#99B1E7;" d="M540.2,407c-0.7,0-1.4-0.1-2.1-0.5c-2.5-1.1-3.6-4.1-2.5-6.6l4.3-9.4c1.1-2.5,4.1-3.6,6.6-2.5
			s3.6,4.1,2.5,6.6l-4.3,9.4C543.9,405.9,542.1,407,540.2,407z"/>
		<path style="fill:#99B1E7;" d="M501.9,436.6l-3.1,1.5l0.4-11c2.1-0.2,4.1,0.9,5,2.8C505.5,432.5,504.4,435.4,501.9,436.6z"/>
		<path style="fill:#99B1E7;" d="M551.8,480.2c-2.3,0-4.4-1.6-4.9-4l-2.1-10.2c-0.6-2.7,1.2-5.3,3.9-5.9s5.3,1.2,5.9,3.9l2.1,10.2
			c0.6,2.7-1.2,5.3-3.9,5.9C552.5,480.2,552.1,480.2,551.8,480.2z"/>
		<path style="fill:#99B1E7;" d="M583.7,472.5c-2.6,0-4.8-2.1-5-4.7c-0.2-2.8,1.9-5.1,4.7-5.3l10.3-0.6c2.8-0.2,5.1,1.9,5.3,4.7
			c0.2,2.8-1.9,5.1-4.7,5.3l-10.3,0.6C583.9,472.5,583.8,472.5,583.7,472.5z"/>
		<path style="fill:#99B1E7;" d="M529.6,437c-1.7,0-3.4-0.9-4.3-2.4l-5.3-8.9c-1.4-2.4-0.6-5.4,1.7-6.9c2.4-1.4,5.4-0.6,6.9,1.7
			l5.3,8.9c1.4,2.4,0.6,5.4-1.7,6.9C531.4,436.8,530.5,437,529.6,437z"/>
		<path style="fill:#99B1E7;" d="M509.7,484.3c-0.9,0-1.7-0.2-2.5-0.7c-2.4-1.4-3.2-4.5-1.8-6.8l5.2-8.9c1.4-2.4,4.5-3.2,6.8-1.8
			c2.4,1.4,3.2,4.5,1.8,6.8l-5.2,8.9C513.1,483.4,511.4,484.3,509.7,484.3z"/>
		<path style="fill:#99B1E7;" d="M544.5,515L544.5,515l5.8-2.7c2.5-1.1,3.6-4.1,2.5-6.6s-4.1-3.6-6.6-2.5l-9.5,4.3
			c-1.9,0.9-3,2.8-2.9,4.8L544.5,515z"/>
		<path style="fill:#99B1E7;" d="M665.9,715.2c-0.2,2.6-2.4,4.6-5,4.6c-0.1,0-0.3,0-0.4,0l-3.2-0.2l1.5-9.9l2.5,0.2
			C664,710,666.1,712.4,665.9,715.2z"/>
		<path style="fill:#99B1E7;" d="M710.6,754.3c-1.3,0-2.5-0.5-3.5-1.4l-7.4-7.2c-2-1.9-2-5.1-0.1-7.1s5.1-2,7.1-0.1l7.4,7.2
			c2,1.9,2,5.1,0.1,7.1C713.2,753.8,711.9,754.3,710.6,754.3z"/>
		<path style="fill:#99B1E7;" d="M681.5,677.5c-1,1.2-2.4,1.8-3.9,1.8c-1.1,0-2.2-0.4-3.2-1.1l-8-6.6c-0.6-0.5-1.1-1.2-1.4-1.9l0,0
			l0.8-5.3l0,0c1.8-2,4.8-2.3,6.9-0.6l8,6.6C682.9,672.2,683.2,675.3,681.5,677.5z"/>
		<path style="fill:#99B1E7;" d="M716.6,688.8c-1.7,0-3.3-0.8-4.2-2.3c-1.5-2.3-0.8-5.4,1.6-6.9l8.7-5.5c2.3-1.5,5.4-0.8,6.9,1.6
			c1.5,2.3,0.8,5.4-1.6,6.9l-8.7,5.5C718.4,688.5,717.5,688.8,716.6,688.8z"/>
		<path style="fill:#99B1E7;" d="M707,656.1c-1.9,0-3.7-1.1-4.6-3l-4.2-9.4c-1.1-2.5,0-5.5,2.5-6.6s5.5,0,6.6,2.5l4.2,9.4
			c1.1,2.5,0,5.5-2.5,6.6C708.4,656,707.7,656.1,707,656.1z"/>
		<path style="fill:#99B1E7;" d="M686.2,727.3c-1.1,0-2.2-0.4-3.1-1.1c-2.2-1.7-2.5-4.9-0.8-7l6.5-8.1c1.7-2.2,4.9-2.5,7-0.8
			c2.2,1.7,2.5,4.9,0.8,7l-6.5,8.1C689.1,726.7,687.7,727.3,686.2,727.3z"/>
		<path style="fill:#99B1E7;" d="M744,721.3c-0.3,0-0.6,0-0.9-0.1l-10.2-1.8c-2.7-0.5-4.5-3.1-4.1-5.8c0.5-2.7,3.1-4.5,5.8-4.1
			l10.2,1.8c2.7,0.5,4.5,3.1,4.1,5.8C748.5,719.6,746.4,721.3,744,721.3z"/>
		<path style="fill:#99B1E7;" d="M760.8,666.7l-2.8,11.4l-4.3-4.3c-2-2-2-5.1,0-7.1C755.6,664.7,758.8,664.7,760.8,666.7
			L760.8,666.7z"/>
		<path style="fill:#99B1E7;" d="M675.6,626.3c-1,1-2.3,1.5-3.6,1.5c-0.2,0-0.3,0-0.5,0l1.7-10.8l2.3,2.2
			C677.5,621.1,677.5,624.3,675.6,626.3z"/>
		<path style="fill:#99B1E7;" d="M689.5,556l-7.5,4.7l2-13.1l0.2-0.1c2.3-1.5,5.4-0.8,6.9,1.6C692.5,551.5,691.8,554.6,689.5,556z"
			/>
		<path style="fill:#99B1E7;" d="M666.5,510.8l-5,0.2c0.2-0.1,0.4-0.2,0.6-0.3C663.6,510,665.2,510.1,666.5,510.8z"/>
		<path style="fill:#99B1E7;" d="M751.6,633.9c-1.4,0-2.8-0.6-3.8-1.8l-6.7-7.9c-1.8-2.1-1.5-5.3,0.6-7s5.3-1.5,7,0.6l6.7,7.9
			c1.8,2.1,1.5,5.3-0.6,7C753.9,633.5,752.7,633.9,751.6,633.9z"/>
		<path style="fill:#99B1E7;" d="M725.9,556c-1.3,0-2.6-0.5-3.5-1.5l-7.3-7.3c-2-2-2-5.1,0-7.1s5.1-2,7.1,0l7.3,7.3c2,2,2,5.1,0,7.1
			C728.5,555.5,727.2,556,725.9,556z"/>
		<path style="fill:#99B1E7;" d="M763.8,569.3c-1.8,0-3.6-1-4.5-2.7c-1.2-2.5-0.3-5.5,2.2-6.7l9.3-4.7c2.5-1.2,5.5-0.3,6.7,2.2
			s0.3,5.5-2.2,6.7l-9.3,4.7C765.3,569.1,764.6,569.3,763.8,569.3z"/>
		<path style="fill:#99B1E7;" d="M757.4,535.8c-2.1,0-4-1.3-4.7-3.4l-3.3-9.8c-0.9-2.6,0.5-5.5,3.1-6.3c2.6-0.9,5.5,0.5,6.3,3.1
			l3.3,9.8c0.9,2.6-0.5,5.5-3.1,6.3C758.5,535.7,757.9,535.8,757.4,535.8z"/>
		<path style="fill:#99B1E7;" d="M729.9,604.7c-1.3,0-2.5-0.5-3.5-1.4c-2-1.9-2-5.1,0-7.1l7.3-7.4c1.9-2,5.1-2,7.1,0
			c2,1.9,2,5.1,0,7.1l-7.3,7.4C732.5,604.2,731.2,604.7,729.9,604.7z"/>
		<path style="fill:#99B1E7;" d="M703.8,801.7c-1.9,0-3.6-1-4.5-2.8c-1.2-2.5-0.2-5.5,2.3-6.7l9.3-4.5c2.5-1.2,5.5-0.2,6.7,2.3
			s0.2,5.5-2.3,6.7l-9.3,4.5C705.3,801.5,704.5,801.7,703.8,801.7z"/>
		<path style="fill:#99B1E7;" d="M647.6,781.9l1-6.6C650.1,777.4,649.6,780.3,647.6,781.9z"/>
		<path style="fill:#99B1E7;" d="M670.7,763.4c-1.8,0-3.6-1-4.5-2.7c-1.2-2.5-0.3-5.5,2.2-6.7l9.3-4.7c2.5-1.2,5.5-0.3,6.7,2.2
			s0.3,5.5-2.2,6.7l-9.3,4.7C672.2,763.2,671.5,763.4,670.7,763.4z"/>
	</g>
	<g>
		<g>
			<g>
				<path style="fill:#FFFFFF;" d="M777,840.8l-123.8-24.2c-6.1-1.2-10.2-7.1-9.1-13.2l2.5-14.9l80.5,16.5l53.4,24.8
					C786.8,832.7,783.7,842.2,777,840.8z"/>
			</g>
		</g>
	</g>
	<g>
		<path id="SVGID_4_" style="fill:#4C7DE0;" d="M585.7,388.3l-150.3-16.7c0,0-2.2,10,0.8,22.4c3.8,15.5,4.2,31.7,0.5,47.3
			l-37.9,157.6L269.6,820.5l69.5,52.2l158.3-223.8c2.6-4,4.6-8.3,6.1-12.8L585.7,388.3z"/>
		<g>
			<path style="fill:#99B1E7;" d="M512.4,513.2c-1.7,0-3.4-0.9-4.4-2.5l-5.1-9c-1.4-2.4-0.5-5.5,1.9-6.8c2.4-1.4,5.5-0.5,6.8,1.9
				l5.1,9c1.4,2.4,0.5,5.5-1.9,6.8C514.1,513,513.2,513.2,512.4,513.2z"/>
			<path style="fill:#99B1E7;" d="M511.6,573.7c-0.3,0-0.6,0-0.9-0.1c-2.7-0.5-4.5-3.1-4.1-5.8l1.8-10.2c0.5-2.7,3.1-4.5,5.8-4.1
				c2.7,0.5,4.5,3.1,4.1,5.8l-1.8,10.2C516.1,572,514,573.7,511.6,573.7z"/>
			<path style="fill:#99B1E7;" d="M530.6,539.2c-0.1,0-0.3,0-0.4,0l-10.3-0.8c-2.8-0.2-4.8-2.6-4.6-5.4c0.2-2.8,2.6-4.8,5.4-4.6
				l10.3,0.8c2.8,0.2,4.8,2.6,4.6,5.4C535.4,537.2,533.2,539.2,530.6,539.2z"/>
			<path style="fill:#99B1E7;" d="M479.5,409.5c-1.6,0-3.2-0.8-4.2-2.3l-5.6-8.6c-1.5-2.3-0.9-5.4,1.5-6.9c2.3-1.5,5.4-0.9,6.9,1.5
				l5.6,8.6c1.5,2.3,0.9,5.4-1.5,6.9C481.4,409.2,480.4,409.5,479.5,409.5z"/>
			<path style="fill:#99B1E7;" d="M466.9,375.1l-2,1.6c-0.9,0.7-2,1.1-3.1,1.1c-1.5,0-2.9-0.6-3.9-1.9c-0.5-0.6-0.8-1.2-1-1.9
				L466.9,375.1z"/>
			<path style="fill:#99B1E7;" d="M555.7,433.3c-1.8,0-3.5-1-4.4-2.7l-4.8-9.2c-1.3-2.4-0.3-5.5,2.1-6.7c2.4-1.3,5.5-0.3,6.7,2.1
				l4.8,9.2c1.3,2.4,0.3,5.5-2.1,6.7C557.3,433.1,556.5,433.3,555.7,433.3z"/>
			<path style="fill:#99B1E7;" d="M541.1,400c-1.6,0-3.3-0.8-4.2-2.3c-1.5-2.3-0.8-5.4,1.5-6.9l8.7-5.6c2.3-1.5,5.4-0.8,6.9,1.5
				s0.8,5.4-1.5,6.9l-8.7,5.6C543,399.7,542,400,541.1,400z"/>
			<path style="fill:#99B1E7;" d="M438.8,429.3L438.8,429.3c0.3-3.2,0.5-6.4,0.5-9.7c1.7,0.5,3.1,1.9,3.4,3.8
				C443.2,426.1,441.5,428.8,438.8,429.3z"/>
			<path style="fill:#99B1E7;" d="M435.1,387.9c-0.3-2.6-0.5-5-0.5-7.1c0.1,0.3,0.2,0.7,0.2,1.1L435.1,387.9z"/>
			<path style="fill:#99B1E7;" d="M446.1,469.1c-0.9,1.6-2.6,2.4-4.3,2.4c-0.9,0-1.8-0.2-2.5-0.7l-8.4-5l2.3-9.6
				c0.8,0,1.6,0.2,2.3,0.7l8.9,5.3C446.7,463.6,447.5,466.7,446.1,469.1z"/>
			<path style="fill:#99B1E7;" d="M471.2,524.4c-2,0-4-1.3-4.7-3.3l-3.5-9.7c-0.9-2.6,0.4-5.5,3-6.4s5.5,0.4,6.4,3l3.5,9.7
				c0.9,2.6-0.4,5.5-3,6.4C472.3,524.3,471.8,524.4,471.2,524.4z"/>
			<path style="fill:#99B1E7;" d="M474.7,442.5c-1.9,0-3.8-1.1-4.6-3l-4.2-9.5c-1.1-2.5,0-5.5,2.6-6.6c2.5-1.1,5.5,0,6.6,2.6
				l4.2,9.5c1.1,2.5,0,5.5-2.6,6.6C476.1,442.4,475.4,442.5,474.7,442.5z"/>
			<path style="fill:#99B1E7;" d="M505.5,468.3c-2.5,0-4.7-1.9-5-4.5c-0.3-2.7,1.7-5.2,4.5-5.5l10.3-1c2.7-0.3,5.2,1.7,5.5,4.5
				c0.3,2.7-1.7,5.2-4.5,5.5l-10.3,1C505.8,468.3,505.7,468.3,505.5,468.3z"/>
			<path style="fill:#99B1E7;" d="M511.3,434.8c-0.1,0-0.2,0-0.2,0c-2.8-0.1-4.9-2.5-4.8-5.2l0.5-10.4c0.1-2.8,2.5-4.9,5.2-4.8
				c2.8,0.1,4.9,2.5,4.8,5.2l-0.5,10.4C516.2,432.7,514,434.8,511.3,434.8z"/>
			<path style="fill:#99B1E7;" d="M461.2,489.4c-1.9,0-3.7-1.1-4.5-2.9c-1.2-2.5-0.1-5.5,2.4-6.6l9.4-4.4c2.5-1.2,5.5-0.1,6.6,2.4
				c1.2,2.5,0.1,5.5-2.4,6.6l-9.4,4.4C462.6,489.2,461.9,489.4,461.2,489.4z"/>
			<path style="fill:#99B1E7;" d="M371.4,787.1c-1.3,0-2.6-0.5-3.6-1.5c-1.9-2-1.9-5.1,0.1-7.1l7.4-7.2c2-1.9,5.1-1.9,7.1,0.1
				c1.9,2,1.9,5.1-0.1,7.1l-7.4,7.2C373.9,786.6,372.7,787.1,371.4,787.1z"/>
			<path style="fill:#99B1E7;" d="M349,742.4c-2.4,0-4.5-1.7-4.9-4.2c-0.5-2.7,1.4-5.3,4.1-5.8l10.2-1.7c2.7-0.5,5.3,1.4,5.8,4.1
				c0.5,2.7-1.4,5.3-4.1,5.8l-10.2,1.7C349.5,742.4,349.3,742.4,349,742.4z"/>
			<path style="fill:#99B1E7;" d="M392,717.5c-0.3,0-0.5,0-0.8-0.1c-2.7-0.4-4.6-3-4.2-5.7l1.6-10.2c0.4-2.7,3-4.6,5.7-4.2
				c2.7,0.4,4.6,3,4.2,5.7l-1.6,10.2C396.6,715.7,394.4,717.5,392,717.5z"/>
			<path style="fill:#99B1E7;" d="M361,703.3c-0.5,0-1-0.1-1.5-0.2l-9.9-3c-2.6-0.8-4.1-3.6-3.3-6.2s3.6-4.1,6.2-3.3l9.9,3
				c2.6,0.8,4.1,3.6,3.3,6.2C365.1,701.9,363.1,703.3,361,703.3z"/>
			<path style="fill:#99B1E7;" d="M401.1,765.7c-2.4,0-4.5-1.7-4.9-4.1l-1.9-10.2c-0.5-2.7,1.3-5.3,4-5.8s5.3,1.3,5.8,4l1.9,10.2
				c0.5,2.7-1.3,5.3-4,5.8C401.7,765.7,401.4,765.7,401.1,765.7z"/>
			<path style="fill:#99B1E7;" d="M426.5,724.7c-1.5,0-2.9-0.6-3.9-1.8c-1.7-2.1-1.4-5.3,0.7-7l8-6.5c2.1-1.7,5.3-1.4,7,0.7
				c1.7,2.1,1.4,5.3-0.7,7l-8,6.5C428.7,724.3,427.6,724.7,426.5,724.7z"/>
			<path style="fill:#99B1E7;" d="M408.4,678c-2.6,0-4.8-2-5-4.7c-0.2-2.8,1.9-5.1,4.6-5.3l10.3-0.7c2.8-0.2,5.1,1.9,5.3,4.6
				c0.2,2.8-1.9,5.1-4.6,5.3l-10.3,0.7C408.6,678,408.5,678,408.4,678z"/>
			<path style="fill:#99B1E7;" d="M453.6,657.4c-0.4,0-0.8-0.1-1.3-0.2c-2.7-0.7-4.3-3.4-3.6-6.1l2.6-10c0.7-2.7,3.4-4.3,6.1-3.6
				s4.3,3.4,3.6,6.1l-2.6,10C457.9,655.9,455.8,657.4,453.6,657.4z"/>
			<path style="fill:#99B1E7;" d="M424.1,640.3c-0.6,0-1.3-0.1-1.9-0.4l-9.5-4c-2.5-1.1-3.7-4-2.7-6.5c1.1-2.5,4-3.7,6.5-2.7l9.5,4
				c2.5,1.1,3.7,4,2.7,6.5C427.9,639.2,426,640.3,424.1,640.3z"/>
			<path style="fill:#99B1E7;" d="M462.8,697.8l-5.9,8.3c-2-0.5-3.6-2.2-3.8-4.4l-0.9-10.3c-0.2-2.8,1.8-5.2,4.6-5.4
				c2.8-0.2,5.2,1.8,5.4,4.5L462.8,697.8z"/>
			<path style="fill:#99B1E7;" d="M371.9,645h1.7c2.8,0,5,2.3,5,5s-2.3,5-5,5c0,0,0,0-0.1,0l-7.4-0.1L371.9,645z"/>
			<path style="fill:#99B1E7;" d="M427.2,533c-0.9,1.6-2.6,2.5-4.3,2.5c-0.8,0-1.7-0.2-2.5-0.7l-5.5-3.1l2.4-10.1l8,4.5
				C427.8,527.5,428.6,530.6,427.2,533z"/>
			<path style="fill:#99B1E7;" d="M438.1,506.4c-1.1,0-2.1-0.3-3-1c-2.2-1.7-2.6-4.8-0.9-7l6.3-8.2c1.7-2.2,4.8-2.6,7-0.9
				s2.6,4.8,0.9,7l-6.3,8.2C441.1,505.7,439.6,506.4,438.1,506.4z"/>
			<path style="fill:#99B1E7;" d="M392.2,610.2c2.2,1.2,3.2,3.8,2.3,6.2l-3.7,9.7c-0.8,2-2.7,3.2-4.7,3.2c-0.6,0-1.2-0.1-1.8-0.3
				c-0.9-0.3-1.6-0.9-2.1-1.6L392.2,610.2z"/>
			<path style="fill:#99B1E7;" d="M442.3,569.5c-0.5,0-0.9-0.1-1.4-0.2c-2.6-0.8-4.2-3.6-3.4-6.2l2.9-9.9c0.8-2.7,3.6-4.2,6.2-3.4
				s4.2,3.6,3.4,6.2l-2.9,9.9C446.5,568.1,444.5,569.5,442.3,569.5z"/>
			<path style="fill:#99B1E7;" d="M460.5,611.3c-1,0-2-0.3-2.9-0.9l-8.4-6c-2.2-1.6-2.8-4.7-1.2-7c1.6-2.2,4.7-2.8,7-1.2l8.4,6
				c2.2,1.6,2.8,4.7,1.2,7C463.6,610.6,462.1,611.3,460.5,611.3z"/>
			<path style="fill:#99B1E7;" d="M477.5,563c-1.2,0-2.4-0.4-3.4-1.3c-2-1.9-2.1-5-0.2-7.1l7.1-7.6c1.9-2,5.1-2.1,7.1-0.2
				c2,1.9,2.1,5,0.2,7.1l-7.1,7.6C480.2,562.5,478.8,563,477.5,563z"/>
			<path style="fill:#99B1E7;" d="M416.2,595.5c-0.6,2.2-2.6,3.6-4.8,3.6c-0.4,0-0.9-0.1-1.4-0.2l-10-2.8c-0.2,0-0.4-0.1-0.5-0.2
				l2.3-9.6c0.3,0,0.6,0.1,0.9,0.2l10,2.8C415.4,590,417,592.8,416.2,595.5z"/>
			<path style="fill:#99B1E7;" d="M342.5,822.5c-1.2,0-2.4-0.4-3.4-1.3l-7.6-7c-2-1.9-2.2-5-0.3-7.1s5-2.2,7.1-0.3l7.6,7
				c2,1.9,2.2,5,0.3,7.1C345.2,822,343.8,822.5,342.5,822.5z"/>
			<path style="fill:#99B1E7;" d="M368,831.8l-8.5,12l-0.7,0.2c-0.4,0.1-0.8,0.1-1.1,0.1c-2.3,0-4.4-1.6-4.9-3.9
				c-0.6-2.7,1.1-5.4,3.8-6l10.1-2.3C367.1,831.8,367.6,831.8,368,831.8z"/>
			<path style="fill:#99B1E7;" d="M487.5,594.3c-1.6,0-3.2-0.8-4.2-2.2l-5.7-8.6c-1.5-2.3-0.9-5.4,1.4-6.9s5.4-0.9,6.9,1.4l5.7,8.6
				c1.5,2.3,0.9,5.4-1.4,6.9C489.4,594,488.5,594.3,487.5,594.3z"/>
			<path style="fill:#99B1E7;" d="M497.5,639.9l-1,10.3l0,0l0,0l-2.8,4l0,0c-0.7,0.3-1.4,0.5-2.1,0.5c-0.2,0-0.3,0-0.5,0
				c-2.8-0.3-4.8-2.7-4.5-5.5l1-10.3c0.3-2.8,2.7-4.8,5.5-4.5C495.7,634.7,497.7,637.1,497.5,639.9z"/>
			<path style="fill:#99B1E7;" d="M511.9,610.9L511.9,610.9l-2.5,7.7c-0.5,0.1-1,0.2-1.5,0.2h-10.3c-2.8,0-5-2.2-5-5s2.2-5,5-5h10.3
				C509.5,608.8,511,609.6,511.9,610.9z"/>
		</g>
	</g>
	<g>
		<path style="fill:#F9D5FF;" d="M682,181.4l70.6,86.2c7.4,10.9,8.7,24.8,3.5,36.9S740,325.2,727,327.4l-167.3,28.4
			c-1.1,0.2-2.3,0.3-3.4,0.4c-19.8,1.6-37.8-12.1-41.2-32.1c-3.6-21.1,10.6-41,31.6-44.6l118.2-19.2l-29.8-51L682,181.4z"/>
		<path style="fill:#FDC068;" d="M635.2,209.5L623,189.2c-8-11.8-4.9-27.8,6.9-35.7c11.8-8,27.8-4.9,35.7,6.9l16.3,21.1L635.2,209.5
			z"/>
	</g>
	<g>
		<g>
			<path id="SVGID_6_" style="fill:#FDC068;" d="M583.4,255.7l-25.1-9.9c-13-5.1-19.4-19.8-14.3-32.8l14.9-37.8
				c8.2-20.8,31.6-31,52.4-22.8l0,0c20.8,8.2,31,31.6,22.8,52.4l-13.6,34.7C614.7,254.2,598.1,261.5,583.4,255.7z"/>
		</g>
		<g>
			<path style="fill:#2B2B2B;" d="M631.5,211.5l-3.3,8.4c-1.3-0.8-2.1-2.2-2.1-3.8c0-2.5,2.1-4.6,4.6-4.6
				C631,211.4,631.2,211.4,631.5,211.5z"/>
		</g>
	</g>
	<path style="fill:#FDC068;" d="M546.7,290.8l-27.6-24.5l31.5-70.2l40,15.7L566,285.6C563.3,293.8,553.1,296.5,546.7,290.8z"/>
	<g>
		<path style="fill:#2B2B2B;" d="M615.7,224.9c-0.6,0-1.2-0.5-1.3-1.1c-0.1-0.7,0.4-1.4,1.1-1.5l4.2-0.7c0.5-0.2,0.9-0.5,1.1-0.9
			c0.2-0.4,0.3-0.9,0.1-1.4l-2.8-8.4c-0.2-0.7,0.1-1.4,0.8-1.7c0.7-0.2,1.4,0.1,1.6,0.8l2.8,8.4c0.4,1.1,0.3,2.3-0.2,3.4
			c-0.6,1.1-1.6,1.9-2.7,2.3h-0.2l-4.3,0.7C615.8,224.9,615.8,224.9,615.7,224.9z M620,222.9L620,222.9L620,222.9z"/>
	</g>
	<g>
		<path style="fill:#2B2B2B;" d="M611.3,239.5c-0.7,0-1.2-0.5-1.3-1.2c0-0.1-0.3-2.8-2.3-4.1c-1.5-1-3.6-1.1-6.2-0.3
			c-0.7,0.2-1.4-0.2-1.6-0.9c-0.2-0.7,0.2-1.4,0.9-1.6c3.5-1,6.3-0.8,8.4,0.7c3.1,2.1,3.4,5.9,3.4,6.1c0.1,0.7-0.5,1.3-1.2,1.4
			C611.4,239.5,611.3,239.5,611.3,239.5z"/>
	</g>
	<polygon style="fill:#2B2B2B;" points="576.9,253.1 560.6,246.7 571.4,269.6 	"/>
	<path style="fill:#808B9A;" d="M609.6,151.7c-6.4,16.3,10.5,45.1,25.3,50.9C634.9,202.7,648.4,166.3,609.6,151.7z"/>
	
		<linearGradient id="SVGID_5_" gradientUnits="userSpaceOnUse" x1="644.6815" y1="1158.8745" x2="216.5887" y2="1158.8745" gradientTransform="matrix(0.9967 -0.0809 -0.0809 -0.9967 61.2172 1380.2754)">
		<stop  offset="0" style="stop-color:#77879D"/>
		<stop  offset="0.4092" style="stop-color:#FDBB6D"/>
		<stop  offset="0.4989" style="stop-color:#FDBB9F"/>
		<stop  offset="0.599" style="stop-color:#D1D2D1"/>
		<stop  offset="1" style="stop-color:#FECEAA"/>
	</linearGradient>
	<path style="fill:url(#SVGID_5_);" d="M615.9,154.2c0,0-20.9,61-73.2,46c0,0,9-8.8,15.8-26S585.5,140,615.9,154.2z"/>
	<g>
		<path style="fill:#FDC068;" d="M355.8,533.1L342,561.5c-4.2,10.5-14.1,16.9-24.7,17.2c-3.6,0.1-7.3-0.5-10.9-2
			c-14-5.6-20.8-21.6-15.2-35.6l9.3-29.5L355.8,533.1z"/>
		<path style="fill:#F9D5FF;" d="M578.8,386.7c-21,0.1-53.4,14.8-73,34.1c-17.3,17-52.8,26.9-72.8,32.4c-6.6,1.8-12.8-4.2-11.1-10.8
			l16.4-66.4l50.7-19.6L578.8,386.7z"/>
		<path style="fill:#F9D5FF;" d="M300.5,511.5l38.5-122c2.6-6.5,7-12.2,12.6-16.5L481,275.6c17.1-12.8,41.3-9.4,54.1,7.6
			c12.8,17.1,9.4,41.3-7.6,54.1l-120.8,90.9l-50.9,104.7L300.5,511.5z"/>
	</g>
	<circle style="fill:#2B2B2B;" cx="606.2" cy="206.6" r="4.6"/>
	<g>
		<path style="fill:#2B2B2B;" d="M570.4,363.4c-0.7,0-1.4-0.5-1.5-1.3c-1-6.7,0.7-13.7,5.1-20.8c0.4-0.7,1.4-0.9,2.1-0.5
			c0.7,0.4,0.9,1.4,0.5,2.1c-4,6.5-5.6,12.8-4.7,18.8c0.1,0.8-0.4,1.6-1.3,1.7C570.5,363.4,570.5,363.4,570.4,363.4z"/>
	</g>
	<g>
		<path style="fill:#2B2B2B;" d="M667.3,267.1c-0.6,0-1.1-0.3-1.4-0.9l-2.2-5.2c-0.3-0.8,0-1.6,0.8-2c0.8-0.3,1.6,0,2,0.8l2.2,5.2
			c0.3,0.8,0,1.6-0.8,2C667.7,267.1,667.5,267.1,667.3,267.1z"/>
	</g>
	<g>
		<path style="fill:#2B2B2B;" d="M406.7,429.9c-0.1,0-0.3,0-0.4-0.1c-0.8-0.2-1.2-1.1-1-1.9l2.3-7.5c0.2-0.8,1.1-1.2,1.9-1
			s1.2,1.1,1,1.9l-2.3,7.5C407.9,429.5,407.3,429.9,406.7,429.9z"/>
	</g>
	<g>
		<path style="fill:#2B2B2B;" d="M316,247.9c-0.4,0-0.9-0.2-1.2-0.6c-0.5-0.7-0.4-1.6,0.3-2.1l25.1-19.5c0.7-0.5,1.6-0.4,2.1,0.3
			s0.4,1.6-0.3,2.1l-25.1,19.5C316.6,247.8,316.3,247.9,316,247.9z"/>
	</g>
	<g>
		<path style="fill:#2B2B2B;" d="M689.7,511.3c-0.1,0-0.2,0-0.3,0c-0.8-0.2-1.3-1-1.1-1.8l1.8-7.8c0.2-0.8,1-1.3,1.8-1.1
			c0.8,0.2,1.3,1,1.1,1.8l-1.8,7.8C691,510.8,690.4,511.3,689.7,511.3z"/>
	</g>
	<g>
		<path style="fill:#2B2B2B;" d="M398.9,600.3c-0.3,0-0.6-0.1-0.9-0.3c-0.7-0.5-0.8-1.4-0.4-2.1l8.8-12.5c0.5-0.7,1.4-0.8,2.1-0.4
			c0.7,0.5,0.8,1.4,0.4,2.1l-8.8,12.5C399.8,600.1,399.4,600.3,398.9,600.3z"/>
	</g>
	<g>
		<path style="fill:#2B2B2B;" d="M543.7,516.4c-0.2,0-0.3,0-0.5-0.1c-0.8-0.3-1.2-1.1-1-1.9l8.6-25.9c0.3-0.8,1.1-1.2,1.9-1
			c0.8,0.3,1.2,1.1,1,1.9l-8.6,25.9C544.9,516,544.3,516.4,543.7,516.4z"/>
	</g>
	<path style="fill:#FDC068;" d="M630.6,179.9l32.8-2.7l-1.8-21.6l-31.7-2.3l-5.4,2.4c-5,2.2-8,7.2-7.6,12.6l0,0
		C617.6,175.3,623.7,180.5,630.6,179.9z"/>
</g>
<g>
	<path style="fill:#2B2B2B;" d="M431,413.3c-0.5,0-0.9-0.2-1.2-0.6c-0.5-0.7-0.4-1.6,0.3-2.1l40.1-30.2c0.7-0.5,1.6-0.4,2.1,0.3
		c0.5,0.7,0.4,1.6-0.3,2.1L431.9,413C431.6,413.2,431.3,413.3,431,413.3z"/>
</g>
<path style="fill:#ADC3F1;" d="M725.8,804.8l-77-15.5c-3.2-0.6-5.2-3.7-4.6-6.9l2.2-11c0.6-3.2,3.7-5.2,6.9-4.6l77,15.5
	c3.2,0.6,5.2,3.7,4.6,6.9l-2.2,11C732,803.4,728.9,805.4,725.8,804.8z"/>
<g>
	<g>
		<g>
			<path style="fill:#DBDDC6;" d="M228.2,763.8c-3.1,0-5.6-2.5-5.6-5.6V590.4c0-3.1,2.5-5.6,5.6-5.6s5.6,2.5,5.6,5.6v167.8
				C233.8,761.3,231.3,763.8,228.2,763.8z"/>
		</g>
		<g>
			<path style="fill:#DBDDC6;" d="M228.2,627.8c-0.3,0-0.6,0-0.9-0.1c-3-0.5-5.1-3.4-4.6-6.4c2.3-13.6,14.4-23.1,28.1-22.1
				c3.1,0.2,5.4,2.9,5.1,6c-0.2,3.1-2.9,5.4-6,5.1c-8-0.6-15,4.9-16.3,12.9C233.2,625.8,230.9,627.8,228.2,627.8z"/>
		</g>
		<g>
			<path style="fill:#DBDDC6;" d="M228.2,627.8c-2.7,0-5-1.9-5.5-4.6c-1.3-7.9-8.3-13.4-16.3-12.9c-3.1,0.2-5.7-2.1-6-5.1
				s2.1-5.7,5.1-6c13.7-1,25.8,8.5,28.1,22.1c0.5,3-1.5,5.9-4.6,6.4C228.8,627.7,228.5,627.8,228.2,627.8z"/>
		</g>
		<circle style="fill:#DBDDC6;" cx="228.2" cy="570.7" r="18.6"/>
	</g>
	
		<linearGradient id="SVGID_7_" gradientUnits="userSpaceOnUse" x1="312.9" y1="745" x2="312.9" y2="520.9197" gradientTransform="matrix(1 0 0 -1 0 1392)">
		<stop  offset="0" style="stop-color:#6B9C83"/>
		<stop  offset="0.401" style="stop-color:#A6A6A4"/>
		<stop  offset="0.5011" style="stop-color:#9F9FC8"/>
		<stop  offset="0.5908" style="stop-color:#9FCCEC"/>
		<stop  offset="1" style="stop-color:#FFE7B0"/>
	</linearGradient>
	<path style="fill:url(#SVGID_7_);" d="M75.7,726.3v161.8h474.4c0,0-15.1-123-198.4-123c-103,0-80.1-53.9-148.5-104
		C150.4,622.2,75.7,660.6,75.7,726.3z"/>
</g>
<g>
	<circle style="fill:#BFD9FF;" cx="769.3" cy="375.9" r="4.1"/>
	<circle style="fill:#BFD9FF;" cx="148.4" cy="604.7" r="4.1"/>
	<circle style="fill:#BFD9FF;" cx="228.2" cy="127.5" r="4.1"/>
	<circle style="fill:#BFD9FF;" cx="848.1" cy="269.9" r="4.1"/>
	<circle style="fill:#BFD9FF;" cx="765.2" cy="144.7" r="4.1"/>
	<circle style="fill:#BFD9FF;" cx="250.4" cy="442.6" r="3.8"/>
</g>
<linearGradient id="SVGID_8_" gradientUnits="userSpaceOnUse" x1="944.4" y1="1207.6858" x2="944.4" y2="1134.1566" gradientTransform="matrix(1 0 0 -1 0 1392)">
	<stop  offset="0" style="stop-color:#FFD8A1"/>
	<stop  offset="0.9958" style="stop-color:#FFFFFF"/>
</linearGradient>
<path style="fill:url(#SVGID_8_);" d="M1029.8,243.3c0-37.2-32.9-76.3-74.9-51.9c-41.8,24.3-26.9,62.4-95.9,72h170.8V243.3z"/>
<g>
	<path style="fill:#F9D5FF;" d="M83.4,437.1c1.3,1,2.3,2.2,3.5,3.4c0.5,0.6,1.1,1.2,1.7,1.7c0.6,0.6,1.1,1.1,1.8,1.7
		c2.4,2.2,5,4.2,7.7,6s5.6,3.3,8.6,4.5c1.5,0.6,3.1,1.1,4.6,1.5l2.4,0.5c0.8,0.2,1.6,0.2,2.4,0.4l1.2,0.2l1.2,0.1
		c0.8,0,1.6,0.1,2.4,0.1c1.6-0.1,3.2-0.1,4.9-0.3c3.2-0.4,6.4-1.2,9.5-1.9c6.4-1.3,12.9-2,19.3-1.6c1.6,0,3.2,0.3,4.8,0.5
		c1.6,0.3,3.2,0.5,4.8,1c1.6,0.4,3.1,0.9,4.6,1.4l2.2,0.9c0.8,0.3,1.5,0.7,2.2,1.1c2.9,1.5,5.6,3.3,8.1,5.3s4.9,4.3,7.1,6.7
		c4.4,4.8,8.3,10,12.3,15.1s8.2,10.1,13.1,14.4l-6.6,7.5c-5.6-5-10.2-10.5-14.3-15.7s-7.9-10.2-11.8-14.5c-2-2.1-4-4.1-6-5.7
		c-2.1-1.7-4.2-3.1-6.4-4.2c-0.6-0.3-1.1-0.6-1.7-0.8l-1.7-0.7c-1.2-0.4-2.4-0.8-3.6-1.1c-1.2-0.4-2.5-0.5-3.8-0.8
		c-1.3-0.1-2.6-0.4-3.9-0.4c-5.3-0.3-11,0.3-16.8,1.4l-4.4,1c-2,0.4-3.9,0.9-5.9,1c-2,0.3-4,0.3-6.1,0.4c-1,0-2-0.1-3.1-0.1
		c-0.5,0-1-0.1-1.5-0.1l-1.5-0.2c-1-0.2-2-0.2-3-0.5l-3-0.7c-1.9-0.6-3.9-1.1-5.7-1.9c-3.7-1.4-7.2-3.3-10.5-5.4
		c-3.2-2.1-6.2-4.4-8.9-7c-0.7-0.6-1.3-1.3-2-1.9s-1.3-1.3-1.9-2l-1.7-1.8c-0.2-0.2-0.4-0.4-0.6-0.5L83.4,437.1z"/>
</g>
</svg>
