<?xml version="1.0" encoding="UTF-8"?><svg version="1.1" id="Layer_1" xmlns="http://www.w3.org/2000/svg" xmlns:xlink="http://www.w3.org/1999/xlink" x="0px" y="0px" viewBox="0 0 1920 1080" enable-background="new 0 0 1920 1080" xml:space="preserve" width="1920px" height="1080px">
<g>
	<path fill="#5A38FD" d="M1490.891,993.468c-49.964,0-96.988-19.496-132.355-54.862c-35.366-35.366-54.862-82.391-54.862-132.355
		c0-49.964,19.496-96.988,54.862-132.355c35.366-35.366,82.391-54.862,132.355-54.862c49.964,0,96.988,19.496,132.355,54.862
		c35.366,35.366,54.862,82.391,54.862,132.355c0,49.964-19.496,96.988-54.862,132.355
		C1587.978,973.972,1540.953,993.468,1490.891,993.468z M1490.891,729.836c-42.126,0-76.415,34.289-76.415,76.415
		c0,42.126,34.289,76.415,76.415,76.415c42.126,0,76.415-34.289,76.415-76.415C1567.307,764.125,1533.018,729.836,1490.891,729.836z
		"/>
</g>
<g>
	<path fill="#82B1FF" d="M1253.924,422.843c-41.992,0-76.154-33.988-76.154-75.765s34.163-75.765,76.154-75.765
		c41.992,0,76.154,33.988,76.154,75.765S1295.916,422.843,1253.924,422.843z"/>
</g>
<g>
	<path fill="#5A38FD" d="M1403.443,237.361c-0.485,0-0.975-0.022-1.466-0.067c-5.961-0.549-11.013-4.367-13.183-9.965l-9.805-25.612
		c-1.14-2.964-3.655-5.195-6.726-5.963l-26.585-6.496c-5.828-1.429-10.263-5.936-11.576-11.764
		c-1.313-5.827,0.753-11.795,5.394-15.576l21.311-17.208c2.473-2.009,3.817-5.096,3.592-8.252l-2.099-27.283
		c-0.461-5.99,2.473-11.608,7.654-14.662c5.161-3.037,11.478-2.876,16.488,0.427l22.987,14.992c2.671,1.754,5.993,2.068,8.896,0.848
		l25.324-10.409c5.622-2.352,11.939-1.332,16.476,2.665c4.463,3.935,6.248,9.948,4.659,15.697l-7.097,26.488
		c-0.836,3.041-0.088,6.319,1.995,8.789l17.696,20.896c3.896,4.583,4.833,10.854,2.442,16.364
		c-2.384,5.495-7.591,9.086-13.589,9.372l-27.389,1.398c-3.116,0.148-5.996,1.868-7.714,4.601l-14.388,23.28
		C1413.854,234.596,1408.852,237.361,1403.443,237.361z"/>
</g>
<g>
	<path fill="#222433" d="M1204.358,753.923c-3.842,0-7.696-0.646-11.432-1.95c-8.722-3.043-15.732-9.305-19.74-17.633
		l-58.015-119.681c-4.04-8.342-4.584-17.754-1.533-26.501c3.043-8.723,9.305-15.733,17.633-19.741l119.681-58.016
		c8.344-4.039,17.755-4.583,26.502-1.532c8.723,3.043,15.733,9.305,19.741,17.633l58.016,119.68
		c8.231,17.222,1.008,37.958-16.094,46.24l0.001-0.001L1219.43,750.44C1214.648,752.756,1209.516,753.923,1204.358,753.923z
		 M1266.027,512.922c-4.264,0-8.507,0.965-12.459,2.879l-119.688,58.018c-6.889,3.315-12.062,9.108-14.576,16.314
		c-2.523,7.232-2.073,15.013,1.267,21.909l58.018,119.688c3.315,6.889,9.108,12.063,16.314,14.577
		c7.231,2.523,15.015,2.074,21.91-1.267l119.688-58.018c0-0.001,0.001-0.001,0.001-0.001c14.14-6.848,20.107-24.001,13.303-38.237
		l-58.012-119.673c-3.315-6.889-9.108-12.063-16.314-14.577C1272.391,513.458,1269.203,512.922,1266.027,512.922z"/>
</g>
<g>
	<path fill="#222433" d="M752.632,211.649c-1.289,0-2.479-0.837-2.871-2.134c-2.44-8.082-6.996-15.288-13.175-20.84
		c-1.232-1.107-1.334-3.004-0.227-4.236c1.107-1.232,3.005-1.334,4.236-0.227c6.996,6.286,12.151,14.436,14.909,23.568
		c0.479,1.586-0.419,3.26-2.005,3.739C753.211,211.607,752.919,211.649,752.632,211.649z"/>
</g>
<g>
	<path fill="#222433" d="M745.358,373.36c-14.264,0-27.952-8.423-33.827-22.243l-26.516-64.139
		c-0.633-1.531,0.095-3.286,1.626-3.918c1.53-0.632,3.285,0.095,3.918,1.626l26.504,64.111
		c6.424,15.109,24.065,22.505,39.322,16.457c7.607-2.99,13.581-8.751,16.828-16.226c3.252-7.484,3.39-15.789,0.388-23.382
		l-8.72-22.154c-0.444-1.129-0.165-2.415,0.709-3.258c9.157-8.833,14.201-20.691,14.201-33.391c0-13.054-5.547-25.578-15.218-34.36
		c-1.227-1.114-1.318-3.011-0.205-4.238c1.113-1.227,3.01-1.318,4.238-0.205c10.921,9.917,17.185,24.06,17.185,38.803
		c0,13.668-5.172,26.473-14.607,36.279l7.999,20.322c3.591,9.082,3.426,19.019-0.466,27.975
		c-3.887,8.947-11.036,15.842-20.128,19.416C754.268,372.548,749.784,373.36,745.358,373.36z"/>
</g>
<g>
	<path fill="#5A38FD" d="M656.665,241.715c-0.689-1.794-1.283-3.632-1.776-5.509c-3.497-13.576-1.531-27.568,5.523-39.598
		c-1.342-3.253-2.021-6.698-2.021-10.265c0-14.888,12.112-27,27-27c3.964,0,7.819,0.855,11.355,2.501
		c2.849-13.273,14.638-23.101,28.645-23.101c16.156,0,29.3,13.144,29.3,29.3s-13.144,29.3-29.3,29.3
		c-0.958,0-1.942-0.051-2.938-0.152L686.693,215.1c-3.093,1.559-2.194,5.031-1.056,7.506l10.309,22.818
		C684.791,237.942,669.657,232.8,656.665,241.715z"/>
</g>
<g>
	<path fill="#222433" d="M1133.592,463.144h-2.101c-0.036,0-0.073,0-0.109-0.002l-13.699-0.5c-1.656-0.061-2.949-1.452-2.889-3.107
		s1.474-2.945,3.107-2.889l13.645,0.498h2.046c28.063,0,50.861-22.011,51.901-50.111c0.549-13.888-4.344-27.135-13.773-37.307
		c-9.448-10.191-22.317-16.081-36.236-16.584l-21.305-0.8c-1.656-0.062-2.947-1.455-2.886-3.111c0.062-1.656,1.469-2.948,3.11-2.885
		l21.301,0.8c15.521,0.562,29.875,7.132,40.415,18.501c10.522,11.35,15.981,26.129,15.37,41.615
		C1190.329,438.594,1164.897,463.144,1133.592,463.144z"/>
</g>
<g>
	<path fill="#222433" d="M1106.366,462.115c-0.023,0-0.047,0-0.071-0.001c-57.303-1.345-110.305-3.396-162.036-6.27
		c-1.654-0.092-2.921-1.508-2.829-3.162c0.092-1.654,1.504-2.913,3.162-2.829c51.666,2.871,104.606,4.919,161.844,6.263
		c1.656,0.039,2.968,1.413,2.929,3.069C1109.326,460.818,1107.99,462.115,1106.366,462.115z"/>
</g>
<g>
	<path fill="#222433" d="M1107.789,352.344c-0.021,0-0.044,0-0.065,0c-47.699-1.028-147.43-5.453-148.432-5.497
		c-1.655-0.074-2.938-1.475-2.864-3.13c0.074-1.655,1.499-2.929,3.13-2.864c1.001,0.044,100.663,4.466,148.294,5.492
		c1.656,0.036,2.971,1.408,2.935,3.064C1110.752,351.043,1109.416,352.344,1107.789,352.344z"/>
</g>
<g>
	<g>
		<path fill="#222433" d="M1236.491,998.044c-23.098,0-44.938-8.897-61.494-25.053l-62.751-58.452
			c-1.212-1.13-1.279-3.027-0.15-4.24c1.129-1.212,3.027-1.279,4.24-0.15l62.801,58.5c15.48,15.104,35.831,23.396,57.354,23.396
			c22.179,0,43.012-8.773,58.659-24.703c15.354-15.68,23.676-36.384,23.429-58.295c-0.247-21.883-9.014-42.358-24.684-57.655
			l-181.64-167.643c-1.217-1.123-1.293-3.021-0.169-4.239c1.123-1.216,3.021-1.295,4.239-0.169l181.7,167.7
			c16.879,16.475,26.287,38.451,26.552,61.938c0.266,23.515-8.664,45.733-25.144,62.563
			C1282.646,988.634,1260.293,998.044,1236.491,998.044z"/>
	</g>
	<g>
		<path fill="#222433" d="M1114.391,684.544c-0.728,0-1.457-0.263-2.034-0.796L870.634,460.627l-141.121,44.432
			c-1.581,0.5-3.265-0.379-3.762-1.96c-0.498-1.58,0.38-3.265,1.96-3.762l142.779-44.954c1.026-0.323,2.146-0.072,2.936,0.657
			l243,224.301c1.217,1.123,1.293,3.021,0.169,4.239C1116.005,684.22,1115.199,684.544,1114.391,684.544z"/>
	</g>
	<g>
		<path fill="#222433" d="M1114.29,915.344c-0.732,0-1.466-0.267-2.044-0.805L892.551,709.871c-1.212-1.13-1.279-3.028-0.15-4.24
			c1.128-1.211,3.028-1.278,4.24-0.15l219.695,204.668c1.212,1.13,1.279,3.028,0.15,4.24
			C1115.896,915.022,1115.094,915.344,1114.29,915.344z"/>
	</g>
</g>
<path fill="#5A38FD" d="M800.191,132.044v180.044c3.294-0.686,6.983-0.233,10.507,0.903c0.668-0.144,1.389-0.179,2.158-0.044
	c1.404,0.245,2.715,0.659,3.935,1.208V151.344h289.2v846.3h16.6v-865.6H800.191z"/>
<g>
	<path fill="#222433" d="M1321.448,514.499c-0.614,0-1.229-0.02-1.847-0.061l-71.495-4.4c-7.403-0.432-14.191-3.739-19.103-9.311
		c-4.89-5.545-7.342-12.67-6.907-20.06c0.433-7.412,3.739-14.2,9.311-19.112c5.546-4.888,12.662-7.35,20.06-6.907l71.509,4.4
		c7.404,0.432,14.191,3.739,19.104,9.311c4.889,5.545,7.342,12.669,6.907,20.06c-0.435,7.431-3.746,14.236-9.325,19.161
		C1334.567,512.078,1328.16,514.499,1321.448,514.499z M1249.797,460.599c-5.32,0-10.4,1.913-14.422,5.458
		c-4.361,3.845-6.949,9.159-7.288,14.962c-0.342,5.801,1.582,11.391,5.417,15.741c3.846,4.362,9.159,6.95,14.962,7.289l71.51,4.401
		c0.004,0,0.009,0,0.014,0c5.767,0.379,11.348-1.524,15.701-5.367c4.371-3.858,6.966-9.19,7.306-15.014
		c0.342-5.801-1.583-11.391-5.418-15.741c-3.845-4.362-9.158-6.95-14.962-7.289l-71.51-4.401
		C1250.669,460.612,1250.231,460.599,1249.797,460.599z"/>
</g>
<g>
	<g>
		<path fill="#222433" d="M206.987,999.144c-1.507,0-2.806-1.133-2.978-2.666l-34.3-306.1c-0.185-1.646,1.001-3.131,2.647-3.315
			c1.641-0.183,3.131,1,3.315,2.647l34.3,306.1c0.185,1.646-1.001,3.131-2.647,3.315
			C207.212,999.138,207.099,999.144,206.987,999.144z"/>
	</g>
	<g>
		<g>
			<g>
				<g>
					<path fill="#222433" d="M177.491,735.744c-0.921,0-1.8-0.425-2.372-1.163l-20.378-26.322c-1.014-1.311-0.774-3.194,0.536-4.209
						c1.309-1.014,3.194-0.776,4.208,0.535l17.361,22.425l11.93-25.7c0.697-1.504,2.481-2.159,3.984-1.458
						c1.503,0.697,2.156,2.481,1.458,3.983l-14.006,30.172c-0.441,0.95-1.345,1.602-2.386,1.719
						C177.714,735.738,177.602,735.744,177.491,735.744z"/>
				</g>
			</g>
		</g>
		<g>
			<g>
				<g>
					<path fill="#222433" d="M180.691,764.344c-0.926,0-1.809-0.43-2.38-1.174l-29.481-38.435c-1.008-1.314-0.76-3.198,0.555-4.206
						c1.314-1.01,3.197-0.76,4.206,0.554l26.456,34.49l18.154-39.429c0.693-1.505,2.474-2.163,3.98-1.47
						c1.505,0.692,2.163,2.475,1.47,3.979l-20.233,43.944c-0.439,0.954-1.347,1.609-2.392,1.727
						C180.913,764.338,180.802,764.344,180.691,764.344z"/>
				</g>
			</g>
		</g>
		<g>
			<g>
				<g>
					<path fill="#222433" d="M184.291,797.144c-0.923,0-1.803-0.427-2.375-1.167l-38.123-49.386
						c-1.012-1.312-0.77-3.195,0.542-4.208c1.311-1.012,3.195-0.77,4.208,0.542l35.108,45.481l24.259-52.142
						c0.7-1.503,2.482-2.152,3.986-1.454c1.502,0.698,2.153,2.483,1.455,3.985l-26.34,56.613c-0.442,0.949-1.347,1.6-2.388,1.716
						C184.513,797.138,184.401,797.144,184.291,797.144z"/>
				</g>
			</g>
		</g>
		<g>
			<g>
				<g>
					<path fill="#222433" d="M187.891,828.644c-0.922,0-1.8-0.425-2.372-1.164l-45.141-58.321c-1.014-1.31-0.774-3.194,0.536-4.208
						c1.31-1.014,3.194-0.774,4.209,0.536l42.125,54.424l28.986-62.369c0.698-1.501,2.483-2.155,3.985-1.456
						c1.503,0.698,2.155,2.482,1.457,3.985l-31.063,66.838c-0.441,0.949-1.346,1.6-2.386,1.717
						C188.114,828.638,188.002,828.644,187.891,828.644z"/>
				</g>
			</g>
		</g>
	</g>
</g>
<g>
	<g>
		<path fill="#222433" d="M1738.092,998.644c-1.657,0-3-1.343-3-3v-92.3c0-1.657,1.343-3,3-3s3,1.343,3,3v92.3
			C1741.092,997.301,1739.749,998.644,1738.092,998.644z"/>
	</g>
	<g>
		<path fill="#82B1FF" d="M1770.691,902.344h-65.2c-11.1,0-20.1-9-20.1-20.1s9-20.1,20.1-20.1h65.2c11.1,0,20.1,9,20.1,20.1
			S1781.792,902.344,1770.691,902.344z M1705.491,878.244c-2.2,0-4,1.8-4,4s1.8,4,4,4h65.2c2.2,0,4-1.8,4-4s-1.8-4-4-4H1705.491z"/>
	</g>
	<g>
		<path fill="#222433" d="M1766.592,959.244c-7.874,0-26.462-11.552-30.108-13.868c-0.866-0.55-1.392-1.506-1.392-2.532
			s0.525-1.982,1.392-2.532c3.646-2.316,22.234-13.868,30.108-13.868c9.043,0,16.399,7.357,16.399,16.4
			S1775.635,959.244,1766.592,959.244z M1743.824,942.844c8,4.765,18.763,10.4,22.768,10.4c5.734,0,10.399-4.666,10.399-10.4
			s-4.665-10.4-10.399-10.4C1762.587,932.443,1751.824,938.079,1743.824,942.844z"/>
	</g>
	<g>
		<path fill="#222433" d="M1709.592,959.244c-9.043,0-16.4-7.357-16.4-16.4s7.357-16.4,16.4-16.4
			c7.873,0,26.462,11.552,30.108,13.868c0.866,0.55,1.392,1.506,1.392,2.532s-0.525,1.982-1.392,2.532
			C1736.054,947.692,1717.465,959.244,1709.592,959.244z M1709.592,932.443c-5.734,0-10.4,4.666-10.4,10.4
			c0,5.832,4.568,10.4,10.4,10.4c4.008,0,14.77-5.635,22.768-10.4C1724.359,938.079,1713.596,932.443,1709.592,932.443z"/>
	</g>
</g>
<g>
	<g>
		<path fill="#222433" d="M338.591,1000.344c-1.657,0-3-1.343-3-3v-82.5c0-1.657,1.343-3,3-3s3,1.343,3,3v82.5
			C341.591,999.001,340.248,1000.344,338.591,1000.344z"/>
	</g>
	<circle fill="#82B1FF" cx="338.591" cy="914.844" r="15.7"/>
</g>
<g>
	<g>
		<path fill="#222433" d="M1772.291,998.644h-1623.5c-1.657,0-3-1.343-3-3s1.343-3,3-3h1623.5c1.657,0,3,1.343,3,3
			S1773.948,998.644,1772.291,998.644z"/>
	</g>
</g>
<g>
	<g>
		<path fill="#222433" d="M243.993,999.145c-1.127,0-2.208-0.639-2.718-1.728l-6.8-14.5c-0.703-1.5-0.058-3.286,1.442-3.989
			c1.501-0.703,3.286-0.059,3.99,1.442l6.8,14.5c0.703,1.5,0.058,3.286-1.442,3.989C244.853,999.053,244.42,999.145,243.993,999.145
			z"/>
	</g>
	<g>
		<path fill="#222433" d="M260.489,999.145c-0.432,0-0.871-0.094-1.287-0.292c-1.496-0.712-2.132-2.502-1.42-3.998l6.9-14.5
			c0.712-1.497,2.503-2.134,3.998-1.42c1.496,0.712,2.132,2.502,1.42,3.998l-6.9,14.5
			C262.686,998.513,261.61,999.145,260.489,999.145z"/>
	</g>
	<g>
		<path fill="#222433" d="M252.292,999.144c-1.657,0-3-1.343-3-3v-17.7c0-1.657,1.343-3,3-3s3,1.343,3,3v17.7
			C255.292,997.801,253.948,999.144,252.292,999.144z"/>
	</g>
</g>
<g>
	<path fill="#222433" d="M871.288,460.244c-1.452,0-2.728-1.056-2.96-2.535l-8.942-56.969c-0.257-1.637,0.862-3.172,2.499-3.429
		c1.638-0.254,3.172,0.862,3.429,2.499l8.942,56.969c0.257,1.637-0.862,3.172-2.499,3.429
		C871.599,460.232,871.442,460.244,871.288,460.244z"/>
</g>
<g>
	<path fill="#222433" d="M736.191,245.845c-1.233,0-2.389-0.767-2.826-1.995c-0.556-1.561,0.259-3.277,1.82-3.833l9.602-3.419
		l-11.703-17.808c-0.91-1.385-0.525-3.245,0.86-4.155c1.386-0.91,3.245-0.524,4.155,0.86l13.8,21c0.505,0.77,0.63,1.729,0.337,2.602
		s-0.97,1.563-1.838,1.872l-13.2,4.7C736.865,245.789,736.525,245.845,736.191,245.845z"/>
</g>
<circle fill="#222433" cx="717.591" cy="231.844" r="5.2"/>
<circle fill="#222433" cx="752.991" cy="219.344" r="5.2"/>
<g>
	<path fill="#222433" d="M733.662,319.198c-6.409,0-12.953-1.195-19.054-3.557c-1.545-0.598-2.313-2.336-1.715-3.881
		c0.599-1.545,2.338-2.312,3.881-1.715c9.403,3.64,19.955,4.16,28.944,1.428c12.147-3.738,19.789-11.189,19.865-11.264
		c1.178-1.165,3.078-1.152,4.242,0.026s1.153,3.078-0.026,4.242c-0.352,0.348-8.779,8.565-22.326,12.733
		C743.103,318.54,738.419,319.198,733.662,319.198z"/>
</g>
<g>
	<path fill="#222433" d="M672.691,293.444c-16.542,0-30-13.458-30-30s13.458-30,30-30c12.778,0,24.172,8.108,28.353,20.175
		c0.542,1.565-0.287,3.274-1.853,3.816c-1.563,0.543-3.274-0.287-3.816-1.853c-3.345-9.653-12.46-16.139-22.684-16.139
		c-13.234,0-24,10.766-24,24s10.766,24,24,24c4.809,0,9.449-1.417,13.417-4.097c1.373-0.927,3.238-0.566,4.165,0.807
		c0.928,1.373,0.566,3.238-0.807,4.165C684.503,291.671,678.702,293.444,672.691,293.444z"/>
</g>
<g>
	<path fill="#222433" d="M671.392,273.444c-0.803,0-1.604-0.32-2.194-0.954c-1.13-1.211-1.064-3.11,0.147-4.24l7.599-7.088
		l-17.37,0.48c-1.679,0.026-3.036-1.26-3.082-2.916c-0.045-1.656,1.26-3.036,2.916-3.082l25.3-0.7
		c1.256-0.007,2.385,0.707,2.859,1.861c0.473,1.154,0.183,2.481-0.729,3.332l-13.4,12.5
		C672.86,273.177,672.125,273.444,671.392,273.444z"/>
</g>
<g>
	<path fill="#222433" d="M749.258,276.659c-8.081,0-14.986-6.591-17.957-14.113c-0.306-0.775-0.276-1.642,0.083-2.394
		c0.358-0.752,1.014-1.321,1.808-1.571l26.1-8.2c0.763-0.239,1.589-0.165,2.297,0.208c0.708,0.373,1.237,1.012,1.471,1.776
		c3.892,12.707-1.555,20.911-8.68,23.405C752.639,276.379,750.923,276.659,749.258,276.659z M738.287,263.271
		c3.719,6.443,9.637,8.401,14.111,6.836c3.647-1.277,7.02-5.424,5.646-13.044L738.287,263.271z"/>
</g>
<path fill="#5A38FD" d="M807.422,882.002c-1.764,0.148-4.476,0.049-7.231-0.467v114.609h16.6V879.591
	C813.858,880.902,810.674,881.729,807.422,882.002z"/>
<g>
	<path fill="#222433" d="M553.189,1000.645c-0.48,0-0.967-0.116-1.419-0.359l-44.8-24.1c-0.893-0.479-1.482-1.378-1.568-2.389
		l-5.332-62.968l-44.529,34.876c-0.631,0.495-1.433,0.72-2.231,0.614c-0.796-0.102-1.518-0.519-2.004-1.156l-35-45.9
		c-1.003-1.316-0.751-3.197,0.563-4.202l127.9-97.8c1.316-1.006,3.199-0.756,4.206,0.561c1.006,1.316,0.755,3.199-0.561,4.205
		l-125.52,95.98l31.341,41.102l46.507-36.426c0.868-0.679,2.038-0.83,3.048-0.389c1.01,0.44,1.698,1.398,1.791,2.497l5.663,66.881
		l43.369,23.33c1.459,0.784,2.005,2.604,1.221,4.062C555.292,1000.071,554.257,1000.645,553.189,1000.645z"/>
</g>
<g>
	<path fill="#222433" d="M689.812,999.839c-0.135,0-0.272-0.009-0.41-0.027c-1.642-0.225-2.791-1.737-2.566-3.379
		c1.206-8.828-3.06-16.065-6.851-20.582c-8.294-9.884-22.246-16.362-36.409-16.909c-5.375-0.241-9.911-3.504-11.856-8.515
		c-1.924-4.956-0.793-10.36,2.951-14.104l10.8-10.8c1.171-1.172,3.071-1.172,4.242,0c1.172,1.171,1.172,3.071,0,4.242l-10.8,10.8
		c-2.068,2.069-2.667,4.944-1.6,7.691c0.84,2.164,2.992,4.532,6.513,4.69c15.783,0.609,31.406,7.908,40.754,19.047
		c6.46,7.698,9.373,16.666,8.2,25.252C692.575,998.749,691.288,999.839,689.812,999.839z"/>
</g>
<g>
	<g>
		<path fill="#222433" d="M897.06,741.344c-0.025,0-0.05,0-0.076-0.001c-1.657-0.041-2.966-1.417-2.925-3.073
			c0.083-3.362-4.583-54.329-7.741-87.767c-0.156-1.649,1.055-3.113,2.705-3.269c1.661-0.163,3.113,1.055,3.269,2.704
			c0.807,8.551,7.884,83.679,7.765,88.479C900.017,740.049,898.682,741.344,897.06,741.344z"/>
	</g>
	<g>
		<path fill="#222433" d="M647.593,930.644c-0.893,0-1.769-0.397-2.356-1.141l-101-127.899c-0.529-0.67-0.748-1.533-0.601-2.374
			c0.146-0.84,0.644-1.579,1.368-2.03l171.7-107.127l0.358-51.341c0.012-1.65,1.353-2.979,3-2.979c0.007,0,0.014,0,0.021,0
			c1.657,0.012,2.991,1.364,2.979,3.021l-0.37,52.992c-0.007,1.028-0.54,1.98-1.412,2.524L551.023,800.516l97.325,123.245
			l82.23-46.824c1.44-0.819,3.271-0.317,4.091,1.123c0.82,1.439,0.317,3.271-1.123,4.092l-84.471,48.1
			C648.61,930.516,648.099,930.644,647.593,930.644z"/>
	</g>
</g>
<g>
	<g>
		<path fill="#222433" d="M1329.173,304.244c-0.55,0-1.095-0.151-1.571-0.444l-60.285-37.061c-1.403-0.863-1.849-2.697-0.996-4.107
			c13.104-21.689,6.214-50.146-15.358-63.437c-10.339-6.368-22.538-8.295-34.351-5.427c-11.932,2.897-22.008,10.31-28.371,20.872
			c-0.413,0.686-1.082,1.177-1.86,1.367c-0.775,0.187-1.599,0.06-2.28-0.359l-60.285-37.061c-1.402-0.862-1.848-2.693-0.999-4.103
			c16.926-28.109,43.734-47.907,75.489-55.747c31.734-7.835,64.577-2.69,92.478,14.486c27.893,17.173,47.512,44.257,55.24,76.263
			c7.735,32.03,2.664,65.167-14.279,93.307c-0.413,0.686-1.083,1.178-1.86,1.368C1329.648,304.215,1329.41,304.244,1329.173,304.244
			z M1272.923,263.142l55.209,33.941c14.895-26.205,19.183-56.69,12.059-86.19c-7.354-30.455-26.019-56.225-52.555-72.562
			c-26.519-16.327-57.734-21.218-87.894-13.77c-29.235,7.218-54.062,25.096-70.222,50.49l55.216,33.944
			c7.229-10.588,17.94-18.018,30.459-21.058c13.381-3.25,27.201-1.065,38.913,6.149
			C1277.623,208.573,1285.691,239.015,1272.923,263.142z"/>
	</g>
</g>
<g>
	<path fill="#222433" d="M1469.164,620.244c-0.449,0-0.9-0.101-1.319-0.306L1298.1,536.852c-0.936-0.458-1.567-1.37-1.667-2.407
		c-0.1-1.038,0.347-2.053,1.179-2.681l140.819-106.335c0.844-0.637,1.961-0.784,2.938-0.385c0.979,0.398,1.676,1.281,1.836,2.326
		l28.926,189.421c0.168,1.104-0.29,2.21-1.189,2.871C1470.416,620.047,1469.792,620.244,1469.164,620.244z M1305.123,533.609
		l160.21,78.419l-27.301-178.781L1305.123,533.609z"/>
</g>
<g>
	<g>
		<path fill="#222433" d="M817.755,597.458c-1.54,0-2.85-1.178-2.985-2.74c-1.537-17.694-11.847-33.216-27.579-41.521
			l-65.298-34.399c-1.343-0.708-1.946-2.308-1.404-3.726l32.7-85.5c0.592-1.547,2.328-2.322,3.874-1.73
			c1.547,0.592,2.322,2.326,1.73,3.874l-31.75,83.014l62.946,33.16c17.546,9.263,29.044,26.573,30.758,46.309
			c0.144,1.65-1.079,3.105-2.729,3.248C817.93,597.454,817.842,597.458,817.755,597.458z"/>
	</g>
</g>
<g>
	<path fill="#222433" d="M1575.331,630.562c-31.29,0-62.615-11.671-86.822-35.129c-23.902-23.164-37.338-54.255-37.83-87.548
		c-0.491-33.276,12.001-64.773,35.178-88.689c0.554-0.571,1.312-0.899,2.108-0.912c0.775-0.039,1.564,0.292,2.135,0.847
		l174.581,169.408c1.188,1.153,1.218,3.052,0.065,4.241C1640.38,617.924,1607.875,630.562,1575.331,630.562z M1488.103,425.553
		c-20.74,22.483-31.878,51.569-31.424,82.244c0.468,31.688,13.255,61.281,36.006,83.328c46.288,44.855,119.962,44.45,165.64-0.393
		L1488.103,425.553z"/>
</g>
<path fill="#82B1FF" d="M899.692,735.343h-29.301v-0.8c0-16.278-6.281-31.655-17.686-43.299
	c-1.159-1.183,4.161,60.792-12.006,58.249c-8.605,0.269-7.968-14.15-9.592-14.15h-58.515v-0.8c0-7.823,2.465-15.239,7.124-21.473
	c0.277-0.119,0.367-0.21,0.192-0.264c0.28-0.368-0.29-0.509-1.421-0.494c-13.909-5.427-12.008-23.234-13.159-22.115
	c-12.083,11.763-18.736,27.512-18.736,44.346v0.8h-29.3c-18.637,0-33.8,15.163-33.8,33.801v79.6c0,18.638,15.163,33.8,33.8,33.8
	h182.4c18.638,0,33.8-15.162,33.8-33.8v-79.6C933.492,750.506,918.33,735.343,899.692,735.343z"/>
<g>
	<g>
		<path fill="#222433" d="M840.304,751.854c-9.834,0.001-11.413-8.616-14.625-26.121c-0.953-5.195-2.068-11.275-3.583-18.427
			c-2.8,3.739-7.235,6.716-13.453,7.033c-4.271,0.223-10.74-0.715-14.486-7.434c-0.041,0.065-0.082,0.13-0.124,0.194
			c-2.896,4.468-7.32,6.971-12.796,7.239c-9.103,0.397-14.359-6.036-16.122-19.609c-4.486-34.308-13.074-44.643-24.959-58.948
			c-1.3-1.565-2.632-3.169-3.995-4.848c-9.555-11.736-14.624-31.945-4.402-50.63c7.584-13.902,28.3-25.729,46.182-26.366
			c12.59-0.438,22.458,4.354,28.574,13.885c10.082,15.843,17.342,32.301,24.362,48.218c2.338,5.301,4.756,10.783,7.236,16.143
			c11.113,24.122,24.471,93.17,13.146,113.193c-2.685,4.747-6.236,6.072-8.741,6.349C841.738,751.812,841,751.854,840.304,751.854z
			 M822.794,693.644c1.375,0,2.597,0.944,2.918,2.314c2.771,11.805,4.489,21.169,5.869,28.693
			c3.626,19.765,4.587,21.733,10.282,21.11c0.604-0.067,2.439-0.269,4.175-3.339c4.309-7.618,4.754-26.766,1.192-51.221
			c-3.171-21.772-9.024-44.479-14.563-56.504c-2.5-5.403-4.929-10.91-7.278-16.236c-6.93-15.712-14.097-31.958-23.928-47.408
			c-6.196-9.654-16.094-11.371-23.305-11.119c-15.728,0.561-34.563,11.206-41.13,23.246c0,0.001-0.001,0.002-0.002,0.003
			c-8.884,16.24-4.496,33.783,3.794,43.966c1.35,1.664,2.668,3.251,3.955,4.799c12.058,14.513,21.582,25.976,26.293,62.007
			c1.912,14.725,7.508,14.488,9.9,14.392c10.208-0.501,10.325-12.013,10.325-12.503c0-1.615,1.278-2.939,2.892-2.998
			c1.586-0.062,2.984,1.171,3.1,2.782c0.857,11.882,6.719,12.959,11.048,12.72c7.952-0.405,11.538-7.192,11.46-11.651
			c-0.027-1.533,1.106-2.84,2.628-3.029C822.546,693.651,822.67,693.644,822.794,693.644z M734.392,581.744h0.01H734.392z"/>
	</g>
</g>
<g>
	<path fill="#222433" d="M757.041,235.807c-2.815,0-5.633-0.543-8.324-1.632c-5.508-2.227-9.835-6.471-12.183-11.949l-2.408-5.718
		c-0.641-1.523,0.07-3.278,1.591-3.925l35.5-15.1c0.734-0.311,1.562-0.318,2.301-0.02c0.739,0.299,1.329,0.881,1.638,1.616l2.4,5.7
		c2.345,5.473,2.403,11.554,0.154,17.105c-2.238,5.526-6.481,9.83-11.949,12.121C762.958,235.206,760,235.807,757.041,235.807z
		 M740.816,216.935l1.24,2.945c1.712,3.995,4.879,7.103,8.909,8.733c4.031,1.63,8.451,1.584,12.444-0.126
		c0.008-0.003,0.016-0.007,0.024-0.01c3.986-1.668,7.082-4.809,8.716-8.844c1.643-4.057,1.602-8.499-0.116-12.507l-1.239-2.943
		L740.816,216.935z"/>
</g>
<g>
	<path fill="#222433" d="M714.041,254.007c-2.815,0-5.633-0.543-8.324-1.632c-5.508-2.228-9.835-6.471-12.183-11.95l-2.408-5.717
		c-0.641-1.523,0.07-3.278,1.591-3.925l35.5-15.1c0.735-0.311,1.562-0.318,2.301-0.02c0.739,0.299,1.329,0.881,1.638,1.616l2.4,5.7
		c4.822,11.252-0.461,24.369-11.784,29.222l0,0C719.966,253.404,717.004,254.007,714.041,254.007z M721.591,249.444h0.01H721.591z
		 M697.816,235.135l1.24,2.945c1.712,3.996,4.879,7.103,8.909,8.733c4.032,1.63,8.451,1.584,12.444-0.126l0,0
		c8.282-3.55,12.151-13.132,8.625-21.361l-1.239-2.942L697.816,235.135z"/>
</g>
<g>
	<path fill="#222433" d="M729.393,221.445c-1.178,0-2.295-0.698-2.773-1.854c-0.634-1.531,0.094-3.286,1.625-3.919l8.7-3.6
		c1.529-0.635,3.286,0.093,3.919,1.625c0.634,1.531-0.094,3.286-1.625,3.919l-8.7,3.6
		C730.164,221.371,729.775,221.445,729.393,221.445z"/>
</g>
<g>
	<path fill="#222433" d="M1407.894,399.065c-17.195,0-33.877-5.463-47.963-15.871c-17.396-12.854-28.743-31.708-31.947-53.09l0,0
		c-3.206-21.384,2.106-42.741,14.959-60.135c12.854-17.397,31.708-28.743,53.09-31.948l76.382-11.524
		c44.154-6.622,85.469,23.907,92.086,68.048c6.618,44.159-23.908,85.467-68.05,92.083l-76.382,11.524
		C1416.001,398.764,1411.932,399.065,1407.894,399.065z M1484.472,231.597c-3.686,0-7.412,0.272-11.166,0.835l-76.382,11.524
		c-19.798,2.968-37.255,13.473-49.156,29.58c-11.899,16.105-16.818,35.88-13.851,55.68l0,0
		c2.967,19.796,13.472,37.252,29.579,49.154c16.106,11.9,35.878,16.817,55.681,13.852l76.382-11.524
		c40.872-6.126,69.136-44.374,63.008-85.26C1553.002,258.319,1520.939,231.597,1484.472,231.597z"/>
</g>
<g>
	<path fill="#222433" d="M514.189,473.744c-0.604,0-1.215-0.182-1.744-0.561l-48.9-35c-1.347-0.964-1.658-2.838-0.693-4.186
		c0.965-1.347,2.84-1.657,4.186-0.693l48.9,35c1.347,0.964,1.658,2.838,0.693,4.186
		C516.045,473.308,515.124,473.744,514.189,473.744z"/>
</g>
<g>
	<path fill="#222433" d="M467.193,630.045c-1.119,0-2.192-0.629-2.708-1.705c-0.715-1.495-0.084-3.286,1.411-4.002l54.3-26
		c1.494-0.715,3.286-0.084,4.001,1.41c0.715,1.495,0.084,3.286-1.411,4.002l-54.3,26
		C468.069,629.95,467.628,630.045,467.193,630.045z"/>
</g>
<g>
	<path fill="#222433" d="M437.588,534.144c-1.575,0-2.896-1.228-2.992-2.82c-0.099-1.654,1.161-3.075,2.815-3.174l60-3.6
		c1.647-0.095,3.075,1.161,3.174,2.815c0.099,1.654-1.161,3.075-2.815,3.174l-60,3.6
		C437.71,534.142,437.649,534.144,437.588,534.144z"/>
</g>
<g>
	<path fill="#222433" d="M982.489,358.344c-0.45,0-0.906-0.101-1.336-0.315l-23.066-11.495c-1.483-0.739-2.086-2.54-1.347-4.023
		c0.739-1.483,2.541-2.085,4.023-1.347l23.065,11.495c1.483,0.739,2.086,2.54,1.348,4.023
		C984.651,357.735,983.591,358.344,982.489,358.344z"/>
</g>
<g>
	<path fill="#222433" d="M723.291,519.145c-0.355,0-0.717-0.064-1.069-0.198c-1.548-0.59-2.324-2.324-1.733-3.872l26.1-68.4
		c0.591-1.548,2.327-2.323,3.872-1.733c1.548,0.59,2.324,2.324,1.733,3.872l-26.1,68.4
		C725.638,518.409,724.499,519.145,723.291,519.145z"/>
</g>
<g>
	<path fill="#222433" d="M721.088,714.144c-1.559,0-2.875-1.205-2.989-2.784l-1.4-19.399c-0.119-1.652,1.124-3.089,2.776-3.208
		c1.652-0.112,3.089,1.124,3.208,2.776l1.4,19.399c0.119,1.652-1.124,3.089-2.776,3.208
		C721.234,714.141,721.161,714.144,721.088,714.144z"/>
</g>
<g>
	<g>
		<path fill="#222433" d="M538.183,369.53c-2.217,0-4.357-0.96-5.875-2.739l-22.795-26.595c-3.848-4.531-9.669-7.078-15.6-6.859
			c-1.025,0.107-1.996,0.107-3.022,0.107h-90.1c-44.664,0-81-36.336-81-81s36.336-81,81-81h90.1
			c21.666,0,42.011,8.433,57.289,23.747c15.276,15.311,23.661,35.682,23.611,57.36c0,19.979-7.376,39.194-20.769,54.098
			c-3.246,3.598-5.032,8.246-5.032,13.095v42c0,3.292-2.001,6.157-5.098,7.298C540.002,369.371,539.086,369.53,538.183,369.53z
			 M494.643,327.323c7.421,0,14.62,3.308,19.436,8.979l22.791,26.59c0.725,0.85,1.604,0.647,1.949,0.521
			c0.275-0.102,1.173-0.521,1.173-1.668v-42c0-6.337,2.334-12.413,6.573-17.11c12.397-13.797,19.227-31.588,19.227-50.09
			c0.046-20.08-7.716-38.94-21.858-53.116c-14.144-14.176-32.981-21.984-53.042-21.984h-90.1c-41.355,0-75,33.645-75,75
			s33.645,75,75,75h90.1c0.93,0,1.733,0,2.468-0.082c0.067-0.008,0.134-0.013,0.201-0.016
			C493.922,327.331,494.283,327.323,494.643,327.323z"/>
	</g>
	<g>
		<path fill="#222433" d="M509.892,235.944h-121.5c-1.657,0-3-1.343-3-3s1.343-3,3-3h121.5c1.657,0,3,1.343,3,3
			S511.548,235.944,509.892,235.944z"/>
	</g>
	<g>
		<path fill="#222433" d="M456.392,269.744h-68c-1.657,0-3-1.343-3-3s1.343-3,3-3h68c1.657,0,3,1.343,3,3
			S458.048,269.744,456.392,269.744z"/>
	</g>
</g>
<g>
	<path fill="#222433" d="M944.428,455.85c-0.206,0-0.415-0.021-0.624-0.065c-45.547-9.636-75.777-15.437-76.077-15.494
		c-1.627-0.312-2.694-1.883-2.382-3.511c0.312-1.627,1.885-2.692,3.511-2.382c0.3,0.058,30.587,5.869,76.19,15.517
		c1.621,0.343,2.657,1.935,2.314,3.556C947.062,454.882,945.816,455.85,944.428,455.85z"/>
</g>
<g>
	<path fill="#222433" d="M755.634,656.752c-0.131,0-0.264-0.008-0.397-0.026c-6.815-0.902-13.33-3.001-19.363-6.238l-108.381-57.19
		c-25.879-13.676-37.53-44.638-27.104-72.021l50.001-131.002c6.684-19.073,21.941-33.374,45.319-42.428l15.216-6.058
		c1.539-0.614,3.284,0.138,3.896,1.678c0.613,1.539-0.138,3.284-1.678,3.896l-15.242,6.068
		c-21.998,8.52-35.688,21.243-41.878,38.905l-50.028,131.078c-9.349,24.553,1.097,52.316,24.299,64.578l108.398,57.199
		c5.412,2.904,11.237,4.78,17.332,5.588c1.643,0.217,2.798,1.725,2.581,3.367C758.404,655.654,757.115,656.752,755.634,656.752z"/>
</g>
<g>
	<path fill="#222433" d="M959.428,346.85c-0.199,0-0.401-0.02-0.604-0.062c-43.108-8.817-146.293-29.265-149.116-29.824
		c-9.35-1.512-19.002-0.451-27.915,3.07l-6.194,2.466c-1.538,0.614-3.284-0.138-3.896-1.678c-0.613-1.539,0.138-3.284,1.678-3.896
		l6.202-2.469c9.941-3.928,20.707-5.104,31.14-3.407c0.034,0.005,0.067,0.011,0.101,0.018
		c1.052,0.208,105.697,20.943,149.203,29.842c1.623,0.332,2.67,1.917,2.338,3.54C962.074,345.871,960.824,346.85,959.428,346.85z"/>
</g>
<g>
	<path fill="#5A38FD" d="M1192.173,463.046c-7.288,0-13.681-5.32-14.811-12.746c-1.246-8.189,4.383-15.839,12.573-17.085
		l446.3-67.899c8.192-1.242,15.839,4.384,17.085,12.573s-4.383,15.839-12.573,17.085l-446.3,67.899
		C1193.684,462.989,1192.923,463.046,1192.173,463.046z"/>
</g>
</svg>