<?xml version="1.0" encoding="UTF-8"?>
<svg id="Layer_1" data-name="Layer 1" xmlns="http://www.w3.org/2000/svg" viewBox="0 0 1920 1080" x="0px" y="0px"
     width="1920px" height="1080px" version="1.1"><path d="M550.114,339.434l-141.36,48.43a32.3,32.3,0,0,1-3.2-2.23c-6.03-4.8-5.3-19.19-1.19-23.35,10.241-10.35,50.09-22.68,44.19-37.99-2.96-7.7-15.719-11.28-30.25-9.26-37.54,5.2-111.87,70.22-111.87,70.22.6-15.17,8.56-39.42,16.131-49.53l-32.591-17.41,1.37,7.14a59.686,59.686,0,0,1-1.41,28.3c-5.6-16-28.47-56.8-68.269-38.02-29.241,13.8-21.781,47.3-14.8,61.91-3.779-.96-10.739.22-15.3,3.02a59.824,59.824,0,0,1-18.1-32.73l-24.89-130.51a59.98,59.98,0,0,1,93.38-60.83l155.631,83.17c.58-.14,1.169-.29,1.759-.41q2.31-.54,4.65-.9c1.95-.32,3.91-.56,5.87-.74-2.93,9.32-8.8,30.46,18.221,42.74,28.449,12.92,42.77-14.35,45.779-20.13a54.9,54.9,0,0,1,43.721,26.13Z" fill="#82b1ff"/><path d="M694.014,449.8c-.42.39-.84.77-1.26,1.15l-81.3,73.95a55.092,55.092,0,0,1-83.9-11.9L478.925,408.98l93.519-33.166,14.141,23.02,32.169-29.25a54.773,54.773,0,0,1,20.869-12.291C623,377.2,598.17,409.829,634.605,436.651c54.956,22.061,64.795-27.671,74.536-42.543A55.014,55.014,0,0,1,694.014,449.8Z" fill="#82b1ff"/><path d="M1534.49,116.03c12.553,0,5.637,14.155,3.791,29.641-4.847,1.043-14.492,5.342-17.917,9-3.6,3.85-5.833,10.007-6.9,19.928a33.061,33.061,0,0,1,21.029-58.571Z" fill="#5a38fd"/><path d="M1655.944,135.454a36.2,36.2,0,0,1-1.137,9.026c-8-6.543-20.293-6.759-27.155-3.758-4.334,1.895-16.991,12.56-16.991,12.56l-9.352-49.045c4.32-1.83,13.535-4.893,18.526-4.893A36.107,36.107,0,0,1,1655.944,135.454Z" fill="#5a38fd"/><path d="M1533.308,218.356c4.639,10.7,20.227,25.6,36.811,28.64,2.678,5.2,4.554,14.639,6.955,22.359-6.676,5.32-11.982,16.452-13.9,27.056q-2.5.2-5.056.2a63.933,63.933,0,0,1-7.9-.487c-.822-9.162-12.585-32.547-41.175-22.749a63.436,63.436,0,0,1,7.151-87.8l5.438,7.3s1.776,2.322,8.341,3.654A46.5,46.5,0,0,0,1533.308,218.356Z" fill="#5a38fd"/><path d="M1657.449,190.721c7.543-5.881,10.861-15.421,11.973-24.313a68.063,68.063,0,0,1,37.693,81.3c-11.306-4.226-17.7-8.258-44.43-10.6-9.321-.817-16.908,4.857-18.26-.429-3.212-12.556-5.83-22.611-11.452-39.968C1651.682,199.3,1652.481,194.6,1657.449,190.721Z" fill="#5a38fd"/><path d="M1360.69,503.55a3,3,0,0,1-3-3V460.89a3,3,0,1,1,6,0v39.66A3,3,0,0,1,1360.69,503.55Z" fill="#222433"/><path d="M1360.69,1021.49a3,3,0,0,1-3-3V560.55a3,3,0,0,1,6,0v457.94A3,3,0,0,1,1360.69,1021.49Z" fill="#222433"/><path d="M1193.4,560.953a3,3,0,0,1-1.376-5.668,51.77,51.77,0,0,0,15.142-11.773l106.111-122.357a3,3,0,1,1,4.532,3.931l-106.13,122.38a57.8,57.8,0,0,1-16.908,13.153A2.982,2.982,0,0,1,1193.4,560.953Z" fill="#222433"/><path d="M1156.118,442.74a2.994,2.994,0,0,1-1.552-.433L1077.8,395.84c-.077-.047-.152-.1-.224-.149a62.729,62.729,0,0,0-34.339-10.171h-21.829a3,3,0,0,1,0-6h21.831A68.723,68.723,0,0,1,1081,390.76l.049.033,74.486,45.085,73.781-83.376c1.1-1.241,2.264-2.451,3.463-3.6a3,3,0,0,1,4.14,4.344c-1.077,1.026-2.122,2.112-3.109,3.227l-75.44,85.251A3,3,0,0,1,1156.118,442.74Z" fill="#222433"/><path d="M903.2,392.705a3,3,0,0,1-1.364-5.674,69.258,69.258,0,0,1,31.346-7.511h22.946a3,3,0,0,1,0,6H933.184a63.256,63.256,0,0,0-28.623,6.857A2.98,2.98,0,0,1,903.2,392.705Z" fill="#222433"/><path d="M989.34,437a53.06,53.06,0,0,1-53-53,3,3,0,0,1,6,0,47,47,0,1,0,94,0,3,3,0,0,1,6,0A53.06,53.06,0,0,1,989.34,437Z" fill="#222433"/><path d="M988.23,418.11h-.06a3,3,0,1,1,.06,0Z" fill="#222433"/><path d="M988.2,418.11a35.048,35.048,0,0,1-34.973-35V347.276c-16.429-9.594-25.81-26.039-25.81-45.4a61.037,61.037,0,0,1,.626-8.7c-.892.088-1.79.132-2.686.132a27.19,27.19,0,0,1,0-54.38h.13a61.392,61.392,0,0,1-.89-10.515c0-15.254,5.325-28.564,15.4-38.487,11.39-11.219,27.984-17.2,46.736-16.958h2.975c18.71-.282,35.3,5.739,46.691,16.958,10.074,9.923,15.4,23.233,15.4,38.492a61.42,61.42,0,0,1-.89,10.51h.13a27.19,27.19,0,1,1,0,54.38c-.9,0-1.794-.044-2.686-.132a61.037,61.037,0,0,1,.626,8.7c0,19.357-9.381,35.8-25.81,45.4V383.11A35.047,35.047,0,0,1,988.2,418.11ZM930.177,286.829h1.511a3,3,0,0,1,2.934,3.623,55.193,55.193,0,0,0-1.2,11.428c0,17.956,8.609,32.519,24.241,41.006a3,3,0,0,1,1.569,2.637V383.11a28.97,28.97,0,1,0,57.94,0V345.523a3,3,0,0,1,1.569-2.637c15.632-8.487,24.241-23.05,24.241-41.006a55.125,55.125,0,0,0-1.2-11.428,3,3,0,0,1,2.934-3.623h1.511a2.953,2.953,0,0,1,.593.06,21.192,21.192,0,1,0,4.224-41.959,21.638,21.638,0,0,0-3.4.275,3,3,0,0,1-3.395-3.652l.076-.305a55.47,55.47,0,0,0,1.484-12.823c0-13.62-4.706-25.453-13.61-34.223-10.235-10.081-25.307-15.491-42.435-15.232H986.69c-17.171-.25-32.245,5.151-42.48,15.232-8.9,8.77-13.61,20.6-13.61,34.218a55.443,55.443,0,0,0,1.48,12.811l.08.322a3,3,0,0,1-3.395,3.652,21.629,21.629,0,0,0-3.4-.275,21.19,21.19,0,1,0,4.224,41.959A2.953,2.953,0,0,1,930.177,286.829Z" fill="#222433"/><path d="M1043.244,284.8c-5.92-4.48-14.65-2.04-25.72,1.06-8.76,2.45-18.689,5.24-29.32,5.24s-20.57-2.79-29.329-5.24c-11.071-3.1-19.8-5.55-25.721-1.06-3.91,2.97-5.73,8.4-5.73,17.08,0,16.16,6.22,29.96,17.98,39.89,10.98,9.28,26.181,14.39,42.8,14.39s31.81-5.11,42.79-14.39c11.77-9.93,17.99-23.73,17.99-39.89C1048.984,293.2,1047.154,287.774,1043.244,284.8Zm-76.46,18.72h42.87C1002.355,338.884,965.844,327.714,966.784,303.524Z" fill="#5a38fd"/><path d="M987.847,329.043a22.223,22.223,0,0,1-2.717-.166A24.689,24.689,0,0,1,963.782,303.4a3,3,0,0,1,3-2.884h42.87a3,3,0,0,1,2.938,3.606c-1.8,8.73-5.532,15.612-10.786,19.9A21.945,21.945,0,0,1,987.847,329.043ZM969.875,306.52a18.663,18.663,0,0,0,15.981,16.4c10.662,1.292,17.087-7.076,19.937-16.4Z" fill="#222433"/><rect x="949.239" y="171.83" width="77.93" height="14.34" rx="6.9" fill="#5a38fd"/><circle cx="958.44" cy="253.75" r="6.12" fill="#222433"/><circle cx="1016.62" cy="253.75" r="6.12" fill="#222433"/><path d="M983.241,289.051a3,3,0,0,1-1.1-5.794l12.343-4.834L985.2,252.005a3,3,0,1,1,5.66-1.99l10.25,29.15a3,3,0,0,1-1.736,3.788l-15.04,5.89A2.964,2.964,0,0,1,983.241,289.051Z" fill="#222433"/><path d="M1284.924,1022.35a2.874,2.874,0,0,1-.391-.026,3,3,0,0,1-2.588-3.361,49.316,49.316,0,0,0-34.561-53.692c-1.817-.345-13.392-2.943-24.03-14.8-10.216-11.388-21.516-33.949-17.325-76.766a3,3,0,0,1,5.971.584c-3.126,31.94,2.248,56.788,15.541,71.862,9.919,11.247,20.927,13.219,21.037,13.238a3.156,3.156,0,0,1,.382.089,55.3,55.3,0,0,1,38.935,60.258A3,3,0,0,1,1284.924,1022.35Z" fill="#222433"/><path d="M1108.6,1023a2.986,2.986,0,0,1-1.9-.68l-46.91-38.5a3,3,0,0,1-1.082-2.616l10.777-108.555a3,3,0,1,1,5.97.591L1064.834,980.2l45.669,37.482a3,3,0,0,1-1.9,5.319Z" fill="#222433"/><path d="M1016.12,596.89v88.969l-28.678-38.875-27.9-31.276s10.1-8.808,24.8-19.5c6.789-4.934,57.5,6.317,64.717-6.779,8.439-15.322-32.268-15.635-27.1-19.423,4.042-2.964,49.823,0,60.312-19.03,8.383-15.21-16.916-14.179-16.916-14.179s14.327-6.54,16.1-10.411c2.44-5.317-9.872-9.94-15.745-11.539-45.739-12.449-131.358,17.258-131.358,17.258L1046.335,437.2a90,90,0,0,1,141.889,51.27L1209.2,580.89h-160.5s1.37,10.406-.837,12.7C1042.334,599.336,1016.12,596.89,1016.12,596.89Z" fill="#5a38fd"/><polygon points="1240.394 883.564 1060.335 879.644 1048.784 691.564 1233.734 691.664 1240.394 883.564" fill="#5a38fd"/><path d="M1291.6,437.61a34.522,34.522,0,0,1-26.886-12.754c-17.251-21.189-37.133-49.565-34.126-64.669,1.728-18.209,8.23-38.308,13.458-54.469,3-9.265,5.585-17.266,6.083-21.545.746-6.415,6.258-10.6,13.11-10a16.172,16.172,0,0,1,11.566,6.943c3.249,4.561,4.712,10.894,4.228,18.317-.125,1.9-.3,4.066-.528,6.46.6-.085,1.2-.165,1.8-.245,4.212-.564,8.987-1.2,10.894-3.169a14.886,14.886,0,0,0,3.335-5.434,3,3,0,0,1,5.6,2.152,20.98,20.98,0,0,1-4.63,7.46c-3.354,3.458-8.972,4.21-14.4,4.938-1.931.259-3.756.5-5.306.855a3,3,0,0,1-3.649-3.241c.416-3.926.719-7.347.9-10.167.919-14.09-6.072-18.506-10.348-18.893-2.886-.252-6.188,1.1-6.608,4.715-.566,4.869-3.112,12.737-6.334,22.7-5.153,15.928-11.566,35.752-13.209,53.344a2.874,2.874,0,0,1-.053.345c-2.082,9.794,9.9,31.595,32.873,59.812A28.547,28.547,0,0,0,1291.6,431.61h.233a27.294,27.294,0,0,0,21.35-10.347,53.235,53.235,0,0,0,4.438-7.165c3.714-6.7,5.627-13.677,7.272-20.255a3,3,0,1,1,5.82,1.455c-1.741,6.965-3.778,14.372-7.8,21.628a58.9,58.9,0,0,1-4.96,7.977,33.307,33.307,0,0,1-26.071,12.707Z" fill="#222433"/><path d="M1319.373,399.473a17.282,17.282,0,0,1-10.985-3.677,12.872,12.872,0,0,1-4.29-14.087,3,3,0,1,1,5.716,1.824,6.9,6.9,0,0,0,2.376,7.622c3.1,2.539,9.1,3.761,16.623-.417,12.575-6.994,21.992-12.837,26.486-15.7a17.062,17.062,0,0,0,6.992-8.869l3.268-9.634a16.9,16.9,0,0,0-9.353-20.964,3,3,0,1,1,2.36-5.515,22.895,22.895,0,0,1,12.675,28.406l-3.27,9.641a23.08,23.08,0,0,1-9.455,12c-4.545,2.893-14.076,8.808-26.788,15.878A25.437,25.437,0,0,1,1319.373,399.473Z" fill="#222433"/><path d="M1302.436,385.643a18.859,18.859,0,0,1-9.959-2.729,15.081,15.081,0,0,1-7.525-13.406c.22-6.149,4.4-11.774,11.458-15.432,7.92-4.1,20.408-11.764,31.491-18.627a3,3,0,0,1,3.158,5.1c-11.177,6.92-23.781,14.655-31.89,18.854-5.159,2.671-8.079,6.336-8.221,10.318a9.157,9.157,0,0,0,4.663,8.074c4.544,2.782,10.726,2.39,16.961-1.079,12.755-7.088,23-13.37,29.342-17.393a19.056,19.056,0,0,0,7.855-9.968l3.62-10.671a19.008,19.008,0,0,0-24.771-23.853l-12.368,4.72a3,3,0,0,1-2.14-5.606l12.37-4.72a25.008,25.008,0,0,1,32.592,31.385l-3.621,10.671a25.074,25.074,0,0,1-10.329,13.114c-6.408,4.06-16.755,10.408-29.635,17.565A27.032,27.032,0,0,1,1302.436,385.643Z" fill="#222433"/><path d="M1331.281,313.45a3,3,0,0,1-2.033-5.206c3.825-3.523,5.4-8.591,4.447-14.271a24.979,24.979,0,0,0-14.112-18.082c-2.032-.886-4.051-1.8-6.053-2.706-19.271-8.728-31.553-13.31-40.8,1.8a1.608,1.608,0,0,0-.088,1.5c1.158,3.565,11.737,12.856,35.2,22.612a3,3,0,0,1-2.3,5.541c-.348-.145-8.617-3.595-17.452-8.411-12.544-6.839-19.463-12.691-21.151-17.888a7.588,7.588,0,0,1,.676-6.484c12.485-20.4,30.74-12.13,48.394-4.136,1.976.895,3.969,1.8,5.973,2.671a30.779,30.779,0,0,1,17.634,22.586c1.3,7.747-.932,14.737-6.3,19.68A2.988,2.988,0,0,1,1331.281,313.45Z" fill="#222433"/><path d="M1298.353,325.92a3,3,0,0,1-2.545-1.407l-88.58-141.4a3,3,0,0,1,5.084-3.186l88.58,141.4a3,3,0,0,1-2.539,4.593Z" fill="#222433"/><path d="M1349.663,406.26a3,3,0,0,1-2.533-1.388l-9.791-15.359a3,3,0,0,1,5.06-3.225l9.791,15.36a3,3,0,0,1-2.527,4.612Z" fill="#222433"/><circle cx="1209.77" cy="181.52" r="10.88" fill="#222433"/><path d="M761.142,579.744a2.981,2.981,0,0,1-1.1-.209l-26.833-10.543a58,58,0,0,1-2-107.141l170.784-74.894a3,3,0,1,1,2.41,5.494l-170.789,74.9a52,52,0,0,0,1.792,96.061l26.833,10.543a3,3,0,0,1-1.1,5.793Z" fill="#222433"/><path d="M939.2,533.374a3.008,3.008,0,0,1-1.253-.275l-85.735-39.453a3,3,0,0,1,2.508-5.451l85.736,39.453a3,3,0,0,1-1.256,5.726Z" fill="#222433"/><path d="M1009.167,516.129a2.991,2.991,0,0,1-1.339-.317l-56.919-28.439a3,3,0,1,1,2.682-5.367l56.919,28.439a3,3,0,0,1-1.343,5.684Z" fill="#222433"/><path d="M1123.018,573.011a3,3,0,0,1-1.339-.317l-40.224-20.1a3,3,0,1,1,2.682-5.367l40.224,20.1a3,3,0,0,1-1.343,5.685Z" fill="#222433"/><circle cx="1123.02" cy="570.01" r="10.88" fill="#2b292d"/><path d="M956.723,620.738a3,3,0,0,1-1.689-5.482,101.894,101.894,0,0,0,10.925-8.934c10.682-9.615,20.771-18.7,46.684-15.265,1.852.244,3.811.539,5.827.843,9.968,1.5,22.373,3.369,27.372-.53a6.209,6.209,0,0,0,2.312-4.631c.406-4.215-4.207-5.925-17.494-9.738-5.39-1.546-11.5-3.3-18.472-5.8a3,3,0,0,1,1.2-5.818c24.052,1.53,54.567-2.741,64-12.531a8.538,8.538,0,0,0,2.736-7.013c-.544-5.338-6.693-6.567-20.6-5.849-3.539.334-7.412.621-11.587.928q-2.422.178-4.972.37-3.45.321-7.261.691c-5.15.5-10.987,1.058-17.2,1.606a3,3,0,0,1-.614-5.968c9.07-1.068,17.1-1.741,24.346-2.291,6.225-.584,11.772-1.058,16.651-1.3,13.461-1.247,19.554-2.817,19.554-7.634,0-.6.007-2.394-2.785-4.417-6.949-5.034-25.522-7.593-49.675-6.838-21.532.67-44.252,3.854-56.537,7.923-16.377,5.434-41.913,14.65-54.42,19.238a37.37,37.37,0,0,0-16.977,12.61l-2.518,3.273a36.951,36.951,0,0,0-7.5,21.743,3.031,3.031,0,0,1-3.051,2.948,3,3,0,0,1-2.948-3.051,42.939,42.939,0,0,1,8.725-25.276l2.517-3.272a43.338,43.338,0,0,1,19.682-14.607c12.542-4.6,38.153-13.842,54.6-19.3,24.646-8.164,93.291-13.527,111.619-.249,4.366,3.163,5.273,6.794,5.266,9.285a9.843,9.843,0,0,1-5.426,9.283c4.235,1.682,6.573,4.669,7.071,9.555a14.391,14.391,0,0,1-4.385,11.781c-6.784,7.041-20.2,10.6-30.253,12.341a161.95,161.95,0,0,1-18.517,2.054c12.872,3.7,22.093,6.494,21.186,15.906a12.142,12.142,0,0,1-4.6,8.784c-7.032,5.481-20.273,3.488-31.955,1.729-1.979-.3-3.9-.587-5.719-.828-23.173-3.063-31.843,4.739-41.884,13.777a106.645,106.645,0,0,1-11.566,9.438A2.985,2.985,0,0,1,956.723,620.738Z" fill="#222433"/><path d="M1016.12,691.25a3,3,0,0,1-3-3V596.89a3,3,0,0,1,6,0v91.36A3,3,0,0,1,1016.12,691.25Z" fill="#222433"/><path d="M1279.25,693.25a3,3,0,0,1-3-3V596.89a3,3,0,1,1,6,0v93.36A3,3,0,0,1,1279.25,693.25Z" fill="#222433"/><path d="M1072.74,693.25a3,3,0,0,1-3-3V596.89a3,3,0,0,1,6,0v93.36A3,3,0,0,1,1072.74,693.25Z" fill="#222433"/><path d="M1149.95,693.25a3,3,0,0,1-3-3V595.89a3,3,0,0,1,6,0v94.36A3,3,0,0,1,1149.95,693.25Z" fill="#222433"/><path d="M1227.17,693.25a3,3,0,0,1-3-3V596.89a3,3,0,1,1,6,0v93.36A3,3,0,0,1,1227.17,693.25Z" fill="#222433"/><path d="M1279.25,693.25H1017.12a3,3,0,1,1,0-6h260.6l14.1-19.4a3,3,0,0,1,4.854,3.527l-15,20.641A3,3,0,0,1,1279.25,693.25Z" fill="#222433"/><line x1="1149.95" y1="690.25" x2="1149.95" y2="675.16" fill="none" stroke="#2b292d" stroke-linejoin="round" stroke-width="3"/><path d="M1149.95,743.79a2.989,2.989,0,0,1-2.121-.879l-50.54-50.54a3,3,0,1,1,4.242-4.242l48.419,48.419,48.429-48.419a3,3,0,1,1,4.242,4.242l-50.55,50.54A2.989,2.989,0,0,1,1149.95,743.79Z" fill="#222433"/><path d="M1149.95,1021.49a3,3,0,0,1-3-3V740.8a3,3,0,0,1,6,0v277.69A3,3,0,0,1,1149.95,1021.49Z" fill="#222433"/><path d="M1282.29,599.16H1041.842a3,3,0,0,1,0-6H1279.29v-9.27H1048.706a3,3,0,0,1,0-6H1282.29a3,3,0,0,1,3,3v15.27A3,3,0,0,1,1282.29,599.16Z" fill="#222433"/><path d="M817.379,1023a228.359,228.359,0,1,1,.131,0Zm.131-450.43a222.215,222.215,0,1,0-.13,444.43h.128a222.215,222.215,0,0,0,0-444.43Z" fill="#222433"/><circle cx="817.51" cy="794.78" r="114.85" fill="#82b1ff"/><path d="M1360.69,533.55H1237.17a3,3,0,0,1,0-6h123.52a3,3,0,0,1,0,6Z" fill="#222433"/><path d="M1360.69,563.55c-23.141,0-43.508-8.184-63.205-16.1-17.794-7.149-34.6-13.9-51.855-13.9a3,3,0,0,1,0-6c18.413,0,35.744,6.963,54.092,14.335,19.168,7.7,38.988,15.665,60.968,15.665a3,3,0,0,1,0,6Z" fill="#222433"/><path d="M1245.63,533.55a3,3,0,0,1,0-6c17.253,0,34.061-6.753,51.855-13.9,19.7-7.914,40.064-16.1,63.205-16.1a3,3,0,0,1,0,6c-21.98,0-41.8,7.964-60.968,15.665C1281.374,526.587,1264.043,533.55,1245.63,533.55Z" fill="#222433"/><path d="M1484.69,533.55H1361.17a3,3,0,0,1,0-6h123.52a3,3,0,0,1,0,6Z" fill="#222433"/><path d="M1361.17,563.55a3,3,0,0,1,0-6c21.98,0,41.8-7.964,60.968-15.665,18.348-7.372,35.679-14.335,54.092-14.335a3,3,0,0,1,0,6c-17.253,0-34.061,6.753-51.855,13.9C1404.678,555.366,1384.311,563.55,1361.17,563.55Z" fill="#222433"/><path d="M1476.23,533.55c-18.413,0-35.744-6.963-54.092-14.335-19.168-7.7-38.988-15.665-60.968-15.665a3,3,0,0,1,0-6c23.141,0,43.508,8.184,63.2,16.1,17.794,7.149,34.6,13.9,51.855,13.9a3,3,0,0,1,0,6Z" fill="#222433"/><path d="M559.406,914.161c7.362,17.459,22.911,31.128,42.294,37.6,12.218,4.079,35.686,14.828,47.56,19.82,5.31,2.232,14.508,5.744,20.2,11.08h0a45.441,45.441,0,0,1,8.73,11.21,46.792,46.792,0,0,1,5.7,26.36H435.13l.06-105.94" fill="#5a38fd"/><path d="M261.142,919.905c-16.743,29.956.758,51.7.758,51.7a46,46,0,0,1,34,36.57,47.564,47.564,0,0,1,.57,12.08h-87L99,902.11l50.14-46.85h0l20.513-19.171" fill="#5a38fd"/><path d="M590.3,917.16h-160a3,3,0,0,1-3-3V756.278a3,3,0,0,1,6,0V911.16h154V674.66a76.426,76.426,0,0,0-6.728-31.433l-28.41-63.471-49.49-110.479-26.485-59.069a3,3,0,0,1,5.475-2.455l26.485,59.069L557.638,577.3l28.41,63.471a82.384,82.384,0,0,1,7.252,33.884v239.5A3,3,0,0,1,590.3,917.16Z" fill="#222433"/><path d="M266,929.69a2.994,2.994,0,0,1-2.082-.84L148.708,817.79a3,3,0,0,1-.077-4.242l184.482-191.3L314,541.6a3,3,0,1,1,5.839-1.383l19.488,82.24a3,3,0,0,1-.76,2.774L155.032,815.553,265.923,922.448,479.75,700.7a76.676,76.676,0,0,0,19.5-71.225L449.343,418.877a3,3,0,0,1,5.838-1.383l49.908,210.594a82.652,82.652,0,0,1-21.02,76.775L268.159,928.772A2.987,2.987,0,0,1,266,929.69Z" fill="#222433"/><path d="M524.749,169.62a3,3,0,0,1-2.255-4.977l10.36-11.82L514.4,139.961a3,3,0,0,1,3.432-4.922l21.2,14.78a3,3,0,0,1,.54,4.438L527.006,168.6A2.991,2.991,0,0,1,524.749,169.62Z" fill="#222433"/><path d="M435.735,192.192a29.347,29.347,0,1,1,27.13-40.5,3,3,0,1,1-5.551,2.275,23.352,23.352,0,1,0-15.894,31.522,3,3,0,0,1,1.463,5.819A29.28,29.28,0,0,1,435.735,192.192Z" fill="#222433"/><circle cx="501.927" cy="148.43" r="4.51" fill="#222433"/><circle cx="533.901" cy="138.054" r="4.51" transform="translate(123.007 505.852) rotate(-56.33)" fill="#222433"/><path d="M441.19,286.054a37.429,37.429,0,0,1-37.176-33.764,27.1,27.1,0,0,1,.743-10.033l16.266-56.684a3,3,0,1,1,5.767,1.655l-16.256,56.648a20.914,20.914,0,0,0-.545,7.865,31.38,31.38,0,0,0,61.306,5.883l7.755-25.745a3,3,0,0,1,3.151-2.122,58.33,58.33,0,0,0,47.6-98.316,3,3,0,0,1-.825-1.95,58.317,58.317,0,1,0-114.483,17.89l.094.329a3,3,0,0,1-5.772,1.641l-.1-.351a64.318,64.318,0,1,1,126.2-20.875A64.339,64.339,0,0,1,484.1,235.912l-7.058,23.433a37.231,37.231,0,0,1-32.206,26.532C443.613,286,442.4,286.054,441.19,286.054Z" fill="#222433"/><path d="M427.767,175.347a3,3,0,0,1-.992-5.832l13.867-4.855-14.5-8.151a3,3,0,1,1,2.94-5.23l20.29,11.4a3,3,0,0,1-.479,5.446l-20.133,7.048A2.994,2.994,0,0,1,427.767,175.347Z" fill="#222433"/><path d="M523.025,196.883a19.061,19.061,0,0,1-18.672-15.492,3,3,0,0,1,2.386-3.508l31.53-6a3,3,0,0,1,3.508,2.387,19.073,19.073,0,0,1-18.752,22.613Zm-11.879-13.73A13.053,13.053,0,0,0,536.1,178.4Z" fill="#222433"/><path d="M481.9,235.73c-.094,0-.188,0-.283-.013a64.778,64.778,0,0,1-31.354-11.608,3,3,0,1,1,3.466-4.9,58.761,58.761,0,0,0,28.446,10.53,3,3,0,0,1-.275,5.988Z" fill="#222433"/><path d="M358.82,183.88H327.63a56.74,56.74,0,0,1,0-113.48h31.19a57.008,57.008,0,0,1,52.814,35.982,64.411,64.411,0,0,1,80.683-35.148c20.534,7.314,33.6,21.018,39.944,41.894a3,3,0,0,1-4.792,3.177l-16.286-13.578c-6.91,10.462-31.265,45.861-49.5,53.866a3,3,0,0,1-2.412-5.494c19.336-8.489,48.413-53.989,48.7-54.448a3,3,0,0,1,4.453-.7l9.867,8.227c-8.559-17.1-21.982-23.73-32-27.3a58.4,58.4,0,0,0-74.528,35.359c-.528,1.481-1.013,3.054-1.442,4.677a3,3,0,0,1-5.838-.156A50.914,50.914,0,0,0,358.82,76.4H327.63a50.74,50.74,0,0,0,0,101.48h31.19a51.034,51.034,0,0,0,48.634-36.267,3,3,0,0,1,5.83.334c.333,1.888.739,3.707,1.208,5.4l.094.329a3,3,0,0,1-4.349,3.439A57.14,57.14,0,0,1,358.82,183.88Z" fill="#222433"/><path d="M408.347,391.343a2.985,2.985,0,0,1-1.937-.711c-6.95-5.885-10.04-13.234-8.7-20.695,1.739-9.689,10.7-18.13,24.58-23.157,17.292-6.265,24.137-15.062,23.178-20.585-.866-4.994-8.165-8.123-19.048-8.165h-.225c-32.418,0-64.577,27.544-88.078,47.672-12.742,10.913-22.806,19.533-30.667,22.37a3,3,0,1,1-2.036-5.644c6.828-2.464,17.01-11.185,28.8-21.283,24.21-20.735,57.348-49.115,91.98-49.115h.25c14.2.055,23.518,4.967,24.936,13.139,1.731,9.976-8.885,20.673-27.046,27.251-11.816,4.28-19.367,11.051-20.718,18.576-.958,5.342,1.349,10.549,6.674,15.058a3,3,0,0,1-1.941,5.289Z" fill="#222433"/><path d="M239.786,588.37a68.178,68.178,0,0,1-10.984-.879c-39.646-6.447-63.124-45.862-75.839-77.791-13.064-32.85-13.623-68.581-1.5-95.579,7.806-17.377,20-29.487,35.259-35.021a83.774,83.774,0,0,1,19.823-4.443,3,3,0,1,1,.622,5.967,77.868,77.868,0,0,0-18.4,4.116c-13.7,4.968-24.7,15.978-31.83,31.84-11.476,25.548-10.88,59.53,1.6,90.9,17.41,43.721,42.041,69.34,71.227,74.088,26.775,4.349,56.391-9.185,79.223-36.215,33.125-39.216,59.592-39.662,82.944-40.056,5.507-.093,10.708-.181,15.97-.724,18.645-1.921,33.387-14.143,33.038-19.569-.15-2.338-4.858-3.725-11.993-3.547-18.247.457-32.5-5.052-39.1-15.142-4.592-7.018-4.974-15.469-1.076-23.8a25.74,25.74,0,0,1,2.248-3.828,3,3,0,1,1,4.914,3.441,19.921,19.921,0,0,0-1.728,2.93c-2.983,6.376-2.748,12.758.662,17.969,5.439,8.312,17.8,12.839,33.924,12.43,15.24-.4,17.9,5.571,18.135,9.16.682,10.6-19.062,23.928-38.41,25.923-5.519.569-11.094.663-16.485.754-23.153.391-47.1.794-78.461,37.928C292.4,574.284,265.511,588.369,239.786,588.37Z" fill="#222433"/><path d="M359.31,455.96a3,3,0,0,1-2.821-1.977l-14.99-41.37a3,3,0,0,1,1.829-3.854L646.122,302.645a3,3,0,1,1,1.984,5.662L348.173,413.418l12.925,35.67,285.468-106.8a3,3,0,1,1,2.1,5.619L360.361,455.77A3,3,0,0,1,359.31,455.96Z" fill="#222433"/><path d="M738.313,314.172a3,3,0,0,1-1.051-5.81l9.786-3.662-8.373-23.112a3,3,0,1,1,5.641-2.043l9.385,25.9a3,3,0,0,1-1.77,3.832l-12.567,4.7A2.985,2.985,0,0,1,738.313,314.172Z" fill="#222433"/><path d="M853.466,253.56a3,3,0,0,1-2.965-2.57l-4.62-31.83a3,3,0,0,1,5.938-.861l4.62,31.83a3,3,0,0,1-2.538,3.4A3.051,3.051,0,0,1,853.466,253.56Z" fill="#222433"/><circle cx="848.85" cy="218.73" r="10" fill="#222433"/><path d="M822.616,259.41a3,3,0,0,1-2.965-2.569l-4.62-31.83a3,3,0,0,1,5.938-.861l4.62,31.83a3,3,0,0,1-2.538,3.4A2.912,2.912,0,0,1,822.616,259.41Z" fill="#222433"/><circle cx="818" cy="224.58" r="10" fill="#222433"/><path d="M791.766,265.27a3,3,0,0,1-2.965-2.57l-4.62-31.83a3,3,0,0,1,5.938-.861l4.62,31.83a3,3,0,0,1-2.538,3.4A3.051,3.051,0,0,1,791.766,265.27Z" fill="#222433"/><circle cx="787.15" cy="230.44" r="10" fill="#222433"/><path d="M760.916,271.13a3,3,0,0,1-2.965-2.569l-4.62-31.83a3,3,0,1,1,5.938-.862l4.62,31.83a3,3,0,0,1-2.538,3.4A3.051,3.051,0,0,1,760.916,271.13Z" fill="#222433"/><circle cx="756.3" cy="236.3" r="10" fill="#222433"/><path d="M788.783,310.8a36.863,36.863,0,0,1-16.168-3.711l-1.315-.633a12.96,12.96,0,0,0-10.066-.543l-9.332,3.38a3,3,0,1,1-2.044-5.64l9.33-3.38a18.972,18.972,0,0,1,14.73.785l1.312.631a31.267,31.267,0,0,0,34.815-5.181l20.22-18.841a19,19,0,0,1,14.261-5.026l13.279,1a12.886,12.886,0,1,0-.171-25.69l-90.385,7.51A30.284,30.284,0,0,0,743.3,270.922,3,3,0,0,1,738.053,268a36.27,36.27,0,0,1,28.7-18.523l90.382-7.51a18.884,18.884,0,1,1,.233,37.651l-13.279-1a12.989,12.989,0,0,0-9.731,3.434L814.135,300.9A37.231,37.231,0,0,1,788.783,310.8Z" fill="#222433"/><path d="M348.259,425.462a3,3,0,0,1-1.021-5.821L647.253,311.007a3,3,0,1,1,2.043,5.641L349.28,425.281A2.973,2.973,0,0,1,348.259,425.462Z" fill="#222433"/><path d="M351.7,434.953a3,3,0,0,1-1.021-5.821l298.269-108a3,3,0,1,1,2.043,5.641l-298.27,108A3,3,0,0,1,351.7,434.953Z" fill="#222433"/><path d="M355.138,444.447a3,3,0,0,1-1.022-5.822L648.309,332.1a3,3,0,1,1,2.043,5.641L356.159,444.266A2.973,2.973,0,0,1,355.138,444.447Z" fill="#222433"/><circle cx="277.05" cy="521.49" r="6.66" fill="#222433"/><circle cx="256.58" cy="543.58" r="6.66" fill="#222433"/><path d="M283.039,505.325h-.014c-5.547-.007-10.067-4.494-12.726-12.633-4.43-13.561-6.243-27.669-7.383-41.651a147.136,147.136,0,0,1-10.025,21.422c-4.568,7.794-10.459,11.339-16.16,9.734-5.147-1.453-8.462-6.89-8.868-14.544-.416-7.868,1.037-15.765,2.443-23.4,2.058-11.177,4-21.734.227-31.471-2.689-6.938-7.933-12.424-13.485-18.232a119.475,119.475,0,0,1-9.008-10.173c-7.785-10.267-11.821-23.023-11.073-35,.816-13.055,7.27-25.2,17.265-32.48,9.61-7,22.474-9.641,35.293-7.236a48.836,48.836,0,0,1,24.14,12.2,51.684,51.684,0,0,1,8.689,11.022h0c2.258,3.716,4.209,7.633,6.1,11.42q.633,1.272,1.268,2.535c2.364,4.7,4.873,9.444,7.3,14.036,6.437,12.179,13.092,24.773,17.938,38.04,6.36,17.414,10.793,38.114,12.82,59.86a164.263,164.263,0,0,1,.7,19.34c-.137,5.385-.633,11.059-3.305,16.08-2.432,4.57-6.349,7.334-10.477,7.391a11.914,11.914,0,0,1-9.726-5.766,28.682,28.682,0,0,1-3.357-9.136l-3.835-16.1a116.346,116.346,0,0,1-2.094,20.293C293.88,499.926,289.153,505.325,283.039,505.325Zm-18.122-71.448a3.1,3.1,0,0,1,.417.029,3,3,0,0,1,2.579,2.775c1.185,18.075,2.412,36.766,8.09,54.147.834,2.553,3.188,8.493,7.03,8.5h0c3.576,0,5.878-5.181,6.764-9.62,3.361-16.844,1.82-34.395.329-51.369a3,3,0,0,1,5.907-.958L307.452,485.3a23.772,23.772,0,0,0,2.567,7.281,5.94,5.94,0,0,0,4.55,3.013h.045c2.249-.031,4.242-2.287,5.265-4.21,2.087-3.922,2.485-8.764,2.6-13.413a158.289,158.289,0,0,0-.68-18.632c-1.98-21.24-6.3-41.42-12.482-58.357-4.7-12.884-11.264-25.294-17.607-37.3-2.44-4.617-4.963-9.392-7.355-14.142q-.641-1.272-1.278-2.557c-1.832-3.677-3.726-7.48-5.853-10.979a45.15,45.15,0,0,0-7.668-9.764,42.756,42.756,0,0,0-21.14-10.68c-11.036-2.07-22.5.243-30.654,6.188-8.568,6.243-14.1,16.713-14.81,28.006-.659,10.56,2.937,21.858,9.867,31a114.706,114.706,0,0,0,8.563,9.653c5.714,5.976,11.622,12.156,14.743,20.209,4.387,11.321,2.2,23.219.079,34.725-1.343,7.3-2.731,14.838-2.352,22,.2,3.835,1.493,8.236,4.505,9.085,3.326.943,7.013-3,9.355-6.991,6.137-10.471,10.327-22.209,14.379-33.562A3,3,0,0,1,264.917,433.877Z" fill="#222433"/><path d="M657.059,445.444a47.148,47.148,0,0,1-6.5-.448A44.315,44.315,0,0,1,627.011,434.3,43.246,43.246,0,0,1,613.327,403.3a53.655,53.655,0,0,1,10.354-32.122,122.436,122.436,0,0,1,8.917-10.65c5.592-6.185,10.873-12.026,13.382-19.326,3.32-9.665,1.192-19.937-1.061-30.813-1.524-7.354-3.1-14.96-2.946-22.589.128-6.4,2.79-14.344,9.872-15.668,3.8-.709,9.524.453,15.161,10.035a180.534,180.534,0,0,1,10.359,20.5c.862-14.1,2.45-28.328,6.858-42.018,2.539-7.886,6.906-12.254,12.3-12.3h.082c5.712,0,10.334,4.987,12.374,13.362a113.053,113.053,0,0,1,2.958,23.3q2.574-9.2,5.623-18.219c1.654-4.894,4.05-10.138,9.275-11.922,4.367-1.495,9.274.216,12.808,4.457,4.31,5.172,4.4,11.677,4.488,17.417.008.552.016,1.1.028,1.645a168.9,168.9,0,0,1-.86,20.689,214.965,214.965,0,0,1-8.236,40.081c-7.2,23.866-17.665,46.225-27.9,66.833a162.322,162.322,0,0,1-8.1,14.852h0a58.255,58.255,0,0,1-12.44,14.45A47.533,47.533,0,0,1,657.059,445.444Zm-3.412-167.483a3.784,3.784,0,0,0-.7.065c-3.295.615-4.889,5.558-4.975,9.89-.14,6.952,1.366,14.222,2.822,21.251,2.318,11.189,4.715,22.759.86,33.98-2.908,8.463-8.855,15.04-14.606,21.4a117.626,117.626,0,0,0-8.487,10.118,47.614,47.614,0,0,0-9.235,28.488c.243,10.279,4.624,20.263,11.719,26.708a38.254,38.254,0,0,0,20.343,9.192,41.721,41.721,0,0,0,31.465-8.438,52.405,52.405,0,0,0,11.142-13h0a157.52,157.52,0,0,0,7.79-14.305c10.118-20.373,20.455-42.457,27.529-65.9a209,209,0,0,0,8.011-38.956,163.037,163.037,0,0,0,.831-19.952c-.013-.558-.021-1.12-.029-1.687-.076-5.206-.147-10.122-3.1-13.663-1.492-1.791-3.921-3.42-6.26-2.621-2.759.943-4.344,4.658-5.53,8.167a354.81,354.81,0,0,0-12.4,47.186,3,3,0,0,1-5.941-.763c1.165-17.245,2.369-35.077-1.754-52-.989-4.056-3.295-8.782-6.549-8.782h-.028c-3.633.03-5.85,5.7-6.635,8.139-5.655,17.564-6.483,36.454-7.283,54.72a3,3,0,0,1-5.84.826,174.725,174.725,0,0,0-14.976-32.823C660.2,282.421,657.042,277.961,653.647,277.961Z" fill="#222433"/><path d="M289.337,324.451a3,3,0,0,1-2.944-2.438l-12.71-66.635a3,3,0,1,1,5.894-1.125l12.71,66.635a3,3,0,0,1-2.385,3.51A3.033,3.033,0,0,1,289.337,324.451Z" fill="#222433"/><path d="M572.711,414.49a3,3,0,0,1-2.029-5.21l13.84-12.691a3,3,0,1,1,4.055,4.422L574.738,413.7A2.987,2.987,0,0,1,572.711,414.49Z" fill="#222433"/><path d="M336.411,626.15a3,3,0,0,1-1.953-5.279l21-17.989a3,3,0,0,1,3.9,4.557l-21,17.989A2.993,2.993,0,0,1,336.411,626.15Z" fill="#222433"/><path d="M322.849,338.37a3,3,0,0,1-2.2-5.034h0c.109-.118,10.963-12.055,14.784-28.4a3,3,0,1,1,5.842,1.365c-4.192,17.936-15.729,30.574-16.218,31.1A2.99,2.99,0,0,1,322.849,338.37Z" fill="#222433"/><path d="M1732.95,511.3a3,3,0,0,1-.846-5.879,106.854,106.854,0,0,0,14.753-5.564,105,105,0,0,0,36.946-28.514,100.914,100.914,0,0,0,20.547-42.308,93.735,93.735,0,0,0,2.2-20.957,3,3,0,0,1,2.975-3.024h.025a3,3,0,0,1,3,2.975,99.671,99.671,0,0,1-2.343,22.3,106.928,106.928,0,0,1-21.772,44.829,111.055,111.055,0,0,1-39.061,30.149,112.967,112.967,0,0,1-15.578,5.874A3.01,3.01,0,0,1,1732.95,511.3Z" fill="#222433"/><path d="M1528.342,200.6a3.008,3.008,0,0,1-1.337-.316,30.347,30.347,0,0,1,9.88-57.283,3,3,0,0,1,.716,5.957,24.346,24.346,0,0,0-7.916,45.956,3,3,0,0,1-1.343,5.686Z" fill="#222433"/><path d="M1615.186,308.36a39.594,39.594,0,0,1-37.76-27.779l-9.635-30.969a52.286,52.286,0,0,1-31.152-82.7A56.978,56.978,0,0,1,1583.722,93.6a3,3,0,0,1,.748,5.953,50.977,50.977,0,0,0-41.646,66.98,3,3,0,0,1-.5,2.85,46.284,46.284,0,0,0,28.3,74.652,3,3,0,0,1,2.364,2.067l10.172,32.694a33.517,33.517,0,0,0,64.249-19.1l-17.8-62.268a3,3,0,1,1,5.769-1.649l17.8,62.275a39.529,39.529,0,0,1-37.989,50.3Z" fill="#222433"/><path d="M1575.534,185.38a3.076,3.076,0,0,1-.5-.042l-15.24-2.57a3,3,0,0,1-2.218-4.231l8.33-17.79a3,3,0,0,1,5.434,2.545l-6.657,14.216,11.349,1.914a3,3,0,0,1-.495,5.958Z" fill="#222433"/><path d="M1578.965,250.658a62.363,62.363,0,0,1-9.293-.7,3,3,0,1,1,.893-5.933c15.921,2.4,31.87-2.112,42.661-12.064a3,3,0,0,1,4.068,4.41C1607.3,245.589,1593.445,250.658,1578.965,250.658Z" fill="#222433"/><path d="M1638.9,200.31a32.588,32.588,0,0,1-6.53-.659,3,3,0,1,1,1.206-5.877,26.413,26.413,0,1,0-17.386-39.365,3,3,0,0,1-5.155-3.07A32.412,32.412,0,1,1,1638.9,200.31Z" fill="#222433"/><path d="M1643.029,177.471a2.983,2.983,0,0,1-1.085-.2l-18.67-7.25a3,3,0,0,1,.052-5.613l25.87-9.5a3,3,0,0,1,2.068,5.632l-18.415,6.762,11.267,4.375a3,3,0,0,1-1.087,5.8Z" fill="#222433"/><path d="M1569.014,222.192c-11.994,0-18.186-12.565-19.008-25.339a3,3,0,0,1,2.707-3.179l33.32-3.2a3,3,0,0,1,3.282,2.818c1,17.939-9.164,28.261-19.24,28.867Q1569.538,222.192,1569.014,222.192Zm-12.746-22.831c1.63,12.838,8.105,17.131,13.447,16.809,8.37-.5,13.2-9.784,13.627-19.41Z" fill="#222433"/><path d="M1586,167.68l-.12,0a3,3,0,0,1-2.879-3.116c.253-6.441,6.284-10.711,11.727-10.974,4.471-.218,10.067,2.345,11.152,10.275a3,3,0,1,1-5.944.814c-.475-3.466-2.177-5.208-4.918-5.1-2.757.134-5.908,2.31-6.022,5.218A3,3,0,0,1,1586,167.68Z" fill="#222433"/><path d="M1541.212,169.41l-.12,0a3,3,0,0,1-2.88-3.116c.254-6.44,6.285-10.711,11.728-10.973,4.467-.234,10.067,2.345,11.152,10.274a3,3,0,1,1-5.944.814c-.475-3.466-2.177-5.187-4.918-5.1-2.757.134-5.908,2.309-6.022,5.218A3,3,0,0,1,1541.212,169.41Z" fill="#222433"/><path d="M1516.25,1020.23l7.221-57.375-128.906-57.774C1381.526,960.7,1344.69,964.9,1344.69,964.9c-25.77,6.45-45,29.47-46.27,55.33" fill="#82b1ff"/><path d="M1759.34,1020.23l-27.027-128.881-134.322,41.792c-6.343,29.1-28.771,31.759-28.771,31.759-23.6,6.45-35.13,29.47-27.72,55.33" fill="#82b1ff"/><path d="M1672.011,648.839a3,3,0,0,1-2.741-4.216l60.938-137.537a3,3,0,1,1,5.486,2.43l-60.938,137.537A3,3,0,0,1,1672.011,648.839Z" fill="#222433"/><path d="M1530.22,968.88a3,3,0,0,1-1.227-.263l-146.01-65.44a3,3,0,0,1-1.511-3.965l117.8-262.8a3,3,0,0,1,5.475,2.456L1388.175,898.929,1528.7,961.91l42.15-95.139a3,3,0,1,1,5.486,2.429L1532.963,967.1a3,3,0,0,1-2.743,1.785Z" fill="#222433"/><path d="M1594.229,937.311a3,3,0,0,1-2.863-2.11l-103-331a82.626,82.626,0,0,1,15.811-78.175l92.388-109.568a3,3,0,1,1,4.587,3.867l-92.389,109.569a76.655,76.655,0,0,0-14.668,72.524L1596.2,930.554l147.041-45.748-89.108-286.315a3,3,0,0,1,.579-2.835l75.951-89.3a3,3,0,1,1,4.57,3.886l-74.881,88.041,89.51,287.6a3,3,0,0,1-1.974,3.756l-152.77,47.53A2.975,2.975,0,0,1,1594.229,937.311Z" fill="#222433"/><path d="M1641.858,616.116a3,3,0,0,1-2.147-5.094l15.142-15.517a3,3,0,1,1,4.294,4.19l-15.141,15.516A2.991,2.991,0,0,1,1641.858,616.116Z" fill="#222433"/><path d="M1563.153,344.255a3,3,0,0,1-2.87-2.132,79.934,79.934,0,0,1-2.072-37.632c.435-2.371.955-4.681,1.542-6.861a85.387,85.387,0,0,1,14.947-30.109,3,3,0,1,1,4.748,3.668,79.414,79.414,0,0,0-13.9,28c-.545,2.021-1.028,4.171-1.435,6.389a73.921,73.921,0,0,0,1.914,34.8,3,3,0,0,1-2.872,3.87Z" fill="#222433"/><path d="M1628.5,432.65c-14.342,0-28.288-6.5-38.274-17.843a3,3,0,1,1,4.5-3.965c8.847,10.049,21.154,15.808,33.776,15.808a48.421,48.421,0,0,0,5.329-.31l194.38-23.568c22.015-2.668,39.179-21.455,41.738-45.688,2.564-24.279-10.271-46.916-31.213-55.047l-140.57-54.57c-7.273-2.85-29.617-8.054-46.446-7.857l-.619,0c-1.587.017-3.985.041-7.021.188a3,3,0,0,1-.292-5.992c3.152-.154,5.719-.18,7.253-.195l.608-.006c16.359-.181,39.766,4.767,48.7,8.267l140.561,54.567c23.46,9.109,37.856,34.3,35.007,61.271-2.854,27.029-22.174,48.007-46.982,51.014L1634.541,432.3A48.241,48.241,0,0,1,1628.5,432.65Z" fill="#222433"/><path d="M1590.128,340.048a3,3,0,0,1-2.4-4.8c9.49-12.683,24.286-16.913,35.027-18.228,16.916-2.072,135.4-13.237,136.594-13.349a3,3,0,1,1,.562,5.973c-1.194.113-119.593,11.27-136.427,13.331-9.581,1.174-22.73,4.879-30.952,15.867A3,3,0,0,1,1590.128,340.048Z" fill="#222433"/><path d="M1699.632,1023c-26.575,0-43.738-5.912-52.469-18.073-14.768-20.569-3.179-54.91,10.241-94.674,11.632-34.47,24.816-73.538,21.282-107.956-4.445-43.32-37.134-58.554-71.741-74.682-33.67-15.691-68.486-31.916-74.507-75.908-5.308-38.908,12.747-65.223,28.677-88.441,11.48-16.733,21.395-31.185,21.395-47.706,0-18.143-6.463-28.007-14.645-40.5-6.187-9.444-13.2-20.148-18.635-36.454a3,3,0,0,1,5.692-1.9c5.189,15.567,11.975,25.924,17.962,35.063,8.385,12.8,15.626,23.851,15.626,43.784,0,18.382-10.9,34.275-22.448,51.1-15.315,22.323-32.674,47.623-27.68,84.235,5.578,40.748,37.4,55.58,71.1,71.282,34.6,16.125,70.383,32.8,75.175,79.507,3.668,35.715-9.738,75.439-21.565,110.487-12.891,38.2-24.024,71.189-11.052,89.257,7.523,10.478,23.091,15.572,47.6,15.572a3,3,0,0,1,0,6Z" fill="#222433"/><path d="M1532.348,453.9a11.93,11.93,0,0,1-8.76-3.921c-6.888-7.059,1.337-21.692,11.346-36.959-26.805,16.009-47.281,25.77-54.482,15.478a10.578,10.578,0,0,1-1.691-8.56c1.388-6.574,8.167-14.107,22.282-24.262-19.983,7.7-30.754,10.177-35.936.521-1.145-2.132-2.043-5.629.181-10.173,9.622-19.665,72.011-43.431,95.54-47.423,15.5-2.624,40.341-6.263,55.851-8.355a42.358,42.358,0,0,1,23.656,3.588l3.734,1.693a42.665,42.665,0,0,1,22.627,51.027,41.98,41.98,0,0,1-17.292,23c-10.211,6.525-21.986,9.77-32.32,8.925-3.842-.318-7.409-.835-10.858-1.336-15.527-2.256-26.743-3.884-44.422,14.523-1.216,1.267-2.482,2.632-3.784,4.036-7.864,8.482-16.778,18.094-25.529,18.2Zm12.561-53.451a3,3,0,0,1,2.5,4.66c-.877,1.322-1.786,2.679-2.711,4.061-8,11.945-21.382,31.939-16.811,36.624a6,6,0,0,0,4.535,2.106c6.173-.073,14.5-9.057,21.2-16.277,1.326-1.43,2.616-2.821,3.855-4.111,19.817-20.633,33.624-18.628,49.611-16.306,3.36.488,6.833.991,10.49,1.293,9.052.751,19.468-2.167,28.577-7.987a35.982,35.982,0,0,0,14.805-19.713,36.637,36.637,0,0,0-19.4-43.822l-3.718-1.686-.03-.013a36.368,36.368,0,0,0-20.327-3.086c-15.465,2.086-40.223,5.712-55.653,8.325-24.33,4.128-83.091,27.665-91.154,44.143-1.2,2.452-.736,3.857-.284,4.7,3.471,6.464,14.265,2.46,40.524-8.042,4.722-1.89,10.075-4.031,15.826-6.265a3,3,0,0,1,2.64,5.362c-18.2,11.018-42.652,26.816-44.751,36.762a4.676,4.676,0,0,0,.736,3.882c1.245,1.778,5.643,3.711,21.107-3.334,11.511-5.243,24.98-13.525,36.864-20.831A2.992,2.992,0,0,1,1544.909,400.45Z" fill="#222433"/><path d="M1814.96,1023H98.96a3,3,0,0,1,0-6h1716a3,3,0,0,1,0,6Z" fill="#222433"/><path d="M1426.22,291.42a3,3,0,0,1-2.1-5.14l15.75-15.46a3,3,0,1,1,4.2,4.281l-15.75,15.46A2.992,2.992,0,0,1,1426.22,291.42Z" fill="#222433"/><path d="M1388.288,201.421a3,3,0,0,1-.7-5.917l21.45-5.2a3,3,0,1,1,1.414,5.832l-21.45,5.2A3.033,3.033,0,0,1,1388.288,201.421Z" fill="#222433"/><path d="M1422.9,111.221a3.015,3.015,0,0,1-.888-.135l-21.08-6.519a3,3,0,0,1,1.773-5.733l21.08,6.52a3,3,0,0,1-.885,5.867Z" fill="#222433"/><circle cx="1589.03" cy="103.39" r="29.16" fill="#5a38fd"/><circle cx="1541.21" cy="99.49" r="33.06" fill="#5a38fd"/><path d="M1521.849,356.7a3,3,0,0,1-2.889-2.2l-6.114-22.109a3,3,0,1,1,5.783-1.6l6.114,22.11a3,3,0,0,1-2.894,3.8Z" fill="#222433"/><path d="M1544.665,348.679a3,3,0,0,1-2.911-2.284l-5.062-20.563a3,3,0,1,1,5.826-1.433l5.063,20.562a3,3,0,0,1-2.916,3.718Z" fill="#222433"/><path d="M1515.747,334.552a3.1,3.1,0,0,1-.447-.033,33.8,33.8,0,1,1,26.184-7.065,3,3,0,1,1-3.758-4.677,27.794,27.794,0,1,0-21.539,5.808,3,3,0,0,1-.44,5.967Z" fill="#222433"/><path d="M1520.33,334.892A33.69,33.69,0,0,1,1509.163,333a3,3,0,1,1,1.982-5.662,28.064,28.064,0,0,0,17.452.3,3,3,0,0,1,1.782,5.73A33.834,33.834,0,0,1,1520.33,334.892Z" fill="#222433"/></svg>