<?xml version="1.0" encoding="utf-8"?>
<!-- Generator: Adobe Illustrator 21.0.0, SVG Export Plug-In . SVG Version: 6.00 Build 0)  -->
<svg version="1.1" id="Слой_18" xmlns="http://www.w3.org/2000/svg" x="0px" y="0px" viewBox="0 0 4057.5 3234.5"
     style="enable-background:new 0 0 4057.5 3234.5;" xml:space="preserve">

<g>
	<g>
		<path d="M709.5,1495.1c12.2-106.1,75-227.5,121.7-322.4c17.1-34.7,101.1-140.6,169.2-226.6
			c22.6-28.6,32.4-41.6,32.4-41.6c38.9,7.4,70.3,40.9,98.8,61.8c4,2.9,5.2,6,5.1,10.7c-0.4,49.7-0.6,62.4-0.9,112.1
			c0,2.4,0,4.7,0,7.2c2.6,1.4,4.8,2.8,7.1,4c33.6,17.6,67.2,35.3,100.9,52.7c4.1,2.1,6.4,4.9,7.6,9.4
			c11.1,40.5,22.6,80.9,33.8,121.4c1.4,5.2,3.8,8.5,8.8,11c69.7,35.2,139.2,70.7,208.9,105.8c5.5,2.8,8.1,6.3,9.5,12.1
			c3.4,14.4,7.3,28.7,11.1,43c0.6,2.3,1.3,4.5,2.2,7.5c2.7-0.9,5.2-1.6,7.6-2.5c14.3-5.4,28.6-10.7,42.8-16.4
			c4.1-1.6,7.4-1.4,11.5,0.4c53.3,24,106.7,47.8,160.1,71.8c4,1.8,7.9,2.7,12.4,2c27.7-3.8,55.4-7.3,83.1-10.9
			c23.2-3,46.4-6.2,69.6-9.1c2.9-0.4,6.3,0.1,9,1.2c49.9,19.9,99.7,39.8,149.5,59.9c3,1.2,5.9,3.2,8.4,5.3
			c15.9,13,31.7,26.1,47.5,39.2c1.5,1.2,3,2.4,5,3.9c2.2-1.7,4.5-3.3,6.7-5c23.2-18.1,46.4-36.1,69.4-54.4c4.9-3.9,9.5-5,15.7-4
			c39.6,6.3,79.3,12.1,118.9,18.3c3.9,0.6,6.8-0.2,10-2.2c63.4-40.5,126.9-80.9,190.2-121.4c2.9-1.8,5.5-4.7,7.1-7.6
			c23-40.5,45.9-81.1,68.9-121.5c2.1-3.7,3-7.3,2.6-11.5c-2.2-23.5-4.2-47.1-6.3-70.7c-2.2-24-4.4-48-6.6-72.1
			c-1.1-11.7-1.7-23.4-3.2-35c-1-8.2-0.2-16.2,0.6-24.3c3.6-36.6,7.5-73.2,11-109.8c0.4-4.3,2.4-6.3,5.6-8.3
			c33.1-20.9,66.2-41.9,99.3-62.9c2.2-1.4,4.4-2.9,6.9-4.5c-0.3-3.6-0.6-7.1-0.8-10.6c-1.6-25.7-3.2-51.5-4.8-77.2
			c-1.7-26.5-3.3-52.9-5.3-79.4c-0.6-8.1,0.6-15.1,4.8-22.4c20.1-34.5,39.5-69.3,59.2-104c1.3-2.3,3.5-2.7,5-5.2
			c8.4,0.8,31.7,12.4,38.8,16.4c62.7,35.4,114.6,57.1,175.9,95.9c66.9,42.3,131.2,89.5,187.3,145.7
			c102.1,102.3,176.5,241,169.9,385.4c-3.7,79.6-34.9,149.3-55.8,224.7c-2.3,8.2-7,24.5-7,24.5s-3.2,6.6-7.9,7.7
			c-13.9,3.4-27.6,7.4-41.5,11.2c-103.8,28.3-207.6,56.6-311.5,84.8c-4.9,1.3-7.4,3.7-8.9,8.7c-6.7,22.4-14.1,44.6-20.9,67
			c-1.5,4.8-4,7.3-8.8,9c-21.1,7.5-42.1,15.5-63.1,23.3c-120.1,44.5-240.3,89-360.4,133.5c-3.1,1.1-6.4,2.1-9.7,2.2
			c-30.5,1.5-61.1,2.8-91.6,4.1c-41.1,1.7-82.1,3.5-123.2,5.1c-2.6,0.1-5.2,0-7.8-0.3c-22.8-2.5-45.6-5.1-68.3-7.7
			c-26.8-3.1-53.6-6.2-80.4-9.3c-26.3-3-52.7-6.1-79-9.1c-3.1-0.3-6.2-0.3-9.3,0c-29.9,3.4-59.8,6.8-89.7,10.3
			c-31.1,3.6-62.1,7.3-93.2,10.9c-31.1,3.6-62.2,7.1-93.2,10.6c-32,3.7-64.1,7.3-96.1,11.2c-8.4,1-16.8,2.7-25.2,4.2
			c-1.9,0-3.8,0-5.7,0c-1.7-1.6-3.3-3.4-5.2-4.6c-50.5-33.1-101-66.2-151.5-99.4c-3.8-2.5-7.5-3.5-12-3.2
			c-21.5,1.1-42.9,1.8-64.4,2.9c-4.7,0.2-8.8-0.7-13-2.8c-37.5-18.9-75.1-37.7-112.5-56.6c-3.7-1.9-7.4-2.8-11.6-2.9
			c-71.4-0.8-142.8-1.9-214.2-2.6c-6.6-0.1-10.9-2.1-15.3-7c-51.2-56.8-102.6-113.3-153.8-170c-3.6-4-7.1-5.4-12.3-5.3
			c-25.8,0.3-51.6,0.3-77.4,0.3c-17.2,0-34.4-0.1-51.6-0.1C706.2,1529.4,708.9,1500.6,709.5,1495.1z"
              style="fill:#0185D0;"/>
	</g>
</g>
    <g>
	<g>
		<path d="M700.5,1605.9c0,0,1.6-44.1,5.7-74.5c42.4-6.2,89.4-2.7,132.4-2.9c2.5,0,3.9,1,5.4,2.6
			c52.5,57.9,105,115.7,157.3,173.7c3.6,4,7.1,5.7,12.5,5.7c54.1,0.5,108.2,1.3,162.3,1.9c18.6,0.2,37.3,0.4,55.9,0.8
			c2.3,0,4.7,0.7,6.8,1.7c39.4,19.7,78.7,39.4,118.1,59.1c2.2,1.1,5,1.6,7.5,1.5c23.9-0.9,47.7-2,71.6-2.9c1.6-0.1,3.4,0.9,4.8,1.8
			c52.3,34.1,104.5,68.3,156.7,102.6c2.3,1.5,4.4,2.1,7.3,1.7c36.3-4.3,72.6-8.4,108.9-12.5c40.3-4.7,80.6-9.4,121-14
			c34.2-3.9,68.3-7.8,102.5-11.7c22.9-2.6,45.8-5.6,68.7-7.7c6.8-0.6,13.8,0.9,20.6,1.6c26.3,3,52.7,6,79,9.1c26,3,51.9,6,77.9,9
			c19.3,2.2,38.6,4.9,58,6.5c9.5,0.8,19.1-0.3,28.6-0.7c45.1-1.9,90.2-3.7,135.3-5.7c19.5-0.8,38.9-1.7,58.4-2.6
			c1.9-0.1,3.8-0.5,5.6-1.1c143.3-53,286.5-106.1,429.8-159.1c2.6-1,3.9-2.4,4.7-5.1c7.5-24.4,15.3-48.7,22.9-73.1
			c0.7-2.4,1.8-3.6,4.4-4.4c119.4-32.5,238.9-65.1,358.3-97.7c1-0.3,5.5-4,6.7-4.3c0,0.6-3.9,9.8-3.9,9.8s-12.5,34.1-20.3,49.9
			c-11.8,24.1-26.1,47.2-40.9,69.5c-28.7,43.3-61.8,83.6-98,120.8c-74.3,76.5-161.6,139.9-254.8,191.4
			c-171.5,94.7-361.4,150.7-550.7,201.4c-340.5,91.1-698.9,167.8-1042.7,90.1c-162.8-36.8-321.2-110.5-435-232.7
			c-59.7-64.1-105.3-142-130.5-226c-12.7-42.5-20.3-86.7-21.3-131.1C697.7,1634.2,700.5,1605.9,700.5,1605.9z"
              style="fill:#0070CC;"/>
	</g>
</g>
    <g>
	<g>
		<path d="M2205,527.6c94.4-0.8,188.9,4.2,282.5,16.2c98.8,12.6,208.5,27,299.6,68.9c0,0.2-1.3,2.1-1.7,2.8
			c-22.2,39-44.3,78-66.4,117.1c-0.9,1.5-1.2,3.6-1.1,5.4c0.7,13.2,1.7,26.5,2.5,39.7c1.6,24.6,3.2,49.1,4.7,73.7
			c1.3,20.1,2.5,40.3,3.9,60.4c0.1,2.2-0.5,3.5-2.4,4.6c-3.6,2.1-7.1,4.4-10.6,6.7c-31.8,20.1-63.5,40.2-95.2,60.4
			c-1.2,0.8-2.7,2.3-2.8,3.6c-1.4,11.5-2.5,23-3.6,34.6c-2.6,25.4-5.2,50.8-7.7,76.3c-0.6,6.5-1.5,13.1-1.3,19.6
			c0.3,9.3,1.6,18.6,2.4,27.8c2.2,25.2,4.5,50.4,6.7,75.6c2.5,27.9,5.1,55.9,7.5,83.8c0.2,1.9-0.4,4.1-1.3,5.7
			c-23.8,42.3-47.7,84.6-71.7,126.9c-0.8,1.5-2.1,2.9-3.6,3.8c-65,41.5-130,82.9-195.1,124.3c-1.4,0.9-3.4,1.3-5,1.1
			c-42.5-6.4-84.9-12.9-127.4-19.3c-1.6-0.2-3.8,0.4-5.1,1.4c-16.7,12.9-33.4,26-50,39c-10.1,7.9-20.3,15.9-30.5,23.8
			c-0.9-0.7-1.7-1.2-2.5-1.8c-17-14.1-34-28.2-51.1-42.2c-2.4-1.9-5.1-3.6-7.9-4.8c-49.5-19.9-99-39.7-148.4-59.6
			c-3.7-1.5-7.2-1.7-11.1-1.2c-24.7,3.3-49.5,6.5-74.2,9.7c-26.5,3.5-53,6.9-79.5,10.3c-2.1,0.3-4.6,0-6.5-0.8
			c-55.4-24.6-110.7-49.4-165.9-74.2c-2.4-1.1-4.3-1.1-6.7-0.2c-16.3,6.3-32.8,12.5-49.1,18.7c-1.2,0.4-2.4,0.8-3.7,1.3
			c-0.4-1.5-0.8-2.7-1.1-3.8c-4.5-17.2-9-34.4-13.4-51.6c-0.6-2.6-1.9-4-4.2-5.2c-72.1-36.6-144.2-73.2-216.4-109.8
			c-2.2-1.1-3.4-2.5-4.1-4.9c-11.8-42.6-23.8-85.2-35.6-127.9c-0.8-2.8-2.1-4.6-4.8-6.1c-35.8-18.6-71.5-37.3-107.2-56
			c-2.1-1.1-3.2-2.2-3.1-4.8c0.4-52.1,0.7-67.2,1.1-119.3c0-2.8-0.9-4.5-3.1-6.2c-29.4-21.8-59.8-38.1-89.1-60.1
			c-1.1-0.8-10.7-5.5-11.9-6.6c2.8-1.4,14.2-16.6,15.8-18.1c80.8-78.7,191.7-152,261.7-185.5c84.6-40.5,124.3-62.2,215.3-83.7
			c208.6-49.4,421.8-83.3,636.3-88.9C2176.3,527.9,2190.7,527.7,2205,527.6z" style="fill:#00A1C6;"/>
	</g>
</g>
    <g>
	<g>
		<path d="M2249.6,1319.6c0,6.5-5.4,12.4-10.9,12.6c-0.8,0-1.8-0.6-2.5-1.1c-12.4-10.1-24.8-20.1-37.2-30.3
			c-3.4-2.8-3.8-5.3-0.9-8.6c3.1-3.6,6.4-7,10.1-10.1c4.1-3.4,6.3-3.4,10.5,0.1c4.4,3.7,8.8,7.4,12.5,11.8
			c5.9,6.9,11.2,14.2,16.6,21.5C2248.8,1316.9,2249.2,1318.7,2249.6,1319.6z" style="fill:#F1592B;"/>
	</g>
</g>
    <g>
	<g>
		<path d="M2230.3,1309.5c1.2-2.1,2.6-4.9,4.2-7.5c0.5-0.7,1.6-1.4,2.5-1.4c3.5,0,5.4-2.4,4.6-5.8
			c-0.2-1,0.3-2.1,0.4-3.1c1,0.5,2.2,0.7,2.8,1.5c1.8,2.2,3.6,4.5,5,7c2.2,3.8,5.5,5,9.6,5.7c7.5,1.3,15.1,2.7,22.1,5.3
			c9.8,3.7,14.5,17.4,8.9,25.4c-5.7,8.1-12.8,14.9-21.7,19.4c-9.1,4.6-22.7-0.8-26.6-10.8c-1.9-4.9-2.8-10.3-3.8-15.6
			c-0.7-3.9-2.2-7.2-5.3-9.8c-2.3-1.9-4.3-4.1-6.2-6.5c-1-1.2-1.2-3-1.8-4.5C2226.5,1309.1,2228,1309.2,2230.3,1309.5z"
              style="fill:#FEAEB6;"/>
        <path d="M2420.6,1218.8c-4.6,0.4-9.9-0.1-14.5-4.4c-3.6-3.4-2.6-10.7-0.6-14.1c1.9-3.4,7.2-5.2,11.4-4.7
			c8,1.1,16.2,1.1,24.2,0.5c18.2-1.2,36.4-3,54.6-4.6c2-0.2,4.1-0.9,6-0.6c1.5,0.3,3.6,1.5,4,2.7c0.3,1.1-1,3.5-2.2,4.1
			c-3.7,1.9-7.6,3.6-11.6,4.5c-9.3,2.2-18.7,3.9-28,5.9c-1.7,0.4-3.5,0.9-5.1,1.5c-3.2,1.3-3.3,6.5-0.2,9.5c1.8,1.7,3.8,3.2,5.7,4.9
			c1.8,1.6,3.1,4,1.6,6c-1.1,1.4-3.7,2.2-5.5,2.1c-6.9-0.4-12.7-3.8-18.4-7.5C2434.3,1219.7,2431,1218.7,2420.6,1218.8z"
              style="fill:#FEAEB6;"/>
	</g>
</g>
    <g>
	<g>
		<path d="M2270.6,1377.9c0.8-3.1,1.9-7,2.7-11c0.2-1.2-0.1-3-0.9-3.9c-3.2-3.5-6.9-6.6-10-10.2
			c-6.3-7.4-6.8-15.6-2.1-23.5c3.9-6.6,12.2-8.9,18.6-4.5c5.5,3.8,10.6,8.1,15.5,12.6c2.9,2.6,5.1,3.4,9,1.8
			c10.5-4.2,20.9-3.3,30.5,2.9c5.6,3.6,6.7,9.3,2.9,14.9c-5.7,8.7-12.9,16.2-20.7,23.2c-7.3,6.6-14.3,13.6-21.3,20.7
			c-3,3.1-6.8,3.7-10.7,3.9c-1.2,0.1-2.4-1.7-3.6-2.6C2273.1,1396.2,2271.5,1387.7,2270.6,1377.9z"
              style="fill:#F1592B;"/>
	</g>
</g>
    <g>
	<path d="M2282.5,1399.6c-0.4-5.8,2.9-10.8,5.6-15.7c7.6-13.9,17.7-25.5,31.5-33.5c4.3-2.5,9.4-4,14.4-4.8
		c5.7-0.9,9.3,3,9.1,8.7c-0.2,6.8-2.1,13.2-5.8,18.9c-7.8,12.2-17.8,22.1-30.3,29.4c-4.5,2.6-9.9,4.2-15.1,5.2
		C2285.6,1409.2,2282.4,1406.2,2282.5,1399.6z" style="fill:#FFFFFF;"/>
</g>
    <g>
	<path d="M1642.5,851c21.6-1.6,42.9,1.3,64,5.7c5.1,1.1,10.4,1.7,15.4,3.3c7.4,2.3,9.4,7.4,6.6,14.6c-3,7.9-5.9,15.8-8.9,23.7
		c-1.2,3.2-4.2,3.4-6.8,3.6c-6.3,0.4-12.6,0.7-19,0.7c-21,0-41.4,3.3-61.1,10.3c-12.6,4.5-25.3,8.5-37.8,13.3
		c-13.3,5.2-25.2,13.1-36.5,21.8c-21.5,16.6-43.4,32.5-62.8,51.5c-12.8,12.6-25.1,25.9-37.6,38.8c-3.2,3.3-6.5,6.7-9.8,10
		c-3.2,3.2-6.3,3-8.3-0.9c-5.1-9.7-10.2-19.5-14.7-29.4c-6.6-14.5-9.2-30.1-11.3-45.7c-1.7-12.2-3.2-24.4-4.3-36.6
		c-0.4-4,0.4-8.1,0.6-12.1c0.2-3.5,1.8-6,4.7-7.9c12.6-8.2,24.9-16.9,37.7-24.6c12.7-7.7,27-11.9,41-16.6
		c20.5-6.9,40.9-14.2,62.4-17.2c19.7-2.8,39.3-6.6,59.4-6.2C1624.4,851.1,1633.5,851,1642.5,851z"/>
        <path d="M1250.6,1432.2c-7.3,0-16.8,0.2-26.3-0.1c-6.4-0.2-8.2-3.1-6.3-9.1c4.9-15.4,11.1-30.3,20.9-43.3c3.8-5,8.1-9.8,12.4-14.3
		c2.7-2.9,6.5-2.8,10-1.5c14.7,5.7,30.1,8.5,45.4,11.2c10.2,1.8,20.6,2.9,30.9,3.3c13.6,0.6,26.8-2.5,39.8-6.4
		c2.7-0.8,5.1-2.5,7.5-4.1c10.5-7,19.7-15.2,27.8-24.9c10.4-12.4,20.4-25,28.7-38.8c6.2-10.3,10.6-21.6,16-32.4
		c2.5-5,5.2-10,8.6-14.3c4-5.1,9.9-6.4,16.2-5.6c4.7,0.6,8.7,8.3,7.1,14.3c-2.3,8.4-4.8,16.8-8.2,24.7c-4.8,10.8-10.3,21.3-16,31.6
		c-7,13-14.2,25.9-21.9,38.5c-3,4.9-7.2,9.2-11,13.6c-11.2,13.1-23.2,25.3-38.3,34.1c-12.3,7.2-25.5,11.1-39.5,12.9
		c-12.9,1.7-25.7,3.8-38.7,5.2c-13.2,1.5-26.4,2.4-39.6,3.5C1268.4,1431,1260.6,1431.5,1250.6,1432.2z"/>
</g>
    <g>
	<g>
		<path d="M1798.1,1112.5c12.5,1.5,24.8,2.6,36.9,4.4c25.8,4,51.7,7.9,77.4,12.7c19.9,3.7,39.7,8.2,59.7,11.5
			c21.2,3.5,42.1,9,62,17.2c9.4,3.8,17.6,10.9,25.8,17.1c6.5,5,12.3,11,18.4,16.4c11.8,10.5,14.3,23.5,10.9,38.4
			c-1.2,5.2-4.9,7.9-8.2,11.2c-0.8,0.9-2.7,1.1-4,1c-16.4-0.2-32.7-0.1-49-0.9c-17-0.9-34.1-2-51-4.3c-14.8-2-29.4-5.2-43.8-9
			c-14.2-3.7-28-8.6-41.8-13.5c-24-8.4-48.2-16.4-71.6-26.2c-15.1-6.3-31.4-10.4-44.8-20.4c-3.1-2.3-6.4-4.7-9-7.5
			c-8.6-9.6-16.8-19.7-20.2-32.5c-1.7-6.3-2.9-12.8-4.4-19.2c-3.8-15.8-8.2-31.4-11.5-47.3c-2.8-13.5-3.8-27.4-6.6-41
			c-3.3-16-7.6-31.8-11.6-47.7c-5.7-22.8-10-46-12.2-69.4c-0.2-2.4-0.9-3.2-3.3-3.5c-16.6-1.9-33.2-4-49.7-6.1
			c-5-0.6-9.9-1.4-14.9-2.1c-3.6-0.5-5.3-3.1-6.2-6.2c-0.9-3.2,0.9-5.6,3.4-6.8c4.6-2.3,9.3-4.4,14.1-5.9
			c16.1-4.9,32.1-10.3,48.9-12.1c11.5-1.2,23.1-1.8,34.7-1.7c9.2,0.1,15.1,6.3,16.2,15.6c0.3,2.7,0.6,5.6,0,8.2
			c-3,13-0.7,25.2,5.1,36.9c5.2,10.3,10.7,20.5,16.5,30.6c10.9,18.9,20.3,38.4,27.6,58.9c4.3,12.1,9.4,24.2,12,36.7
			c4.4,20.7,2.1,41.4-4.1,61.5C1799,1109.1,1798.6,1110.7,1798.1,1112.5z" style="fill:#FFDA54;"/>
        <path d="M2046.3,1252.7c-2.7,2.1-5.2,4.7-8.2,6.3c-10.3,5.4-20.6,11.1-31.3,15.5c-22.8,9.4-46.6,15.7-70.8,20.2
			c-16.1,2.9-32.3,5.1-48.4,8c-8.1,1.5-15.9,4.1-23.9,5.9c-18,4-36.1,5.8-54.3,1.9c-9.8-2.1-19.6-4.2-29.4-6.4
			c-21.6-4.8-43.6-6.6-65.7-8c-17.2-1.1-34.3-2.9-51.4-3.9c-28.4-1.7-56.8-2.5-85.2-0.7c-17.2,1.1-34.4,1.8-51.5,3.3
			c-9.6,0.9-19.1,2.9-28.6,4.8c-2.4,0.5-4.6,2.4-6.6,4c-18.7,15.2-32.9,34.2-45.3,54.6c-1,1.6-2.1,3.2-3.3,4.7
			c-1.9,2.4-4.4,3.2-7.3,1.7c-2.8-1.5-4-3.9-3.1-6.9c2.1-6.9,4.4-13.9,6.9-20.7c6.6-17.9,13.4-35.7,19.9-53.7
			c1.6-4.6,2.2-9.5,3.2-14.3c2.7-13.6,16.1-24.6,32.3-18.3c6.8,2.7,13.7,5.9,21.4,5.2c3.2-0.3,6.4-0.7,9.5-1.3
			c9.6-1.9,19.2-3.6,28.7-5.9c6.2-1.5,12.3-3.9,18.4-6c21.1-7.2,42.1-14.7,63.3-21.7c32.7-10.8,65-9.5,97.1,3.1
			c13.9,5.5,25.9,13.8,37.8,22.4c2.4,1.8,4.1,1.5,6.7,0.3c12.1-5.6,24.3-11.2,36.7-16.1c14.3-5.7,28.9-10.6,43.4-15.9
			c2.6-1,4.7-0.5,7.4,0.6c7.9,3.5,16,6.9,24.3,9.4c26.4,8,53,15.6,80.2,19.9c18.3,2.9,37,3.7,55.6,5.3c7.1,0.6,14.2,1,21.3,1.6
			C2046,1252.1,2046.2,1252.4,2046.3,1252.7z" style="fill:#FFDA54;"/>
        <path d="M2414.1,1221.8c-9.5-1.1-18.9-1.7-28.2-3.4c-17.4-3.1-34.8-6.3-52-10.4c-22.5-5.5-44.9-11.6-65.6-22.3
			c-12.3-6.3-21.7-16.3-29.6-27.2c-7.6-10.7-13.8-22.6-19.7-34.4c-5.3-10.6-2.7-21.5,1.6-31.8c1.7-4,4.5-7.6,7.3-11
			c6.8-8.4,16.5-7.5,22.1,1.9c5.5,9.2,10.8,18.6,16.8,27.5c6.2,9.3,13.1,18.2,19.9,27.2c4.9,6.5,12.3,9.3,19.5,12.3
			c6.9,2.9,14.2,4.9,21.2,7.6c14.2,5.3,28.3,10.8,42.4,16.2c11.5,4.4,23.1,8.5,34.5,13c3.6,1.4,7,3.7,10.2,5.9
			c1,0.7,1.7,2.6,1.6,3.9C2415.6,1204.7,2414.9,1212.7,2414.1,1221.8z" style="fill:#FFDA54;"/>
	</g>
</g>
    <g>
	<g>
		<path d="M2003.9,1154.4c-7.3-0.8-14.8-1.2-22-2.6c-12.8-2.5-23.1-9.8-31.3-19.6c-11.7-14-17.7-30.4-17.7-48.8
			c0-3.8,0.6-7.7,1.9-11.2c1-2.6,3.3-5,5.6-6.7c14.2-10.3,28.9-20,42.7-30.7c25.8-19.9,54.2-35.8,80.9-54.1
			c17.7-12.1,36.3-22.9,54.9-33.7c10.7-6.2,22.5-10.4,35.2-9.2c7.2,0.7,14.2,2.6,21.2,4.4c2,0.5,3.1,0.4,4.6-1
			c6.1-5.9,12.1-11.8,18.6-17.4c7.6-6.6,16.1-11.5,26.7-8.9c9.8,2.4,14.2,10.2,11.6,19.9c-2.5,9.4-7.7,17-14.9,23.6
			c-5.7,5.2-11.2,10.7-16.7,16.2c-0.8,0.8-1.3,2.3-1.2,3.4c1.4,16.4-3.9,30.7-14.7,42.8c-6.9,7.7-13.5,16.6-22.2,21.6
			c-9.9,5.8-17.5,13.8-26.3,20.4c-2.8,2.1-5.5,3.8-9.1,1.6c-0.6-0.4-2.3,0.2-3.1,0.9c-5.7,4.7-11.2,9.6-17,14.2
			c-2.1,1.7-4.8,2.7-7.3,4c-1.1,0.6-2.4,1.1-3.4,1.9c-9.2,6.8-18.4,13.7-27.5,20.6c-2.1,1.6-4,3.6-6.3,4.7c-4.5,2-8.6,3.7-7.6,10.1
			c0.2,1.3-2,3.4-3.5,4.6c-6.7,5.5-13.6,10.9-20.4,16.4c-2.8,2.2-5.5,4.3-8.4,6.3C2020.2,1152.9,2012.6,1155.4,2003.9,1154.4z"
              style="fill:#D2D1CD;"/>
	</g>
</g>
    <g>
	<path d="M2150.8,1054.5c-4,3.3-7.6,6.7-11.7,9.6c-1.4,1-4.2,1.6-5.6,0.9c-2.5-1.3-4-0.5-5.7,1c-5.1,4.5-10.3,8.8-15.4,13.4
		c-2.3,2.1-4.5,4.3-8,4.2c-0.3,0-0.8,0.1-1,0.3c-3.6,3.7-6.3,0.9-9-1.3c-12-9.7-20.9-22-28.2-35.4c-8.8-16-15.4-32.8-18.4-51
		c-0.6-3.4,0.3-5.4,3.3-7.3c12.7-7.9,25.3-16.2,37.9-24.4c0.8-0.5,1.6-0.9,3-1.6C2100.6,1000.5,2122.9,1029,2150.8,1054.5z"/>
        <path d="M2041.2,1137c-7.3,7-14.8,12.9-24.1,16.1c-1.7,0.6-3.5,1-5.2,0.9c-9.9-0.6-19.9-0.6-29.6-2.3
		c-14.6-2.6-25.8-11.4-34.5-23.2c-9.7-13.3-14.8-28.3-14.8-44.8c0-3.9,1-7.8,1.8-11.6c0.3-1.3,1-2.9,2.1-3.7
		c11-8.3,22.1-16.5,33.7-25.1c0.3,3.3,0.6,5.8,0.7,8.3c1.4,25,12.6,45.1,31.6,60.7c8.9,7.3,18.7,13.6,28.3,20
		C2034.1,1134.4,2037.6,1135.4,2041.2,1137z"/>
</g>
    <g>
	<path d="M2379.2,978.2c1.1,7.6-1.1,14.9-4.2,22c-3.5,8.1-7,16.2-10.6,24.2c-5.8,12.8-14.2,24.1-23.1,34.8
		c-6.9,8.2-15.2,14.9-26.4,15.6c-5.1,0.3-10.5-0.9-15.3-2.6c-5.3-2-10-5.5-15.1-8.1c-1-0.5-2.7-0.4-3.8,0.1
		c-11.9,5.4-18.9,15-23.9,26.8c-2.8,6.6-6.8,12.9-11.2,18.6c-16.3,21.3-35.4,40-55.5,57.8c-17.6,15.6-34.6,31.9-52.2,47.4
		c-14.3,12.5-30.2,22.9-47,31.9c-5.4,2.9-10.5,6.2-15.9,9c-1,0.5-3.1,0.4-4-0.3c-16.2-11.3-29.1-26-39.7-42.2
		c-11.7-17.9-19.2-37.9-22.9-59.1c-1-5.9-0.4-6.5,4.4-9.8c7-4.8,13.6-10.1,20.5-15.1c17-12.1,34.2-24,51.1-36.2
		c14.6-10.5,28.6-21.9,43.5-32.1c15.9-10.9,30.2-23.7,45.5-35.3c9.4-7.2,19.8-13.9,32.6-13.1c5.7,0.4,11.3,1.6,16.8,3.2
		c8.2,2.4,16.4,4.5,24.9,1.7c0.7-0.2,1.4-0.4,2-0.6c5.4-2,5.3-2.2,4.1-7.7c-2.8-12.4-1.4-24.7,1.2-36.9c1.9-9,4.6-17.7,9.1-25.9
		c4.6-8.4,11.6-13.7,20.4-17c12.8-4.8,25.9-4,38.8-1.9c8.8,1.5,17.8,3.1,25.9,6.5c10.3,4.3,20,10.3,25.5,21
		C2378.4,962.1,2380.1,969.8,2379.2,978.2z"/>
</g>
    <g>
	<g>
		<path d="M2238.6,1071.7c0.4,11-2.7,21.4-6.1,31.5c-5.9,17.8-12.4,35.3-19.1,52.9c-5.1,13.4-10.8,26.5-16.1,39.8
			c-0.4,1.1-0.2,2.9,0.4,4c5.4,10.5,10.8,21,16.4,31.4c9.4,17.2,19,34.2,28.4,51.3c2.2,4,4.1,8.1,6.3,12c0.9,1.7,0.7,2.6-0.9,3.9
			c-6,4.6-11.8,9.3-17.6,14.1c-2.4,2-4.7,2.6-7.3,0.3c-13.8-12.7-29-24.1-39.7-40c-5.2-7.7-11.8-14.4-17.5-21.7
			c-9-11.6-16.2-24.2-20.3-38.4c-2.3-8.1-2.2-16.2-1.2-24.5c2.8-21.8,8.7-42.7,17.4-62.9c8-18.5,15-37.4,23-55.9
			c3.9-9.1,9.4-17.4,18.6-22.4c8.5-4.6,20.8-3.5,28.3,2.6c4.6,3.7,5.5,8.7,6.4,13.9C2238.5,1066.2,2238.4,1068.9,2238.6,1071.7z"
              style="fill:#FFDA54;"/>
	</g>
</g>
    <g>
	<path d="M2064,486.9c0.3,0.5,0.7,1.3,0.8,1.3c1.8-0.6,3.3,0,5,0.3c1.5,0.3,3.2-0.7,4.8-0.7c3.7,0,7.4,0.4,11.1,0.6
		c3,0.2,5.9,1.2,8.8,1c1.7-0.1,2.9,0.4,4.4,0.9c3.1,1.1,6.4,1.8,10.1,2.9c0.9,1.2,1.9,2.7,4.5,3.2c1.9,0.4,3.3,3.1,5,4.8
		c0.8,0.8,1.7,1.5,2.4,2.4c0.8,1,1.6,2,2.4,3c0.8,1,1.5,2,2.2,3c0.2,0.2,0.7,0.5,0.6,0.6c-0.5,2.7,1.6,4.3,2.6,6.4
		c2.5,5.1,3,10.6,3.4,16c0.2,3.4,0,6.8,0,10.8c-0.3,0.2-1.1,1-2.2,2c3.1,1.8,1.5,4.4,1.2,6.6c-0.4,2.7-1.8,3.6-4.7,4
		c0.6,0.2,1.1,0.4,2.2,0.8c-1.1,0.5-1.8,0.8-2.8,1.3c0.6,0.6,1.2,1.1,1.9,1.7c-0.8,0.7-1.4,1.8-2.3,2.1c-1.6,0.4-2.2,1.2-2,2.8
		c0.1,0.4-0.3,1.1-0.7,1.4c-1.6,1.2-3.3,2.3-4.8,3.6c-1,0.9-1.8,2-2.8,3.1c-0.2-0.5-0.4-1.3-0.6-2.1c-0.2,0-0.6-0.1-0.6-0.1
		c-0.2,0.8-0.3,1.8-0.7,2.5c-0.5,0.8-1.3,1.4-1.9,2.1c-0.2,0.2-0.1,0.8-0.2,0.8c-4.9,1.9-8.9,5.5-13.5,8c-1.4,0.8-3.3-0.2-4.5,1.4
		c-1,1.3-3,0.9-4.1,1.5c-2.4,1.4-5.7,0.7-7.6,3.1c-1.3,1.7-3.1,0.2-4.8,0.9c-3,1.2-6.3,1.3-9.5,2c-1.6,0.4-3.2-0.4-4.8,0.5
		c-0.3,0.1-1.4-1.3-2.3-2.1c-0.1,0.7-0.2,1.6-0.3,2.7c-2.1-0.5-4.2-1.2-6.3,0.3c-1,0.7-1.2,0.5-2.4-1.4c-0.6,0.7-1.2,1.3-2,2.2
		c-0.6-0.9-1-1.5-1.4-2.2c-0.1,0-0.4-0.1-0.6,0c-2.5,1.1-4.8,0.9-7.3-0.2c-1.2-0.5-2.8,0.1-4.2,0.1c-1.4,0.1-2.8,0.4-4.1,0.2
		c-1.3-0.2-2.5-0.9-1.7-2.6c-1.8-0.8-1.1,2.5-3.1,1.4c-1-0.5-2.5-0.1-4-0.1c0-1,0.1-1.9,0.1-2.9c-1,0.9-1.8,1.6-3.3,2.9
		c0.4-1.4,0.5-1.9,0.8-2.8c-1.5,1.2-2.7,1.1-4.1,0c-1.1-0.8-3.1-1.5-4.3-1c-2.5,0.9-2.9-0.5-3.2-1.7c-3.1-1-5.9-1.8-8.5-3
		c-0.8-0.4-0.9-2.1-1.3-3.3c-0.7,0.3-1.8,0.8-3.3,1.5c0.2-2.2,0.6-3.6,2.4-4.6c0.2,2.3,4.2,1.3,3.8,4.6c1,0.8,2.5-3.1,3.5,0.9
		c0.2-0.3,0.3-0.6,0.5-0.9c-0.1-0.7,0.1-1.7-0.2-2c-1.5-1.4-3.1-2.5-4.7-3.8c-1.9-1.5-3.8-2.8-5.7-4.3c-1-0.9-1.7-2.1-2.8-2.9
		c-3.6-2.8-5-6.8-6.5-10.8c-0.8-2.2-1-4.6-1.6-6.9c-0.1-0.4-0.8-0.7-1.3-1.2c-0.3,2.7-0.1,5,0.4,7.4c0.4,2.4-0.4,5.1,1.8,7
		c-0.5,1.3-0.9,2.4-1.3,3.8c-2.1-1.3-3-2.9-2.4-5.1c1.9-1.7-0.2-3.8,0.9-5.4c-2.9-2.3-4-3.7-3.2-5.2c1-1.8-0.1-2.5-1-3.5
		c0-1,0-1.9,0-2.9c2-1.2,2.7-3.1,2.6-5.4c0-1.7,0-3.5,1.7-4.8c0.9-0.7,1.8-1.9,1-3.4c-0.1-0.1,0.2-0.4,0.3-0.6
		c0.5,0.1,1.1,0.1,1.7,0.2c0.2-1.9,0.6-3.5,2.7-3.3c0.5-1.4,0.7-3.1,1.6-3.8c4-3,7-7,11.3-9.5c0.9-0.5,1.5-1.7,2.3-2.7
		c0.3-0.3,0.4-1.1,0.6-1.1c3,0.2,4.2-2.7,6.6-3.7c2.7-1.1,5-3.3,7.9-4.6c3.6-1.5,6.6-4.3,10.6-5.1c0.5-0.1,1-0.6,1.5-0.9
		c3.1-1.6,6.1-3.4,9.7-3.9c2.2-0.3,4.2-2.2,6.6-1.3c1.7-2.1,3.9-1.1,6-1.1c0.6,0,1.3-0.1,1.7-0.4c2.1-1.2,3.9-2.8,6.6-1.7
		c1.2,0.5,2.3-0.2,2.2-1.9C2063.5,486.9,2063.7,486.9,2064,486.9z M2095.2,497.9c0.4,0.6,0.7,1.5,1.2,1.8c1.2,0.7,2.6,1.2,3.9,1.6
		c1.3,0.4,1.6,2.8,3.5,1.6c0,1.8,1.8,2.1,2.7,3c1.1,1.2,2.5,2.1,3.6,3.4c1.2,1.4,3.2,3.2,2.9,4.4c-0.5,2.4,3.2,2.8,1.8,5.1
		c0,0.1,0.3,0.3,0.4,0.5c1.6,1.4,2.9,3.2,3.1,4.6c0.1,1-0.1,2-0.3,3.4c2.2,1.1,3,3.5,3.6,6.2c0.1,0.6,1.1,1,1.7,1.5
		c-1.5,4.1-1.5,4.1,0.8,5.8c2-3.7-0.4-7.8,1-11.5c-2.1-3.5-1.4-7.7-3.6-11.3c-2-3.2-3.8-6.7-6.3-9.5c-2.6-2.8-6.2-4.6-9.1-7
		C2103,499.1,2099.1,498.9,2095.2,497.9z M1997.9,542.4c1.5-1.7,3.8-3.2,4.3-5.1c0.4-1.8,1.5-3.5,1.6-5.4c0.2-2.4,4-3.3,3.3-6.3
		c0-0.1,0.3-0.3,0.5-0.5c0.1-0.1,0.2-0.2,0.3-0.2c1.2,0.1,1.4-0.9,2-1.7c0.8-1.2,1.9-2.9,2.9-2.9c1.9,0,2.4-1.3,3.2-2.3
		c1.7-2.1,3.3-4.2,6.2-4.9c0.6-0.1,0.9-1.4,1.4-2.2c-1.2-0.5-2.1-0.9-2.8-1.2c-0.5,0.5-1,1.1-1.6,1.4c-3.1,1.6-6.7,2.5-8.7,5.8
		c-0.1,0.2-0.6,0.3-1,0.4c-1.7,0.4-2.9,1.2-3.4,3.1c-0.2,0.8-1.1,1.5-1.8,2c-1,0.8-2,1.5-3.2,2.3c1.3,2,1.1,3.4-1.2,4.2
		c-0.9,0.3-1.7,1.3-2.6,2.1c0.7,0.5,1.3,0.9,2.3,1.6c-1.1,1.3-2.1,2.4-3.3,3.8c1.3,1,0.5,2.2-0.4,3
		C1996.6,540.5,1997.2,541.4,1997.9,542.4z M2018.4,572c2.2,0.2,4,0.7,5.7,0.5c2.2-0.3,3.5,0.8,4.5,2.5c2.5-2.6,5.3-3.1,8.6-1.8
		c-0.2-0.7-0.5-1.4-0.9-1.5c-2.2-0.5-4.6-0.6-6.8-1.3c-3.6-1.2-7.2-2.5-10.7-4.1c-3-1.4-6.6-2.4-7.6-6.3c0-0.2-0.2-0.4-0.4-0.5
		c-2.3-1.3-3.3-4.4-6.9-4.6c1.1-1.3,1.7-2.1,2.4-2.9c-0.5-0.5-0.9-1-1.3-1.4c-1.3,1.5-1.8,3-1.3,4.8c0.4,1.4,0.6,2.9,0.8,4.3
		c0.4,4.3,3,6.8,6.6,8.5C2013.6,569.6,2016.3,571,2018.4,572z M2053.6,546.5c0.8-0.6,2-1.4,3.3,0.1c0.4,0.4,1.6,0.2,2.4,0.2
		c0.7,0,1.5-0.3,1.9,0.1c1.6,1.2,2.9,0.5,4.2-0.2c1-0.5,2-0.9,3.2-1.5c-1.3-0.9-3-2.7-3.6-2.4c-2.5,1.2-2.6-1.2-3.7-1.7
		c-1.8,0-3.4-0.3-5.1-0.6c-0.5-0.1-1.1-0.3-1.6-0.7c-3.4-2.5-5.1-2.4-8.2,0.5C2048.8,542.2,2051.1,544.2,2053.6,546.5z
		 M2097.7,565.6c2.7-0.7,5-1.3,7-1.9c0.8-0.9,1.6-1.7,2.2-2.5c2-2.5,4.1-5.1,6-7.6c0.4-0.5,0.6-1,0.7-1.6c0.2-1.3-0.3-2.1-1.6-1.9
		c-0.8,1.5-1.4,2.9-2.4,4.1c-0.5,0.7-1.6,0.9-2.4,1.5c-2,1.5-4.5,2.6-4.9,5.5c0,0.1-0.4,0.2-0.6,0.3c-2.6,1.7-5.2,3.4-7.9,5.2
		c1.4,0.4,2.4,0.6,3.6,1C2097.6,566.9,2097.6,566.2,2097.7,565.6z M2082.4,531.9c1.6-1.4,1-2.8,0.2-3.8c-1-1.2-2.4-3-3.6-2.9
		c-2.4,0-5.2-0.9-7.3,1.1c0.7,1.7,1.9,2.6,3.8,2.7c0.8,0,2,0.2,2.2,0.6C2078.5,532.1,2080.9,531,2082.4,531.9z M2093.2,526.9
		c-0.3,0.8-0.5,1.1-0.4,1.3c0.2,0.7,0.5,1.3,0.8,2c0.7-0.3,1.6-0.5,1.9-1.1c0.4-0.7,0.4-1.8,0.4-2.6c-0.1-1.1-0.2-2.3-0.6-3.3
		c-0.8-1.8-1.8-3.6-3-5.2c-0.3-0.5-1.8-0.5-2.5-0.2c-1.2,0.6-1,1.8-0.3,2.7c0.5,0.8,1.3,1.4,1.8,2.2
		C2092,524.1,2092.7,525.7,2093.2,526.9z M2071,516.9c0.8,0.2,1.8,0.7,2.4,0.5c1-0.4,1.5-0.3,2,0.6c0.2,0.4,1.1,0.8,1.3,0.6
		c1.3-1,2.2,0.1,3.2,0.6c1.7,0.9,3.4,2,5.3,3c0.3-0.7,0.6-1.4,0.7-1.6C2081.7,515.9,2076.8,514.5,2071,516.9z M2042.9,529.6
		c0.6,1.3,1.3,1.9,2.7,1c0.8-0.5,1.9-1.1,2.8-1c2.5,0.3,4.6-0.7,6.9-1.8c-0.3-0.7-0.6-1.3-0.8-1.6c-2,0.3-3.7,0.6-5.9,1
		C2047.7,529.2,2044.9,528.4,2042.9,529.6z M2104.1,537.9c-3.9-0.6-5.3,0.6-5.9,4.7C2101.7,542.9,2102.1,539.7,2104.1,537.9z
		 M2076,583.1c-0.2-0.2-0.4-0.4-0.7-0.6c-2.5,2.9-6.4,2.1-9.5,3.7c2,0.4,4.1,0.6,6,0.3c1.2-0.2,2.3-1,3.4-1.8
		C2075.7,584.5,2075.8,583.7,2076,583.1z M2048.5,546c0-0.3-0.1-0.7-0.1-1c-1.2,0-2.4,0.2-3.5-0.1c-1.1-0.2-1.8-2.2-3.5-0.1
		c1.2,1,2.3,1.9,3.6,2.9C2046.2,547,2047.4,546.5,2048.5,546z" style="fill:#FFFFFF;"/>
        <path d="M2312,875.4c-0.8-2.9,0.5-5.5,1.5-8.1c0.3-0.7,1-1.2,1.6-1.8c0.8-0.9,1.7-1.7,2.7-2.7c3-0.2,6.3-0.3,9.6-0.5
		c2.5-0.1,4.2,1.1,5.4,3.1c0,0.2,0,0.5,0,0.7c-0.6,1.2-1,2.6-2.6,3.1c-0.6,0.2-1.2,0.9-1.4,1.5c-0.5,1.5-1.7,2.1-3,2.8
		c-0.9,0.5-1.6,1.3-2.4,1.9C2319.7,875.4,2315.8,875.4,2312,875.4z" style="fill:#FFFFFF;"/>
        <path d="M2120.3,641.6c-0.5,0.9-1.8,1.7-2-0.2c-0.2-2.3-1.9-2.6-3.1-3.3c-2.3-1.4-2.3-1.3-2.9-4
		c-0.1-0.5-0.6-0.9-1-1.3c-1.1-1-2.3-1.9-3.8-3.1c0.5-0.3,0.9-0.6,1.6-0.9c-4-3.6-2.4-8.1-1.9-12.4c0.4-4.1,3.6-7,4.6-10.9
		c0.1-0.2,0.2-0.6,0.3-0.6c4.4-0.4,5.3-6.5,10.1-6.3c0.6,0,1.2-1,1.9-1.5c2-1.4,4.2-2.4,6.5-3.2c1.5-0.5,3-0.8,4.3-2
		c1.2-1.1,3.3-1.3,5-1.7c1.2-0.3,2.5-0.1,3.7-0.3c1.4-0.3,2.7-1,4.1-1.4c1.3-0.4,2.7-1,4-0.9c2.2,0.3,4.2,0.7,6.3-0.8
		c0.7-0.5,2.5,0.6,3.9,1.1c0.6-0.5,1.5-1.2,2.4-1.9c2.5,1,0.2,2,0.1,3.7c1.5-1,2.6-1.8,4-2.8c0.6,0.1,1.6,0.4,2.6,0.3
		c2.5-0.1,2.5-0.2,2.9,2.4c2.1-0.9,4.2-1.7,6.2-2.6c2.3,1.1,4.1,3.3,6.9,2.4c1.5,2.5,4.6,0.6,6.6,2.5c1.5,1.5,4,2.3,6.2,2.9
		c2.5,0.7,4,2.9,6.1,3.5c3.7,1.1,5.5,5,9,5.7c0,1.9,0,3.6,0,5.8c1-1.9,1.6-3.3,2.7-5.4c0.6,1.8,0.8,2.8,1.1,3.6
		c1.2,0.4,2.1,0.7,3.1,1c0,0.2,0,0.4,0,0.6c-0.6,0.1-1.2,0.1-2.5,0.3c1,0.7,1.5,1,2.1,1.4c-0.6,0.3-1.1,0.6-1.8,1
		c0.3,0.3,0.4,0.6,0.6,0.8c1.7,1.4,2.8,1.6,5.1,0.9c0.4,1.2,0.9,2.5,1.3,3.7c-2.1,1.7-3.4-3.4-5.6-0.4c0.6,2.1,1.2,4.2,2,6.3
		c1.1,2.7-0.1,5.1-0.8,7.6c-0.1,0.4-0.5,0.8-0.7,1.2c-0.7,1.2-1.1,2.7,0.4,3.4c0.5,0.2,1.7-0.9,2.8-1.6c0.3,0.3,0.7,0.8,1.4,1.6
		c-1.3,0.6-2.5,1.2-3.8,1.9c0.3,0.5,0.6,1.1,1,2.1c-1-0.4-1.7-0.7-2.7-1.1c-0.5,0.9-1.2,2-1.7,2.9c-1.4,0.4-3,0.4-3.8,1.2
		c-3,2.9-6.8,2.7-10.4,3.3c-1,0.2-2.2,0.2-3.1,0.7c-1.6,0.8-2.9,1.6-4.8,0.6c-0.9-0.5-2.5,0.5-3.8,0.8c-3.1,0.7-6.3,1.9-9.6-0.3
		c-0.2,0.4-0.3,0.8-0.6,1.1c-0.4,0.4-1,1-1.3,0.9c-2.6-1.2-5.3,1.6-8.1-0.3c-0.2,0.3-0.5,1.4-0.8,1.3c-2-0.1-4.1-0.7-6.1-0.1
		c-1.5-2.2-2.9-0.1-4.1,0.2c-0.4-0.1-0.7-0.1-0.9-0.3c-3-2.5-6.2-1.9-9.5-0.7c-0.9,0.3-2,0.6-3,0.5c-2.3-0.3-4.7-0.7-7.3-1.2
		c-0.1-0.8-0.3-1.7-0.5-3.4c-1.1,1.3-1.8,2.1-2.5,3c-1.6,0-2.6-4-4.9-0.5c-1.1-2.3-3.2-2.1-5.2-2.6
		C2126,645,2123.3,643.2,2120.3,641.6z M2113.1,622.9c-1.1,1.4-0.8,2.8-0.1,4.5c0.6,1.5,2.4,2.6,1.9,4.5c1.3,0.1,1.1,2.4,2.9,2
		c0.6-0.1,1.6,0.1,1.9,0.5c1.5,1.9,3.8,2.8,5.4,4.6c0.4,0.5,0.4,1.3,0.6,1.9c0,0.1,0.3,0.2,0.6,0.3c0.5-0.7,1-1.4,1.4-2
		c1.3,0.8,2.3,1.4,3.4,2c2,1.1,4,1.9,6.6,1.7c2.6-0.2,5.4,0.9,8,1.6c1.5,0.4,3,1.1,4.5,1.6c0.3-2.8-0.9-4-3.5-3.9
		c-1.5,0-3.1,0.2-4.4-0.4c-3.9-1.5-7.7-3.4-11.6-5.1c-0.7-0.3-1.5-0.7-2.1-1.2c-2.7-2-4.8-4.8-7.9-6.3c-0.6-0.3-0.9-1.3-1.3-2
		c-0.3-0.5-0.5-1-0.9-1.3C2116.7,625,2115,624.1,2113.1,622.9z M2203,634c-3.4,0-4.8,2.1-6.3,4.8c2.1-0.1,3.8-0.4,5.4-0.2
		c3.2,0.4,5.8-0.9,8.3-2.5c1.7-1.1,3.4-2.3,5.5-3.6c0.2-1.1,0.6-2.7,0.9-4.3c0.1-0.9,0.1-1.9-0.1-2.8c-0.1-0.4-0.8-0.6-1.3-0.9
		c-0.6,1.6-2.5,0.2-3.2,1.4c-0.3,0.5-0.4,1.1-0.7,1.7c-0.2,0.5-0.4,1.3-0.7,1.4c-1.9,0.3-3.1,1.8-4.6,2.7
		C2205,632.4,2204,633.2,2203,634z M2135.8,627.6c-1.6-1-2.8-1.7-3.9-2.5c-0.3-0.2-0.5-0.6-0.7-0.9c-0.7-1.6-1.4-3.2-2-4.8
		c-0.6-1.7-1.1-3.4-1.9-5.8c-0.7,1.2-1.5,2-1.6,2.8c-0.1,2.1,0,4.2,0.4,6.2c0.1,0.8,1.2,2,1.9,2c1.3,0.1,1.7,0.6,2.3,1.6
		c0.7,1.2,2,2.2,3.1,3.3C2134.3,628.9,2134.8,628.4,2135.8,627.6z M2165.7,619.4c1.3-2.1,2.6-2.4,4.6-2.3c2.9,0.3,6.1,1,8.9-1.7
		c-3.6,0-7.6,1.5-9.2-3.5c-2.1,2.8-4.8,1.4-7.3,1.7C2161.4,616.8,2165,617,2165.7,619.4z M2206.5,622.5c-0.1-0.3-0.2-0.5-0.2-0.8
		c-2.4,0.6-5.1,0.7-7.2,1.9c-1.9,1.1-4.3,1.5-6.2,3.2c1.9,0.5,3.4,1,5,1.4c-0.3-1.5,0.5-1.7,1.6-1.8c1.2-0.1,3.2-0.1,3.5-0.8
		C2203.7,624,2205.4,623.6,2206.5,622.5z M2203.2,619.3c1.5-3.9,1.1-5.1-2-6.2c-1-0.4-2.4,0.3-3.6,0.4c0.2,0.8,0.3,1.7,0.5,2.5
		c0.1,0.6,0.3,1.1,0.5,1.7c1-0.5,1.7-0.8,2.4-1.1C2201.8,617.6,2202.4,618.3,2203.2,619.3z M2169.3,632.5c2.7,3.5,6.3,2.7,9.2,3.6
		c0.6,0.2,1.5-0.3,2.4-0.6c-0.3-1.5-0.6-2.8-0.9-4.5c-1.3,1-2.4,1.8-3.5,2.6C2174.3,633.3,2172.1,633,2169.3,632.5z M2140.5,617.4
		c-2.1-1.2-3.6-2.1-4.9-2.8c-1.2,1.6-2,2.8-2.9,4c0.7,0.6,1.5,1.4,2.5,2.2C2136.8,619.8,2138.4,618.8,2140.5,617.4z M2161.7,630.8
		c-1.3-2.8-3.5-4.2-6.2-4.7c-0.5-0.1-1.2-0.1-1.3-0.3c-1.3-2.2-1.7-0.2-2.7,0.1c1.7,2.7,4.4,1.7,6.5,2.4
		C2159.3,631,2159.3,631,2161.7,630.8z M2138.2,611.8c1.4-2.2,2.4-3.9,3.6-5.7c-0.8-1-1.9-1.4-3.2-0.4
		C2137,607,2136.8,608.4,2138.2,611.8z" style="fill:#FFFFFF;"/>
        <path d="M2217.5,828.8c-1.8-0.4-4.5-1.6-7.2,0.2c-0.4,0.3-1.3-0.1-2-0.1c-0.6,0-1.3,0-1.9,0.2
		c-0.3,0.1-0.8,0.6-0.9,0.5c-2.8-2.3-6.9,0.3-9.4-2.1c-1.6-1.6-3.6-2-5.2-3.5c-1.9-1.8-3.8-3.8-6.6-4.8c-2.2-0.8-4-1.8-6.5-0.7
		c-0.4-0.9-0.8-1.6-1.1-2.3c-0.2-0.4-0.3-1.2-0.4-1.2c-1.9,0.1-2.4-1.1-2.8-2.6c-0.8-3.1-2.4-6.5-0.9-9.5c0.8-1.5,1.3-2.9,1.7-4.5
		c0.2-0.7,1.1-1.8,1.6-1.7c2.7,0.5,3.3-1.6,4.2-3.2c0.8-1.6,1.5-3.2,3.4-3.8c0.4-0.1,0.7-0.6,0.9-1c1.9-3.7,6-5.4,8.1-8.9
		c2.4-0.4,3.8-1.9,4.8-4c0.2-0.4,1-0.4,1.6-0.6c0.9-0.3,2-0.4,2.6-1c1.5-1.5,2.9-3,5.1-3.7c1.9-0.6,3.3-2.5,5.4-3
		c1.2-0.3,2.4-0.6,3.6-0.9c0.5-0.1,1.2,0.2,1.4-0.1c1.7-2.2,4.6-1.8,6.8-3.1c3-1.7,6.4-0.8,9.6-1.2c0.8-0.1,1.6,0.2,2.4,0
		c1.3-0.3,2.9-1.6,3.8-1.2c1.4,0.6,2.4,0.6,3.7,0c0.3-0.1,0.9,0,0.9,0.2c1.3,2.7,2.7,0.3,4,0.2c3.2,1.3,6.4,2.6,9.3,3.7
		c0.3,1.5,0.5,2.8,0.7,4.3c1.1-0.6,1.9-1.1,2.8-1.6c0.1,0.2,0.3,0.3,0.4,0.5c-0.5,0.9-1,1.7-1.5,2.7c1.3,0.2,2.7,0.4,3.9,0.6
		c0.7,3.8,0.5,7.3,0,10.9c-0.4,2.6-0.7,5.1-1.3,7.7c-0.2,0.8-0.4,1.6-0.9,2.3c-2.8,3.7-2.4,4.8,2.1,5.5c1.2,3.3,1.1,3.9-2,4.6
		c-2,0.5-3,1.7-3.6,3.6c-3.9-0.4-5.8,1.8-7,5.1c-0.3,0.8-0.5,2-1.9,1.1c-0.5,0.9-1.1,1.8-1.6,2.7c-0.4,0.6-0.9,1.7-1.5,1.8
		c-2.5,0.5-3.4,2.4-4.1,4.5c-1.6,0.1-3-0.1-4.4,1.4c-1.4,1.5-3.6,2.5-6.3,2.2c-2.1-0.3-4.4,0.5-6.3,1.9c-0.7,0.5-1.6,0.7-2.5,0.9
		C2221.2,828,2219.7,828.3,2217.5,828.8z M2178.7,811.7c1.5,0.8,2.9,1.6,4.3,2.2c0.4,0.2,1-0.2,1.5-0.3c-0.2-0.4-0.4-0.7-0.6-1.1
		c-0.1-0.3-0.4-0.7-0.3-1c0.6-2-0.5-3.3-1.4-4.9c-0.6-1-0.8-2.4-0.8-3.6c0-1.6-0.3-2.9-1.5-3.4
		C2175.7,803.5,2177.8,807.7,2178.7,811.7z M2229.8,815.1c-0.7-0.4-1.7-0.6-2-1.1c-1-2-2.8-2-4.2-1.5c-2.8,1-5.5,2.4-8.2,3.8
		c-0.4,0.2-0.7,0.7-1.2,1.2c4.3,0.4,8.2,0.7,11.7,1C2227.3,817.2,2228.5,816.2,2229.8,815.1z M2260.5,778.4
		c-0.5-1.1-1.4-2.4-1.2-2.7c1.5-1.7-1.7-1.2-1.1-2.6c0.6-1.5-0.8-2.2-2-2.9c-2.7-1.6-5.4-3.4-8.2-5.1c0,0-0.5,0.4-0.4,0.5
		c1.4,3.5,4.3,5.7,7.1,7.6c1.5,1,1.8,2.2,2.5,3.4c0.4,0.8,0.4,1.7,0.7,2.7C2259.1,778.9,2259.8,778.6,2260.5,778.4z M2228.8,772.4
		c2.2,1.5,3.9,2.7,5.4,3.7c1.2-0.8,2.3-1.5,3.5-2.2c1.6,3.6,4.8,4.9,6.6,2.9C2240,772.9,2235.2,770.9,2228.8,772.4z M2201.2,802.9
		c-0.1-1.3,0.8-3.2-1.1-4.6c-2.3,2-3.5,4.5-4.2,7.3c1.6,0.5,3.1,1,4.7,1.5c0.1-0.8,0.1-1.4,0.1-1.9c1.1,0.2,2,0.3,2.8,0.4
		c0.1-0.2,0.2-0.4,0.3-0.5C2203,804.4,2202.2,803.7,2201.2,802.9z M2194,803.3c0.6-2,1.1-4.1,1.8-6.3c-3.2,1-4.2,3.3-4.8,5.6
		C2192,802.8,2192.9,803.1,2194,803.3z" style="fill:#FFFFFF;"/>
        <path d="M2152.1,712.1c2.5,2,1.7,4.5,2,6.8c0.2,2.2-1.6,4.2-0.6,6.6c0.3,0.6-0.9,1.8-1.4,2.7c-3.3,0.5-6,1.8-8.2,4.2
		c-1.2,0.2-2.5,0.2-3.7,0.6c-3.3,1.2-6.6,2.5-9.9,3.8c-0.4,0.2-1,0.2-1.3,0c-2.4-1.4-4.8-0.5-7.3-0.1c-1.2,0.2-2.4-0.3-3.7-0.4
		c-2.8-0.3-5.3-2-8.2-1.5c-0.4,0.1-0.9,0-1.4-0.2c-2.9-1.2-5.8-2.5-8.8-3.6c-0.7-0.3-1.7,0.1-2.5-0.2c-2.5-1-5-1.9-6.3-4.8
		c-0.5-1.1-1.4-2.1-3.1-2.5c-1.3-0.3-2.4-2.4-2.9-3.9c-1-2.7-2.2-5.5-2.2-8.3c-0.1-3.4,0.2-7.2,3.4-9.7c0-2.1,2.7-3.1,1.9-5.5
		c1.8-0.6,3.9-0.6,4-2.9c2.5-1,4.9-2.4,7.8-1.7c0.5,0.1,1.1,0.6,1.4,0.4c3.5-2.2,7.4-0.2,11-1c1.2-0.3,2.7,0.7,4,0.9
		c2.6,0.4,5.2,1.1,8,0.8c1.7-0.2,3.6,0.7,5.2,1.4c3.6,1.6,7.6,2.1,10.9,4.4c2,1.4,4.3,2.1,6.9,3.4c0.2,2.1,2.5,2.9,4.1,4.5
		C2152.8,707.9,2153.7,709.9,2152.1,712.1z M2098.5,704.3c-0.5,1-1,2.1-1.4,3.1c-1.4,3-1.3,3.2,2.1,4.6c0.5-2.8,0.5-2.8,4.4-3.1
		c-1.1-0.6-1.9-0.8-2.4-1.3c-0.6-0.6-1-1.4-1.4-2.1c1.8,0.9,3,0.3,3.5-1.9c3.4,3.1,6.7,0.7,10.1,1.1c-1.4-2.9-1.5-3-3.8-2.2
		c-0.5,0.2-1.3,0.4-1.7,0.1c-2.9-1.7-5.5-1.5-7.9,1C2099.6,703.8,2099,704,2098.5,704.3z M2138.1,709.3c0-3-1.8-4.2-4-5.2
		c-1.2-0.5-2.3-1.2-3.5-1.7c-3.4-1.3-6.9-2.1-10.7-1.7c2.4,1.6,4.8,3.2,7.7,5.2c0,0,0.8-0.2,1.5-0.4
		C2131.4,707.6,2135.4,709.3,2138.1,709.3z" style="fill:#FFFFFF;"/>
        <path d="M2182.3,684c0.9-4.8,4.6-7,8.4-9c1.2-0.6,2.5-1,3.7-1.6c0.3-0.1,0.4-0.6,0.7-0.8c2.1-0.9,4.2-1.2,6.1-2.7
		c1.6-1.2,3.9-1.6,6-2c4.5-0.9,8.9-1,13.3,0.6c3.7,1.4,7,3.5,10.6,5.1c2.6,1.2,3.7,4.4,3.8,7.3c0.1,5.2-1.3,10-4,14.4
		c-0.6,0.9-2.1,1.2-3.6,2c0.3,1.5-0.1,3.1-2.4,3.3c-0.4,1.8-1.7,2.4-3.6,2.4c-0.1,3-1.9,4.7-4.3,5.9c-2.5,1.2-4.7,3-7.6,3.1
		c-0.5,0-0.8,1.1-1.4,1.3c-2.1,0.7-4,2.2-6.4,1.5c-1.8-0.5-3.4,0.8-5.4,0.1c-1.4-0.5-3.3,0.8-4.9,0.6c-2.1-0.3-4.6,0.2-6-2.3
		c-0.3-0.6-0.8-1.2-1.3-1.6c-1.1-0.7-1.1-1.5-0.9-2.7c0.3-1.7,0.3-3.5,0.3-5.2c0-0.5-0.3-1.2-0.7-1.6c-1.2-1-2.4-2-3.7-2.8
		c-0.3-0.2-0.9,0.1-1.3,0.2c-0.7-2.1-2.1-4.2,0-6.2c0.2-0.1-0.3-0.8-0.2-1.2c0.4-1.4,0.8-3,1.5-4.2
		C2180,686.5,2181.2,685.3,2182.3,684c0.3,1.7,0.5,3.4,0.8,5.9c1.9-2.1,3.1-3.5,4.7-5.3C2185.4,684.4,2183.6,686,2182.3,684z"
              style="fill:#FFFFFF;"/>
        <path d="M2299.5,815c0.4-2.3,0.8-4.1,1.1-5.9c0.1-0.3,0.1-0.7,0.2-1c2.5-3.4,3.2-8,7-10.5c0.6-0.4,1.4-1.1,2.1-1.1
		c4.5,0,9.1-0.8,13.6,0.4c5.3,1.4,8.3,5.9,7.8,11.5c-0.3,3.5-2.2,5.1-4.5,7.1c-2,1.8-4.5,2.4-6.6,3.9c-2.6,1.8-5.7,1.1-8.7,1.1
		c-0.5,0-1-0.1-1.4,0c-3.3,1-6.2,0.2-8.3-2.6C2301,816.9,2300.2,815.9,2299.5,815z" style="fill:#FFFFFF;"/>
        <path d="M1995.7,575.9c-0.6,1.4-0.9,2.3-1.5,3.5c-0.6-1-1.1-1.7-1.5-2.4c-0.6,0.2-1.2,0.4-2.2,0.7
		c-0.5-1.7-0.9-3.3-1.4-5.1C1992.9,571.4,1992.6,576.1,1995.7,575.9z" style="fill:#FFFFFF;"/>
</g>
    <g>
	<g>
		<path d="M2891.3,2224.6c-4-1.5-8-3.2-12.5-1.7c-0.4,0.1-0.9-0.1-1.3-0.3c-4.3-1.5-8.8-1.1-13.2-1.1
			c-1.2,0-2.4-1.1-4-2c-2.9,3.4-4.4-3.4-7.9-2.2c-0.1-5-4.4-6.2-8.1-8.2c-0.5-0.3-1.1-0.7-1.3-1.1c-1.3-4-5-6-7.5-8.9
			c-0.8-1-1-2.5-1.5-4c-2.9,1.6-5.8,2.2-7.1-2.5c1.6,0.1,3,0.2,5.5,0.3c-2.2-1.2-3.7-2.6-5-2.5c-3.4,0.3-3.8-2.1-4.9-4.2
			c-1.7-3.3-3.8-6.4-5.9-9.5c-2.3-3.4-4.6-6.8-7.1-10c-4.2-5.5-9.1-10.5-12.5-16.4c-3.2-5.5-8.6-9.7-9.9-16.5
			c-0.4-2.3-3.2-4.2-5.1-6c-1.2-1.1-2.5-1.8-0.6-2c-2-3.4-4-6.9-6.2-10.2c-0.9-1.4-2-2.8-3.4-3.7c-4.2-2.7-2.9-8.8-7.5-11.6
			c-1.3-0.8-1.5-3.9-3-5.9c-3.7-4.9-7.2-9.7-12.1-13.5c-1.6-1.2-2.6-3.4-3.4-5.3c-2.2-5.5-5.8-10-10.6-13.5c-1-0.8-1.5-2.2-2.7-3
			c-1-1.2-2.1-2.4-3.1-3.7c-1-1.3-2-2.6-2.7-4.1c-0.6-1.3-0.5-3-1.4-4c-1-1.1-2.6-1.5-4.3-1.9c-1.5-3.8-7.1-6.1-5-12.2
			c-1.1,0.6-1.6,0.9-2.3,1.3c-0.6-1.1-1.1-2.3-1.9-3.3c-4.3-6-8.8-12-13.1-18.1c-0.7-1-0.7-2.4-0.8-2.9c-1.2-1.7-2.2-2.9-3-4.2
			c-2-2.8-3.8-5.7-5.9-8.3c-2-2.6-4.4-4.8-6.6-7.3c-2.6-3-5.2-6.1-7.6-9.3c-0.5-0.7-0.3-1.8-0.5-3.1c-0.5-0.1-1.4-0.2-2.2-0.4
			c0.2-0.2,0.5-0.3,0.7-0.5c-1.2-2.2-2.6-4.4-3.7-6.6c-0.3-0.6-0.2-1.5-0.4-2.3c-0.2-0.7-0.9-1.8-1.1-1.7c-2.9,1-2.6-0.9-2.6-2.7
			c0-0.5-0.1-1-0.4-1.4c-3.5-6-7.1-11.9-10.5-17.9c-0.7-1.2-0.6-2.8-1.3-4c-1.6-2.6-3.5-5-5.2-7.4c-0.3-0.4-0.8-0.8-0.8-1.2
			c-0.5-6-4.7-9.9-8.1-14.3c-0.6-0.8-0.6-2.1-0.7-2.6c-1.2-1.8-2.1-3.3-3.2-4.6c-0.8-0.9-2.2-1.4-2.9-2.3c-1.6-2-2.9-4.3-4.6-6.2
			c-1-1.1-2.6-1.7-3.5-2.8c-0.8-1-1-2.4-1.6-4.1c-3.4-0.3-4.9-2.9-3.3-7.9c-1.1,0.7-1.9,1.2-3.4,2.2c0.6-1.7,0.9-2.5,0.9-2.4
			c-0.9-2-1.2-3.5-2-4.6c-1.3-1.8-2.6-3.8-4.4-4.9c-3.1-1.8-3.1-5.3-4.9-7.7c-3.4-4.5-6.6-9.2-9.8-13.9c-0.5-0.7-0.7-1.4-1.1-2.2
			c-0.2-0.4-0.3-1.1-0.6-1.2c-2.9-1.5-3.9-4.1-5.3-6.9c-1.7-3.6-4.8-6.5-7.3-9.7c-1-1.3-2-2.5-3.3-4.2c1.1,0,1.9,0,3.5,0
			c-1-1.5-1.7-2.7-2.5-3.8c-2.7-4.3-5.3-8.6-8-12.9c-0.3-0.4-0.8-0.8-1.1-1.2c-1.4-2.1-2.7-4.2-4.2-6.2c-0.6-0.8-1.3-2.1-2-2.1
			c-3.5-0.2-3-2-2.3-3.4c-1.4-1.9-2.3-3.3-3.3-4.6c-4.8-6.4-9.7-12.7-14.3-19.2c-1.6-2.2-1.9-5.3-3.4-7.6c-1.1-1.7-3.1-2.7-4.9-4.2
			c-0.5,0.9-1,1.6-1.6,2.5c-0.7-0.5-1.4-0.9-2.2-1.5c0.6-0.7,1.1-1.3,2-2.2c-2.9-1-7.9-0.3-4.5-6.8c-1.7,1.4-2.4,1.9-3.4,2.7
			c-1.4-2.5-2.6-4.9-4-7.3c-0.4-0.7-1.1-1.1-1.6-1.8c-0.8-1.3-1.6-2.8-1.9-4.4c-0.9-0.8-2-1.5-2.7-2.4c-2.2-2.9-4.4-5.9-6.5-8.9
			c-3.9-5.6-7.8-11.1-11.5-16.8c-0.9-1.3-0.8-3.3-1.5-4.7c-0.4-0.7-1.7-1-2.6-1.4c-0.4-0.2-0.9-0.4-1-0.8c-1.4-3.2-2.7-6.5-4.3-9.5
			c-0.6-1.2-2.2-1.9-2.8-2.4c-0.3-2.2-0.5-3.8-0.8-5.6c-1.1,0.4-1.9,0.7-3.6,1.4c0.8-1.8,1.2-2.7,1.6-3.7c-4.6-1.8-5.6-6.7-8.2-10.2
			c-0.5-0.7-1.2-1.2-1.8-1.7c-0.1-0.1-0.3,0-0.3-0.1c0.1-4-4.6-5-5.3-8.3c-0.5-2.2-0.7-4-3.3-4.8c-1.1-0.3-1.7-2.1-2.6-3.2
			c-0.8-0.9-1.7-1.7-2.7-2.6c0.1-0.7,0.4-1.9,0.6-3.2c-2.5-0.8-4.6-1.5-5.9-1.9c-3.4-4.1-6.3-7.6-9.1-11c1-1.4,2.2-2.9,3.1-4.5
			c0.1-0.2-1.4-1.2-1.4-1.3c-1.2-2.1-1.9-3.6-2.7-5c-0.8-1.5-1.7-2.9-2.6-4.5c-4.2,3.6,0.6,5,2,7.1c-0.9,1.1-1.8,2.1-2.7,3.3
			c-1-2.6-2-4.9-3-7.5c-0.5,0.3-1.3,0.8-2.8,1.7c0.4-1.8,0.7-2.9,1-4.1c-4.4-2.5-7.1-7.4-5.4-10.1c-1.4,0.4-2.8,0.8-4.3,1.2
			c-0.6-2.3-4.9-3.4-2.4-5.8c-1.1-2.3-2.5-4-2.6-5.8c-0.3-3.9-2.3-3.3-5.2-2.2c0.5-1.4,0.9-2.5,1.3-3.6c-0.6,0.1-1.4,0.3-3.2,0.7
			c1.6-1.5,2.6-2.4,3.7-3.4c-1-1.7-1.6-3.8-4.4-3c0.9,0.8,1.8,1.7,3.1,2.8c-3.6,0.5-4.5-0.6-5.7-6.7c-1,0-2,0-3.1,0
			c4.1-2,0.2-4,0.2-6.2c-0.8,1-1.5,1.8-2.2,2.7c-2.1-2.8-4-5.5-6.1-8.4c1.4,0,2.7,0,3.6,0c-2-2.8-3.9-5.4-5.7-7.8
			c-0.2,0.1-1,0.4-1.7,0.7c-0.2-1.3-0.7-2.7-0.6-4c0.1-0.8,1.3-2.3,1.7-2.2c2,0.5,3.8,1.5,5.8,2.3c0,0.2,0-0.4,0.1-2.2
			c0.9,1.6,1.8,2.5,1.6,3.1c-0.3,0.9-1.4,1.6-1.9,2.2c1.2,0.9,3.6,1.8,3.9,3.1c0.5,1.9-0.5,4.1-1,6.5c1.2,0,2.7,0,4.4,0
			c-0.4-0.8-0.7-1.5-1-2.2c0.3,0,0.6-0.1,0.7,0c1.7,1.2,3.4,2.3,4.9,3.7c1.1,1,2.7,2.7,2.4,3.6c-1.2,4.3,1.4,6.6,4,9
			c-0.8,1-1.4,1.8-2.6,3.3c2.7,0.4,4.7,0.6,7.4,1c0.3,0.3-1.6,4.1,1.6,2.1c3,4.6,5.8,8.9,8.6,13.2c0-0.1,0.5-0.5,0.9-1.1
			c3.1,4.5,6.1,8.8,9.1,13.1c0,0,0,0-0.1,0c2.9,4.1,5.8,8.2,9,12.7c1.4-0.1,3.6-0.5,3.7,2.7c0,0.6,1.5,1.2,2.5,2.1
			c0,0.1,0,0.9,0.5,1.4c1,1.3,2.2,2.4,3.4,3.6c0.3,0.3,0.7,0.5,1.1,0.7c1.6,1,3.1,2,5,3.2c-1.5,1.1-2.1,1.6-1.9,1.5
			c1.6,1.4,3.3,2.6,4.7,4.1c2,2,2.5,5.4,5.8,6.3c0.2,0,0.4,0.4,0.4,0.5c-0.6,5.9,6.5,7.6,7.4,13.2c0.3,1.9,4,3.9,4.9,6.9
			c5-0.4,2.6,5.1,5.3,6.8c2.3,1.5,3.7,4.4,6,6.1c1.4,1.1-0.8,3.4,1.9,3.7c1,0.1,1.9,1.5,2.7,2.5c1,1.3,2.7,1.8,2.7,4.4
			c0,2.3,2.4,4.6,3.9,6.8c1,1.5,2.3,2.7,3.3,4.1c2.5,3.6,4.8,7.2,7.2,10.9c1.1,1.7,2.2,3.6,3.4,5.2c0.5,0.8,1.5,1.2,1.7,1.9
			c0.6,1.4,0.9,2.9,1.8,4.1c2.1,3.1,2.8,7.1,6.6,9c0.9,0.4,1,2.3,1.6,3.4c2.2,3.6,4.4,7.2,6.6,10.7c0.4,0.6,0.9,1.6,1.3,1.6
			c3,0,2,1.6,1.3,3.2c2.1,0.5,4.2,0.5,3.7,3.6c-0.1,0.7,1.5,1.7,2.4,2.6c1.3,1.2,2.9,1.9,1.9,4.5c-0.9,2.5,1.1,3.8,4.2,3
			c0.3,1.2,1.1,2.6,0.8,3.6c-0.9,2.4,0,2.9,2.1,3.2c0.4,0.1,0.8,1,1.2,1.6c3.7,5.3,7.6,10.6,11.2,16c2.3,3.5,4,7.4,6.4,10.8
			c2.1,3.2,4.7,6.1,7.1,9.1c1.6,2.1,3.5,4,5,6.1c1.7,2.4,3,5,4.5,7.5c1.3,2.3,2.6,4.5,4.2,7.2c0,0,0.7-0.3,1.2-0.5
			c2.5,3.8,4.5,8,7.5,11.4c2.7,3.1,3.3,8,8.2,9.3c-1,0.9-1.5,1.3-2.6,2.3c1.7-0.2,2.6-0.3,3-0.4c2.3,3.1,4.5,6,6.7,8.9
			c3.7,5.2,7.4,10.3,10.8,15.6c1,1.6,1.4,3.4,3.3,4.5c1.1,0.6,1.4,2.5,2.1,3.8c1.1,2,2.2,3.9,3.4,5.8c2.8,4.7,5.4,9.5,8.4,14.1
			c1.6,2.4,4.1,4.3,6.1,6.5c0.3,0.3,0.9,0.6,0.9,1c0.3,4.5,4.3,6.6,6.3,9.9c0.3,0.6,0.7,1.5,0.5,2c-1.5,2.8-0.2,4.5,1.8,6.2
			c0.6,0.5,0.9,1.5,1.2,2.2c1,2.2,0.7,5.2,3.9,6.1c0.5,0.2,0.8,1.4,1.1,2.1c0.5,1.3,0.8,2.4,2.4,3.1c1.2,0.5,1.4,2.8,2.4,4
			c0.9,1,2.3,1.4,4.3,2.6c-0.2,0.9-0.5,2.8-1,4.9c1.2-0.7,2.3-1.3,3.7-2.1c0.8,1.6,2.1,3.1,2.3,4.7c0.4,3.8,3,5.2,6,6.3
			c0.5,0.2,1.2,0.7,1.2,1.1c0.2,5,4.8,6.9,7.1,10.5c2.6,4.1,5.7,7.9,8.6,11.9c0.7,1,0.8,2.4,1.5,3.4c2.4,3.6,4.9,7,7.3,10.7
			c2,3,3.5,6.4,5.6,9.3c3.5,5,8.1,9.4,10.9,14.8c2.2,4.2,6.8,6,8.3,10.2c2.6,7.2,9.7,11.5,11.7,19.1c0.2,0.9,1.6,1.4,2.3,2.3
			c2.6,3.1,5.2,6.3,7.7,9.3c0.1,1.5,0.2,3,0.3,4.6c0.9-0.1,1.7-0.2,2.9-0.3c0.2,1.4-0.5,3.9,2.4,4.4c0.5,0.1,1.4,1.5,1.2,2
			c-0.7,2.9,2.2,4.4,2.5,6.9c0.1,0.5,0.6,1.1,1.1,1.3c3.1,1.2,3.1,1.2,2.7,3.4c1.5,2.6,3,4.4,3.6,6.4c0.9,3.2,1.5,3.7,4.4,1.7
			c-0.9,5.3,3.1,8.6,5.4,12.5c3.5,5.8,7.7,11.1,11.8,16.5c2.1,2.8,4.6,5.2,6.7,8c0.6,0.8,0.6,2,0.9,3c0.3-0.2,0.6-0.4,0.9-0.6
			c2.9,4.1,5.7,8.2,8.7,12.6c-0.3,0.3-0.8,1-1.4,1.7c0.5,0.3,1,0.7,1.1,0.6c0.7-0.8,1.9-1.7,1.9-2.5c-0.1-2.9-0.8-5.8-0.9-8.7
			c0-1.4,1-2.8,1.5-4.3c0.4,0.2,0.9,0.5,1.5,0.8c-1.4-8.9-1.7-17.4,1.5-25.7c0.8-2.2-0.2-5.2,2.9-6.5c0.3-0.1,0.1-1.8-0.2-2.6
			c-1.4-3.2,0.1-8.4,3-10.7c0.4-0.3,0.7-1.1,0.8-1.6c0.3-2.4,0.3-4.8,3.1-6.2c1-0.5,0.8-2.7,1.7-3.8c4.3-5.7,8.2-11.6,11.1-18.1
			c0.5-1.1,2.2-1.7,3.2-2.6c0.6-0.6,1-1.5,1.5-2.1c0.7-0.7,0.3-3.2,2.5-1.7c0.1,0,0.8-0.8,1.1-1.3c1.6-2.9,2.3-6.5,6.8-6.8
			c0.8,0,1.5-2.6,2.3-4.1c0.4-0.1,1.7,0.1,2.2-0.5c1.4-1.6,2.6-3.5,3.8-5.3c-0.2-0.2-0.5-0.5-0.7-0.7c0.9,0.1,1.9,0.2,3.4,0.4
			c-0.4-1.4-0.7-2.4-0.8-2.6c2.8-1.2,5.4-2.4,8.5-3.8c-1.8-1.1-2.7-1.7-3.6-2.2c1.3-1.3,2.4-3,3.9-3.9c2-1.3,4.6-1.4,4.2-5
			c-0.2-1.9,3.6-3.1,6.3-2c-0.5-1.3-0.9-2.4-1.2-3.3c0.6,0,1.4,0.1,2-0.2c1.3-0.7,2.5-1.6,3.7-2.5c0.6-0.5,1.1-1.2,1.7-1.8
			c1.4-1.5,2.6-3.3,4.2-4.6c3.3-2.6,6.8-4.8,10.2-7.3c3.6-2.7,7-5.6,10.6-8.2c0.8-0.6,2-0.5,3-0.8c4.1-1.2,9.1-1.4,12.1-3.9
			c3.5-2.9,7.4-4.3,11.3-6c7.4-3.3,15-6.2,22.5-9.3c0.9-0.4,1.7-1,2.6-1.5c0.8-0.4,1.6-1,2.5-1.2c1.6-0.4,3.3-0.5,4.9-0.8
			c3.1-0.5,6.3-1,9.4-1.5c3-0.5,5.9-0.9,8.9-1.5c3.2-0.6,6.2-0.6,9,0.5c3.3-0.7,6.7-1.5,10.1-2.2c-2.6-2.1-5.2-4.2-7.8-6.4
			c0.3-0.1,0.7-0.1,1-0.2c-1.8,0-3.7,0.4-5.3-0.1c-2.9-0.9-5.6-2.2-7.2-5.1c-0.5-1-1.8-1.5-2.6-2.3c-0.3-0.3-0.2-1.1-0.2-1.6
			c0-0.5,0.3-1.3,0.1-1.5c-2.3-2.4-4.7-4.7-7.2-7c-0.3-0.3-1.2,0-1.8-0.2c-1.5-0.6-3.3-0.6-3.5-3.1c-0.1-1.4-2-2.6-3.2-4
			c-0.9,0.9-1.5,1.6-2.5,2.7c-0.6-1.7-1.1-3.1-1.6-4.4c-0.2,0.2-0.3,0.4-0.5,0.6c-2.4-2-4.9-3.9-7.2-6.1c-1.9-1.8-3.3-2.9-6.7-4.4
			c-0.7-0.3-1.1-1.4-1.8-1.9c-1.6-1.1-3.3-1.9-4.8-3c-1.3-1-2.4-2.4-3.6-3.6c-2.6-2.4-5.3-4.6-7.8-7c-1.9-1.8-3.8-3.8-5.7-5.7
			c0.3-0.8,0.6-1.8,0.8-2.6c-1.7-0.4-3.1-0.8-4.6-1.2c-1.2-0.3-2.4-0.6-3.7-0.9c0.2-0.4,0.5-0.9,0.7-1.1c-5.5-1.3-4-7.2-7.9-10.3
			c1.8,0,2.5,0,4,0c-1.7-1.6-2.9-2.7-4.2-3.9c-1.2,1.5-0.3,5.4-4,3.5c-1.7-0.9-3.3-1.9-4.6-3.2c-1.3-1.2-2.1-2.9-3.3-4.5
			c2,0.4,3.9,0.7,5.8,1.1c0.2-0.4,0.3-0.8,0.5-1.2c-1.1-0.6-2.2-1.2-3.7-2c-1-1.9-2.3-4.2-3.9-7c-2.6-0.6-3.9,1.3-5.1,3.8
			c0-0.8,0-1.7,0-3c-3,1.9-3.7-0.4-5.1-2.1c-1.3-1.6-3.1-2.9-5.2-4.9c1.8-0.3,2.8-0.4,3.8-0.5c0-0.1,0-0.4-0.1-0.5
			c-1.9-1.2-4.8-1.9-5.6-3.6c-2.1-4.8-7.5-5.1-10.4-8.7c-3.2-4-7.9-6.5-11.6-10c-2.5-2.3-5.6-4-8.3-6.2c-1.3-1.1-1.9-2.8-3-4.2
			c-0.6-0.7-1.3-1.3-2.1-1.8c-1.1-0.7-2.3-1.1-3.3-1.8c-1.9-1.3-3.9-2.5-5.6-4.1c-1.1-1.1-1.6-2.7-2.8-3.6c-1.3-1.2-2.5-2.5-3.9-3.6
			c-1.4-1.2-3-2.1-4.4-3.3c-2.6-2.2-5-4.7-7.6-6.9c-1.6-1.4-3.7-2.3-5.1-3.8c-2.7-2.8-5.1-5.9-7.6-8.9c-0.9-1.1-1.5-2.4-2.5-3.3
			c-3.8-3.5-7.7-6.9-11.1-10.8c-2.2-2.5-4.7-5.5-7.5-7.7c-1.8-1.4-3.4-3-5.1-4.5c-1.2-1-2.6-1.9-4.2-3.1c0.1-0.4,0.2-1.1,0.2-0.9
			c-4.2-3.8-7.7-7.7-11.8-10.6c-2.7-1.8-4.3-5.3-8.3-5.5c-0.9,0-1.6-2.4-2.4-3.6c-3.4-2.8-8.9-3.2-10-8.9c-3.1-0.1-10.3-6.9-11-10.6
			c-0.3,0.6-0.6,1.1-1.5,2.6c-2.8-3.4-4.8-8.1-8.1-9.2c-3.6-1.2-3.5-5.9-7.4-5.6c-1.2-4.4-7.1-3.8-8.6-8.3c-0.6-1.9-3.5-3-5.3-4.5
			c-3.1-2.6-6.3-5.2-9.3-8c-2.6-2.4-4.8-5.4-7.6-7.6c-1.9-1.4-4.6-1.8-6.9-2.8c-2.1-0.9-4.5-1.4-5-4.5c-0.2-1-2.3-1.6-3.8-2.6
			c-0.1-0.8-0.1-1.9-0.3-3.8c-0.7,1.2-1.1,1.9-1.1,2c-4.2-3.2-9-5.9-12.2-9.7c-2.7-3.2-5.8-5.5-8.8-8.2c-1.8-1.6-3.9-2.7-6.3-4.3
			c-0.1-0.7-0.4-1.9-0.7-3.5c-1,0.4-1.8,0.7-1.8,0.7c-1.9-1.8-3.4-3.3-5-4.7c-7.4-6.4-15.5-11.9-21.8-19.6
			c-2.6-3.2-5.2-7.3-10.3-8.3c-1.1-0.2-3-2.5-3.7-4.5c-0.2-0.5-0.8-0.8-1.2-1.3c-1.5-1.7-3-3.4-4.6-5.1c-1.8-1.5-4-2.8-5.7-4.6
			c-3-3.2-5.6-6.8-8.7-10.1c-0.8-0.9-2.4-1-4-1.6c-0.4-0.4-1.4-1.3-2.2-2.2c-1.2-1.5-2.2-3.3-3.4-4.8c-1.4-1.7-2.6-4-4.5-4.8
			c-2.9-1.2-4.7-2.9-5.8-5.8c-0.5-1.4-2.2-2.3-3.6-3.7c-0.3,0.1-1.1,0.5-1.9,0.9c-0.7-1.2-1.2-2.4-2.1-3.3c-2.7-2.8-5.6-5.5-8.3-8.4
			c-0.5-0.5-0.9-1.3-0.8-1.9c0.5-2.6-1.1-2.9-2.3-2.9c-1.8-3-3.4-5.6-5-8.3c-0.4,0.2-0.7,0.3-1.1,0.5c-0.3,0.6-0.6,1.3-1,2.3
			c-2.5-3.2-4.7-6.1-7.1-8.9c-0.3-0.4-1.3-0.2-2.1-0.3c0-0.8,0.1-2.4,0.2-4c-1,0.9-2,1.9-2.9,2.8c0.3-1.1,0.5-2.1,0.8-3.2
			c-0.3,0.3-0.5,0.5-0.8,0.8c-1.5-0.8-3.2-1.4-4.4-2.5c-2.6-2.5-4.9-5.4-7.6-7.9c-0.8-0.8-2.5-0.6-3.7-1c-2.4-0.9-3.4-2.8-4.4-5.1
			c-0.9-1.9-3.1-3.2-4.6-4.7c-1.7-0.9-3.8-1.6-5.4-2.8c-1.9-1.5-3.4-4.9-5.1-4.9c-4.6,0-5.8-4.5-9.7-5.7c-2.7-0.8-6.9-2.3-7.6-6.5
			c-0.1-0.8-1-1.5-1.6-2.2c-1.2-1.2-2.9-2-3.6-3.4c-1.9-3.7-5.2-5.7-8.4-7.8c-1.3-0.9-1.7-3-2.6-4.5c-1.4-2.2-2.4-5.3-6.2-4.1
			c-0.1,0-0.4-0.2-0.6-0.3c-2.9-2.8-5.9-5.6-8.8-8.5c-1.6-1.5-3-3.2-4.6-4.6c-5.9-5.4-8.9-13.4-16.5-17.4c-2.1-1.1-6.3-2.7-6.1-6.9
			c0-0.3-0.3-0.8-0.5-0.8c-4.8-1.2-6.5-5.7-9.8-8.6c-1.4-1.3-3-2.5-5.2-4.3c0,0-1-0.3-1.7-0.9c-2.6-2.4-5.1-5.1-7.8-7.5
			c-2.9-2.6-6.6-4.1-8.4-8.1c-0.9-2.1-4-3.2-6-4.9c-2.4-2.1-4.7-4.2-7-6.4c-0.2-0.2,0.2-1.1,0.3-1.4c-0.9-0.6-1.9-1.2-2.8-1.7
			c1-0.3,1.9-0.6,2.6-0.9c-1.8-1.4-3.7-2.9-5.9-4.6c1.4-1,4.9,0.1,2.7-3.7c1.4,0.3,2.3,0.4,3.5,0.6c-0.7,1.1-1.2,2-2.2,3.6
			c1.9-0.4,3.2-0.6,4.3-0.8c2.6,1.1,5.2,2.1,7.8,3.2c0.3,0.1,0.6,0.1,1,0.1c-1,3.7,3.2,3.9,4.2,5.9c1.4,3.2,3.5,2.8,6.1,2.4
			c0.1,1.2,0.2,2.2,0.3,3.2c3.6,1.1,5.7,4.3,6.4,7.8c0.3,1.4,2,3,3.4,3.5c3.5,1.2,5.9,4,7.2,6.8c1.7,3.7,5.5,3.9,7.7,6.5
			c1.5,1.9,3.4,3.5,5.1,5.2c1.3,1.2,2.5,2.5,3.9,3.6c2.1,1.7,4.5,3,6.3,5c3.2,3.5,5.9,7.4,9,11.1c0.6,0.7,1.8,1,3.1,1.7
			c0,3.9,6.2,3.4,7.4,8c0.8,3.1,5,5.2,7.5,7.7c1.4,0.1,2.9,0.2,4.7,0.4c-2.8,3.1-0.8,4,1.3,5.2c0.2-0.7,0.3-1.3,0.5-1.9
			c3.8,0.8,0.5,2.7,0.7,4.1c2.3,1.5,6.3,1.2,6.1,5.2c1.1-0.1,2.3-0.5,3.3-0.2c0.9,0.3,1.6,1.3,2.1,2.3c1.1,1.2,2.2,2.4,3.4,3.6
			c4.5,4.2,9,8.3,13.5,12.4c1.9,1.7,4.1,3.1,5.8,4.8c1.6,1.6,2.8,3.5,4.2,5.3c0.1,0.2,0.3,0.6,0.4,0.6c4-0.3,4.5,4.5,7.7,5.5
			c1.1,0.3,2.3,1.6,2.7,2.8c1.1,2.7,3.3,4.1,5.6,5.1c4.3,1.9,5.8,3.4,6.3,6.2c3,2.8,5,4.7,7.1,6.5c0.7,0.6,1.7,1,2.3,1.6
			c2,1.8,3.8,3.8,5.8,5.6c4.6,4,9.4,7.7,13.8,11.9c2,1.9,3,4.7,4.8,6.7c1.9,2,4.3,3.5,6.5,5.3c2.3,1.9,4.4,3.9,6.7,5.8
			c3.5,2.8,7.1,5.6,10.6,8.4c1.4,1.1,2.8,2.1,4,3.4c2.5,2.4,4.9,5.1,7.4,7.5c1.6,1.5,3.6,2.5,5.2,4c4.8,4.2,9.5,8.5,14.3,12.7
			c1.9,1.6,4.2,2.8,5.9,4.5c1.4,1.5,2.2,3.7,3.2,5.6c-0.3,0.2-0.6,0.3-0.9,0.5c4.9,4.3,9.8,8.6,15.4,13.5c-0.5,4.1,5.2,4.6,7.6,7.8
			c0.9,1.2,2,2.3,3.3,3.8c0.3-1,0.6-2.2,1.1-4.1c0.8,0.7,2.3,1.5,2.2,2c-0.3,1.5-1.2,2.9-2.1,5.1c1.9,2.3,4.5,5.3,7.3,8.6
			c1.4-2.5,2.5-4.5,3.7-6.5c0.3,0.2,0.6,0.3,0.9,0.5c-0.3,0.7-0.7,1.5-1,2.3c2.2,1,4.8,1.5,6.6,3.1c1.6,1.4,2.4,3.7,3.2,5.9
			c1.5,0.8,4.7-1.2,4.7,3.3c0,1,2.8,2,4.6,3.2c-0.8,0.6-1.9,1.4-3.2,2.4c1.5-0.1,2.8-0.2,4-0.3c1,3.4,4.8,6.2,7.4,5.1
			c0.2,1.8,0.3,3.4,0.5,5.9c0.8-1.4,1.3-2.2,2-3.4c1.1,2.6,2.2,5,3.5,8c0.7-1.6,1-2.5,1.6-4c0.9,1.5,1.5,2.6,2.2,3.7
			c0.4,0.7,0.9,1.5,1.4,2.2c0.8,1.3,1.5,2.6,2.3,4.1c0.2-0.5,0.5-1.1,0.8-1.7c0.1,0,0.4,0,0.4,0.1c2.1,5,7.5,6.5,10.9,10.3
			c2.1,2.3,5.3,3.6,7.9,5.5c1.5,1.1,2.6,2.7,4.1,3.9c2.3,1.9,4.7,3.6,7,5.5c0.4,0.4,0.4,1.3,0.5,1.6c9.5,6.3,17.2,14.6,25.5,22.6
			c-0.1,0.1,0.5-0.4,0.8-0.7c1.1,1,2.1,1.8,2.7,2.7c0.7,1,1.1,2.3,1.9,4.3c0.2-0.7,0.5-1.3,0.5-1.4c3,2.5,5.8,5,8.7,7.4
			c3.4,2.9,7.3,5.2,9.4,9.4c0.5,1.1,1.8,1.8,2.8,2.5c1.7,1.1,3.6,1.8,5.2,3.1c0.5,0.4,0.1,1.8,0.1,2.9c1.2,0,2.6,0,4,0
			c-0.7,0.5-1.4,1.1-2.6,2c3.2,1,6,1.9,8.1,2.5c0.6,1.2,0.9,2.3,1.6,2.9c2.9,2.6,6,4.9,8.8,7.6c0.9,0.8,1.3,2.1,2,3.4
			c0.4-0.5,0.9-1.2,1.5-1.8c4.1,4.8,8.2,9.6,12.4,14.2c0.8,0.8,2.4,0.8,3.7,1.2c2.5,2.3,5.3,4.8,8,7.2c-0.4,0.5-0.8,1-1.1,1.5
			c0.3,0.3,0.5,0.5,0.7,0.6c1.5,0.8,3.3,1.4,4.6,2.5c2.4,2.2,4.5,4.8,6.8,7.2c0.5,0.5,1.3,0.8,2,1.1c0.5,0.2,1.4-0.1,1.7,0.2
			c2,1.8,3.8,3.9,6,5.4c2.7,2,3.7,6.5,8.5,5.7c-0.5,0.9-0.9,1.5-1.3,2.2c2.9,1.8,4.9,3.8,6.7,6.8c2,3.5,6.6,5.4,9.9,8.1
			c0.7,0.6,1.8,1.5,1.8,2.2c-0.1,2.7,0.4,4.2,3.5,3.4c0.4-0.1,1.3,0.2,1.5,0.6c3.7,5.7,9.6,9.1,14.5,13.6c2.5,2.3,5.1,4.4,7.5,6.9
			c1.6,1.7,4.7,1.8,7.5,2.7c-0.5,0.7-1,1.5-1.6,2.4c1.5,0.4,3,0.8,4.5,1.2c-0.2,0.1-0.4,0.3-0.6,0.4c1.9,2,3.7,4,5.6,5.9
			c2.1,2.1,4.1,4.3,6.2,6.3c0.9,0.8,2.1,1.3,3.2,1.8c1.6,0.6,3.8-0.2,3.5,3.3c-0.1,1.3,3.6,2.9,5.8,4.1c2,1.8,4,3.6,6,5.3
			c1.4,1.2,3.2,2.2,4.1,3.7c1.8,3,4.1,4.7,7.7,4.8c0.6,0,1.1,1,1.6,1.6c4.3,4.8,8.4,9.9,14,13.4c1.5,1,2.6,2.6,4,4.1
			c2.9-1.3,5.2,0.7,5.3,5.2c4.5,0.2,6.5,3.3,8.1,7c1.2-0.7,2.4-1.4,3.5-2c0.2,0.2,0.4,0.4,0.6,0.5c-0.6,0.8-1.1,1.6-1.3,1.9
			c1,1.3,1.6,2.7,2.6,3.4c1.3,0.8,3,0.9,4.7,1.4c0.1,0.7,0.2,1.9,0.3,3.1c0.3-0.2,0.5-0.4,0.8-0.7c1.3,0.9,2.6,1.7,3.8,2.6
			c0.8,0.6,1.5,1.3,2.3,1.9c2,1.5,3.6,3.1,1.6,6.2c1.9-0.7,3.2-1.2,4.8-1.9c1.1,1.5,2.1,3.2,3.4,4.7c1.9,2.1,3.9,4.1,6,6.1
			c0.7,0.7,2.4,1.3,2.4,1.9c0.1,3.6,3.1,4.6,5.4,5.3c2,0.5,2.1,1.4,2.6,2.8c0.4,1.1,1.4,2.1,2.1,3.1c0.4,0.5,0.9,1.1,1.3,1.6
			c1.6,2.1,3.3,4.1,4.8,6.2c0.6,0.8,0.8,2,1.2,3c0.1,0.4,0,1,0.2,1.1c3.4,1,2.8,3.1,1.6,5.3c1.3,0.8,2.6,1.4,3.8,2.1
			c0,0.7,0,1.4,0,2.2c-2.7,1.2-3,3.9-2.8,6.2c0.4,4.7,1.7,9.3,1.7,14c0.1,5.7-0.7,11.5-1.2,17.3c-0.2,2.5-0.4,5.1-1.1,7.6
			c-1.1,3.9-2.6,7.7-3.9,11.6c-1,2.9-2,5.8-2.7,8.7c-1,4.1-2.4,8-2.2,12.3c0,0.4-0.3,0.9-0.5,1.3c-1,1.6-2,3.1-3,4.7
			c-3.7,6-7.2,12.1-11.2,17.9c-2.7,4-5.8,7.9-9.1,11.4c-5.7,6.2-8.4,15.3-17.3,18.5c-0.1,0-0.2,0.2-0.2,0.3c-3,3.2-6.4,6.2-9,9.7
			c-3.8,4.9-9.4,8.2-11.6,14.4c-0.1,0.2-0.8,0.2-1.2,0.3c-2.5,0.3-5.1,0.2-7.3,1.1c-4.2,1.7-5.7,7.1-10.6,8.2
			c-0.4,4.3-5,3.7-7.3,5.9c-3,2.8-6.7,5-10.6,6.5c-2.7,1-2.9,3.7-4.8,5.2c-0.3-1.1-0.5-1.9-0.7-2.5c-5.7,4.3-11.1,8.4-15.8,11.9
			c-3.7,1.7-6.8,3.2-9.9,4.7c-1.3-1.4-2.9-2.9-3.4,0c-3.7,0.9-7,1.6-10.3,2.5c-3.4,0.9-6.9,1.9-10.2,3.2c-1.6,0.7-3.9-0.7-5,1.6
			C2892.7,2224.6,2892,2224.6,2891.3,2224.6z M2948.9,2191.5c2.4-0.9,5.6-1.2,6-2.4c1.2-3.9,4.8-5,7.1-7.5c1-1.1,1.8-2.5,3-3.4
			c3-2.2,6.4-4,9.2-6.4c4.7-3.9,9.1-8.3,13.8-12.3c3.1-2.7,6.9-4.9,9.6-7.9c6.4-7.1,12.2-14.9,18.7-22c4.2-4.6,9.2-8.4,13.4-13
			c3.2-3.5,6.2-7.3,8.5-11.4c2.2-3.9,4.4-7.9,5.3-12.6c0.8-4.3,4-8.1,5.9-12.2c0.9-2.1,1.2-4.5,1.9-6.8c0.8-2.9,1.6-5.8,2.5-8.7
			c0.4-1.4,1-2.7,1.3-3.5c0.6-3.6,1.1-6.7,1.6-9.6c-0.3-1.5-0.9-3.1-0.9-4.7c0.1-1.8,0.8-3.5,1.1-4.9c-0.7-0.5-2.1-1.1-2.1-1.6
			c0.2-4.2,0.7-8.3,1.2-12.4c-0.6-1-1.5-2.2-1.9-3.4c-0.9-3.2-1.4-6.5-2.4-9.7c-1-3-2.2-6-3.8-8.7c-1.1-1.8-2.7-3.6-4.5-4.6
			c-4.1-2.4-8.4-4.5-12.6-6.6c-0.3-0.2-0.9-0.3-1.1-0.2c-2.9,1.7-6.2,1.2-9.2,0.8c-2.5-0.3-6.3,2.1-7-2.6c-2.3,0.7-4.4,1.4-6.5,1.8
			c-6.6,1.3-13.2,2.5-19.9,3.7c-1.5,0.3-3,0.1-4.5,0.5c-5.1,1.5-10.1,2.9-15.1,4.7c-4.1,1.5-8,3.4-11.9,5.4c-2.5,1.3-4.7,3.2-7,4.7
			c-2.1,1.4-4.7,2.2-6.5,3.9c-1.8,1.6-4.5,0.2-6.3,3.2c-1.6,2.6-6.3,3.4-9.4,4.9c1.6,2,2.9,3.4,4,4.8c-2.8,2.2-4.9,4.2-7.4,5.7
			c-1.5,0.9-3.5,1-5.1,1.8c-2.9,1.6-4.6,5.5-8.8,4.8c-0.2,0-0.7,0.3-0.8,0.6c-2,3.8-6.4,4.2-9.5,6.6c-2.2,1.7-5.1,2.9-6.7,5.1
			c-1.9,2.6-3.1,5.4-6.4,6.6c-1.2,0.5-2.3,1.6-3.2,2.7c-2.3,2.6-4.5,5.4-6.8,8c-2.4,2.9-4.8,5.9-7.4,8.7c-0.8,0.9-2.7,1.6-3.8,1.3
			c-2.5-0.8-3.5,0.5-4.1,2.3c-0.9,3.1-1.3,6.4-4.5,8.2c-0.5,0.3-0.5,1.3-0.7,2c-0.2,1.2,0,2.7-0.7,3.7c-3.9,6.3-6.9,12.9-9.2,19.9
			c-3,8.9-6.5,17.7-7.6,27.1c-0.2,1.7,1.1,4.6-1.9,5.7c0,0,0.4,1,0.4,1.6c-0.3,4.3-1.5,8.5-0.8,13c0.6,3.4-0.6,7.1-1.1,10.6
			c-0.1,0.6-0.5,1.1-0.5,0.9c1.1,1.7,2,2.9,2.7,4.2c3.3,6.3,6.4,12.8,12.7,16.9c2.6,1.7,4.9,3.7,7.4,5.5c2.2,1.7,4.3,3.7,6.8,5
			c3.4,1.8,6.9,3.3,10.5,4.7c2.2,0.9,4.6,2.1,6.9,2.2c3,0.1,6.1-0.7,9.1-1.2c0.6-0.1,1.1-0.9,1.7-1.1c3.9-1.4,7.6-4.3,12.2-1.9
			c0.3-3.2,1.9-4.1,4.9-3.9c2.4,0.2,4.8-0.3,7.1-0.6c1-0.2,2-0.8,3-1.3c-0.5-0.4-0.9-0.8-1.4-1.1c1.2-0.3,2.7-0.3,3.5-1
			c3.3-3.1,9.1-0.4,11.6-5.2c2.2,1.8,1.4-1.7,3-1.7c2.8-0.1,5.6-0.7,8.4-1.2c0.6-0.1,1.2-0.7,1.8-1c1.1-0.7,2.1-1.4,3.5-2.2
			C2949.2,2192.4,2948.9,2191.5,2948.9,2191.5z" style="fill:#FFC52D;"/>
        <path d="M2321.6,1449.3c-0.6-0.3-1.3-0.6-1.9-0.9c5.7,7.1,12.1,13.6,16.3,21.8c0.5,0.9,1.1,1.8,1.6,2.7
			c0.1,0.1,0,0.3,0.1,0.3c3.4,2,3.3,7.4,8.1,8.1c1,0.1,1.9,0.7,2.8,1c-0.4,0.5-0.9,0.9-1.3,1.4c-1.1-0.2-2.2-0.4-3.4-0.6
			c2.2,2.9,4.3,5.6,6.3,8.4c0.3,0.4,0.3,1.1,0.4,1.7c0.2,1.9,0.1,3.6,2.6,4.4c1.1,0.3,1.5,2.7,2.2,4.2c0.5,1.1,1,2.2,1.5,3.2
			c-0.3,0.1-0.8,0.3-1.3,0.4c6.4,0.5,6,6.2,7.8,9.9c0.8,1.7,0.8,3.8,1.9,5.2c1.7,2.2,4.1,3.9,6,6c0.7,0.8,0.8,2.2,1.5,3.1
			c3.2,4.1,6.3,8.2,8.4,13c0.4,0.8,1.4,1.4,2.3,2.2c0.5-0.6,1-1.2,1.1-1.3c0.6,1.5,1.4,3.3,2.3,5.5c-0.6,0.4-1.8,1.1-3.7,2.3
			c0.4-1.6,0.7-2.7,0.9-3.3c-2.7-1-5.5-1.9-8.1-3.1c-0.9-0.4-1.6-1.6-2.2-2.6c-0.5-0.7-0.7-1.7-1.2-2.4c-1.6-2.2-3.3-4.3-4.8-6.6
			c-0.2-0.3,0.3-1.2,0.4-1.5c-4.9-2.5-7-6.7-7.8-11.9c-0.2,1.1-0.3,2.3-0.5,3.6c-1.6,0-3.1,0-4.2,0c0.4-1.2,1.4-2.9,1.1-3.3
			c-1.4-1.5-3.2-2.6-5.2-3.6c-0.9-1.3-3.6-3-0.6-4.5c-0.9-1.6-1.7-2.9-2.5-4.4c-0.4,0.6-0.8,1.3-1.3,2c-1.4-2.4-2.9-4.6-3.9-7
			c-1.5-3.6-2.4-7.5-4-11.2c-0.8-1.8-2.4-3.3-3.6-5c-0.8-1.1-2.3-2.2-2.3-3.3c-0.4-5.6-4.7-8.9-7.2-13.3c-1.8-3.1-3.2-6.4-4.7-9.7
			c-0.2-0.3-0.3-0.7-0.5-1c-3.4-5.3-6.7-10.5-10.1-15.7c-0.2-0.4-0.9-0.8-0.9-1c1.2-4-2.9-4.2-4.3-6.6c1.2,0.1,3-0.2,3.8,0.5
			c2.1,1.8,3.9,4.1,5.8,6.1c0.6,0.6,1,1.4,1.6,1.9c1.8,1.3,3.6,2.5,5.4,3.8C2322,1448.7,2321.8,1449,2321.6,1449.3z"
              style="fill:#FFC52D;"/>
        <path d="M2392.1,1563.5c-0.9-2.2-1.8-4.5-2.8-6.7c0.3-0.1,0.6-0.2,0.8-0.3c-1.1-0.6-2.2-1.2-4.1-2.3
			c1,1.5,1.5,2.4,2.2,3.5c-0.6,0.6-1.3,1.1-2.2,1.9c0-2.6,0-4.7,0-7.5c3.8,2.7,8.6,3.8,6.9,9c2.1,1.1,3.9,2.1,5.5,3
			c-0.8,1.3-1.4,2.3-2.2,3.5C2393.8,1567.6,2395.9,1562.1,2392.1,1563.5C2392,1563.5,2392.1,1563.5,2392.1,1563.5z"
              style="fill:#FFC52D;"/>
        <path d="M2661.4,1656.5c2.1-0.3,3.4-0.6,4.7-0.5c0.8,0,1.9,0.4,2.3,1c0.3,0.4-0.1,1.7-0.6,2.2c-0.6,0.5-1.9,1-2.5,0.6
			C2664.1,1659,2663,1657.8,2661.4,1656.5z" style="fill:#FFC52D;"/>
        <path d="M2369.3,1394.2c-0.9-2.1-1.4-3.5-2-4.8c0.3-0.2,0.6-0.4,0.9-0.6c1.3,0.8,2.7,1.6,4,2.5
			C2371.5,1392,2370.7,1392.7,2369.3,1394.2z" style="fill:#FFC52D;"/>
        <path d="M2438.4,1438.3c-0.9,0.4-2,1.2-2.8,1c-1.3-0.3-2.5-1.3-3.8-2c0.6-0.8,1.1-1.5,2.2-3c0.4,1.8,0.6,2.7,0.9,3.9
			c1-0.2,2.1-0.4,3.1-0.7C2438.2,1437.7,2438.3,1438,2438.4,1438.3z" style="fill:#FFC52D;"/>
        <path d="M2392.1,1563.5C2392.1,1563.5,2392,1563.5,2392.1,1563.5c0,0.7-0.2,1.6,0.2,2c2.3,2.2,0.6,3.4-1.3,4.6
			C2387.6,1567.4,2392,1565.7,2392.1,1563.5z" style="fill:#FFC52D;"/>
	</g>
</g>
    <g>
	<g>
		<path d="M2379.3,978.4c1.1,7.6-1.2,14.8-4.2,21.9c-3.5,8.1-6.9,16.2-10.6,24.2c-5.8,12.8-14.4,23.9-23.1,34.8
			c-5,6.3-11.6,10.5-18.8,13.9c-2.7,1.3-3.7,0.3-4.7-2.2c-5.2-13-4.3-25.8,1.1-38.3c5.8-13.7,11.8-27.4,18.2-40.9
			c3.2-6.8,7.3-13.2,11.3-19.5c3.5-5.6,8.8-8.2,15.5-7.9c3.7,0.2,7.4,0.5,11.1,0.4c3.2-0.1,4.3,1.4,4.3,4.2
			C2379.3,972.1,2379.3,975.1,2379.3,978.4z" style="fill:#FEAEB6;"/>
	</g>
</g>
    <g>
	<path d="M2324.7,1059.9c2.9-7.1,5.5-13.9,8.5-20.4c0.4-0.9,3.1-1.7,4.4-1.3c5.6,1.6,11.2,3.3,16.5,5.5
		c4,1.7,5.3,4.8,3.7,8.9c-2.5,6.2-5.5,12.1-8.6,18.1c-1.4,2.7-4,4-7,2.6c-4.4-2.1-8.8-4.1-12.9-6.8
		C2327.4,1065.1,2326.4,1062.4,2324.7,1059.9z" style="fill:#FFDA54;"/>
</g>
    <g>
	<path d="M2178.1,1021.7c0.1-20.3,3.9-39.9,12.3-58.4c2.2-4.8,5.1-9.5,8.4-13.7c5-6.2,10.6-12,16.1-17.7
		c1.9-2,4.2-4.5,7.4-1.9c2,1.6,0.9,4.4-1.9,7.8c-6.6,7.7-14.1,14.8-19.2,23.4c-10.2,17.3-13.4,36.7-14.5,56.7
		c-1.4,25.7,9.7,45.9,27.5,62.7c6.1,5.7,14.4,9.2,21.9,13.3c20.5,11.2,42.3,12.4,64.6,7.4c5.3-1.2,10.5-3,15.7-4.9
		c10.4-3.9,16.1-12.8,21.9-21.4c3.1-4.7,5.6-9.7,8.4-14.6c0.8-1.4,1.6-3.2,2.9-4c1.3-0.8,3.6-1.3,4.7-0.7c1.1,0.6,2.1,3.1,1.8,4.4
		c-1,3.8-2.1,7.7-4.1,11c-5.3,8.2-10.8,16.3-16.8,24c-4.9,6.4-12.3,9.4-19.6,12.1c-21.6,8.1-43.6,7.3-65.6,2.5
		c-2.2-0.5-4.4-1.3-6.4-2.3c-13.4-6.5-27.7-11.7-38.2-22.8c-13.9-14.8-24.4-31.5-27-52.2c-0.1-0.7-0.2-1.4-0.2-2.1
		C2178.1,1027.4,2178.1,1024.5,2178.1,1021.7z" style="fill:#9EA09E;"/>
</g>
    <g>
	<path d="M2334.6,1002.6c1.6-7.3,3.9-14.6,10-20.1c3.4-3,7.3-4.4,11.6-3.2c7,2,13.8,4.6,20.6,6.9c1.9,0.7,2.5,2,1.8,3.9
		c-3.6,9.4-7.2,18.9-10.8,28.3c-1,2.7-2.7,3.4-5.6,2.8c-8.2-1.8-15.7-4.8-22.4-9.8C2336.9,1009.4,2334.6,1006.8,2334.6,1002.6z"
          style="fill:#FFFFFF;"/>
</g>
    <g>
	<g>
		<path d="M2366.4,1020.6c-1.8,3.6-3.5,6.9-5.3,10.6c-10.7-4.4-21.6-8.1-30.3-15.9c-4.8-4.3-6.3-9.7-3.7-15.9
			c0.8-2,1.5-4,2.3-6.2c-6.7-2.3-13.2-4.2-19.5-6.6c-16.4-6.2-32.7-12.5-49.1-18.7c-3.5-1.3-4.7-3.2-3.1-6.7c0.8-1.8,1.4-3.7,2-5.4
			c11.2,4.2,22.1,8.4,33.1,12.4c13,4.7,26,9.3,39,14.1c2.3,0.9,3.3,0.2,4.5-1.7c5.8-9.2,9.7-10.7,20.1-7.6c7.1,2.1,14,4.7,21,7.2
			c0.9,0.3,1.9,1.8,1.9,2.7c0,2.8-0.4,5.6-0.8,9.1c-6.3-2.1-11.9-3.9-17.5-5.8c-2.7-0.9-5.5-1.7-8.1-2.7c-3.3-1.3-5.5-0.2-7,2.8
			c-2.6,5.1-5.1,10.3-7.7,15.3c-1.4,2.8-0.7,5,1.9,6.4c5.7,3.2,11.5,6.2,17.4,9.1C2360.1,1018.4,2363.1,1019.3,2366.4,1020.6z"
              style="fill:#FFDA54;"/>
	</g>
</g>
    <g>
	<path d="M1350.2,2245.4l1,0.2c16.1,3.7,26.2,19.8,22.5,36c-3.7,16.1-19.8,26.2-36,22.5l-1-0.2
		c-16.1-3.7-26.2-19.8-22.5-36S1334.1,2241.6,1350.2,2245.4z" style="fill:#F26981;"/>
        <path d="M1466.2,2272.2l1,0.2c16.1,3.7,26.2,19.8,22.5,36s-19.8,26.2-36,22.5l-1-0.2c-16.1-3.7-26.2-19.8-22.5-36
		C1433.9,2278.5,1450,2268.4,1466.2,2272.2z" style="fill:#F26981;"/>
        <path d="M1582.1,2299l1,0.2c16.1,3.7,26.2,19.8,22.5,36s-19.8,26.2-36,22.5l-1-0.2c-16.1-3.7-26.2-19.8-22.5-36
		C1549.8,2305.3,1565.9,2295.3,1582.1,2299z" style="fill:#F26981;"/>
        <path d="M1698,2325.8l1,0.2c16.1,3.7,26.2,19.8,22.5,36c-3.7,16.1-19.8,26.2-36,22.5l-1-0.2
		c-16.1-3.7-26.2-19.8-22.5-36C1665.8,2332.1,1681.9,2322.1,1698,2325.8z" style="fill:#F26981;"/>
        <path d="M1814,2352.6l1,0.2c16.1,3.7,26.2,19.8,22.5,36s-19.8,26.2-36,22.5l-1-0.2c-16.1-3.7-26.2-19.8-22.5-36
		C1781.7,2358.9,1797.8,2348.9,1814,2352.6z" style="fill:#F26981;"/>
        <path d="M1929.9,2379.4l1,0.2c16.1,3.7,26.2,19.8,22.5,36c-3.7,16.1-19.8,26.2-36,22.5l-1-0.2
		c-16.1-3.7-26.2-19.8-22.5-36S1913.8,2375.7,1929.9,2379.4z" style="fill:#F26981;"/>
        <path d="M2045.9,2406.2l1,0.2c16.1,3.7,26.2,19.8,22.5,36c-3.7,16.1-19.8,26.2-36,22.5l-1-0.2
		c-16.1-3.7-26.2-19.8-22.5-36C2013.6,2412.6,2029.7,2402.5,2045.9,2406.2z" style="fill:#F26981;"/>
        <path d="M1376.1,2133.3l1,0.2c16.1,3.7,26.2,19.8,22.5,36s-19.8,26.2-36,22.5l-1-0.2c-16.1-3.7-26.2-19.8-22.5-36
		S1360,2129.6,1376.1,2133.3z" style="fill:#F26981;"/>
        <path d="M1492.1,2160.1l1,0.2c16.1,3.7,26.2,19.8,22.5,36s-19.8,26.2-36,22.5l-1-0.2c-16.1-3.7-26.2-19.8-22.5-36
		C1459.8,2166.5,1475.9,2156.4,1492.1,2160.1z" style="fill:#F26981;"/>
        <path d="M1608,2186.9l1,0.2c16.1,3.7,26.2,19.8,22.5,36c-3.7,16.1-19.8,26.2-36,22.5l-1-0.2
		c-16.1-3.7-26.2-19.8-22.5-36C1575.7,2193.3,1591.9,2183.2,1608,2186.9z" style="fill:#F26981;"/>
        <path d="M1723.9,2213.8l1,0.2c16.1,3.7,26.2,19.8,22.5,36s-19.8,26.2-36,22.5l-1-0.2c-16.1-3.7-26.2-19.8-22.5-36
		C1691.7,2220.1,1707.8,2210,1723.9,2213.8z" style="fill:#F26981;"/>
        <path d="M1839.9,2240.6l1,0.2c16.1,3.7,26.2,19.8,22.5,36s-19.8,26.2-36,22.5l-1-0.2c-16.1-3.7-26.2-19.8-22.5-36
		C1807.6,2246.9,1823.7,2236.8,1839.9,2240.6z" style="fill:#F26981;"/>
        <path d="M1955.8,2267.4l1,0.2c16.1,3.7,26.2,19.8,22.5,36c-3.7,16.1-19.8,26.2-36,22.5l-1-0.2
		c-16.1-3.7-26.2-19.8-22.5-36C1923.6,2273.7,1939.7,2263.7,1955.8,2267.4z" style="fill:#F26981;"/>
        <path d="M2071.8,2294.2l1,0.2c16.1,3.7,26.2,19.8,22.5,36c-3.7,16.1-19.8,26.2-36,22.5l-1-0.2
		c-16.1-3.7-26.2-19.8-22.5-36C2039.5,2300.5,2055.6,2290.5,2071.8,2294.2z" style="fill:#F26981;"/>
        <path d="M1402,2021.3l1,0.2c16.1,3.7,26.2,19.8,22.5,36c-3.7,16.1-19.8,26.2-36,22.5l-1-0.2
		c-16.1-3.7-26.2-19.8-22.5-36S1385.9,2017.5,1402,2021.3z" style="fill:#F26981;"/>
        <path d="M1518,2048.1l1,0.2c16.1,3.7,26.2,19.8,22.5,36s-19.8,26.2-36,22.5l-1-0.2c-16.1-3.7-26.2-19.8-22.5-36
		S1501.8,2044.4,1518,2048.1z" style="fill:#F26981;"/>
        <path d="M1633.9,2074.9l1,0.2c16.1,3.7,26.2,19.8,22.5,36c-3.7,16.1-19.8,26.2-36,22.5l-1-0.2
		c-16.1-3.7-26.2-19.8-22.5-36C1601.7,2081.2,1617.8,2071.2,1633.9,2074.9z" style="fill:#F26981;"/>
        <path d="M1749.9,2101.7l1,0.2c16.1,3.7,26.2,19.8,22.5,36s-19.8,26.2-36,22.5l-1-0.2c-16.1-3.7-26.2-19.8-22.5-36
		C1717.6,2108,1733.7,2098,1749.9,2101.7z" style="fill:#F26981;"/>
        <path d="M1865.8,2128.5l1,0.2c16.1,3.7,26.2,19.8,22.5,36s-19.8,26.2-36,22.5l-1-0.2c-16.1-3.7-26.2-19.8-22.5-36
		C1833.5,2134.9,1849.6,2124.8,1865.8,2128.5z" style="fill:#F26981;"/>
        <path d="M1981.7,2155.3l1,0.2c16.1,3.7,26.2,19.8,22.5,36c-3.7,16.1-19.8,26.2-36,22.5l-1-0.2
		c-16.1-3.7-26.2-19.8-22.5-36C1949.5,2161.7,1965.6,2151.6,1981.7,2155.3z" style="fill:#F26981;"/>
        <path d="M2097.7,2182.2l1,0.2c16.1,3.7,26.2,19.8,22.5,36c-3.7,16.1-19.8,26.2-36,22.5l-1-0.2
		c-16.1-3.7-26.2-19.8-22.5-36C2065.4,2188.5,2081.5,2178.4,2097.7,2182.2z" style="fill:#F26981;"/>
        <path d="M1298.4,2469.5l1,0.2c16.1,3.7,26.2,19.8,22.5,36s-19.8,26.2-36,22.5l-1-0.2c-16.1-3.7-26.2-19.8-22.5-36
		C1266.1,2475.8,1282.2,2465.7,1298.4,2469.5z" style="fill:#F26981;"/>
        <path d="M1414.3,2496.3l1,0.2c16.1,3.7,26.2,19.8,22.5,36c-3.7,16.1-19.8,26.2-36,22.5l-1-0.2
		c-16.1-3.7-26.2-19.8-22.5-36C1382.1,2502.6,1398.2,2492.5,1414.3,2496.3z" style="fill:#F26981;"/>
        <path d="M1530.3,2523.1l1,0.2c16.1,3.7,26.2,19.8,22.5,36c-3.7,16.1-19.8,26.2-36,22.5l-1-0.2
		c-16.1-3.7-26.2-19.8-22.5-36C1498,2529.4,1514.1,2519.3,1530.3,2523.1z" style="fill:#F26981;"/>
        <path d="M1646.2,2549.9l1,0.2c16.1,3.7,26.2,19.8,22.5,36c-3.7,16.1-19.8,26.2-36,22.5l-1-0.2
		c-16.1-3.7-26.2-19.8-22.5-36C1614,2556.2,1630.1,2546.2,1646.2,2549.9z" style="fill:#F26981;"/>
        <path d="M1762.2,2576.7l1,0.2c16.1,3.7,26.2,19.8,22.5,36s-19.8,26.2-36,22.5l-1-0.2c-16.1-3.7-26.2-19.8-22.5-36
		C1729.9,2583,1746,2573,1762.2,2576.7z" style="fill:#F26981;"/>
        <path d="M1878.1,2603.5l1,0.2c16.1,3.7,26.2,19.8,22.5,36c-3.7,16.1-19.8,26.2-36,22.5l-1-0.2
		c-16.1-3.7-26.2-19.8-22.5-36S1861.9,2599.8,1878.1,2603.5z" style="fill:#F26981;"/>
        <path d="M1994,2630.3l1,0.2c16.1,3.7,26.2,19.8,22.5,36s-19.8,26.2-36,22.5l-1-0.2c-16.1-3.7-26.2-19.8-22.5-36
		C1961.8,2636.7,1977.9,2626.6,1994,2630.3z" style="fill:#F26981;"/>
        <path d="M1324.3,2357.4l1,0.2c16.1,3.7,26.2,19.8,22.5,36c-3.7,16.1-19.8,26.2-36,22.5l-1-0.2
		c-16.1-3.7-26.2-19.8-22.5-36C1292,2363.7,1308.2,2353.7,1324.3,2357.4z" style="fill:#F26981;"/>
        <path d="M1440.2,2384.2l1,0.2c16.1,3.7,26.2,19.8,22.5,36c-3.7,16.1-19.8,26.2-36,22.5l-1-0.2
		c-16.1-3.7-26.2-19.8-22.5-36C1408,2390.5,1424.1,2380.5,1440.2,2384.2z" style="fill:#F26981;"/>
        <path d="M1556.2,2411l1,0.2c16.1,3.7,26.2,19.8,22.5,36s-19.8,26.2-36,22.5l-1-0.2c-16.1-3.7-26.2-19.8-22.5-36
		C1523.9,2417.4,1540,2407.3,1556.2,2411z" style="fill:#F26981;"/>
        <path d="M1672.1,2437.8l1,0.2c16.1,3.7,26.2,19.8,22.5,36c-3.7,16.1-19.8,26.2-36,22.5l-1-0.2
		c-16.1-3.7-26.2-19.8-22.5-36C1639.9,2444.2,1656,2434.1,1672.1,2437.8z" style="fill:#F26981;"/>
        <path d="M1788.1,2464.7l1,0.2c16.1,3.7,26.2,19.8,22.5,36c-3.7,16.1-19.8,26.2-36,22.5l-1-0.2
		c-16.1-3.7-26.2-19.8-22.5-36C1755.8,2471,1771.9,2460.9,1788.1,2464.7z" style="fill:#F26981;"/>
        <path d="M1904,2491.5l1,0.2c16.1,3.7,26.2,19.8,22.5,36c-3.7,16.1-19.8,26.2-36,22.5l-1-0.2
		c-16.1-3.7-26.2-19.8-22.5-36C1871.7,2497.8,1887.9,2487.7,1904,2491.5z" style="fill:#F26981;"/>
        <path d="M2019.9,2518.3l1,0.2c16.1,3.7,26.2,19.8,22.5,36c-3.7,16.1-19.8,26.2-36,22.5l-1-0.2
		c-16.1-3.7-26.2-19.8-22.5-36S2003.8,2514.5,2019.9,2518.3z" style="fill:#F26981;"/>
        <path d="M1453.9,1797.2l1,0.2c16.1,3.7,26.2,19.8,22.5,36c-3.7,16.1-19.8,26.2-36,22.5l-1-0.2
		c-16.1-3.7-26.2-19.8-22.5-36C1421.6,1803.5,1437.7,1793.5,1453.9,1797.2z" style="fill:#F26981;"/>
        <path d="M1569.8,1824l1,0.2c16.1,3.7,26.2,19.8,22.5,36s-19.8,26.2-36,22.5l-1-0.2c-16.1-3.7-26.2-19.8-22.5-36
		C1537.5,1830.3,1553.6,1820.3,1569.8,1824z" style="fill:#F26981;"/>
        <path d="M1685.7,1850.8l1,0.2c16.1,3.7,26.2,19.8,22.5,36c-3.7,16.1-19.8,26.2-36,22.5l-1-0.2
		c-16.1-3.7-26.2-19.8-22.5-36S1669.6,1847.1,1685.7,1850.8z" style="fill:#F26981;"/>
        <path d="M1801.7,1877.6l1,0.2c16.1,3.7,26.2,19.8,22.5,36c-3.7,16.1-19.8,26.2-36,22.5l-1-0.2
		c-16.1-3.7-26.2-19.8-22.5-36C1769.4,1884,1785.5,1873.9,1801.7,1877.6z" style="fill:#F26981;"/>
        <path d="M1917.6,1904.4l1,0.2c16.1,3.7,26.2,19.8,22.5,36c-3.7,16.1-19.8,26.2-36,22.5l-1-0.2
		c-16.1-3.7-26.2-19.8-22.5-36C1885.4,1910.8,1901.5,1900.7,1917.6,1904.4z" style="fill:#F26981;"/>
        <path d="M2033.6,1931.3l1,0.2c16.1,3.7,26.2,19.8,22.5,36c-3.7,16.1-19.8,26.2-36,22.5l-1-0.2
		c-16.1-3.7-26.2-19.8-22.5-36C2001.3,1937.6,2017.4,1927.5,2033.6,1931.3z" style="fill:#F26981;"/>
        <path d="M2149.5,1958.1l1,0.2c16.1,3.7,26.2,19.8,22.5,36c-3.7,16.1-19.8,26.2-36,22.5l-1-0.2
		c-16.1-3.7-26.2-19.8-22.5-36C2117.2,1964.4,2133.4,1954.3,2149.5,1958.1z" style="fill:#F26981;"/>
        <path d="M1402,2021.3l1,0.2c16.1,3.7,26.2,19.8,22.5,36c-3.7,16.1-19.8,26.2-36,22.5l-1-0.2
		c-16.1-3.7-26.2-19.8-22.5-36S1385.9,2017.5,1402,2021.3z" style="fill:#F26981;"/>
        <path d="M1518,2048.1l1,0.2c16.1,3.7,26.2,19.8,22.5,36s-19.8,26.2-36,22.5l-1-0.2c-16.1-3.7-26.2-19.8-22.5-36
		S1501.8,2044.4,1518,2048.1z" style="fill:#F26981;"/>
        <path d="M1633.9,2074.9l1,0.2c16.1,3.7,26.2,19.8,22.5,36c-3.7,16.1-19.8,26.2-36,22.5l-1-0.2
		c-16.1-3.7-26.2-19.8-22.5-36C1601.7,2081.2,1617.8,2071.2,1633.9,2074.9z" style="fill:#F26981;"/>
        <path d="M1749.9,2101.7l1,0.2c16.1,3.7,26.2,19.8,22.5,36s-19.8,26.2-36,22.5l-1-0.2c-16.1-3.7-26.2-19.8-22.5-36
		C1717.6,2108,1733.7,2098,1749.9,2101.7z" style="fill:#F26981;"/>
        <path d="M1865.8,2128.5l1,0.2c16.1,3.7,26.2,19.8,22.5,36s-19.8,26.2-36,22.5l-1-0.2c-16.1-3.7-26.2-19.8-22.5-36
		C1833.5,2134.9,1849.6,2124.8,1865.8,2128.5z" style="fill:#F26981;"/>
        <path d="M1981.7,2155.3l1,0.2c16.1,3.7,26.2,19.8,22.5,36c-3.7,16.1-19.8,26.2-36,22.5l-1-0.2
		c-16.1-3.7-26.2-19.8-22.5-36C1949.5,2161.7,1965.6,2151.6,1981.7,2155.3z" style="fill:#F26981;"/>
        <path d="M2097.7,2182.2l1,0.2c16.1,3.7,26.2,19.8,22.5,36c-3.7,16.1-19.8,26.2-36,22.5l-1-0.2
		c-16.1-3.7-26.2-19.8-22.5-36C2065.4,2188.5,2081.5,2178.4,2097.7,2182.2z" style="fill:#F26981;"/>
        <path d="M1427.9,1909.2l1,0.2c16.1,3.7,26.2,19.8,22.5,36c-3.7,16.1-19.8,26.2-36,22.5l-1-0.2
		c-16.1-3.7-26.2-19.8-22.5-36C1395.7,1915.6,1411.8,1905.5,1427.9,1909.2z" style="fill:#F26981;"/>
        <path d="M1543.9,1936.1l1,0.2c16.1,3.7,26.2,19.8,22.5,36s-19.8,26.2-36,22.5l-1-0.2c-16.1-3.7-26.2-19.8-22.5-36
		C1511.6,1942.4,1527.7,1932.3,1543.9,1936.1z" style="fill:#F26981;"/>
        <path d="M1659.8,1962.9l1,0.2c16.1,3.7,26.2,19.8,22.5,36s-19.8,26.2-36,22.5l-1-0.2c-16.1-3.7-26.2-19.8-22.5-36
		C1627.6,1969.2,1643.7,1959.1,1659.8,1962.9z" style="fill:#F26981;"/>
        <path d="M1775.8,1989.7l1,0.2c16.1,3.7,26.2,19.8,22.5,36c-3.7,16.1-19.8,26.2-36,22.5l-1-0.2
		c-16.1-3.7-26.2-19.8-22.5-36S1759.6,1985.9,1775.8,1989.7z" style="fill:#F26981;"/>
        <path d="M1891.7,2016.5l1,0.2c16.1,3.7,26.2,19.8,22.5,36s-19.8,26.2-36,22.5l-1-0.2c-16.1-3.7-26.2-19.8-22.5-36
		C1859.4,2022.8,1875.6,2012.8,1891.7,2016.5z" style="fill:#F26981;"/>
        <path d="M2007.6,2043.3l1,0.2c16.1,3.7,26.2,19.8,22.5,36c-3.7,16.1-19.8,26.2-36,22.5l-1-0.2
		c-16.1-3.7-26.2-19.8-22.5-36C1975.4,2049.6,1991.5,2039.6,2007.6,2043.3z" style="fill:#F26981;"/>
        <path d="M2123.6,2070.1l1,0.2c16.1,3.7,26.2,19.8,22.5,36c-3.7,16.1-19.8,26.2-36,22.5l-1-0.2
		c-16.1-3.7-26.2-19.8-22.5-36C2091.3,2076.4,2107.4,2066.4,2123.6,2070.1z" style="fill:#F26981;"/>
        <path d="M1479.8,1685.2l1,0.2c16.1,3.7,26.2,19.8,22.5,36c-3.7,16.1-19.8,26.2-36,22.5l-1-0.2
		c-16.1-3.7-26.2-19.8-22.5-36C1447.5,1691.5,1463.6,1681.4,1479.8,1685.2z" style="fill:#F26981;"/>
        <path d="M1595.7,1712l1,0.2c16.1,3.7,26.2,19.8,22.5,36c-3.7,16.1-19.8,26.2-36,22.5l-1-0.2
		c-16.1-3.7-26.2-19.8-22.5-36C1563.4,1718.3,1579.6,1708.2,1595.7,1712z" style="fill:#F26981;"/>
        <path d="M1711.6,1738.8l1,0.2c16.1,3.7,26.2,19.8,22.5,36c-3.7,16.1-19.8,26.2-36,22.5l-1-0.2
		c-16.1-3.7-26.2-19.8-22.5-36C1679.4,1745.1,1695.5,1735,1711.6,1738.8z" style="fill:#F26981;"/>
        <path d="M1827.6,1765.6l1,0.2c16.1,3.7,26.2,19.8,22.5,36c-3.7,16.1-19.8,26.2-36,22.5l-1-0.2
		c-16.1-3.7-26.2-19.8-22.5-36S1811.4,1761.9,1827.6,1765.6z" style="fill:#F26981;"/>
        <path d="M1943.5,1792.4l1,0.2c16.1,3.7,26.2,19.8,22.5,36c-3.7,16.1-19.8,26.2-36,22.5l-1-0.2
		c-16.1-3.7-26.2-19.8-22.5-36S1927.4,1788.7,1943.5,1792.4z" style="fill:#F26981;"/>
        <path d="M2059.5,1819.2l1,0.2c16.1,3.7,26.2,19.8,22.5,36c-3.7,16.1-19.8,26.2-36,22.5l-1-0.2
		c-16.1-3.7-26.2-19.8-22.5-36C2027.2,1825.5,2043.3,1815.5,2059.5,1819.2z" style="fill:#F26981;"/>
        <path d="M2175.4,1846l1,0.2c16.1,3.7,26.2,19.8,22.5,36c-3.7,16.1-19.8,26.2-36,22.5l-1-0.2
		c-16.1-3.7-26.2-19.8-22.5-36C2143.1,1852.3,2159.3,1842.3,2175.4,1846z" style="fill:#F26981;"/>
        <path d="M1505.7,1573.1l1,0.2c16.1,3.7,26.2,19.8,22.5,36c-3.7,16.1-19.8,26.2-36,22.5l-1-0.2
		c-16.1-3.7-26.2-19.8-22.5-36C1473.4,1579.4,1489.5,1569.4,1505.7,1573.1z" style="fill:#F26981;"/>
        <path d="M1621.6,1599.9l1,0.2c16.1,3.7,26.2,19.8,22.5,36c-3.7,16.1-19.8,26.2-36,22.5l-1-0.2
		c-16.1-3.7-26.2-19.8-22.5-36C1589.4,1606.2,1605.5,1596.2,1621.6,1599.9z" style="fill:#F26981;"/>
        <path d="M1737.6,1626.7l1,0.2c16.1,3.7,26.2,19.8,22.5,36c-3.7,16.1-19.8,26.2-36,22.5l-1-0.2
		c-16.1-3.7-26.2-19.8-22.5-36C1705.3,1633.1,1721.4,1623,1737.6,1626.7z" style="fill:#F26981;"/>
        <path d="M1853.5,1653.5l1,0.2c16.1,3.7,26.2,19.8,22.5,36c-3.7,16.1-19.8,26.2-36,22.5l-1-0.2
		c-16.1-3.7-26.2-19.8-22.5-36C1821.2,1659.9,1837.4,1649.8,1853.5,1653.5z" style="fill:#F26981;"/>
        <path d="M1969.4,1680.4l1,0.2c16.1,3.7,26.2,19.8,22.5,36c-3.7,16.1-19.8,26.2-36,22.5l-1-0.2
		c-16.1-3.7-26.2-19.8-22.5-36C1937.2,1686.7,1953.3,1676.6,1969.4,1680.4z" style="fill:#F26981;"/>
        <path d="M2085.4,1707.2l1,0.2c16.1,3.7,26.2,19.8,22.5,36c-3.7,16.1-19.8,26.2-36,22.5l-1-0.2
		c-16.1-3.7-26.2-19.8-22.5-36C2053.1,1713.5,2069.2,1703.4,2085.4,1707.2z" style="fill:#F26981;"/>
        <path d="M2201.3,1734l1,0.2c16.1,3.7,26.2,19.8,22.5,36c-3.7,16.1-19.8,26.2-36,22.5l-1-0.2
		c-16.1-3.7-26.2-19.8-22.5-36S2185.2,1730.2,2201.3,1734z" style="fill:#F26981;"/>
</g>
</svg>
