<svg id="Layer_3" data-name="Layer 3" xmlns="http://www.w3.org/2000/svg" xmlns:xlink="http://www.w3.org/1999/xlink" viewBox="0 0 572 572"><defs><style>.cls-1,.cls-9{fill:none;}.cls-2{fill:#ed1c24;}.cls-3{fill:#bd3936;}.cls-4{font-size:60px;fill:#2171b0;font-family:SchoolBook-Bold, SchoolBook;font-weight:700;letter-spacing:-0.03em;}.cls-5{letter-spacing:0em;}.cls-6{letter-spacing:-0.02em;}.cls-7{letter-spacing:0em;}.cls-8{clip-path:url(#clip-path);}.cls-9{stroke:#2171b0;stroke-miterlimit:10;stroke-width:17px;}</style><clipPath id="clip-path" transform="translate(-25.12 -110)"><rect class="cls-1" x="18.72" y="85.66" width="581.02" height="475.34"/></clipPath></defs><title>editedsulogo</title><g id="Layer_1" data-name="Layer 1"><path class="cls-2" d="M307.26,371.59c0,10.72-.11,21.44,0,32.15.23,17.18.38,34.37,1.07,51.53a67.4,67.4,0,0,0,3.19,16.87c4.86,15.78,15.36,27.2,29.19,35.7,14.88,9.15,31.48,12.27,48.61,13.38a195.26,195.26,0,0,0,49.05-2.57c19.63-3.71,36.25-12.45,48.88-28.27,10-12.55,13-27.57,13.24-42.76.67-37.92.26-75.87.28-113.8,0-11.71.06-23.42,0-35.12,0-3,.76-4.92,4.07-5.19,6.72-.55,13.43-1.28,20.15-1.74,8.38-.56,9.21-1.46,9-9.84-.07-2.81-1.12-4.25-4-4.26l-10.48,0q-40.18,0-80.39,0c-3.12,0-5.2.92-5.49,4.36-.52,6.28.58,8.64,4.66,9.09,8.1.89,16.21,1.77,24.33,2.33,6.27.44,6.42.3,6.42,6.55q0,60.51,0,121c0,9.58-.13,19.18-.86,28.71a81.74,81.74,0,0,1-3.41,19c-5.69,17.37-19.21,26-36.24,28.93-18,3.06-36.1,3.31-54-1.31C357,491.75,345.06,480.2,342,463A229,229,0,0,1,339,427.45c-.38-21.35.14-42.72.2-64.08s.11-42.81,0-64.22c0-4,1.5-5.46,5.4-5.67,7.57-.41,15.16-.94,22.68-1.88,8.15-1,7.46-2,7.38-9.68,0-2.61-1.46-4.44-4.59-4.34-4.36.13-8.74.07-13.11.07q-38.51,0-77,0c-5.11,0-5.59.53-5.62,5.58,0,1,.07,2,0,3-.18,2.81.77,4.58,3.87,4.9,7.38.75,14.74,1.87,22.15,2.36,6.57.44,6.9.45,6.91,7.07Q307.27,336,307.26,371.59ZM113.6,480.22h0c0,7.76.08,15.52,0,23.27,0,3.15.67,5.62,4,6.49,6.23,1.6,12.46,3.24,18.73,4.66a150.7,150.7,0,0,0,51.54,3.07c14.71-1.76,28.59-5.88,41.17-14,27.4-17.61,35-43.3,30.45-71.7-2.31-14.59-11.14-25.51-22.61-34.37-13-10.07-28.15-16.35-42.79-23.54C182.45,368.47,170.62,363,159.9,356c-14.64-9.65-19.88-24.32-16-41.3,3.51-15.19,15.25-23,29.28-26.85,14.7-4,29.27-1.53,43.46,3.62,3,1.08,4.65,2.75,5.18,5.88,1.4,8.29,3.1,16.52,4.37,24.82,2.1,13.8,2.77,14.49,15.46,13.66,3.56-.23,5.28-1.79,5.26-5.58q-.12-23.49.09-47c0-3.5-1.38-5.44-4.76-6.38-17.85-5-36-7.83-54.53-7.52-23.93.41-44.76,8-60.76,26.41-14.06,16.19-18.76,35.1-13.86,55.81,3.4,14.38,12.82,24.93,24.73,33.52,14.74,10.64,31.42,17.47,47.67,25.16,12,5.68,23.7,11.69,32.43,22.18,8,9.65,11.61,20.77,9.55,33-2.6,15.47-12.38,25.54-26.85,31-17.54,6.58-35.43,5.29-53.2,1.13-3.34-.78-7.72-1.72-8.55-6.43-.76-4.28-1.31-8.6-2.07-12.88-1.35-7.59-2.67-15.2-4.29-22.75-.28-1.29-1.92-3.12-3.08-3.23-4.15-.41-8.37-.11-12.56-.21-2.67-.07-3.36,1.28-3.34,3.67C113.65,463.86,113.6,472,113.6,480.22Z" transform="translate(-25.12 -110)"/><path class="cls-3" d="M307.25,371.59q0-35.54,0-71.08c0-6.62-.34-6.63-6.91-7.07-7.41-.49-14.77-1.61-22.15-2.36-3.1-.32-4.05-2.09-3.87-4.9.06-1,0-2,0-3,0-5.05.51-5.58,5.62-5.58q38.51,0,77,0c4.37,0,8.75.06,13.11-.07,3.13-.1,4.57,1.73,4.59,4.34.08,7.66.77,8.66-7.38,9.68-7.52.94-15.11,1.47-22.68,1.88-3.9.21-5.42,1.66-5.4,5.67.13,21.41.09,42.82,0,64.22s-.58,42.73-.2,64.08A229,229,0,0,0,342,463c3,17.16,15,28.71,32.46,33.23,17.92,4.62,36.06,4.37,54,1.31,17-2.9,30.55-11.56,36.24-28.93a81.74,81.74,0,0,0,3.41-19c.73-9.53.84-19.13.86-28.71q.12-60.49,0-121c0-6.25-.15-6.11-6.42-6.55-8.12-.56-16.23-1.44-24.33-2.33-4.08-.45-5.18-2.81-4.66-9.09.29-3.44,2.37-4.37,5.49-4.36q40.2.08,80.39,0l10.48,0c2.84,0,3.89,1.45,4,4.26.23,8.38-.6,9.28-9,9.84-6.72.46-13.43,1.19-20.15,1.74-3.31.27-4.09,2.23-4.07,5.19.08,11.7,0,23.41,0,35.12,0,37.93.39,75.88-.28,113.8-.27,15.19-3.22,30.21-13.24,42.76-12.63,15.82-29.25,24.56-48.88,28.27a195.26,195.26,0,0,1-49.05,2.57c-17.13-1.11-33.73-4.23-48.61-13.38-13.83-8.5-24.33-19.92-29.19-35.7a67.4,67.4,0,0,1-3.19-16.87c-.69-17.16-.84-34.35-1.07-51.53C307.15,393,307.26,382.31,307.25,371.59Z" transform="translate(-25.12 -110)"/><path class="cls-3" d="M113.6,480.22c0-8.18.05-16.36,0-24.54,0-2.39.67-3.74,3.34-3.67,4.19.1,8.41-.2,12.56.21,1.16.11,2.8,1.94,3.08,3.23,1.62,7.55,2.94,15.16,4.29,22.75.76,4.28,1.31,8.6,2.07,12.88.83,4.71,5.21,5.65,8.55,6.43,17.77,4.16,35.66,5.45,53.2-1.13,14.47-5.43,24.25-15.5,26.85-31,2.06-12.22-1.52-23.34-9.55-33-8.73-10.49-20.42-16.5-32.43-22.18-16.25-7.69-32.93-14.52-47.67-25.16-11.91-8.59-21.33-19.14-24.73-33.52-4.9-20.71-.2-39.62,13.86-55.81,16-18.43,36.83-26,60.76-26.41,18.57-.31,36.68,2.56,54.53,7.52,3.38.94,4.78,2.88,4.76,6.38q-.18,23.49-.09,47c0,3.79-1.7,5.35-5.26,5.58-12.69.83-13.36.14-15.46-13.66-1.27-8.3-3-16.53-4.37-24.82-.53-3.13-2.2-4.8-5.18-5.88-14.19-5.15-28.76-7.66-43.46-3.62-14,3.86-25.77,11.66-29.28,26.85-3.93,17,1.31,31.65,16,41.3,10.72,7.07,22.55,12.51,34.13,18.19,14.64,7.19,29.76,13.47,42.79,23.54,11.47,8.86,20.3,19.78,22.61,34.37,4.51,28.4-3.05,54.09-30.45,71.7-12.58,8.07-26.46,12.19-41.17,14a150.7,150.7,0,0,1-51.54-3.07c-6.27-1.42-12.5-3.06-18.73-4.66-3.36-.87-4.07-3.34-4-6.49.12-7.75,0-15.51,0-23.27Z" transform="translate(-25.12 -110)"/><text class="cls-4" transform="translate(74.41 511.24) scale(0.98 1)">S<tspan class="cls-5" x="38.1" y="0">TUYVE</tspan><tspan class="cls-6" x="256.92" y="0">S</tspan><tspan class="cls-7" x="295.44" y="0">ANT</tspan></text></g><g class="cls-8"><circle class="cls-9" cx="286" cy="286" r="277.5"/></g></svg>